M48
; DRILL file {KiCad 9.0.5} date 2025-10-15T11:26:40+0200
; FORMAT={-:-/ absolute / metric / decimal}
; #@! TF.CreationDate,2025-10-15T11:26:40+02:00
; #@! TF.GenerationSoftware,Kicad,Pcbnew,9.0.5
; #@! TF.FileFunction,NonPlated,1,2,NPTH
FMAT,2
METRIC
; #@! TA.AperFunction,NonPlated,NPTH,ComponentDrill
T1C1.050
; #@! TA.AperFunction,NonPlated,NPTH,ComponentDrill
T2C1.200
%
G90
G05
T1
X52.4Y-38.1
X52.4Y-55.7
X52.4Y-73.3
X52.4Y-90.9
X71.4Y-38.1
X71.4Y-55.7
X71.4Y-73.3
X71.4Y-90.9
X90.4Y-38.1
X90.4Y-55.7
X90.4Y-73.3
X90.4Y-90.9
X109.4Y-38.1
X109.4Y-55.7
X109.4Y-73.3
X109.4Y-90.9
X128.4Y-38.1
X128.4Y-55.7
X128.4Y-73.3
X128.4Y-90.9
T2
X64.0Y-33.64
X64.0Y-40.16
X64.0Y-51.24
X64.0Y-57.76
X64.0Y-68.84
X64.0Y-75.36
X64.0Y-86.44
X64.0Y-92.96
X83.0Y-33.64
X83.0Y-40.16
X83.0Y-51.24
X83.0Y-57.76
X83.0Y-68.84
X83.0Y-75.36
X83.0Y-86.44
X83.0Y-92.96
X102.0Y-33.64
X102.0Y-40.16
X102.0Y-51.24
X102.0Y-57.76
X102.0Y-68.84
X102.0Y-75.36
X102.0Y-86.44
X102.0Y-92.96
X121.0Y-33.64
X121.0Y-40.16
X121.0Y-51.24
X121.0Y-57.76
X121.0Y-68.84
X121.0Y-75.36
X121.0Y-86.44
X121.0Y-92.96
X140.0Y-33.64
X140.0Y-40.16
X140.0Y-51.24
X140.0Y-57.76
X140.0Y-68.84
X140.0Y-75.36
X140.0Y-86.44
X140.0Y-92.96
M30
