%TF.GenerationSoftware,KiCad,Pcbnew,9.0.5*%
%TF.CreationDate,2025-10-15T11:26:38+02:00*%
%TF.ProjectId,numpad,6e756d70-6164-42e6-9b69-6361645f7063,rev?*%
%TF.SameCoordinates,Original*%
%TF.FileFunction,Soldermask,Bot*%
%TF.FilePolarity,Negative*%
%FSLAX46Y46*%
G04 Gerber Fmt 4.6, Leading zero omitted, Abs format (unit mm)*
G04 Created by KiCad (PCBNEW 9.0.5) date 2025-10-15 11:26:38*
%MOMM*%
%LPD*%
G01*
G04 APERTURE LIST*
%ADD10C,1.050000*%
%ADD11C,1.200000*%
%ADD12O,1.778000X1.397000*%
%ADD13C,1.524000*%
%ADD14O,1.397000X1.778000*%
G04 APERTURE END LIST*
D10*
%TO.C,SW17*%
X71400000Y-90900000D03*
D11*
X83000000Y-86440000D03*
X83000000Y-92960000D03*
%TD*%
D10*
%TO.C,SW15*%
X128400000Y-73300000D03*
D11*
X140000000Y-68840000D03*
X140000000Y-75360000D03*
%TD*%
D10*
%TO.C,SW14*%
X109400000Y-73300000D03*
D11*
X121000000Y-68840000D03*
X121000000Y-75360000D03*
%TD*%
D10*
%TO.C,SW2*%
X71400000Y-38100000D03*
D11*
X83000000Y-33640000D03*
X83000000Y-40160000D03*
%TD*%
D10*
%TO.C,SW9*%
X109400000Y-55700000D03*
D11*
X121000000Y-51240000D03*
X121000000Y-57760000D03*
%TD*%
D12*
%TO.C,RSW1*%
X46212000Y-72261000D03*
X46212000Y-65761000D03*
%TD*%
D10*
%TO.C,SW5*%
X128400000Y-38100000D03*
D11*
X140000000Y-33640000D03*
X140000000Y-40160000D03*
%TD*%
D10*
%TO.C,SW6*%
X52400000Y-55700000D03*
D11*
X64000000Y-51240000D03*
X64000000Y-57760000D03*
%TD*%
D10*
%TO.C,SW13*%
X90400000Y-73300000D03*
D11*
X102000000Y-68840000D03*
X102000000Y-75360000D03*
%TD*%
D10*
%TO.C,SW4*%
X109400000Y-38100000D03*
D11*
X121000000Y-33640000D03*
X121000000Y-40160000D03*
%TD*%
D10*
%TO.C,SW19*%
X109400000Y-90900000D03*
D11*
X121000000Y-86440000D03*
X121000000Y-92960000D03*
%TD*%
D10*
%TO.C,SW10*%
X128400000Y-55700000D03*
D11*
X140000000Y-51240000D03*
X140000000Y-57760000D03*
%TD*%
D10*
%TO.C,SW3*%
X90400000Y-38100000D03*
D11*
X102000000Y-33640000D03*
X102000000Y-40160000D03*
%TD*%
D10*
%TO.C,SW7*%
X71400000Y-55700000D03*
D11*
X83000000Y-51240000D03*
X83000000Y-57760000D03*
%TD*%
D10*
%TO.C,SW8*%
X90400000Y-55700000D03*
D11*
X102000000Y-51240000D03*
X102000000Y-57760000D03*
%TD*%
D13*
%TO.C,U1*%
X46211400Y-33422000D03*
X46211400Y-35962000D03*
X46211400Y-38502000D03*
X46211400Y-41042000D03*
X46211400Y-43582000D03*
X46211400Y-46122000D03*
X46211400Y-48662000D03*
X46211400Y-51202000D03*
X46211400Y-53742000D03*
X46211400Y-56282000D03*
X46211400Y-58822000D03*
X46211400Y-61362000D03*
X30991400Y-61362000D03*
X30991400Y-58822000D03*
X30991400Y-56282000D03*
X30991400Y-53742000D03*
X30991400Y-51202000D03*
X30991400Y-48662000D03*
X30991400Y-46122000D03*
X30991400Y-43582000D03*
X30991400Y-41042000D03*
X30991400Y-38502000D03*
X30991400Y-35962000D03*
X30991400Y-33422000D03*
%TD*%
D10*
%TO.C,SW16*%
X52400000Y-90900000D03*
D11*
X64000000Y-86440000D03*
X64000000Y-92960000D03*
%TD*%
D10*
%TO.C,SW12*%
X71400000Y-73300000D03*
D11*
X83000000Y-68840000D03*
X83000000Y-75360000D03*
%TD*%
D10*
%TO.C,SW20*%
X128400000Y-90900000D03*
D11*
X140000000Y-86440000D03*
X140000000Y-92960000D03*
%TD*%
D10*
%TO.C,SW11*%
X52400000Y-73300000D03*
D11*
X64000000Y-68840000D03*
X64000000Y-75360000D03*
%TD*%
D10*
%TO.C,SW1*%
X52400000Y-38100000D03*
D11*
X64000000Y-33640000D03*
X64000000Y-40160000D03*
%TD*%
D10*
%TO.C,SW18*%
X90400000Y-90900000D03*
D11*
X102000000Y-86440000D03*
X102000000Y-92960000D03*
%TD*%
D14*
%TO.C,OLED*%
X34736000Y-68508000D03*
X37276000Y-68508000D03*
X39816000Y-68508000D03*
X42356000Y-68508000D03*
%TD*%
M02*
