%TF.GenerationSoftware,KiCad,Pcbnew,9.0.5*%
%TF.CreationDate,2025-10-15T11:26:38+02:00*%
%TF.ProjectId,numpad,6e756d70-6164-42e6-9b69-6361645f7063,rev?*%
%TF.SameCoordinates,Original*%
%TF.FileFunction,Legend,Top*%
%TF.FilePolarity,Positive*%
%FSLAX46Y46*%
G04 Gerber Fmt 4.6, Leading zero omitted, Abs format (unit mm)*
G04 Created by KiCad (PCBNEW 9.0.5) date 2025-10-15 11:26:38*
%MOMM*%
%LPD*%
G01*
G04 APERTURE LIST*
G04 Aperture macros list*
%AMRoundRect*
0 Rectangle with rounded corners*
0 $1 Rounding radius*
0 $2 $3 $4 $5 $6 $7 $8 $9 X,Y pos of 4 corners*
0 Add a 4 corners polygon primitive as box body*
4,1,4,$2,$3,$4,$5,$6,$7,$8,$9,$2,$3,0*
0 Add four circle primitives for the rounded corners*
1,1,$1+$1,$2,$3*
1,1,$1+$1,$4,$5*
1,1,$1+$1,$6,$7*
1,1,$1+$1,$8,$9*
0 Add four rect primitives between the rounded corners*
20,1,$1+$1,$2,$3,$4,$5,0*
20,1,$1+$1,$4,$5,$6,$7,0*
20,1,$1+$1,$6,$7,$8,$9,0*
20,1,$1+$1,$8,$9,$2,$3,0*%
G04 Aperture macros list end*
%ADD10C,0.150000*%
%ADD11C,0.125000*%
%ADD12C,0.120000*%
%ADD13C,0.100000*%
%ADD14O,1.778000X1.397000*%
%ADD15C,1.524000*%
%ADD16O,1.397000X1.778000*%
%ADD17RoundRect,0.225000X0.375000X-0.225000X0.375000X0.225000X-0.375000X0.225000X-0.375000X-0.225000X0*%
%ADD18C,1.050000*%
%ADD19C,1.200000*%
%ADD20R,0.700000X3.400000*%
%ADD21R,1.600000X3.800000*%
%ADD22R,1.600000X3.000000*%
%ADD23R,1.600000X1.800000*%
%ADD24R,1.600000X2.600000*%
G04 APERTURE END LIST*
D10*
X30979636Y-97369819D02*
X30884398Y-97322200D01*
X30884398Y-97322200D02*
X30836779Y-97226961D01*
X30836779Y-97226961D02*
X30836779Y-96369819D01*
X31360589Y-96703152D02*
X31360589Y-97703152D01*
X31360589Y-96750771D02*
X31455827Y-96703152D01*
X31455827Y-96703152D02*
X31646303Y-96703152D01*
X31646303Y-96703152D02*
X31741541Y-96750771D01*
X31741541Y-96750771D02*
X31789160Y-96798390D01*
X31789160Y-96798390D02*
X31836779Y-96893628D01*
X31836779Y-96893628D02*
X31836779Y-97179342D01*
X31836779Y-97179342D02*
X31789160Y-97274580D01*
X31789160Y-97274580D02*
X31741541Y-97322200D01*
X31741541Y-97322200D02*
X31646303Y-97369819D01*
X31646303Y-97369819D02*
X31455827Y-97369819D01*
X31455827Y-97369819D02*
X31360589Y-97322200D01*
X32265351Y-96988866D02*
X33027256Y-96988866D01*
X33503446Y-96703152D02*
X33503446Y-97369819D01*
X33503446Y-96798390D02*
X33551065Y-96750771D01*
X33551065Y-96750771D02*
X33646303Y-96703152D01*
X33646303Y-96703152D02*
X33789160Y-96703152D01*
X33789160Y-96703152D02*
X33884398Y-96750771D01*
X33884398Y-96750771D02*
X33932017Y-96846009D01*
X33932017Y-96846009D02*
X33932017Y-97369819D01*
X34408208Y-96703152D02*
X34408208Y-97703152D01*
X34408208Y-96750771D02*
X34503446Y-96703152D01*
X34503446Y-96703152D02*
X34693922Y-96703152D01*
X34693922Y-96703152D02*
X34789160Y-96750771D01*
X34789160Y-96750771D02*
X34836779Y-96798390D01*
X34836779Y-96798390D02*
X34884398Y-96893628D01*
X34884398Y-96893628D02*
X34884398Y-97179342D01*
X34884398Y-97179342D02*
X34836779Y-97274580D01*
X34836779Y-97274580D02*
X34789160Y-97322200D01*
X34789160Y-97322200D02*
X34693922Y-97369819D01*
X34693922Y-97369819D02*
X34503446Y-97369819D01*
X34503446Y-97369819D02*
X34408208Y-97322200D01*
X36074875Y-97369819D02*
X36074875Y-96369819D01*
X36074875Y-96369819D02*
X36455827Y-96369819D01*
X36455827Y-96369819D02*
X36551065Y-96417438D01*
X36551065Y-96417438D02*
X36598684Y-96465057D01*
X36598684Y-96465057D02*
X36646303Y-96560295D01*
X36646303Y-96560295D02*
X36646303Y-96703152D01*
X36646303Y-96703152D02*
X36598684Y-96798390D01*
X36598684Y-96798390D02*
X36551065Y-96846009D01*
X36551065Y-96846009D02*
X36455827Y-96893628D01*
X36455827Y-96893628D02*
X36074875Y-96893628D01*
X37646303Y-97274580D02*
X37598684Y-97322200D01*
X37598684Y-97322200D02*
X37455827Y-97369819D01*
X37455827Y-97369819D02*
X37360589Y-97369819D01*
X37360589Y-97369819D02*
X37217732Y-97322200D01*
X37217732Y-97322200D02*
X37122494Y-97226961D01*
X37122494Y-97226961D02*
X37074875Y-97131723D01*
X37074875Y-97131723D02*
X37027256Y-96941247D01*
X37027256Y-96941247D02*
X37027256Y-96798390D01*
X37027256Y-96798390D02*
X37074875Y-96607914D01*
X37074875Y-96607914D02*
X37122494Y-96512676D01*
X37122494Y-96512676D02*
X37217732Y-96417438D01*
X37217732Y-96417438D02*
X37360589Y-96369819D01*
X37360589Y-96369819D02*
X37455827Y-96369819D01*
X37455827Y-96369819D02*
X37598684Y-96417438D01*
X37598684Y-96417438D02*
X37646303Y-96465057D01*
X38408208Y-96846009D02*
X38551065Y-96893628D01*
X38551065Y-96893628D02*
X38598684Y-96941247D01*
X38598684Y-96941247D02*
X38646303Y-97036485D01*
X38646303Y-97036485D02*
X38646303Y-97179342D01*
X38646303Y-97179342D02*
X38598684Y-97274580D01*
X38598684Y-97274580D02*
X38551065Y-97322200D01*
X38551065Y-97322200D02*
X38455827Y-97369819D01*
X38455827Y-97369819D02*
X38074875Y-97369819D01*
X38074875Y-97369819D02*
X38074875Y-96369819D01*
X38074875Y-96369819D02*
X38408208Y-96369819D01*
X38408208Y-96369819D02*
X38503446Y-96417438D01*
X38503446Y-96417438D02*
X38551065Y-96465057D01*
X38551065Y-96465057D02*
X38598684Y-96560295D01*
X38598684Y-96560295D02*
X38598684Y-96655533D01*
X38598684Y-96655533D02*
X38551065Y-96750771D01*
X38551065Y-96750771D02*
X38503446Y-96798390D01*
X38503446Y-96798390D02*
X38408208Y-96846009D01*
X38408208Y-96846009D02*
X38074875Y-96846009D01*
X39836780Y-97369819D02*
X39836780Y-96369819D01*
X39836780Y-96369819D02*
X40074875Y-96369819D01*
X40074875Y-96369819D02*
X40217732Y-96417438D01*
X40217732Y-96417438D02*
X40312970Y-96512676D01*
X40312970Y-96512676D02*
X40360589Y-96607914D01*
X40360589Y-96607914D02*
X40408208Y-96798390D01*
X40408208Y-96798390D02*
X40408208Y-96941247D01*
X40408208Y-96941247D02*
X40360589Y-97131723D01*
X40360589Y-97131723D02*
X40312970Y-97226961D01*
X40312970Y-97226961D02*
X40217732Y-97322200D01*
X40217732Y-97322200D02*
X40074875Y-97369819D01*
X40074875Y-97369819D02*
X39836780Y-97369819D01*
X41217732Y-97322200D02*
X41122494Y-97369819D01*
X41122494Y-97369819D02*
X40932018Y-97369819D01*
X40932018Y-97369819D02*
X40836780Y-97322200D01*
X40836780Y-97322200D02*
X40789161Y-97226961D01*
X40789161Y-97226961D02*
X40789161Y-96846009D01*
X40789161Y-96846009D02*
X40836780Y-96750771D01*
X40836780Y-96750771D02*
X40932018Y-96703152D01*
X40932018Y-96703152D02*
X41122494Y-96703152D01*
X41122494Y-96703152D02*
X41217732Y-96750771D01*
X41217732Y-96750771D02*
X41265351Y-96846009D01*
X41265351Y-96846009D02*
X41265351Y-96941247D01*
X41265351Y-96941247D02*
X40789161Y-97036485D01*
X41646304Y-97322200D02*
X41741542Y-97369819D01*
X41741542Y-97369819D02*
X41932018Y-97369819D01*
X41932018Y-97369819D02*
X42027256Y-97322200D01*
X42027256Y-97322200D02*
X42074875Y-97226961D01*
X42074875Y-97226961D02*
X42074875Y-97179342D01*
X42074875Y-97179342D02*
X42027256Y-97084104D01*
X42027256Y-97084104D02*
X41932018Y-97036485D01*
X41932018Y-97036485D02*
X41789161Y-97036485D01*
X41789161Y-97036485D02*
X41693923Y-96988866D01*
X41693923Y-96988866D02*
X41646304Y-96893628D01*
X41646304Y-96893628D02*
X41646304Y-96846009D01*
X41646304Y-96846009D02*
X41693923Y-96750771D01*
X41693923Y-96750771D02*
X41789161Y-96703152D01*
X41789161Y-96703152D02*
X41932018Y-96703152D01*
X41932018Y-96703152D02*
X42027256Y-96750771D01*
X42503447Y-97369819D02*
X42503447Y-96703152D01*
X42503447Y-96369819D02*
X42455828Y-96417438D01*
X42455828Y-96417438D02*
X42503447Y-96465057D01*
X42503447Y-96465057D02*
X42551066Y-96417438D01*
X42551066Y-96417438D02*
X42503447Y-96369819D01*
X42503447Y-96369819D02*
X42503447Y-96465057D01*
X43408208Y-96703152D02*
X43408208Y-97512676D01*
X43408208Y-97512676D02*
X43360589Y-97607914D01*
X43360589Y-97607914D02*
X43312970Y-97655533D01*
X43312970Y-97655533D02*
X43217732Y-97703152D01*
X43217732Y-97703152D02*
X43074875Y-97703152D01*
X43074875Y-97703152D02*
X42979637Y-97655533D01*
X43408208Y-97322200D02*
X43312970Y-97369819D01*
X43312970Y-97369819D02*
X43122494Y-97369819D01*
X43122494Y-97369819D02*
X43027256Y-97322200D01*
X43027256Y-97322200D02*
X42979637Y-97274580D01*
X42979637Y-97274580D02*
X42932018Y-97179342D01*
X42932018Y-97179342D02*
X42932018Y-96893628D01*
X42932018Y-96893628D02*
X42979637Y-96798390D01*
X42979637Y-96798390D02*
X43027256Y-96750771D01*
X43027256Y-96750771D02*
X43122494Y-96703152D01*
X43122494Y-96703152D02*
X43312970Y-96703152D01*
X43312970Y-96703152D02*
X43408208Y-96750771D01*
X43884399Y-96703152D02*
X43884399Y-97369819D01*
X43884399Y-96798390D02*
X43932018Y-96750771D01*
X43932018Y-96750771D02*
X44027256Y-96703152D01*
X44027256Y-96703152D02*
X44170113Y-96703152D01*
X44170113Y-96703152D02*
X44265351Y-96750771D01*
X44265351Y-96750771D02*
X44312970Y-96846009D01*
X44312970Y-96846009D02*
X44312970Y-97369819D01*
X45170113Y-97322200D02*
X45074875Y-97369819D01*
X45074875Y-97369819D02*
X44884399Y-97369819D01*
X44884399Y-97369819D02*
X44789161Y-97322200D01*
X44789161Y-97322200D02*
X44741542Y-97226961D01*
X44741542Y-97226961D02*
X44741542Y-96846009D01*
X44741542Y-96846009D02*
X44789161Y-96750771D01*
X44789161Y-96750771D02*
X44884399Y-96703152D01*
X44884399Y-96703152D02*
X45074875Y-96703152D01*
X45074875Y-96703152D02*
X45170113Y-96750771D01*
X45170113Y-96750771D02*
X45217732Y-96846009D01*
X45217732Y-96846009D02*
X45217732Y-96941247D01*
X45217732Y-96941247D02*
X44741542Y-97036485D01*
X46074875Y-97369819D02*
X46074875Y-96369819D01*
X46074875Y-97322200D02*
X45979637Y-97369819D01*
X45979637Y-97369819D02*
X45789161Y-97369819D01*
X45789161Y-97369819D02*
X45693923Y-97322200D01*
X45693923Y-97322200D02*
X45646304Y-97274580D01*
X45646304Y-97274580D02*
X45598685Y-97179342D01*
X45598685Y-97179342D02*
X45598685Y-96893628D01*
X45598685Y-96893628D02*
X45646304Y-96798390D01*
X45646304Y-96798390D02*
X45693923Y-96750771D01*
X45693923Y-96750771D02*
X45789161Y-96703152D01*
X45789161Y-96703152D02*
X45979637Y-96703152D01*
X45979637Y-96703152D02*
X46074875Y-96750771D01*
X47312971Y-97369819D02*
X47312971Y-96369819D01*
X47312971Y-96750771D02*
X47408209Y-96703152D01*
X47408209Y-96703152D02*
X47598685Y-96703152D01*
X47598685Y-96703152D02*
X47693923Y-96750771D01*
X47693923Y-96750771D02*
X47741542Y-96798390D01*
X47741542Y-96798390D02*
X47789161Y-96893628D01*
X47789161Y-96893628D02*
X47789161Y-97179342D01*
X47789161Y-97179342D02*
X47741542Y-97274580D01*
X47741542Y-97274580D02*
X47693923Y-97322200D01*
X47693923Y-97322200D02*
X47598685Y-97369819D01*
X47598685Y-97369819D02*
X47408209Y-97369819D01*
X47408209Y-97369819D02*
X47312971Y-97322200D01*
X48122495Y-96703152D02*
X48360590Y-97369819D01*
X48598685Y-96703152D02*
X48360590Y-97369819D01*
X48360590Y-97369819D02*
X48265352Y-97607914D01*
X48265352Y-97607914D02*
X48217733Y-97655533D01*
X48217733Y-97655533D02*
X48122495Y-97703152D01*
X49741543Y-97369819D02*
X49741543Y-96369819D01*
X49741543Y-96369819D02*
X49979638Y-96369819D01*
X49979638Y-96369819D02*
X50122495Y-96417438D01*
X50122495Y-96417438D02*
X50217733Y-96512676D01*
X50217733Y-96512676D02*
X50265352Y-96607914D01*
X50265352Y-96607914D02*
X50312971Y-96798390D01*
X50312971Y-96798390D02*
X50312971Y-96941247D01*
X50312971Y-96941247D02*
X50265352Y-97131723D01*
X50265352Y-97131723D02*
X50217733Y-97226961D01*
X50217733Y-97226961D02*
X50122495Y-97322200D01*
X50122495Y-97322200D02*
X49979638Y-97369819D01*
X49979638Y-97369819D02*
X49741543Y-97369819D01*
X50884400Y-97369819D02*
X50789162Y-97322200D01*
X50789162Y-97322200D02*
X50741543Y-97274580D01*
X50741543Y-97274580D02*
X50693924Y-97179342D01*
X50693924Y-97179342D02*
X50693924Y-96893628D01*
X50693924Y-96893628D02*
X50741543Y-96798390D01*
X50741543Y-96798390D02*
X50789162Y-96750771D01*
X50789162Y-96750771D02*
X50884400Y-96703152D01*
X50884400Y-96703152D02*
X51027257Y-96703152D01*
X51027257Y-96703152D02*
X51122495Y-96750771D01*
X51122495Y-96750771D02*
X51170114Y-96798390D01*
X51170114Y-96798390D02*
X51217733Y-96893628D01*
X51217733Y-96893628D02*
X51217733Y-97179342D01*
X51217733Y-97179342D02*
X51170114Y-97274580D01*
X51170114Y-97274580D02*
X51122495Y-97322200D01*
X51122495Y-97322200D02*
X51027257Y-97369819D01*
X51027257Y-97369819D02*
X50884400Y-97369819D01*
X51789162Y-97369819D02*
X51693924Y-97322200D01*
X51693924Y-97322200D02*
X51646305Y-97274580D01*
X51646305Y-97274580D02*
X51598686Y-97179342D01*
X51598686Y-97179342D02*
X51598686Y-96893628D01*
X51598686Y-96893628D02*
X51646305Y-96798390D01*
X51646305Y-96798390D02*
X51693924Y-96750771D01*
X51693924Y-96750771D02*
X51789162Y-96703152D01*
X51789162Y-96703152D02*
X51932019Y-96703152D01*
X51932019Y-96703152D02*
X52027257Y-96750771D01*
X52027257Y-96750771D02*
X52074876Y-96798390D01*
X52074876Y-96798390D02*
X52122495Y-96893628D01*
X52122495Y-96893628D02*
X52122495Y-97179342D01*
X52122495Y-97179342D02*
X52074876Y-97274580D01*
X52074876Y-97274580D02*
X52027257Y-97322200D01*
X52027257Y-97322200D02*
X51932019Y-97369819D01*
X51932019Y-97369819D02*
X51789162Y-97369819D01*
X52408210Y-96703152D02*
X52789162Y-96703152D01*
X52551067Y-97369819D02*
X52551067Y-96512676D01*
X52551067Y-96512676D02*
X52598686Y-96417438D01*
X52598686Y-96417438D02*
X52693924Y-96369819D01*
X52693924Y-96369819D02*
X52789162Y-96369819D01*
X53122496Y-97369819D02*
X53122496Y-96369819D01*
X53122496Y-96369819D02*
X53455829Y-97084104D01*
X53455829Y-97084104D02*
X53789162Y-96369819D01*
X53789162Y-96369819D02*
X53789162Y-97369819D01*
X54693924Y-97369819D02*
X54693924Y-96846009D01*
X54693924Y-96846009D02*
X54646305Y-96750771D01*
X54646305Y-96750771D02*
X54551067Y-96703152D01*
X54551067Y-96703152D02*
X54360591Y-96703152D01*
X54360591Y-96703152D02*
X54265353Y-96750771D01*
X54693924Y-97322200D02*
X54598686Y-97369819D01*
X54598686Y-97369819D02*
X54360591Y-97369819D01*
X54360591Y-97369819D02*
X54265353Y-97322200D01*
X54265353Y-97322200D02*
X54217734Y-97226961D01*
X54217734Y-97226961D02*
X54217734Y-97131723D01*
X54217734Y-97131723D02*
X54265353Y-97036485D01*
X54265353Y-97036485D02*
X54360591Y-96988866D01*
X54360591Y-96988866D02*
X54598686Y-96988866D01*
X54598686Y-96988866D02*
X54693924Y-96941247D01*
X55170115Y-97369819D02*
X55170115Y-96703152D01*
X55170115Y-96893628D02*
X55217734Y-96798390D01*
X55217734Y-96798390D02*
X55265353Y-96750771D01*
X55265353Y-96750771D02*
X55360591Y-96703152D01*
X55360591Y-96703152D02*
X55455829Y-96703152D01*
X55741544Y-97322200D02*
X55836782Y-97369819D01*
X55836782Y-97369819D02*
X56027258Y-97369819D01*
X56027258Y-97369819D02*
X56122496Y-97322200D01*
X56122496Y-97322200D02*
X56170115Y-97226961D01*
X56170115Y-97226961D02*
X56170115Y-97179342D01*
X56170115Y-97179342D02*
X56122496Y-97084104D01*
X56122496Y-97084104D02*
X56027258Y-97036485D01*
X56027258Y-97036485D02*
X55884401Y-97036485D01*
X55884401Y-97036485D02*
X55789163Y-96988866D01*
X55789163Y-96988866D02*
X55741544Y-96893628D01*
X55741544Y-96893628D02*
X55741544Y-96846009D01*
X55741544Y-96846009D02*
X55789163Y-96750771D01*
X55789163Y-96750771D02*
X55884401Y-96703152D01*
X55884401Y-96703152D02*
X56027258Y-96703152D01*
X56027258Y-96703152D02*
X56122496Y-96750771D01*
X57312973Y-96465057D02*
X57360592Y-96417438D01*
X57360592Y-96417438D02*
X57455830Y-96369819D01*
X57455830Y-96369819D02*
X57693925Y-96369819D01*
X57693925Y-96369819D02*
X57789163Y-96417438D01*
X57789163Y-96417438D02*
X57836782Y-96465057D01*
X57836782Y-96465057D02*
X57884401Y-96560295D01*
X57884401Y-96560295D02*
X57884401Y-96655533D01*
X57884401Y-96655533D02*
X57836782Y-96798390D01*
X57836782Y-96798390D02*
X57265354Y-97369819D01*
X57265354Y-97369819D02*
X57884401Y-97369819D01*
X58503449Y-96369819D02*
X58598687Y-96369819D01*
X58598687Y-96369819D02*
X58693925Y-96417438D01*
X58693925Y-96417438D02*
X58741544Y-96465057D01*
X58741544Y-96465057D02*
X58789163Y-96560295D01*
X58789163Y-96560295D02*
X58836782Y-96750771D01*
X58836782Y-96750771D02*
X58836782Y-96988866D01*
X58836782Y-96988866D02*
X58789163Y-97179342D01*
X58789163Y-97179342D02*
X58741544Y-97274580D01*
X58741544Y-97274580D02*
X58693925Y-97322200D01*
X58693925Y-97322200D02*
X58598687Y-97369819D01*
X58598687Y-97369819D02*
X58503449Y-97369819D01*
X58503449Y-97369819D02*
X58408211Y-97322200D01*
X58408211Y-97322200D02*
X58360592Y-97274580D01*
X58360592Y-97274580D02*
X58312973Y-97179342D01*
X58312973Y-97179342D02*
X58265354Y-96988866D01*
X58265354Y-96988866D02*
X58265354Y-96750771D01*
X58265354Y-96750771D02*
X58312973Y-96560295D01*
X58312973Y-96560295D02*
X58360592Y-96465057D01*
X58360592Y-96465057D02*
X58408211Y-96417438D01*
X58408211Y-96417438D02*
X58503449Y-96369819D01*
X59217735Y-96465057D02*
X59265354Y-96417438D01*
X59265354Y-96417438D02*
X59360592Y-96369819D01*
X59360592Y-96369819D02*
X59598687Y-96369819D01*
X59598687Y-96369819D02*
X59693925Y-96417438D01*
X59693925Y-96417438D02*
X59741544Y-96465057D01*
X59741544Y-96465057D02*
X59789163Y-96560295D01*
X59789163Y-96560295D02*
X59789163Y-96655533D01*
X59789163Y-96655533D02*
X59741544Y-96798390D01*
X59741544Y-96798390D02*
X59170116Y-97369819D01*
X59170116Y-97369819D02*
X59789163Y-97369819D01*
X60693925Y-96369819D02*
X60217735Y-96369819D01*
X60217735Y-96369819D02*
X60170116Y-96846009D01*
X60170116Y-96846009D02*
X60217735Y-96798390D01*
X60217735Y-96798390D02*
X60312973Y-96750771D01*
X60312973Y-96750771D02*
X60551068Y-96750771D01*
X60551068Y-96750771D02*
X60646306Y-96798390D01*
X60646306Y-96798390D02*
X60693925Y-96846009D01*
X60693925Y-96846009D02*
X60741544Y-96941247D01*
X60741544Y-96941247D02*
X60741544Y-97179342D01*
X60741544Y-97179342D02*
X60693925Y-97274580D01*
X60693925Y-97274580D02*
X60646306Y-97322200D01*
X60646306Y-97322200D02*
X60551068Y-97369819D01*
X60551068Y-97369819D02*
X60312973Y-97369819D01*
X60312973Y-97369819D02*
X60217735Y-97322200D01*
X60217735Y-97322200D02*
X60170116Y-97274580D01*
X61836783Y-96703152D02*
X62074878Y-97369819D01*
X62074878Y-97369819D02*
X62312973Y-96703152D01*
X63217735Y-97369819D02*
X62646307Y-97369819D01*
X62932021Y-97369819D02*
X62932021Y-96369819D01*
X62932021Y-96369819D02*
X62836783Y-96512676D01*
X62836783Y-96512676D02*
X62741545Y-96607914D01*
X62741545Y-96607914D02*
X62646307Y-96655533D01*
X63646307Y-97274580D02*
X63693926Y-97322200D01*
X63693926Y-97322200D02*
X63646307Y-97369819D01*
X63646307Y-97369819D02*
X63598688Y-97322200D01*
X63598688Y-97322200D02*
X63646307Y-97274580D01*
X63646307Y-97274580D02*
X63646307Y-97369819D01*
X64312973Y-96369819D02*
X64408211Y-96369819D01*
X64408211Y-96369819D02*
X64503449Y-96417438D01*
X64503449Y-96417438D02*
X64551068Y-96465057D01*
X64551068Y-96465057D02*
X64598687Y-96560295D01*
X64598687Y-96560295D02*
X64646306Y-96750771D01*
X64646306Y-96750771D02*
X64646306Y-96988866D01*
X64646306Y-96988866D02*
X64598687Y-97179342D01*
X64598687Y-97179342D02*
X64551068Y-97274580D01*
X64551068Y-97274580D02*
X64503449Y-97322200D01*
X64503449Y-97322200D02*
X64408211Y-97369819D01*
X64408211Y-97369819D02*
X64312973Y-97369819D01*
X64312973Y-97369819D02*
X64217735Y-97322200D01*
X64217735Y-97322200D02*
X64170116Y-97274580D01*
X64170116Y-97274580D02*
X64122497Y-97179342D01*
X64122497Y-97179342D02*
X64074878Y-96988866D01*
X64074878Y-96988866D02*
X64074878Y-96750771D01*
X64074878Y-96750771D02*
X64122497Y-96560295D01*
X64122497Y-96560295D02*
X64170116Y-96465057D01*
X64170116Y-96465057D02*
X64217735Y-96417438D01*
X64217735Y-96417438D02*
X64312973Y-96369819D01*
X42404819Y-82588094D02*
X41404819Y-82588094D01*
X41404819Y-82588094D02*
X41404819Y-82349999D01*
X41404819Y-82349999D02*
X41452438Y-82207142D01*
X41452438Y-82207142D02*
X41547676Y-82111904D01*
X41547676Y-82111904D02*
X41642914Y-82064285D01*
X41642914Y-82064285D02*
X41833390Y-82016666D01*
X41833390Y-82016666D02*
X41976247Y-82016666D01*
X41976247Y-82016666D02*
X42166723Y-82064285D01*
X42166723Y-82064285D02*
X42261961Y-82111904D01*
X42261961Y-82111904D02*
X42357200Y-82207142D01*
X42357200Y-82207142D02*
X42404819Y-82349999D01*
X42404819Y-82349999D02*
X42404819Y-82588094D01*
X42404819Y-81540475D02*
X42404819Y-81349999D01*
X42404819Y-81349999D02*
X42357200Y-81254761D01*
X42357200Y-81254761D02*
X42309580Y-81207142D01*
X42309580Y-81207142D02*
X42166723Y-81111904D01*
X42166723Y-81111904D02*
X41976247Y-81064285D01*
X41976247Y-81064285D02*
X41595295Y-81064285D01*
X41595295Y-81064285D02*
X41500057Y-81111904D01*
X41500057Y-81111904D02*
X41452438Y-81159523D01*
X41452438Y-81159523D02*
X41404819Y-81254761D01*
X41404819Y-81254761D02*
X41404819Y-81445237D01*
X41404819Y-81445237D02*
X41452438Y-81540475D01*
X41452438Y-81540475D02*
X41500057Y-81588094D01*
X41500057Y-81588094D02*
X41595295Y-81635713D01*
X41595295Y-81635713D02*
X41833390Y-81635713D01*
X41833390Y-81635713D02*
X41928628Y-81588094D01*
X41928628Y-81588094D02*
X41976247Y-81540475D01*
X41976247Y-81540475D02*
X42023866Y-81445237D01*
X42023866Y-81445237D02*
X42023866Y-81254761D01*
X42023866Y-81254761D02*
X41976247Y-81159523D01*
X41976247Y-81159523D02*
X41928628Y-81111904D01*
X41928628Y-81111904D02*
X41833390Y-81064285D01*
X38254819Y-82588094D02*
X37254819Y-82588094D01*
X37254819Y-82588094D02*
X37254819Y-82349999D01*
X37254819Y-82349999D02*
X37302438Y-82207142D01*
X37302438Y-82207142D02*
X37397676Y-82111904D01*
X37397676Y-82111904D02*
X37492914Y-82064285D01*
X37492914Y-82064285D02*
X37683390Y-82016666D01*
X37683390Y-82016666D02*
X37826247Y-82016666D01*
X37826247Y-82016666D02*
X38016723Y-82064285D01*
X38016723Y-82064285D02*
X38111961Y-82111904D01*
X38111961Y-82111904D02*
X38207200Y-82207142D01*
X38207200Y-82207142D02*
X38254819Y-82349999D01*
X38254819Y-82349999D02*
X38254819Y-82588094D01*
X37683390Y-81445237D02*
X37635771Y-81540475D01*
X37635771Y-81540475D02*
X37588152Y-81588094D01*
X37588152Y-81588094D02*
X37492914Y-81635713D01*
X37492914Y-81635713D02*
X37445295Y-81635713D01*
X37445295Y-81635713D02*
X37350057Y-81588094D01*
X37350057Y-81588094D02*
X37302438Y-81540475D01*
X37302438Y-81540475D02*
X37254819Y-81445237D01*
X37254819Y-81445237D02*
X37254819Y-81254761D01*
X37254819Y-81254761D02*
X37302438Y-81159523D01*
X37302438Y-81159523D02*
X37350057Y-81111904D01*
X37350057Y-81111904D02*
X37445295Y-81064285D01*
X37445295Y-81064285D02*
X37492914Y-81064285D01*
X37492914Y-81064285D02*
X37588152Y-81111904D01*
X37588152Y-81111904D02*
X37635771Y-81159523D01*
X37635771Y-81159523D02*
X37683390Y-81254761D01*
X37683390Y-81254761D02*
X37683390Y-81445237D01*
X37683390Y-81445237D02*
X37731009Y-81540475D01*
X37731009Y-81540475D02*
X37778628Y-81588094D01*
X37778628Y-81588094D02*
X37873866Y-81635713D01*
X37873866Y-81635713D02*
X38064342Y-81635713D01*
X38064342Y-81635713D02*
X38159580Y-81588094D01*
X38159580Y-81588094D02*
X38207200Y-81540475D01*
X38207200Y-81540475D02*
X38254819Y-81445237D01*
X38254819Y-81445237D02*
X38254819Y-81254761D01*
X38254819Y-81254761D02*
X38207200Y-81159523D01*
X38207200Y-81159523D02*
X38159580Y-81111904D01*
X38159580Y-81111904D02*
X38064342Y-81064285D01*
X38064342Y-81064285D02*
X37873866Y-81064285D01*
X37873866Y-81064285D02*
X37778628Y-81111904D01*
X37778628Y-81111904D02*
X37731009Y-81159523D01*
X37731009Y-81159523D02*
X37683390Y-81254761D01*
X75340476Y-82607200D02*
X75483333Y-82654819D01*
X75483333Y-82654819D02*
X75721428Y-82654819D01*
X75721428Y-82654819D02*
X75816666Y-82607200D01*
X75816666Y-82607200D02*
X75864285Y-82559580D01*
X75864285Y-82559580D02*
X75911904Y-82464342D01*
X75911904Y-82464342D02*
X75911904Y-82369104D01*
X75911904Y-82369104D02*
X75864285Y-82273866D01*
X75864285Y-82273866D02*
X75816666Y-82226247D01*
X75816666Y-82226247D02*
X75721428Y-82178628D01*
X75721428Y-82178628D02*
X75530952Y-82131009D01*
X75530952Y-82131009D02*
X75435714Y-82083390D01*
X75435714Y-82083390D02*
X75388095Y-82035771D01*
X75388095Y-82035771D02*
X75340476Y-81940533D01*
X75340476Y-81940533D02*
X75340476Y-81845295D01*
X75340476Y-81845295D02*
X75388095Y-81750057D01*
X75388095Y-81750057D02*
X75435714Y-81702438D01*
X75435714Y-81702438D02*
X75530952Y-81654819D01*
X75530952Y-81654819D02*
X75769047Y-81654819D01*
X75769047Y-81654819D02*
X75911904Y-81702438D01*
X76245238Y-81654819D02*
X76483333Y-82654819D01*
X76483333Y-82654819D02*
X76673809Y-81940533D01*
X76673809Y-81940533D02*
X76864285Y-82654819D01*
X76864285Y-82654819D02*
X77102381Y-81654819D01*
X78007142Y-82654819D02*
X77435714Y-82654819D01*
X77721428Y-82654819D02*
X77721428Y-81654819D01*
X77721428Y-81654819D02*
X77626190Y-81797676D01*
X77626190Y-81797676D02*
X77530952Y-81892914D01*
X77530952Y-81892914D02*
X77435714Y-81940533D01*
X78340476Y-81654819D02*
X79007142Y-81654819D01*
X79007142Y-81654819D02*
X78578571Y-82654819D01*
X42504819Y-89004285D02*
X41504819Y-89004285D01*
X41504819Y-89004285D02*
X41504819Y-88766190D01*
X41504819Y-88766190D02*
X41552438Y-88623333D01*
X41552438Y-88623333D02*
X41647676Y-88528095D01*
X41647676Y-88528095D02*
X41742914Y-88480476D01*
X41742914Y-88480476D02*
X41933390Y-88432857D01*
X41933390Y-88432857D02*
X42076247Y-88432857D01*
X42076247Y-88432857D02*
X42266723Y-88480476D01*
X42266723Y-88480476D02*
X42361961Y-88528095D01*
X42361961Y-88528095D02*
X42457200Y-88623333D01*
X42457200Y-88623333D02*
X42504819Y-88766190D01*
X42504819Y-88766190D02*
X42504819Y-89004285D01*
X42504819Y-87480476D02*
X42504819Y-88051904D01*
X42504819Y-87766190D02*
X41504819Y-87766190D01*
X41504819Y-87766190D02*
X41647676Y-87861428D01*
X41647676Y-87861428D02*
X41742914Y-87956666D01*
X41742914Y-87956666D02*
X41790533Y-88051904D01*
X41838152Y-86623333D02*
X42504819Y-86623333D01*
X41457200Y-86861428D02*
X42171485Y-87099523D01*
X42171485Y-87099523D02*
X42171485Y-86480476D01*
X132340476Y-65007200D02*
X132483333Y-65054819D01*
X132483333Y-65054819D02*
X132721428Y-65054819D01*
X132721428Y-65054819D02*
X132816666Y-65007200D01*
X132816666Y-65007200D02*
X132864285Y-64959580D01*
X132864285Y-64959580D02*
X132911904Y-64864342D01*
X132911904Y-64864342D02*
X132911904Y-64769104D01*
X132911904Y-64769104D02*
X132864285Y-64673866D01*
X132864285Y-64673866D02*
X132816666Y-64626247D01*
X132816666Y-64626247D02*
X132721428Y-64578628D01*
X132721428Y-64578628D02*
X132530952Y-64531009D01*
X132530952Y-64531009D02*
X132435714Y-64483390D01*
X132435714Y-64483390D02*
X132388095Y-64435771D01*
X132388095Y-64435771D02*
X132340476Y-64340533D01*
X132340476Y-64340533D02*
X132340476Y-64245295D01*
X132340476Y-64245295D02*
X132388095Y-64150057D01*
X132388095Y-64150057D02*
X132435714Y-64102438D01*
X132435714Y-64102438D02*
X132530952Y-64054819D01*
X132530952Y-64054819D02*
X132769047Y-64054819D01*
X132769047Y-64054819D02*
X132911904Y-64102438D01*
X133245238Y-64054819D02*
X133483333Y-65054819D01*
X133483333Y-65054819D02*
X133673809Y-64340533D01*
X133673809Y-64340533D02*
X133864285Y-65054819D01*
X133864285Y-65054819D02*
X134102381Y-64054819D01*
X135007142Y-65054819D02*
X134435714Y-65054819D01*
X134721428Y-65054819D02*
X134721428Y-64054819D01*
X134721428Y-64054819D02*
X134626190Y-64197676D01*
X134626190Y-64197676D02*
X134530952Y-64292914D01*
X134530952Y-64292914D02*
X134435714Y-64340533D01*
X135911904Y-64054819D02*
X135435714Y-64054819D01*
X135435714Y-64054819D02*
X135388095Y-64531009D01*
X135388095Y-64531009D02*
X135435714Y-64483390D01*
X135435714Y-64483390D02*
X135530952Y-64435771D01*
X135530952Y-64435771D02*
X135769047Y-64435771D01*
X135769047Y-64435771D02*
X135864285Y-64483390D01*
X135864285Y-64483390D02*
X135911904Y-64531009D01*
X135911904Y-64531009D02*
X135959523Y-64626247D01*
X135959523Y-64626247D02*
X135959523Y-64864342D01*
X135959523Y-64864342D02*
X135911904Y-64959580D01*
X135911904Y-64959580D02*
X135864285Y-65007200D01*
X135864285Y-65007200D02*
X135769047Y-65054819D01*
X135769047Y-65054819D02*
X135530952Y-65054819D01*
X135530952Y-65054819D02*
X135435714Y-65007200D01*
X135435714Y-65007200D02*
X135388095Y-64959580D01*
X113340476Y-65007200D02*
X113483333Y-65054819D01*
X113483333Y-65054819D02*
X113721428Y-65054819D01*
X113721428Y-65054819D02*
X113816666Y-65007200D01*
X113816666Y-65007200D02*
X113864285Y-64959580D01*
X113864285Y-64959580D02*
X113911904Y-64864342D01*
X113911904Y-64864342D02*
X113911904Y-64769104D01*
X113911904Y-64769104D02*
X113864285Y-64673866D01*
X113864285Y-64673866D02*
X113816666Y-64626247D01*
X113816666Y-64626247D02*
X113721428Y-64578628D01*
X113721428Y-64578628D02*
X113530952Y-64531009D01*
X113530952Y-64531009D02*
X113435714Y-64483390D01*
X113435714Y-64483390D02*
X113388095Y-64435771D01*
X113388095Y-64435771D02*
X113340476Y-64340533D01*
X113340476Y-64340533D02*
X113340476Y-64245295D01*
X113340476Y-64245295D02*
X113388095Y-64150057D01*
X113388095Y-64150057D02*
X113435714Y-64102438D01*
X113435714Y-64102438D02*
X113530952Y-64054819D01*
X113530952Y-64054819D02*
X113769047Y-64054819D01*
X113769047Y-64054819D02*
X113911904Y-64102438D01*
X114245238Y-64054819D02*
X114483333Y-65054819D01*
X114483333Y-65054819D02*
X114673809Y-64340533D01*
X114673809Y-64340533D02*
X114864285Y-65054819D01*
X114864285Y-65054819D02*
X115102381Y-64054819D01*
X116007142Y-65054819D02*
X115435714Y-65054819D01*
X115721428Y-65054819D02*
X115721428Y-64054819D01*
X115721428Y-64054819D02*
X115626190Y-64197676D01*
X115626190Y-64197676D02*
X115530952Y-64292914D01*
X115530952Y-64292914D02*
X115435714Y-64340533D01*
X116864285Y-64388152D02*
X116864285Y-65054819D01*
X116626190Y-64007200D02*
X116388095Y-64721485D01*
X116388095Y-64721485D02*
X117007142Y-64721485D01*
X75816667Y-29807200D02*
X75959524Y-29854819D01*
X75959524Y-29854819D02*
X76197619Y-29854819D01*
X76197619Y-29854819D02*
X76292857Y-29807200D01*
X76292857Y-29807200D02*
X76340476Y-29759580D01*
X76340476Y-29759580D02*
X76388095Y-29664342D01*
X76388095Y-29664342D02*
X76388095Y-29569104D01*
X76388095Y-29569104D02*
X76340476Y-29473866D01*
X76340476Y-29473866D02*
X76292857Y-29426247D01*
X76292857Y-29426247D02*
X76197619Y-29378628D01*
X76197619Y-29378628D02*
X76007143Y-29331009D01*
X76007143Y-29331009D02*
X75911905Y-29283390D01*
X75911905Y-29283390D02*
X75864286Y-29235771D01*
X75864286Y-29235771D02*
X75816667Y-29140533D01*
X75816667Y-29140533D02*
X75816667Y-29045295D01*
X75816667Y-29045295D02*
X75864286Y-28950057D01*
X75864286Y-28950057D02*
X75911905Y-28902438D01*
X75911905Y-28902438D02*
X76007143Y-28854819D01*
X76007143Y-28854819D02*
X76245238Y-28854819D01*
X76245238Y-28854819D02*
X76388095Y-28902438D01*
X76721429Y-28854819D02*
X76959524Y-29854819D01*
X76959524Y-29854819D02*
X77150000Y-29140533D01*
X77150000Y-29140533D02*
X77340476Y-29854819D01*
X77340476Y-29854819D02*
X77578572Y-28854819D01*
X77911905Y-28950057D02*
X77959524Y-28902438D01*
X77959524Y-28902438D02*
X78054762Y-28854819D01*
X78054762Y-28854819D02*
X78292857Y-28854819D01*
X78292857Y-28854819D02*
X78388095Y-28902438D01*
X78388095Y-28902438D02*
X78435714Y-28950057D01*
X78435714Y-28950057D02*
X78483333Y-29045295D01*
X78483333Y-29045295D02*
X78483333Y-29140533D01*
X78483333Y-29140533D02*
X78435714Y-29283390D01*
X78435714Y-29283390D02*
X77864286Y-29854819D01*
X77864286Y-29854819D02*
X78483333Y-29854819D01*
X38354819Y-89004285D02*
X37354819Y-89004285D01*
X37354819Y-89004285D02*
X37354819Y-88766190D01*
X37354819Y-88766190D02*
X37402438Y-88623333D01*
X37402438Y-88623333D02*
X37497676Y-88528095D01*
X37497676Y-88528095D02*
X37592914Y-88480476D01*
X37592914Y-88480476D02*
X37783390Y-88432857D01*
X37783390Y-88432857D02*
X37926247Y-88432857D01*
X37926247Y-88432857D02*
X38116723Y-88480476D01*
X38116723Y-88480476D02*
X38211961Y-88528095D01*
X38211961Y-88528095D02*
X38307200Y-88623333D01*
X38307200Y-88623333D02*
X38354819Y-88766190D01*
X38354819Y-88766190D02*
X38354819Y-89004285D01*
X38354819Y-87480476D02*
X38354819Y-88051904D01*
X38354819Y-87766190D02*
X37354819Y-87766190D01*
X37354819Y-87766190D02*
X37497676Y-87861428D01*
X37497676Y-87861428D02*
X37592914Y-87956666D01*
X37592914Y-87956666D02*
X37640533Y-88051904D01*
X37354819Y-87147142D02*
X37354819Y-86528095D01*
X37354819Y-86528095D02*
X37735771Y-86861428D01*
X37735771Y-86861428D02*
X37735771Y-86718571D01*
X37735771Y-86718571D02*
X37783390Y-86623333D01*
X37783390Y-86623333D02*
X37831009Y-86575714D01*
X37831009Y-86575714D02*
X37926247Y-86528095D01*
X37926247Y-86528095D02*
X38164342Y-86528095D01*
X38164342Y-86528095D02*
X38259580Y-86575714D01*
X38259580Y-86575714D02*
X38307200Y-86623333D01*
X38307200Y-86623333D02*
X38354819Y-86718571D01*
X38354819Y-86718571D02*
X38354819Y-87004285D01*
X38354819Y-87004285D02*
X38307200Y-87099523D01*
X38307200Y-87099523D02*
X38259580Y-87147142D01*
X113816667Y-47407200D02*
X113959524Y-47454819D01*
X113959524Y-47454819D02*
X114197619Y-47454819D01*
X114197619Y-47454819D02*
X114292857Y-47407200D01*
X114292857Y-47407200D02*
X114340476Y-47359580D01*
X114340476Y-47359580D02*
X114388095Y-47264342D01*
X114388095Y-47264342D02*
X114388095Y-47169104D01*
X114388095Y-47169104D02*
X114340476Y-47073866D01*
X114340476Y-47073866D02*
X114292857Y-47026247D01*
X114292857Y-47026247D02*
X114197619Y-46978628D01*
X114197619Y-46978628D02*
X114007143Y-46931009D01*
X114007143Y-46931009D02*
X113911905Y-46883390D01*
X113911905Y-46883390D02*
X113864286Y-46835771D01*
X113864286Y-46835771D02*
X113816667Y-46740533D01*
X113816667Y-46740533D02*
X113816667Y-46645295D01*
X113816667Y-46645295D02*
X113864286Y-46550057D01*
X113864286Y-46550057D02*
X113911905Y-46502438D01*
X113911905Y-46502438D02*
X114007143Y-46454819D01*
X114007143Y-46454819D02*
X114245238Y-46454819D01*
X114245238Y-46454819D02*
X114388095Y-46502438D01*
X114721429Y-46454819D02*
X114959524Y-47454819D01*
X114959524Y-47454819D02*
X115150000Y-46740533D01*
X115150000Y-46740533D02*
X115340476Y-47454819D01*
X115340476Y-47454819D02*
X115578572Y-46454819D01*
X116007143Y-47454819D02*
X116197619Y-47454819D01*
X116197619Y-47454819D02*
X116292857Y-47407200D01*
X116292857Y-47407200D02*
X116340476Y-47359580D01*
X116340476Y-47359580D02*
X116435714Y-47216723D01*
X116435714Y-47216723D02*
X116483333Y-47026247D01*
X116483333Y-47026247D02*
X116483333Y-46645295D01*
X116483333Y-46645295D02*
X116435714Y-46550057D01*
X116435714Y-46550057D02*
X116388095Y-46502438D01*
X116388095Y-46502438D02*
X116292857Y-46454819D01*
X116292857Y-46454819D02*
X116102381Y-46454819D01*
X116102381Y-46454819D02*
X116007143Y-46502438D01*
X116007143Y-46502438D02*
X115959524Y-46550057D01*
X115959524Y-46550057D02*
X115911905Y-46645295D01*
X115911905Y-46645295D02*
X115911905Y-46883390D01*
X115911905Y-46883390D02*
X115959524Y-46978628D01*
X115959524Y-46978628D02*
X116007143Y-47026247D01*
X116007143Y-47026247D02*
X116102381Y-47073866D01*
X116102381Y-47073866D02*
X116292857Y-47073866D01*
X116292857Y-47073866D02*
X116388095Y-47026247D01*
X116388095Y-47026247D02*
X116435714Y-46978628D01*
X116435714Y-46978628D02*
X116483333Y-46883390D01*
X46666819Y-70463381D02*
X46190628Y-70796714D01*
X46666819Y-71034809D02*
X45666819Y-71034809D01*
X45666819Y-71034809D02*
X45666819Y-70653857D01*
X45666819Y-70653857D02*
X45714438Y-70558619D01*
X45714438Y-70558619D02*
X45762057Y-70511000D01*
X45762057Y-70511000D02*
X45857295Y-70463381D01*
X45857295Y-70463381D02*
X46000152Y-70463381D01*
X46000152Y-70463381D02*
X46095390Y-70511000D01*
X46095390Y-70511000D02*
X46143009Y-70558619D01*
X46143009Y-70558619D02*
X46190628Y-70653857D01*
X46190628Y-70653857D02*
X46190628Y-71034809D01*
X46143009Y-70034809D02*
X46143009Y-69701476D01*
X46666819Y-69558619D02*
X46666819Y-70034809D01*
X46666819Y-70034809D02*
X45666819Y-70034809D01*
X45666819Y-70034809D02*
X45666819Y-69558619D01*
X46619200Y-69177666D02*
X46666819Y-69034809D01*
X46666819Y-69034809D02*
X46666819Y-68796714D01*
X46666819Y-68796714D02*
X46619200Y-68701476D01*
X46619200Y-68701476D02*
X46571580Y-68653857D01*
X46571580Y-68653857D02*
X46476342Y-68606238D01*
X46476342Y-68606238D02*
X46381104Y-68606238D01*
X46381104Y-68606238D02*
X46285866Y-68653857D01*
X46285866Y-68653857D02*
X46238247Y-68701476D01*
X46238247Y-68701476D02*
X46190628Y-68796714D01*
X46190628Y-68796714D02*
X46143009Y-68987190D01*
X46143009Y-68987190D02*
X46095390Y-69082428D01*
X46095390Y-69082428D02*
X46047771Y-69130047D01*
X46047771Y-69130047D02*
X45952533Y-69177666D01*
X45952533Y-69177666D02*
X45857295Y-69177666D01*
X45857295Y-69177666D02*
X45762057Y-69130047D01*
X45762057Y-69130047D02*
X45714438Y-69082428D01*
X45714438Y-69082428D02*
X45666819Y-68987190D01*
X45666819Y-68987190D02*
X45666819Y-68749095D01*
X45666819Y-68749095D02*
X45714438Y-68606238D01*
X46143009Y-68177666D02*
X46143009Y-67844333D01*
X46666819Y-67701476D02*
X46666819Y-68177666D01*
X46666819Y-68177666D02*
X45666819Y-68177666D01*
X45666819Y-68177666D02*
X45666819Y-67701476D01*
X45666819Y-67415761D02*
X45666819Y-66844333D01*
X46666819Y-67130047D02*
X45666819Y-67130047D01*
X132816667Y-29807200D02*
X132959524Y-29854819D01*
X132959524Y-29854819D02*
X133197619Y-29854819D01*
X133197619Y-29854819D02*
X133292857Y-29807200D01*
X133292857Y-29807200D02*
X133340476Y-29759580D01*
X133340476Y-29759580D02*
X133388095Y-29664342D01*
X133388095Y-29664342D02*
X133388095Y-29569104D01*
X133388095Y-29569104D02*
X133340476Y-29473866D01*
X133340476Y-29473866D02*
X133292857Y-29426247D01*
X133292857Y-29426247D02*
X133197619Y-29378628D01*
X133197619Y-29378628D02*
X133007143Y-29331009D01*
X133007143Y-29331009D02*
X132911905Y-29283390D01*
X132911905Y-29283390D02*
X132864286Y-29235771D01*
X132864286Y-29235771D02*
X132816667Y-29140533D01*
X132816667Y-29140533D02*
X132816667Y-29045295D01*
X132816667Y-29045295D02*
X132864286Y-28950057D01*
X132864286Y-28950057D02*
X132911905Y-28902438D01*
X132911905Y-28902438D02*
X133007143Y-28854819D01*
X133007143Y-28854819D02*
X133245238Y-28854819D01*
X133245238Y-28854819D02*
X133388095Y-28902438D01*
X133721429Y-28854819D02*
X133959524Y-29854819D01*
X133959524Y-29854819D02*
X134150000Y-29140533D01*
X134150000Y-29140533D02*
X134340476Y-29854819D01*
X134340476Y-29854819D02*
X134578572Y-28854819D01*
X135435714Y-28854819D02*
X134959524Y-28854819D01*
X134959524Y-28854819D02*
X134911905Y-29331009D01*
X134911905Y-29331009D02*
X134959524Y-29283390D01*
X134959524Y-29283390D02*
X135054762Y-29235771D01*
X135054762Y-29235771D02*
X135292857Y-29235771D01*
X135292857Y-29235771D02*
X135388095Y-29283390D01*
X135388095Y-29283390D02*
X135435714Y-29331009D01*
X135435714Y-29331009D02*
X135483333Y-29426247D01*
X135483333Y-29426247D02*
X135483333Y-29664342D01*
X135483333Y-29664342D02*
X135435714Y-29759580D01*
X135435714Y-29759580D02*
X135388095Y-29807200D01*
X135388095Y-29807200D02*
X135292857Y-29854819D01*
X135292857Y-29854819D02*
X135054762Y-29854819D01*
X135054762Y-29854819D02*
X134959524Y-29807200D01*
X134959524Y-29807200D02*
X134911905Y-29759580D01*
X46554819Y-94564285D02*
X45554819Y-94564285D01*
X45554819Y-94564285D02*
X45554819Y-94326190D01*
X45554819Y-94326190D02*
X45602438Y-94183333D01*
X45602438Y-94183333D02*
X45697676Y-94088095D01*
X45697676Y-94088095D02*
X45792914Y-94040476D01*
X45792914Y-94040476D02*
X45983390Y-93992857D01*
X45983390Y-93992857D02*
X46126247Y-93992857D01*
X46126247Y-93992857D02*
X46316723Y-94040476D01*
X46316723Y-94040476D02*
X46411961Y-94088095D01*
X46411961Y-94088095D02*
X46507200Y-94183333D01*
X46507200Y-94183333D02*
X46554819Y-94326190D01*
X46554819Y-94326190D02*
X46554819Y-94564285D01*
X45650057Y-93611904D02*
X45602438Y-93564285D01*
X45602438Y-93564285D02*
X45554819Y-93469047D01*
X45554819Y-93469047D02*
X45554819Y-93230952D01*
X45554819Y-93230952D02*
X45602438Y-93135714D01*
X45602438Y-93135714D02*
X45650057Y-93088095D01*
X45650057Y-93088095D02*
X45745295Y-93040476D01*
X45745295Y-93040476D02*
X45840533Y-93040476D01*
X45840533Y-93040476D02*
X45983390Y-93088095D01*
X45983390Y-93088095D02*
X46554819Y-93659523D01*
X46554819Y-93659523D02*
X46554819Y-93040476D01*
X45554819Y-92421428D02*
X45554819Y-92326190D01*
X45554819Y-92326190D02*
X45602438Y-92230952D01*
X45602438Y-92230952D02*
X45650057Y-92183333D01*
X45650057Y-92183333D02*
X45745295Y-92135714D01*
X45745295Y-92135714D02*
X45935771Y-92088095D01*
X45935771Y-92088095D02*
X46173866Y-92088095D01*
X46173866Y-92088095D02*
X46364342Y-92135714D01*
X46364342Y-92135714D02*
X46459580Y-92183333D01*
X46459580Y-92183333D02*
X46507200Y-92230952D01*
X46507200Y-92230952D02*
X46554819Y-92326190D01*
X46554819Y-92326190D02*
X46554819Y-92421428D01*
X46554819Y-92421428D02*
X46507200Y-92516666D01*
X46507200Y-92516666D02*
X46459580Y-92564285D01*
X46459580Y-92564285D02*
X46364342Y-92611904D01*
X46364342Y-92611904D02*
X46173866Y-92659523D01*
X46173866Y-92659523D02*
X45935771Y-92659523D01*
X45935771Y-92659523D02*
X45745295Y-92611904D01*
X45745295Y-92611904D02*
X45650057Y-92564285D01*
X45650057Y-92564285D02*
X45602438Y-92516666D01*
X45602438Y-92516666D02*
X45554819Y-92421428D01*
X34104819Y-94564285D02*
X33104819Y-94564285D01*
X33104819Y-94564285D02*
X33104819Y-94326190D01*
X33104819Y-94326190D02*
X33152438Y-94183333D01*
X33152438Y-94183333D02*
X33247676Y-94088095D01*
X33247676Y-94088095D02*
X33342914Y-94040476D01*
X33342914Y-94040476D02*
X33533390Y-93992857D01*
X33533390Y-93992857D02*
X33676247Y-93992857D01*
X33676247Y-93992857D02*
X33866723Y-94040476D01*
X33866723Y-94040476D02*
X33961961Y-94088095D01*
X33961961Y-94088095D02*
X34057200Y-94183333D01*
X34057200Y-94183333D02*
X34104819Y-94326190D01*
X34104819Y-94326190D02*
X34104819Y-94564285D01*
X34104819Y-93040476D02*
X34104819Y-93611904D01*
X34104819Y-93326190D02*
X33104819Y-93326190D01*
X33104819Y-93326190D02*
X33247676Y-93421428D01*
X33247676Y-93421428D02*
X33342914Y-93516666D01*
X33342914Y-93516666D02*
X33390533Y-93611904D01*
X33104819Y-92707142D02*
X33104819Y-92040476D01*
X33104819Y-92040476D02*
X34104819Y-92469047D01*
X34104819Y-82588094D02*
X33104819Y-82588094D01*
X33104819Y-82588094D02*
X33104819Y-82349999D01*
X33104819Y-82349999D02*
X33152438Y-82207142D01*
X33152438Y-82207142D02*
X33247676Y-82111904D01*
X33247676Y-82111904D02*
X33342914Y-82064285D01*
X33342914Y-82064285D02*
X33533390Y-82016666D01*
X33533390Y-82016666D02*
X33676247Y-82016666D01*
X33676247Y-82016666D02*
X33866723Y-82064285D01*
X33866723Y-82064285D02*
X33961961Y-82111904D01*
X33961961Y-82111904D02*
X34057200Y-82207142D01*
X34057200Y-82207142D02*
X34104819Y-82349999D01*
X34104819Y-82349999D02*
X34104819Y-82588094D01*
X33104819Y-81683332D02*
X33104819Y-81016666D01*
X33104819Y-81016666D02*
X34104819Y-81445237D01*
X56816667Y-47407200D02*
X56959524Y-47454819D01*
X56959524Y-47454819D02*
X57197619Y-47454819D01*
X57197619Y-47454819D02*
X57292857Y-47407200D01*
X57292857Y-47407200D02*
X57340476Y-47359580D01*
X57340476Y-47359580D02*
X57388095Y-47264342D01*
X57388095Y-47264342D02*
X57388095Y-47169104D01*
X57388095Y-47169104D02*
X57340476Y-47073866D01*
X57340476Y-47073866D02*
X57292857Y-47026247D01*
X57292857Y-47026247D02*
X57197619Y-46978628D01*
X57197619Y-46978628D02*
X57007143Y-46931009D01*
X57007143Y-46931009D02*
X56911905Y-46883390D01*
X56911905Y-46883390D02*
X56864286Y-46835771D01*
X56864286Y-46835771D02*
X56816667Y-46740533D01*
X56816667Y-46740533D02*
X56816667Y-46645295D01*
X56816667Y-46645295D02*
X56864286Y-46550057D01*
X56864286Y-46550057D02*
X56911905Y-46502438D01*
X56911905Y-46502438D02*
X57007143Y-46454819D01*
X57007143Y-46454819D02*
X57245238Y-46454819D01*
X57245238Y-46454819D02*
X57388095Y-46502438D01*
X57721429Y-46454819D02*
X57959524Y-47454819D01*
X57959524Y-47454819D02*
X58150000Y-46740533D01*
X58150000Y-46740533D02*
X58340476Y-47454819D01*
X58340476Y-47454819D02*
X58578572Y-46454819D01*
X59388095Y-46454819D02*
X59197619Y-46454819D01*
X59197619Y-46454819D02*
X59102381Y-46502438D01*
X59102381Y-46502438D02*
X59054762Y-46550057D01*
X59054762Y-46550057D02*
X58959524Y-46692914D01*
X58959524Y-46692914D02*
X58911905Y-46883390D01*
X58911905Y-46883390D02*
X58911905Y-47264342D01*
X58911905Y-47264342D02*
X58959524Y-47359580D01*
X58959524Y-47359580D02*
X59007143Y-47407200D01*
X59007143Y-47407200D02*
X59102381Y-47454819D01*
X59102381Y-47454819D02*
X59292857Y-47454819D01*
X59292857Y-47454819D02*
X59388095Y-47407200D01*
X59388095Y-47407200D02*
X59435714Y-47359580D01*
X59435714Y-47359580D02*
X59483333Y-47264342D01*
X59483333Y-47264342D02*
X59483333Y-47026247D01*
X59483333Y-47026247D02*
X59435714Y-46931009D01*
X59435714Y-46931009D02*
X59388095Y-46883390D01*
X59388095Y-46883390D02*
X59292857Y-46835771D01*
X59292857Y-46835771D02*
X59102381Y-46835771D01*
X59102381Y-46835771D02*
X59007143Y-46883390D01*
X59007143Y-46883390D02*
X58959524Y-46931009D01*
X58959524Y-46931009D02*
X58911905Y-47026247D01*
X29954819Y-77088094D02*
X28954819Y-77088094D01*
X28954819Y-77088094D02*
X28954819Y-76849999D01*
X28954819Y-76849999D02*
X29002438Y-76707142D01*
X29002438Y-76707142D02*
X29097676Y-76611904D01*
X29097676Y-76611904D02*
X29192914Y-76564285D01*
X29192914Y-76564285D02*
X29383390Y-76516666D01*
X29383390Y-76516666D02*
X29526247Y-76516666D01*
X29526247Y-76516666D02*
X29716723Y-76564285D01*
X29716723Y-76564285D02*
X29811961Y-76611904D01*
X29811961Y-76611904D02*
X29907200Y-76707142D01*
X29907200Y-76707142D02*
X29954819Y-76849999D01*
X29954819Y-76849999D02*
X29954819Y-77088094D01*
X29954819Y-75564285D02*
X29954819Y-76135713D01*
X29954819Y-75849999D02*
X28954819Y-75849999D01*
X28954819Y-75849999D02*
X29097676Y-75945237D01*
X29097676Y-75945237D02*
X29192914Y-76040475D01*
X29192914Y-76040475D02*
X29240533Y-76135713D01*
X94340476Y-65007200D02*
X94483333Y-65054819D01*
X94483333Y-65054819D02*
X94721428Y-65054819D01*
X94721428Y-65054819D02*
X94816666Y-65007200D01*
X94816666Y-65007200D02*
X94864285Y-64959580D01*
X94864285Y-64959580D02*
X94911904Y-64864342D01*
X94911904Y-64864342D02*
X94911904Y-64769104D01*
X94911904Y-64769104D02*
X94864285Y-64673866D01*
X94864285Y-64673866D02*
X94816666Y-64626247D01*
X94816666Y-64626247D02*
X94721428Y-64578628D01*
X94721428Y-64578628D02*
X94530952Y-64531009D01*
X94530952Y-64531009D02*
X94435714Y-64483390D01*
X94435714Y-64483390D02*
X94388095Y-64435771D01*
X94388095Y-64435771D02*
X94340476Y-64340533D01*
X94340476Y-64340533D02*
X94340476Y-64245295D01*
X94340476Y-64245295D02*
X94388095Y-64150057D01*
X94388095Y-64150057D02*
X94435714Y-64102438D01*
X94435714Y-64102438D02*
X94530952Y-64054819D01*
X94530952Y-64054819D02*
X94769047Y-64054819D01*
X94769047Y-64054819D02*
X94911904Y-64102438D01*
X95245238Y-64054819D02*
X95483333Y-65054819D01*
X95483333Y-65054819D02*
X95673809Y-64340533D01*
X95673809Y-64340533D02*
X95864285Y-65054819D01*
X95864285Y-65054819D02*
X96102381Y-64054819D01*
X97007142Y-65054819D02*
X96435714Y-65054819D01*
X96721428Y-65054819D02*
X96721428Y-64054819D01*
X96721428Y-64054819D02*
X96626190Y-64197676D01*
X96626190Y-64197676D02*
X96530952Y-64292914D01*
X96530952Y-64292914D02*
X96435714Y-64340533D01*
X97340476Y-64054819D02*
X97959523Y-64054819D01*
X97959523Y-64054819D02*
X97626190Y-64435771D01*
X97626190Y-64435771D02*
X97769047Y-64435771D01*
X97769047Y-64435771D02*
X97864285Y-64483390D01*
X97864285Y-64483390D02*
X97911904Y-64531009D01*
X97911904Y-64531009D02*
X97959523Y-64626247D01*
X97959523Y-64626247D02*
X97959523Y-64864342D01*
X97959523Y-64864342D02*
X97911904Y-64959580D01*
X97911904Y-64959580D02*
X97864285Y-65007200D01*
X97864285Y-65007200D02*
X97769047Y-65054819D01*
X97769047Y-65054819D02*
X97483333Y-65054819D01*
X97483333Y-65054819D02*
X97388095Y-65007200D01*
X97388095Y-65007200D02*
X97340476Y-64959580D01*
X113816667Y-29807200D02*
X113959524Y-29854819D01*
X113959524Y-29854819D02*
X114197619Y-29854819D01*
X114197619Y-29854819D02*
X114292857Y-29807200D01*
X114292857Y-29807200D02*
X114340476Y-29759580D01*
X114340476Y-29759580D02*
X114388095Y-29664342D01*
X114388095Y-29664342D02*
X114388095Y-29569104D01*
X114388095Y-29569104D02*
X114340476Y-29473866D01*
X114340476Y-29473866D02*
X114292857Y-29426247D01*
X114292857Y-29426247D02*
X114197619Y-29378628D01*
X114197619Y-29378628D02*
X114007143Y-29331009D01*
X114007143Y-29331009D02*
X113911905Y-29283390D01*
X113911905Y-29283390D02*
X113864286Y-29235771D01*
X113864286Y-29235771D02*
X113816667Y-29140533D01*
X113816667Y-29140533D02*
X113816667Y-29045295D01*
X113816667Y-29045295D02*
X113864286Y-28950057D01*
X113864286Y-28950057D02*
X113911905Y-28902438D01*
X113911905Y-28902438D02*
X114007143Y-28854819D01*
X114007143Y-28854819D02*
X114245238Y-28854819D01*
X114245238Y-28854819D02*
X114388095Y-28902438D01*
X114721429Y-28854819D02*
X114959524Y-29854819D01*
X114959524Y-29854819D02*
X115150000Y-29140533D01*
X115150000Y-29140533D02*
X115340476Y-29854819D01*
X115340476Y-29854819D02*
X115578572Y-28854819D01*
X116388095Y-29188152D02*
X116388095Y-29854819D01*
X116150000Y-28807200D02*
X115911905Y-29521485D01*
X115911905Y-29521485D02*
X116530952Y-29521485D01*
X113340476Y-82607200D02*
X113483333Y-82654819D01*
X113483333Y-82654819D02*
X113721428Y-82654819D01*
X113721428Y-82654819D02*
X113816666Y-82607200D01*
X113816666Y-82607200D02*
X113864285Y-82559580D01*
X113864285Y-82559580D02*
X113911904Y-82464342D01*
X113911904Y-82464342D02*
X113911904Y-82369104D01*
X113911904Y-82369104D02*
X113864285Y-82273866D01*
X113864285Y-82273866D02*
X113816666Y-82226247D01*
X113816666Y-82226247D02*
X113721428Y-82178628D01*
X113721428Y-82178628D02*
X113530952Y-82131009D01*
X113530952Y-82131009D02*
X113435714Y-82083390D01*
X113435714Y-82083390D02*
X113388095Y-82035771D01*
X113388095Y-82035771D02*
X113340476Y-81940533D01*
X113340476Y-81940533D02*
X113340476Y-81845295D01*
X113340476Y-81845295D02*
X113388095Y-81750057D01*
X113388095Y-81750057D02*
X113435714Y-81702438D01*
X113435714Y-81702438D02*
X113530952Y-81654819D01*
X113530952Y-81654819D02*
X113769047Y-81654819D01*
X113769047Y-81654819D02*
X113911904Y-81702438D01*
X114245238Y-81654819D02*
X114483333Y-82654819D01*
X114483333Y-82654819D02*
X114673809Y-81940533D01*
X114673809Y-81940533D02*
X114864285Y-82654819D01*
X114864285Y-82654819D02*
X115102381Y-81654819D01*
X116007142Y-82654819D02*
X115435714Y-82654819D01*
X115721428Y-82654819D02*
X115721428Y-81654819D01*
X115721428Y-81654819D02*
X115626190Y-81797676D01*
X115626190Y-81797676D02*
X115530952Y-81892914D01*
X115530952Y-81892914D02*
X115435714Y-81940533D01*
X116483333Y-82654819D02*
X116673809Y-82654819D01*
X116673809Y-82654819D02*
X116769047Y-82607200D01*
X116769047Y-82607200D02*
X116816666Y-82559580D01*
X116816666Y-82559580D02*
X116911904Y-82416723D01*
X116911904Y-82416723D02*
X116959523Y-82226247D01*
X116959523Y-82226247D02*
X116959523Y-81845295D01*
X116959523Y-81845295D02*
X116911904Y-81750057D01*
X116911904Y-81750057D02*
X116864285Y-81702438D01*
X116864285Y-81702438D02*
X116769047Y-81654819D01*
X116769047Y-81654819D02*
X116578571Y-81654819D01*
X116578571Y-81654819D02*
X116483333Y-81702438D01*
X116483333Y-81702438D02*
X116435714Y-81750057D01*
X116435714Y-81750057D02*
X116388095Y-81845295D01*
X116388095Y-81845295D02*
X116388095Y-82083390D01*
X116388095Y-82083390D02*
X116435714Y-82178628D01*
X116435714Y-82178628D02*
X116483333Y-82226247D01*
X116483333Y-82226247D02*
X116578571Y-82273866D01*
X116578571Y-82273866D02*
X116769047Y-82273866D01*
X116769047Y-82273866D02*
X116864285Y-82226247D01*
X116864285Y-82226247D02*
X116911904Y-82178628D01*
X116911904Y-82178628D02*
X116959523Y-82083390D01*
X46554819Y-83064285D02*
X45554819Y-83064285D01*
X45554819Y-83064285D02*
X45554819Y-82826190D01*
X45554819Y-82826190D02*
X45602438Y-82683333D01*
X45602438Y-82683333D02*
X45697676Y-82588095D01*
X45697676Y-82588095D02*
X45792914Y-82540476D01*
X45792914Y-82540476D02*
X45983390Y-82492857D01*
X45983390Y-82492857D02*
X46126247Y-82492857D01*
X46126247Y-82492857D02*
X46316723Y-82540476D01*
X46316723Y-82540476D02*
X46411961Y-82588095D01*
X46411961Y-82588095D02*
X46507200Y-82683333D01*
X46507200Y-82683333D02*
X46554819Y-82826190D01*
X46554819Y-82826190D02*
X46554819Y-83064285D01*
X46554819Y-81540476D02*
X46554819Y-82111904D01*
X46554819Y-81826190D02*
X45554819Y-81826190D01*
X45554819Y-81826190D02*
X45697676Y-81921428D01*
X45697676Y-81921428D02*
X45792914Y-82016666D01*
X45792914Y-82016666D02*
X45840533Y-82111904D01*
X45554819Y-80921428D02*
X45554819Y-80826190D01*
X45554819Y-80826190D02*
X45602438Y-80730952D01*
X45602438Y-80730952D02*
X45650057Y-80683333D01*
X45650057Y-80683333D02*
X45745295Y-80635714D01*
X45745295Y-80635714D02*
X45935771Y-80588095D01*
X45935771Y-80588095D02*
X46173866Y-80588095D01*
X46173866Y-80588095D02*
X46364342Y-80635714D01*
X46364342Y-80635714D02*
X46459580Y-80683333D01*
X46459580Y-80683333D02*
X46507200Y-80730952D01*
X46507200Y-80730952D02*
X46554819Y-80826190D01*
X46554819Y-80826190D02*
X46554819Y-80921428D01*
X46554819Y-80921428D02*
X46507200Y-81016666D01*
X46507200Y-81016666D02*
X46459580Y-81064285D01*
X46459580Y-81064285D02*
X46364342Y-81111904D01*
X46364342Y-81111904D02*
X46173866Y-81159523D01*
X46173866Y-81159523D02*
X45935771Y-81159523D01*
X45935771Y-81159523D02*
X45745295Y-81111904D01*
X45745295Y-81111904D02*
X45650057Y-81064285D01*
X45650057Y-81064285D02*
X45602438Y-81016666D01*
X45602438Y-81016666D02*
X45554819Y-80921428D01*
X34204819Y-89004285D02*
X33204819Y-89004285D01*
X33204819Y-89004285D02*
X33204819Y-88766190D01*
X33204819Y-88766190D02*
X33252438Y-88623333D01*
X33252438Y-88623333D02*
X33347676Y-88528095D01*
X33347676Y-88528095D02*
X33442914Y-88480476D01*
X33442914Y-88480476D02*
X33633390Y-88432857D01*
X33633390Y-88432857D02*
X33776247Y-88432857D01*
X33776247Y-88432857D02*
X33966723Y-88480476D01*
X33966723Y-88480476D02*
X34061961Y-88528095D01*
X34061961Y-88528095D02*
X34157200Y-88623333D01*
X34157200Y-88623333D02*
X34204819Y-88766190D01*
X34204819Y-88766190D02*
X34204819Y-89004285D01*
X34204819Y-87480476D02*
X34204819Y-88051904D01*
X34204819Y-87766190D02*
X33204819Y-87766190D01*
X33204819Y-87766190D02*
X33347676Y-87861428D01*
X33347676Y-87861428D02*
X33442914Y-87956666D01*
X33442914Y-87956666D02*
X33490533Y-88051904D01*
X33300057Y-87099523D02*
X33252438Y-87051904D01*
X33252438Y-87051904D02*
X33204819Y-86956666D01*
X33204819Y-86956666D02*
X33204819Y-86718571D01*
X33204819Y-86718571D02*
X33252438Y-86623333D01*
X33252438Y-86623333D02*
X33300057Y-86575714D01*
X33300057Y-86575714D02*
X33395295Y-86528095D01*
X33395295Y-86528095D02*
X33490533Y-86528095D01*
X33490533Y-86528095D02*
X33633390Y-86575714D01*
X33633390Y-86575714D02*
X34204819Y-87147142D01*
X34204819Y-87147142D02*
X34204819Y-86528095D01*
X132340476Y-47407200D02*
X132483333Y-47454819D01*
X132483333Y-47454819D02*
X132721428Y-47454819D01*
X132721428Y-47454819D02*
X132816666Y-47407200D01*
X132816666Y-47407200D02*
X132864285Y-47359580D01*
X132864285Y-47359580D02*
X132911904Y-47264342D01*
X132911904Y-47264342D02*
X132911904Y-47169104D01*
X132911904Y-47169104D02*
X132864285Y-47073866D01*
X132864285Y-47073866D02*
X132816666Y-47026247D01*
X132816666Y-47026247D02*
X132721428Y-46978628D01*
X132721428Y-46978628D02*
X132530952Y-46931009D01*
X132530952Y-46931009D02*
X132435714Y-46883390D01*
X132435714Y-46883390D02*
X132388095Y-46835771D01*
X132388095Y-46835771D02*
X132340476Y-46740533D01*
X132340476Y-46740533D02*
X132340476Y-46645295D01*
X132340476Y-46645295D02*
X132388095Y-46550057D01*
X132388095Y-46550057D02*
X132435714Y-46502438D01*
X132435714Y-46502438D02*
X132530952Y-46454819D01*
X132530952Y-46454819D02*
X132769047Y-46454819D01*
X132769047Y-46454819D02*
X132911904Y-46502438D01*
X133245238Y-46454819D02*
X133483333Y-47454819D01*
X133483333Y-47454819D02*
X133673809Y-46740533D01*
X133673809Y-46740533D02*
X133864285Y-47454819D01*
X133864285Y-47454819D02*
X134102381Y-46454819D01*
X135007142Y-47454819D02*
X134435714Y-47454819D01*
X134721428Y-47454819D02*
X134721428Y-46454819D01*
X134721428Y-46454819D02*
X134626190Y-46597676D01*
X134626190Y-46597676D02*
X134530952Y-46692914D01*
X134530952Y-46692914D02*
X134435714Y-46740533D01*
X135626190Y-46454819D02*
X135721428Y-46454819D01*
X135721428Y-46454819D02*
X135816666Y-46502438D01*
X135816666Y-46502438D02*
X135864285Y-46550057D01*
X135864285Y-46550057D02*
X135911904Y-46645295D01*
X135911904Y-46645295D02*
X135959523Y-46835771D01*
X135959523Y-46835771D02*
X135959523Y-47073866D01*
X135959523Y-47073866D02*
X135911904Y-47264342D01*
X135911904Y-47264342D02*
X135864285Y-47359580D01*
X135864285Y-47359580D02*
X135816666Y-47407200D01*
X135816666Y-47407200D02*
X135721428Y-47454819D01*
X135721428Y-47454819D02*
X135626190Y-47454819D01*
X135626190Y-47454819D02*
X135530952Y-47407200D01*
X135530952Y-47407200D02*
X135483333Y-47359580D01*
X135483333Y-47359580D02*
X135435714Y-47264342D01*
X135435714Y-47264342D02*
X135388095Y-47073866D01*
X135388095Y-47073866D02*
X135388095Y-46835771D01*
X135388095Y-46835771D02*
X135435714Y-46645295D01*
X135435714Y-46645295D02*
X135483333Y-46550057D01*
X135483333Y-46550057D02*
X135530952Y-46502438D01*
X135530952Y-46502438D02*
X135626190Y-46454819D01*
X42404819Y-77088094D02*
X41404819Y-77088094D01*
X41404819Y-77088094D02*
X41404819Y-76849999D01*
X41404819Y-76849999D02*
X41452438Y-76707142D01*
X41452438Y-76707142D02*
X41547676Y-76611904D01*
X41547676Y-76611904D02*
X41642914Y-76564285D01*
X41642914Y-76564285D02*
X41833390Y-76516666D01*
X41833390Y-76516666D02*
X41976247Y-76516666D01*
X41976247Y-76516666D02*
X42166723Y-76564285D01*
X42166723Y-76564285D02*
X42261961Y-76611904D01*
X42261961Y-76611904D02*
X42357200Y-76707142D01*
X42357200Y-76707142D02*
X42404819Y-76849999D01*
X42404819Y-76849999D02*
X42404819Y-77088094D01*
X41738152Y-75659523D02*
X42404819Y-75659523D01*
X41357200Y-75897618D02*
X42071485Y-76135713D01*
X42071485Y-76135713D02*
X42071485Y-75516666D01*
X46654819Y-89004285D02*
X45654819Y-89004285D01*
X45654819Y-89004285D02*
X45654819Y-88766190D01*
X45654819Y-88766190D02*
X45702438Y-88623333D01*
X45702438Y-88623333D02*
X45797676Y-88528095D01*
X45797676Y-88528095D02*
X45892914Y-88480476D01*
X45892914Y-88480476D02*
X46083390Y-88432857D01*
X46083390Y-88432857D02*
X46226247Y-88432857D01*
X46226247Y-88432857D02*
X46416723Y-88480476D01*
X46416723Y-88480476D02*
X46511961Y-88528095D01*
X46511961Y-88528095D02*
X46607200Y-88623333D01*
X46607200Y-88623333D02*
X46654819Y-88766190D01*
X46654819Y-88766190D02*
X46654819Y-89004285D01*
X46654819Y-87480476D02*
X46654819Y-88051904D01*
X46654819Y-87766190D02*
X45654819Y-87766190D01*
X45654819Y-87766190D02*
X45797676Y-87861428D01*
X45797676Y-87861428D02*
X45892914Y-87956666D01*
X45892914Y-87956666D02*
X45940533Y-88051904D01*
X45654819Y-86575714D02*
X45654819Y-87051904D01*
X45654819Y-87051904D02*
X46131009Y-87099523D01*
X46131009Y-87099523D02*
X46083390Y-87051904D01*
X46083390Y-87051904D02*
X46035771Y-86956666D01*
X46035771Y-86956666D02*
X46035771Y-86718571D01*
X46035771Y-86718571D02*
X46083390Y-86623333D01*
X46083390Y-86623333D02*
X46131009Y-86575714D01*
X46131009Y-86575714D02*
X46226247Y-86528095D01*
X46226247Y-86528095D02*
X46464342Y-86528095D01*
X46464342Y-86528095D02*
X46559580Y-86575714D01*
X46559580Y-86575714D02*
X46607200Y-86623333D01*
X46607200Y-86623333D02*
X46654819Y-86718571D01*
X46654819Y-86718571D02*
X46654819Y-86956666D01*
X46654819Y-86956666D02*
X46607200Y-87051904D01*
X46607200Y-87051904D02*
X46559580Y-87099523D01*
X94816667Y-29807200D02*
X94959524Y-29854819D01*
X94959524Y-29854819D02*
X95197619Y-29854819D01*
X95197619Y-29854819D02*
X95292857Y-29807200D01*
X95292857Y-29807200D02*
X95340476Y-29759580D01*
X95340476Y-29759580D02*
X95388095Y-29664342D01*
X95388095Y-29664342D02*
X95388095Y-29569104D01*
X95388095Y-29569104D02*
X95340476Y-29473866D01*
X95340476Y-29473866D02*
X95292857Y-29426247D01*
X95292857Y-29426247D02*
X95197619Y-29378628D01*
X95197619Y-29378628D02*
X95007143Y-29331009D01*
X95007143Y-29331009D02*
X94911905Y-29283390D01*
X94911905Y-29283390D02*
X94864286Y-29235771D01*
X94864286Y-29235771D02*
X94816667Y-29140533D01*
X94816667Y-29140533D02*
X94816667Y-29045295D01*
X94816667Y-29045295D02*
X94864286Y-28950057D01*
X94864286Y-28950057D02*
X94911905Y-28902438D01*
X94911905Y-28902438D02*
X95007143Y-28854819D01*
X95007143Y-28854819D02*
X95245238Y-28854819D01*
X95245238Y-28854819D02*
X95388095Y-28902438D01*
X95721429Y-28854819D02*
X95959524Y-29854819D01*
X95959524Y-29854819D02*
X96150000Y-29140533D01*
X96150000Y-29140533D02*
X96340476Y-29854819D01*
X96340476Y-29854819D02*
X96578572Y-28854819D01*
X96864286Y-28854819D02*
X97483333Y-28854819D01*
X97483333Y-28854819D02*
X97150000Y-29235771D01*
X97150000Y-29235771D02*
X97292857Y-29235771D01*
X97292857Y-29235771D02*
X97388095Y-29283390D01*
X97388095Y-29283390D02*
X97435714Y-29331009D01*
X97435714Y-29331009D02*
X97483333Y-29426247D01*
X97483333Y-29426247D02*
X97483333Y-29664342D01*
X97483333Y-29664342D02*
X97435714Y-29759580D01*
X97435714Y-29759580D02*
X97388095Y-29807200D01*
X97388095Y-29807200D02*
X97292857Y-29854819D01*
X97292857Y-29854819D02*
X97007143Y-29854819D01*
X97007143Y-29854819D02*
X96911905Y-29807200D01*
X96911905Y-29807200D02*
X96864286Y-29759580D01*
X29954819Y-82588094D02*
X28954819Y-82588094D01*
X28954819Y-82588094D02*
X28954819Y-82349999D01*
X28954819Y-82349999D02*
X29002438Y-82207142D01*
X29002438Y-82207142D02*
X29097676Y-82111904D01*
X29097676Y-82111904D02*
X29192914Y-82064285D01*
X29192914Y-82064285D02*
X29383390Y-82016666D01*
X29383390Y-82016666D02*
X29526247Y-82016666D01*
X29526247Y-82016666D02*
X29716723Y-82064285D01*
X29716723Y-82064285D02*
X29811961Y-82111904D01*
X29811961Y-82111904D02*
X29907200Y-82207142D01*
X29907200Y-82207142D02*
X29954819Y-82349999D01*
X29954819Y-82349999D02*
X29954819Y-82588094D01*
X28954819Y-81159523D02*
X28954819Y-81349999D01*
X28954819Y-81349999D02*
X29002438Y-81445237D01*
X29002438Y-81445237D02*
X29050057Y-81492856D01*
X29050057Y-81492856D02*
X29192914Y-81588094D01*
X29192914Y-81588094D02*
X29383390Y-81635713D01*
X29383390Y-81635713D02*
X29764342Y-81635713D01*
X29764342Y-81635713D02*
X29859580Y-81588094D01*
X29859580Y-81588094D02*
X29907200Y-81540475D01*
X29907200Y-81540475D02*
X29954819Y-81445237D01*
X29954819Y-81445237D02*
X29954819Y-81254761D01*
X29954819Y-81254761D02*
X29907200Y-81159523D01*
X29907200Y-81159523D02*
X29859580Y-81111904D01*
X29859580Y-81111904D02*
X29764342Y-81064285D01*
X29764342Y-81064285D02*
X29526247Y-81064285D01*
X29526247Y-81064285D02*
X29431009Y-81111904D01*
X29431009Y-81111904D02*
X29383390Y-81159523D01*
X29383390Y-81159523D02*
X29335771Y-81254761D01*
X29335771Y-81254761D02*
X29335771Y-81445237D01*
X29335771Y-81445237D02*
X29383390Y-81540475D01*
X29383390Y-81540475D02*
X29431009Y-81588094D01*
X29431009Y-81588094D02*
X29526247Y-81635713D01*
X75816667Y-47407200D02*
X75959524Y-47454819D01*
X75959524Y-47454819D02*
X76197619Y-47454819D01*
X76197619Y-47454819D02*
X76292857Y-47407200D01*
X76292857Y-47407200D02*
X76340476Y-47359580D01*
X76340476Y-47359580D02*
X76388095Y-47264342D01*
X76388095Y-47264342D02*
X76388095Y-47169104D01*
X76388095Y-47169104D02*
X76340476Y-47073866D01*
X76340476Y-47073866D02*
X76292857Y-47026247D01*
X76292857Y-47026247D02*
X76197619Y-46978628D01*
X76197619Y-46978628D02*
X76007143Y-46931009D01*
X76007143Y-46931009D02*
X75911905Y-46883390D01*
X75911905Y-46883390D02*
X75864286Y-46835771D01*
X75864286Y-46835771D02*
X75816667Y-46740533D01*
X75816667Y-46740533D02*
X75816667Y-46645295D01*
X75816667Y-46645295D02*
X75864286Y-46550057D01*
X75864286Y-46550057D02*
X75911905Y-46502438D01*
X75911905Y-46502438D02*
X76007143Y-46454819D01*
X76007143Y-46454819D02*
X76245238Y-46454819D01*
X76245238Y-46454819D02*
X76388095Y-46502438D01*
X76721429Y-46454819D02*
X76959524Y-47454819D01*
X76959524Y-47454819D02*
X77150000Y-46740533D01*
X77150000Y-46740533D02*
X77340476Y-47454819D01*
X77340476Y-47454819D02*
X77578572Y-46454819D01*
X77864286Y-46454819D02*
X78530952Y-46454819D01*
X78530952Y-46454819D02*
X78102381Y-47454819D01*
X29954819Y-94564285D02*
X28954819Y-94564285D01*
X28954819Y-94564285D02*
X28954819Y-94326190D01*
X28954819Y-94326190D02*
X29002438Y-94183333D01*
X29002438Y-94183333D02*
X29097676Y-94088095D01*
X29097676Y-94088095D02*
X29192914Y-94040476D01*
X29192914Y-94040476D02*
X29383390Y-93992857D01*
X29383390Y-93992857D02*
X29526247Y-93992857D01*
X29526247Y-93992857D02*
X29716723Y-94040476D01*
X29716723Y-94040476D02*
X29811961Y-94088095D01*
X29811961Y-94088095D02*
X29907200Y-94183333D01*
X29907200Y-94183333D02*
X29954819Y-94326190D01*
X29954819Y-94326190D02*
X29954819Y-94564285D01*
X29954819Y-93040476D02*
X29954819Y-93611904D01*
X29954819Y-93326190D02*
X28954819Y-93326190D01*
X28954819Y-93326190D02*
X29097676Y-93421428D01*
X29097676Y-93421428D02*
X29192914Y-93516666D01*
X29192914Y-93516666D02*
X29240533Y-93611904D01*
X28954819Y-92183333D02*
X28954819Y-92373809D01*
X28954819Y-92373809D02*
X29002438Y-92469047D01*
X29002438Y-92469047D02*
X29050057Y-92516666D01*
X29050057Y-92516666D02*
X29192914Y-92611904D01*
X29192914Y-92611904D02*
X29383390Y-92659523D01*
X29383390Y-92659523D02*
X29764342Y-92659523D01*
X29764342Y-92659523D02*
X29859580Y-92611904D01*
X29859580Y-92611904D02*
X29907200Y-92564285D01*
X29907200Y-92564285D02*
X29954819Y-92469047D01*
X29954819Y-92469047D02*
X29954819Y-92278571D01*
X29954819Y-92278571D02*
X29907200Y-92183333D01*
X29907200Y-92183333D02*
X29859580Y-92135714D01*
X29859580Y-92135714D02*
X29764342Y-92088095D01*
X29764342Y-92088095D02*
X29526247Y-92088095D01*
X29526247Y-92088095D02*
X29431009Y-92135714D01*
X29431009Y-92135714D02*
X29383390Y-92183333D01*
X29383390Y-92183333D02*
X29335771Y-92278571D01*
X29335771Y-92278571D02*
X29335771Y-92469047D01*
X29335771Y-92469047D02*
X29383390Y-92564285D01*
X29383390Y-92564285D02*
X29431009Y-92611904D01*
X29431009Y-92611904D02*
X29526247Y-92659523D01*
X94666667Y-47607200D02*
X94809524Y-47654819D01*
X94809524Y-47654819D02*
X95047619Y-47654819D01*
X95047619Y-47654819D02*
X95142857Y-47607200D01*
X95142857Y-47607200D02*
X95190476Y-47559580D01*
X95190476Y-47559580D02*
X95238095Y-47464342D01*
X95238095Y-47464342D02*
X95238095Y-47369104D01*
X95238095Y-47369104D02*
X95190476Y-47273866D01*
X95190476Y-47273866D02*
X95142857Y-47226247D01*
X95142857Y-47226247D02*
X95047619Y-47178628D01*
X95047619Y-47178628D02*
X94857143Y-47131009D01*
X94857143Y-47131009D02*
X94761905Y-47083390D01*
X94761905Y-47083390D02*
X94714286Y-47035771D01*
X94714286Y-47035771D02*
X94666667Y-46940533D01*
X94666667Y-46940533D02*
X94666667Y-46845295D01*
X94666667Y-46845295D02*
X94714286Y-46750057D01*
X94714286Y-46750057D02*
X94761905Y-46702438D01*
X94761905Y-46702438D02*
X94857143Y-46654819D01*
X94857143Y-46654819D02*
X95095238Y-46654819D01*
X95095238Y-46654819D02*
X95238095Y-46702438D01*
X95571429Y-46654819D02*
X95809524Y-47654819D01*
X95809524Y-47654819D02*
X96000000Y-46940533D01*
X96000000Y-46940533D02*
X96190476Y-47654819D01*
X96190476Y-47654819D02*
X96428572Y-46654819D01*
X96952381Y-47083390D02*
X96857143Y-47035771D01*
X96857143Y-47035771D02*
X96809524Y-46988152D01*
X96809524Y-46988152D02*
X96761905Y-46892914D01*
X96761905Y-46892914D02*
X96761905Y-46845295D01*
X96761905Y-46845295D02*
X96809524Y-46750057D01*
X96809524Y-46750057D02*
X96857143Y-46702438D01*
X96857143Y-46702438D02*
X96952381Y-46654819D01*
X96952381Y-46654819D02*
X97142857Y-46654819D01*
X97142857Y-46654819D02*
X97238095Y-46702438D01*
X97238095Y-46702438D02*
X97285714Y-46750057D01*
X97285714Y-46750057D02*
X97333333Y-46845295D01*
X97333333Y-46845295D02*
X97333333Y-46892914D01*
X97333333Y-46892914D02*
X97285714Y-46988152D01*
X97285714Y-46988152D02*
X97238095Y-47035771D01*
X97238095Y-47035771D02*
X97142857Y-47083390D01*
X97142857Y-47083390D02*
X96952381Y-47083390D01*
X96952381Y-47083390D02*
X96857143Y-47131009D01*
X96857143Y-47131009D02*
X96809524Y-47178628D01*
X96809524Y-47178628D02*
X96761905Y-47273866D01*
X96761905Y-47273866D02*
X96761905Y-47464342D01*
X96761905Y-47464342D02*
X96809524Y-47559580D01*
X96809524Y-47559580D02*
X96857143Y-47607200D01*
X96857143Y-47607200D02*
X96952381Y-47654819D01*
X96952381Y-47654819D02*
X97142857Y-47654819D01*
X97142857Y-47654819D02*
X97238095Y-47607200D01*
X97238095Y-47607200D02*
X97285714Y-47559580D01*
X97285714Y-47559580D02*
X97333333Y-47464342D01*
X97333333Y-47464342D02*
X97333333Y-47273866D01*
X97333333Y-47273866D02*
X97285714Y-47178628D01*
X97285714Y-47178628D02*
X97238095Y-47131009D01*
X97238095Y-47131009D02*
X97142857Y-47083390D01*
D11*
X43044524Y-38176178D02*
X42980714Y-38140464D01*
X42980714Y-38140464D02*
X42885000Y-38140464D01*
X42885000Y-38140464D02*
X42789286Y-38176178D01*
X42789286Y-38176178D02*
X42725476Y-38247607D01*
X42725476Y-38247607D02*
X42693571Y-38319035D01*
X42693571Y-38319035D02*
X42661667Y-38461892D01*
X42661667Y-38461892D02*
X42661667Y-38569035D01*
X42661667Y-38569035D02*
X42693571Y-38711892D01*
X42693571Y-38711892D02*
X42725476Y-38783321D01*
X42725476Y-38783321D02*
X42789286Y-38854750D01*
X42789286Y-38854750D02*
X42885000Y-38890464D01*
X42885000Y-38890464D02*
X42948809Y-38890464D01*
X42948809Y-38890464D02*
X43044524Y-38854750D01*
X43044524Y-38854750D02*
X43076428Y-38819035D01*
X43076428Y-38819035D02*
X43076428Y-38569035D01*
X43076428Y-38569035D02*
X42948809Y-38569035D01*
X43363571Y-38890464D02*
X43363571Y-38140464D01*
X43363571Y-38140464D02*
X43746428Y-38890464D01*
X43746428Y-38890464D02*
X43746428Y-38140464D01*
X44065476Y-38890464D02*
X44065476Y-38140464D01*
X44065476Y-38140464D02*
X44225000Y-38140464D01*
X44225000Y-38140464D02*
X44320714Y-38176178D01*
X44320714Y-38176178D02*
X44384524Y-38247607D01*
X44384524Y-38247607D02*
X44416429Y-38319035D01*
X44416429Y-38319035D02*
X44448333Y-38461892D01*
X44448333Y-38461892D02*
X44448333Y-38569035D01*
X44448333Y-38569035D02*
X44416429Y-38711892D01*
X44416429Y-38711892D02*
X44384524Y-38783321D01*
X44384524Y-38783321D02*
X44320714Y-38854750D01*
X44320714Y-38854750D02*
X44225000Y-38890464D01*
X44225000Y-38890464D02*
X44065476Y-38890464D01*
X32769286Y-48776178D02*
X33088333Y-48776178D01*
X32705476Y-48990464D02*
X32928809Y-48240464D01*
X32928809Y-48240464D02*
X33152143Y-48990464D01*
X33726429Y-48990464D02*
X33343572Y-48990464D01*
X33535000Y-48990464D02*
X33535000Y-48240464D01*
X33535000Y-48240464D02*
X33471191Y-48347607D01*
X33471191Y-48347607D02*
X33407381Y-48419035D01*
X33407381Y-48419035D02*
X33343572Y-48454750D01*
X34492143Y-48204750D02*
X33917857Y-49169035D01*
X34938810Y-48597607D02*
X34715476Y-48597607D01*
X34715476Y-48990464D02*
X34715476Y-48240464D01*
X34715476Y-48240464D02*
X35034524Y-48240464D01*
X35576905Y-48240464D02*
X35449286Y-48240464D01*
X35449286Y-48240464D02*
X35385477Y-48276178D01*
X35385477Y-48276178D02*
X35353572Y-48311892D01*
X35353572Y-48311892D02*
X35289762Y-48419035D01*
X35289762Y-48419035D02*
X35257858Y-48561892D01*
X35257858Y-48561892D02*
X35257858Y-48847607D01*
X35257858Y-48847607D02*
X35289762Y-48919035D01*
X35289762Y-48919035D02*
X35321667Y-48954750D01*
X35321667Y-48954750D02*
X35385477Y-48990464D01*
X35385477Y-48990464D02*
X35513096Y-48990464D01*
X35513096Y-48990464D02*
X35576905Y-48954750D01*
X35576905Y-48954750D02*
X35608810Y-48919035D01*
X35608810Y-48919035D02*
X35640715Y-48847607D01*
X35640715Y-48847607D02*
X35640715Y-48669035D01*
X35640715Y-48669035D02*
X35608810Y-48597607D01*
X35608810Y-48597607D02*
X35576905Y-48561892D01*
X35576905Y-48561892D02*
X35513096Y-48526178D01*
X35513096Y-48526178D02*
X35385477Y-48526178D01*
X35385477Y-48526178D02*
X35321667Y-48561892D01*
X35321667Y-48561892D02*
X35289762Y-48597607D01*
X35289762Y-48597607D02*
X35257858Y-48669035D01*
X39582381Y-46304750D02*
X39678095Y-46340464D01*
X39678095Y-46340464D02*
X39837619Y-46340464D01*
X39837619Y-46340464D02*
X39901428Y-46304750D01*
X39901428Y-46304750D02*
X39933333Y-46269035D01*
X39933333Y-46269035D02*
X39965238Y-46197607D01*
X39965238Y-46197607D02*
X39965238Y-46126178D01*
X39965238Y-46126178D02*
X39933333Y-46054750D01*
X39933333Y-46054750D02*
X39901428Y-46019035D01*
X39901428Y-46019035D02*
X39837619Y-45983321D01*
X39837619Y-45983321D02*
X39710000Y-45947607D01*
X39710000Y-45947607D02*
X39646190Y-45911892D01*
X39646190Y-45911892D02*
X39614285Y-45876178D01*
X39614285Y-45876178D02*
X39582381Y-45804750D01*
X39582381Y-45804750D02*
X39582381Y-45733321D01*
X39582381Y-45733321D02*
X39614285Y-45661892D01*
X39614285Y-45661892D02*
X39646190Y-45626178D01*
X39646190Y-45626178D02*
X39710000Y-45590464D01*
X39710000Y-45590464D02*
X39869523Y-45590464D01*
X39869523Y-45590464D02*
X39965238Y-45626178D01*
X40635237Y-46269035D02*
X40603333Y-46304750D01*
X40603333Y-46304750D02*
X40507618Y-46340464D01*
X40507618Y-46340464D02*
X40443809Y-46340464D01*
X40443809Y-46340464D02*
X40348095Y-46304750D01*
X40348095Y-46304750D02*
X40284285Y-46233321D01*
X40284285Y-46233321D02*
X40252380Y-46161892D01*
X40252380Y-46161892D02*
X40220476Y-46019035D01*
X40220476Y-46019035D02*
X40220476Y-45911892D01*
X40220476Y-45911892D02*
X40252380Y-45769035D01*
X40252380Y-45769035D02*
X40284285Y-45697607D01*
X40284285Y-45697607D02*
X40348095Y-45626178D01*
X40348095Y-45626178D02*
X40443809Y-45590464D01*
X40443809Y-45590464D02*
X40507618Y-45590464D01*
X40507618Y-45590464D02*
X40603333Y-45626178D01*
X40603333Y-45626178D02*
X40635237Y-45661892D01*
X41241428Y-46340464D02*
X40922380Y-46340464D01*
X40922380Y-46340464D02*
X40922380Y-45590464D01*
X41943333Y-45554750D02*
X41369047Y-46519035D01*
X42166666Y-46340464D02*
X42166666Y-45590464D01*
X42166666Y-45590464D02*
X42326190Y-45590464D01*
X42326190Y-45590464D02*
X42421904Y-45626178D01*
X42421904Y-45626178D02*
X42485714Y-45697607D01*
X42485714Y-45697607D02*
X42517619Y-45769035D01*
X42517619Y-45769035D02*
X42549523Y-45911892D01*
X42549523Y-45911892D02*
X42549523Y-46019035D01*
X42549523Y-46019035D02*
X42517619Y-46161892D01*
X42517619Y-46161892D02*
X42485714Y-46233321D01*
X42485714Y-46233321D02*
X42421904Y-46304750D01*
X42421904Y-46304750D02*
X42326190Y-46340464D01*
X42326190Y-46340464D02*
X42166666Y-46340464D01*
X42964285Y-45590464D02*
X43028095Y-45590464D01*
X43028095Y-45590464D02*
X43091904Y-45626178D01*
X43091904Y-45626178D02*
X43123809Y-45661892D01*
X43123809Y-45661892D02*
X43155714Y-45733321D01*
X43155714Y-45733321D02*
X43187619Y-45876178D01*
X43187619Y-45876178D02*
X43187619Y-46054750D01*
X43187619Y-46054750D02*
X43155714Y-46197607D01*
X43155714Y-46197607D02*
X43123809Y-46269035D01*
X43123809Y-46269035D02*
X43091904Y-46304750D01*
X43091904Y-46304750D02*
X43028095Y-46340464D01*
X43028095Y-46340464D02*
X42964285Y-46340464D01*
X42964285Y-46340464D02*
X42900476Y-46304750D01*
X42900476Y-46304750D02*
X42868571Y-46269035D01*
X42868571Y-46269035D02*
X42836666Y-46197607D01*
X42836666Y-46197607D02*
X42804762Y-46054750D01*
X42804762Y-46054750D02*
X42804762Y-45876178D01*
X42804762Y-45876178D02*
X42836666Y-45733321D01*
X42836666Y-45733321D02*
X42868571Y-45661892D01*
X42868571Y-45661892D02*
X42900476Y-45626178D01*
X42900476Y-45626178D02*
X42964285Y-45590464D01*
X43953333Y-45554750D02*
X43379047Y-46519035D01*
X44112857Y-45590464D02*
X44527619Y-45590464D01*
X44527619Y-45590464D02*
X44304285Y-45876178D01*
X44304285Y-45876178D02*
X44400000Y-45876178D01*
X44400000Y-45876178D02*
X44463809Y-45911892D01*
X44463809Y-45911892D02*
X44495714Y-45947607D01*
X44495714Y-45947607D02*
X44527619Y-46019035D01*
X44527619Y-46019035D02*
X44527619Y-46197607D01*
X44527619Y-46197607D02*
X44495714Y-46269035D01*
X44495714Y-46269035D02*
X44463809Y-46304750D01*
X44463809Y-46304750D02*
X44400000Y-46340464D01*
X44400000Y-46340464D02*
X44208571Y-46340464D01*
X44208571Y-46340464D02*
X44144762Y-46304750D01*
X44144762Y-46304750D02*
X44112857Y-46269035D01*
X33077380Y-33820464D02*
X32854047Y-33463321D01*
X32694523Y-33820464D02*
X32694523Y-33070464D01*
X32694523Y-33070464D02*
X32949761Y-33070464D01*
X32949761Y-33070464D02*
X33013571Y-33106178D01*
X33013571Y-33106178D02*
X33045476Y-33141892D01*
X33045476Y-33141892D02*
X33077380Y-33213321D01*
X33077380Y-33213321D02*
X33077380Y-33320464D01*
X33077380Y-33320464D02*
X33045476Y-33391892D01*
X33045476Y-33391892D02*
X33013571Y-33427607D01*
X33013571Y-33427607D02*
X32949761Y-33463321D01*
X32949761Y-33463321D02*
X32694523Y-33463321D01*
X33332619Y-33606178D02*
X33651666Y-33606178D01*
X33268809Y-33820464D02*
X33492142Y-33070464D01*
X33492142Y-33070464D02*
X33715476Y-33820464D01*
X33875000Y-33070464D02*
X34034524Y-33820464D01*
X34034524Y-33820464D02*
X34162143Y-33284750D01*
X34162143Y-33284750D02*
X34289762Y-33820464D01*
X34289762Y-33820464D02*
X34449286Y-33070464D01*
X33073095Y-39030464D02*
X32849762Y-38673321D01*
X32690238Y-39030464D02*
X32690238Y-38280464D01*
X32690238Y-38280464D02*
X32945476Y-38280464D01*
X32945476Y-38280464D02*
X33009286Y-38316178D01*
X33009286Y-38316178D02*
X33041191Y-38351892D01*
X33041191Y-38351892D02*
X33073095Y-38423321D01*
X33073095Y-38423321D02*
X33073095Y-38530464D01*
X33073095Y-38530464D02*
X33041191Y-38601892D01*
X33041191Y-38601892D02*
X33009286Y-38637607D01*
X33009286Y-38637607D02*
X32945476Y-38673321D01*
X32945476Y-38673321D02*
X32690238Y-38673321D01*
X33328334Y-38994750D02*
X33424048Y-39030464D01*
X33424048Y-39030464D02*
X33583572Y-39030464D01*
X33583572Y-39030464D02*
X33647381Y-38994750D01*
X33647381Y-38994750D02*
X33679286Y-38959035D01*
X33679286Y-38959035D02*
X33711191Y-38887607D01*
X33711191Y-38887607D02*
X33711191Y-38816178D01*
X33711191Y-38816178D02*
X33679286Y-38744750D01*
X33679286Y-38744750D02*
X33647381Y-38709035D01*
X33647381Y-38709035D02*
X33583572Y-38673321D01*
X33583572Y-38673321D02*
X33455953Y-38637607D01*
X33455953Y-38637607D02*
X33392143Y-38601892D01*
X33392143Y-38601892D02*
X33360238Y-38566178D01*
X33360238Y-38566178D02*
X33328334Y-38494750D01*
X33328334Y-38494750D02*
X33328334Y-38423321D01*
X33328334Y-38423321D02*
X33360238Y-38351892D01*
X33360238Y-38351892D02*
X33392143Y-38316178D01*
X33392143Y-38316178D02*
X33455953Y-38280464D01*
X33455953Y-38280464D02*
X33615476Y-38280464D01*
X33615476Y-38280464D02*
X33711191Y-38316178D01*
X33902619Y-38280464D02*
X34285476Y-38280464D01*
X34094048Y-39030464D02*
X34094048Y-38280464D01*
X32769286Y-51326178D02*
X33088333Y-51326178D01*
X32705476Y-51540464D02*
X32928809Y-50790464D01*
X32928809Y-50790464D02*
X33152143Y-51540464D01*
X33503095Y-50790464D02*
X33566905Y-50790464D01*
X33566905Y-50790464D02*
X33630714Y-50826178D01*
X33630714Y-50826178D02*
X33662619Y-50861892D01*
X33662619Y-50861892D02*
X33694524Y-50933321D01*
X33694524Y-50933321D02*
X33726429Y-51076178D01*
X33726429Y-51076178D02*
X33726429Y-51254750D01*
X33726429Y-51254750D02*
X33694524Y-51397607D01*
X33694524Y-51397607D02*
X33662619Y-51469035D01*
X33662619Y-51469035D02*
X33630714Y-51504750D01*
X33630714Y-51504750D02*
X33566905Y-51540464D01*
X33566905Y-51540464D02*
X33503095Y-51540464D01*
X33503095Y-51540464D02*
X33439286Y-51504750D01*
X33439286Y-51504750D02*
X33407381Y-51469035D01*
X33407381Y-51469035D02*
X33375476Y-51397607D01*
X33375476Y-51397607D02*
X33343572Y-51254750D01*
X33343572Y-51254750D02*
X33343572Y-51076178D01*
X33343572Y-51076178D02*
X33375476Y-50933321D01*
X33375476Y-50933321D02*
X33407381Y-50861892D01*
X33407381Y-50861892D02*
X33439286Y-50826178D01*
X33439286Y-50826178D02*
X33503095Y-50790464D01*
X34492143Y-50754750D02*
X33917857Y-51719035D01*
X34938810Y-51147607D02*
X34715476Y-51147607D01*
X34715476Y-51540464D02*
X34715476Y-50790464D01*
X34715476Y-50790464D02*
X35034524Y-50790464D01*
X35225953Y-50790464D02*
X35672619Y-50790464D01*
X35672619Y-50790464D02*
X35385477Y-51540464D01*
X42363810Y-61147607D02*
X42459524Y-61183321D01*
X42459524Y-61183321D02*
X42491429Y-61219035D01*
X42491429Y-61219035D02*
X42523333Y-61290464D01*
X42523333Y-61290464D02*
X42523333Y-61397607D01*
X42523333Y-61397607D02*
X42491429Y-61469035D01*
X42491429Y-61469035D02*
X42459524Y-61504750D01*
X42459524Y-61504750D02*
X42395714Y-61540464D01*
X42395714Y-61540464D02*
X42140476Y-61540464D01*
X42140476Y-61540464D02*
X42140476Y-60790464D01*
X42140476Y-60790464D02*
X42363810Y-60790464D01*
X42363810Y-60790464D02*
X42427619Y-60826178D01*
X42427619Y-60826178D02*
X42459524Y-60861892D01*
X42459524Y-60861892D02*
X42491429Y-60933321D01*
X42491429Y-60933321D02*
X42491429Y-61004750D01*
X42491429Y-61004750D02*
X42459524Y-61076178D01*
X42459524Y-61076178D02*
X42427619Y-61111892D01*
X42427619Y-61111892D02*
X42363810Y-61147607D01*
X42363810Y-61147607D02*
X42140476Y-61147607D01*
X43129524Y-60790464D02*
X42810476Y-60790464D01*
X42810476Y-60790464D02*
X42778572Y-61147607D01*
X42778572Y-61147607D02*
X42810476Y-61111892D01*
X42810476Y-61111892D02*
X42874286Y-61076178D01*
X42874286Y-61076178D02*
X43033810Y-61076178D01*
X43033810Y-61076178D02*
X43097619Y-61111892D01*
X43097619Y-61111892D02*
X43129524Y-61147607D01*
X43129524Y-61147607D02*
X43161429Y-61219035D01*
X43161429Y-61219035D02*
X43161429Y-61397607D01*
X43161429Y-61397607D02*
X43129524Y-61469035D01*
X43129524Y-61469035D02*
X43097619Y-61504750D01*
X43097619Y-61504750D02*
X43033810Y-61540464D01*
X43033810Y-61540464D02*
X42874286Y-61540464D01*
X42874286Y-61540464D02*
X42810476Y-61504750D01*
X42810476Y-61504750D02*
X42778572Y-61469035D01*
X43927143Y-60754750D02*
X43352857Y-61719035D01*
X44182381Y-61540464D02*
X44310000Y-61540464D01*
X44310000Y-61540464D02*
X44373810Y-61504750D01*
X44373810Y-61504750D02*
X44405714Y-61469035D01*
X44405714Y-61469035D02*
X44469524Y-61361892D01*
X44469524Y-61361892D02*
X44501429Y-61219035D01*
X44501429Y-61219035D02*
X44501429Y-60933321D01*
X44501429Y-60933321D02*
X44469524Y-60861892D01*
X44469524Y-60861892D02*
X44437619Y-60826178D01*
X44437619Y-60826178D02*
X44373810Y-60790464D01*
X44373810Y-60790464D02*
X44246191Y-60790464D01*
X44246191Y-60790464D02*
X44182381Y-60826178D01*
X44182381Y-60826178D02*
X44150476Y-60861892D01*
X44150476Y-60861892D02*
X44118572Y-60933321D01*
X44118572Y-60933321D02*
X44118572Y-61111892D01*
X44118572Y-61111892D02*
X44150476Y-61183321D01*
X44150476Y-61183321D02*
X44182381Y-61219035D01*
X44182381Y-61219035D02*
X44246191Y-61254750D01*
X44246191Y-61254750D02*
X44373810Y-61254750D01*
X44373810Y-61254750D02*
X44437619Y-61219035D01*
X44437619Y-61219035D02*
X44469524Y-61183321D01*
X44469524Y-61183321D02*
X44501429Y-61111892D01*
X33072381Y-61690464D02*
X32689524Y-61690464D01*
X32880952Y-61690464D02*
X32880952Y-60940464D01*
X32880952Y-60940464D02*
X32817143Y-61047607D01*
X32817143Y-61047607D02*
X32753333Y-61119035D01*
X32753333Y-61119035D02*
X32689524Y-61154750D01*
X33487142Y-60940464D02*
X33550952Y-60940464D01*
X33550952Y-60940464D02*
X33614761Y-60976178D01*
X33614761Y-60976178D02*
X33646666Y-61011892D01*
X33646666Y-61011892D02*
X33678571Y-61083321D01*
X33678571Y-61083321D02*
X33710476Y-61226178D01*
X33710476Y-61226178D02*
X33710476Y-61404750D01*
X33710476Y-61404750D02*
X33678571Y-61547607D01*
X33678571Y-61547607D02*
X33646666Y-61619035D01*
X33646666Y-61619035D02*
X33614761Y-61654750D01*
X33614761Y-61654750D02*
X33550952Y-61690464D01*
X33550952Y-61690464D02*
X33487142Y-61690464D01*
X33487142Y-61690464D02*
X33423333Y-61654750D01*
X33423333Y-61654750D02*
X33391428Y-61619035D01*
X33391428Y-61619035D02*
X33359523Y-61547607D01*
X33359523Y-61547607D02*
X33327619Y-61404750D01*
X33327619Y-61404750D02*
X33327619Y-61226178D01*
X33327619Y-61226178D02*
X33359523Y-61083321D01*
X33359523Y-61083321D02*
X33391428Y-61011892D01*
X33391428Y-61011892D02*
X33423333Y-60976178D01*
X33423333Y-60976178D02*
X33487142Y-60940464D01*
X34476190Y-60904750D02*
X33901904Y-61869035D01*
X34922857Y-61297607D02*
X35018571Y-61333321D01*
X35018571Y-61333321D02*
X35050476Y-61369035D01*
X35050476Y-61369035D02*
X35082380Y-61440464D01*
X35082380Y-61440464D02*
X35082380Y-61547607D01*
X35082380Y-61547607D02*
X35050476Y-61619035D01*
X35050476Y-61619035D02*
X35018571Y-61654750D01*
X35018571Y-61654750D02*
X34954761Y-61690464D01*
X34954761Y-61690464D02*
X34699523Y-61690464D01*
X34699523Y-61690464D02*
X34699523Y-60940464D01*
X34699523Y-60940464D02*
X34922857Y-60940464D01*
X34922857Y-60940464D02*
X34986666Y-60976178D01*
X34986666Y-60976178D02*
X35018571Y-61011892D01*
X35018571Y-61011892D02*
X35050476Y-61083321D01*
X35050476Y-61083321D02*
X35050476Y-61154750D01*
X35050476Y-61154750D02*
X35018571Y-61226178D01*
X35018571Y-61226178D02*
X34986666Y-61261892D01*
X34986666Y-61261892D02*
X34922857Y-61297607D01*
X34922857Y-61297607D02*
X34699523Y-61297607D01*
X35656666Y-60940464D02*
X35529047Y-60940464D01*
X35529047Y-60940464D02*
X35465238Y-60976178D01*
X35465238Y-60976178D02*
X35433333Y-61011892D01*
X35433333Y-61011892D02*
X35369523Y-61119035D01*
X35369523Y-61119035D02*
X35337619Y-61261892D01*
X35337619Y-61261892D02*
X35337619Y-61547607D01*
X35337619Y-61547607D02*
X35369523Y-61619035D01*
X35369523Y-61619035D02*
X35401428Y-61654750D01*
X35401428Y-61654750D02*
X35465238Y-61690464D01*
X35465238Y-61690464D02*
X35592857Y-61690464D01*
X35592857Y-61690464D02*
X35656666Y-61654750D01*
X35656666Y-61654750D02*
X35688571Y-61619035D01*
X35688571Y-61619035D02*
X35720476Y-61547607D01*
X35720476Y-61547607D02*
X35720476Y-61369035D01*
X35720476Y-61369035D02*
X35688571Y-61297607D01*
X35688571Y-61297607D02*
X35656666Y-61261892D01*
X35656666Y-61261892D02*
X35592857Y-61226178D01*
X35592857Y-61226178D02*
X35465238Y-61226178D01*
X35465238Y-61226178D02*
X35401428Y-61261892D01*
X35401428Y-61261892D02*
X35369523Y-61297607D01*
X35369523Y-61297607D02*
X35337619Y-61369035D01*
X40936428Y-36340464D02*
X40936428Y-35590464D01*
X40936428Y-35590464D02*
X41095952Y-35590464D01*
X41095952Y-35590464D02*
X41191666Y-35626178D01*
X41191666Y-35626178D02*
X41255476Y-35697607D01*
X41255476Y-35697607D02*
X41287381Y-35769035D01*
X41287381Y-35769035D02*
X41319285Y-35911892D01*
X41319285Y-35911892D02*
X41319285Y-36019035D01*
X41319285Y-36019035D02*
X41287381Y-36161892D01*
X41287381Y-36161892D02*
X41255476Y-36233321D01*
X41255476Y-36233321D02*
X41191666Y-36304750D01*
X41191666Y-36304750D02*
X41095952Y-36340464D01*
X41095952Y-36340464D02*
X40936428Y-36340464D01*
X41574524Y-35661892D02*
X41606428Y-35626178D01*
X41606428Y-35626178D02*
X41670238Y-35590464D01*
X41670238Y-35590464D02*
X41829762Y-35590464D01*
X41829762Y-35590464D02*
X41893571Y-35626178D01*
X41893571Y-35626178D02*
X41925476Y-35661892D01*
X41925476Y-35661892D02*
X41957381Y-35733321D01*
X41957381Y-35733321D02*
X41957381Y-35804750D01*
X41957381Y-35804750D02*
X41925476Y-35911892D01*
X41925476Y-35911892D02*
X41542619Y-36340464D01*
X41542619Y-36340464D02*
X41957381Y-36340464D01*
X42723095Y-35554750D02*
X42148809Y-36519035D01*
X43329285Y-36340464D02*
X43105952Y-35983321D01*
X42946428Y-36340464D02*
X42946428Y-35590464D01*
X42946428Y-35590464D02*
X43201666Y-35590464D01*
X43201666Y-35590464D02*
X43265476Y-35626178D01*
X43265476Y-35626178D02*
X43297381Y-35661892D01*
X43297381Y-35661892D02*
X43329285Y-35733321D01*
X43329285Y-35733321D02*
X43329285Y-35840464D01*
X43329285Y-35840464D02*
X43297381Y-35911892D01*
X43297381Y-35911892D02*
X43265476Y-35947607D01*
X43265476Y-35947607D02*
X43201666Y-35983321D01*
X43201666Y-35983321D02*
X42946428Y-35983321D01*
X43552619Y-35590464D02*
X43999285Y-36340464D01*
X43999285Y-35590464D02*
X43552619Y-36340464D01*
X44605476Y-36340464D02*
X44222619Y-36340464D01*
X44414047Y-36340464D02*
X44414047Y-35590464D01*
X44414047Y-35590464D02*
X44350238Y-35697607D01*
X44350238Y-35697607D02*
X44286428Y-35769035D01*
X44286428Y-35769035D02*
X44222619Y-35804750D01*
X33072381Y-56640464D02*
X32689524Y-56640464D01*
X32880952Y-56640464D02*
X32880952Y-55890464D01*
X32880952Y-55890464D02*
X32817143Y-55997607D01*
X32817143Y-55997607D02*
X32753333Y-56069035D01*
X32753333Y-56069035D02*
X32689524Y-56104750D01*
X33646666Y-56140464D02*
X33646666Y-56640464D01*
X33487142Y-55854750D02*
X33327619Y-56390464D01*
X33327619Y-56390464D02*
X33742380Y-56390464D01*
X34476190Y-55854750D02*
X33901904Y-56819035D01*
X34922857Y-56247607D02*
X35018571Y-56283321D01*
X35018571Y-56283321D02*
X35050476Y-56319035D01*
X35050476Y-56319035D02*
X35082380Y-56390464D01*
X35082380Y-56390464D02*
X35082380Y-56497607D01*
X35082380Y-56497607D02*
X35050476Y-56569035D01*
X35050476Y-56569035D02*
X35018571Y-56604750D01*
X35018571Y-56604750D02*
X34954761Y-56640464D01*
X34954761Y-56640464D02*
X34699523Y-56640464D01*
X34699523Y-56640464D02*
X34699523Y-55890464D01*
X34699523Y-55890464D02*
X34922857Y-55890464D01*
X34922857Y-55890464D02*
X34986666Y-55926178D01*
X34986666Y-55926178D02*
X35018571Y-55961892D01*
X35018571Y-55961892D02*
X35050476Y-56033321D01*
X35050476Y-56033321D02*
X35050476Y-56104750D01*
X35050476Y-56104750D02*
X35018571Y-56176178D01*
X35018571Y-56176178D02*
X34986666Y-56211892D01*
X34986666Y-56211892D02*
X34922857Y-56247607D01*
X34922857Y-56247607D02*
X34699523Y-56247607D01*
X35305714Y-55890464D02*
X35720476Y-55890464D01*
X35720476Y-55890464D02*
X35497142Y-56176178D01*
X35497142Y-56176178D02*
X35592857Y-56176178D01*
X35592857Y-56176178D02*
X35656666Y-56211892D01*
X35656666Y-56211892D02*
X35688571Y-56247607D01*
X35688571Y-56247607D02*
X35720476Y-56319035D01*
X35720476Y-56319035D02*
X35720476Y-56497607D01*
X35720476Y-56497607D02*
X35688571Y-56569035D01*
X35688571Y-56569035D02*
X35656666Y-56604750D01*
X35656666Y-56604750D02*
X35592857Y-56640464D01*
X35592857Y-56640464D02*
X35401428Y-56640464D01*
X35401428Y-56640464D02*
X35337619Y-56604750D01*
X35337619Y-56604750D02*
X35305714Y-56569035D01*
X42363810Y-58647607D02*
X42459524Y-58683321D01*
X42459524Y-58683321D02*
X42491429Y-58719035D01*
X42491429Y-58719035D02*
X42523333Y-58790464D01*
X42523333Y-58790464D02*
X42523333Y-58897607D01*
X42523333Y-58897607D02*
X42491429Y-58969035D01*
X42491429Y-58969035D02*
X42459524Y-59004750D01*
X42459524Y-59004750D02*
X42395714Y-59040464D01*
X42395714Y-59040464D02*
X42140476Y-59040464D01*
X42140476Y-59040464D02*
X42140476Y-58290464D01*
X42140476Y-58290464D02*
X42363810Y-58290464D01*
X42363810Y-58290464D02*
X42427619Y-58326178D01*
X42427619Y-58326178D02*
X42459524Y-58361892D01*
X42459524Y-58361892D02*
X42491429Y-58433321D01*
X42491429Y-58433321D02*
X42491429Y-58504750D01*
X42491429Y-58504750D02*
X42459524Y-58576178D01*
X42459524Y-58576178D02*
X42427619Y-58611892D01*
X42427619Y-58611892D02*
X42363810Y-58647607D01*
X42363810Y-58647607D02*
X42140476Y-58647607D01*
X43097619Y-58540464D02*
X43097619Y-59040464D01*
X42938095Y-58254750D02*
X42778572Y-58790464D01*
X42778572Y-58790464D02*
X43193333Y-58790464D01*
X43927143Y-58254750D02*
X43352857Y-59219035D01*
X44246191Y-58611892D02*
X44182381Y-58576178D01*
X44182381Y-58576178D02*
X44150476Y-58540464D01*
X44150476Y-58540464D02*
X44118572Y-58469035D01*
X44118572Y-58469035D02*
X44118572Y-58433321D01*
X44118572Y-58433321D02*
X44150476Y-58361892D01*
X44150476Y-58361892D02*
X44182381Y-58326178D01*
X44182381Y-58326178D02*
X44246191Y-58290464D01*
X44246191Y-58290464D02*
X44373810Y-58290464D01*
X44373810Y-58290464D02*
X44437619Y-58326178D01*
X44437619Y-58326178D02*
X44469524Y-58361892D01*
X44469524Y-58361892D02*
X44501429Y-58433321D01*
X44501429Y-58433321D02*
X44501429Y-58469035D01*
X44501429Y-58469035D02*
X44469524Y-58540464D01*
X44469524Y-58540464D02*
X44437619Y-58576178D01*
X44437619Y-58576178D02*
X44373810Y-58611892D01*
X44373810Y-58611892D02*
X44246191Y-58611892D01*
X44246191Y-58611892D02*
X44182381Y-58647607D01*
X44182381Y-58647607D02*
X44150476Y-58683321D01*
X44150476Y-58683321D02*
X44118572Y-58754750D01*
X44118572Y-58754750D02*
X44118572Y-58897607D01*
X44118572Y-58897607D02*
X44150476Y-58969035D01*
X44150476Y-58969035D02*
X44182381Y-59004750D01*
X44182381Y-59004750D02*
X44246191Y-59040464D01*
X44246191Y-59040464D02*
X44373810Y-59040464D01*
X44373810Y-59040464D02*
X44437619Y-59004750D01*
X44437619Y-59004750D02*
X44469524Y-58969035D01*
X44469524Y-58969035D02*
X44501429Y-58897607D01*
X44501429Y-58897607D02*
X44501429Y-58754750D01*
X44501429Y-58754750D02*
X44469524Y-58683321D01*
X44469524Y-58683321D02*
X44437619Y-58647607D01*
X44437619Y-58647607D02*
X44373810Y-58611892D01*
X33072381Y-59190464D02*
X32689524Y-59190464D01*
X32880952Y-59190464D02*
X32880952Y-58440464D01*
X32880952Y-58440464D02*
X32817143Y-58547607D01*
X32817143Y-58547607D02*
X32753333Y-58619035D01*
X32753333Y-58619035D02*
X32689524Y-58654750D01*
X33646666Y-58440464D02*
X33519047Y-58440464D01*
X33519047Y-58440464D02*
X33455238Y-58476178D01*
X33455238Y-58476178D02*
X33423333Y-58511892D01*
X33423333Y-58511892D02*
X33359523Y-58619035D01*
X33359523Y-58619035D02*
X33327619Y-58761892D01*
X33327619Y-58761892D02*
X33327619Y-59047607D01*
X33327619Y-59047607D02*
X33359523Y-59119035D01*
X33359523Y-59119035D02*
X33391428Y-59154750D01*
X33391428Y-59154750D02*
X33455238Y-59190464D01*
X33455238Y-59190464D02*
X33582857Y-59190464D01*
X33582857Y-59190464D02*
X33646666Y-59154750D01*
X33646666Y-59154750D02*
X33678571Y-59119035D01*
X33678571Y-59119035D02*
X33710476Y-59047607D01*
X33710476Y-59047607D02*
X33710476Y-58869035D01*
X33710476Y-58869035D02*
X33678571Y-58797607D01*
X33678571Y-58797607D02*
X33646666Y-58761892D01*
X33646666Y-58761892D02*
X33582857Y-58726178D01*
X33582857Y-58726178D02*
X33455238Y-58726178D01*
X33455238Y-58726178D02*
X33391428Y-58761892D01*
X33391428Y-58761892D02*
X33359523Y-58797607D01*
X33359523Y-58797607D02*
X33327619Y-58869035D01*
X34476190Y-58404750D02*
X33901904Y-59369035D01*
X34922857Y-58797607D02*
X35018571Y-58833321D01*
X35018571Y-58833321D02*
X35050476Y-58869035D01*
X35050476Y-58869035D02*
X35082380Y-58940464D01*
X35082380Y-58940464D02*
X35082380Y-59047607D01*
X35082380Y-59047607D02*
X35050476Y-59119035D01*
X35050476Y-59119035D02*
X35018571Y-59154750D01*
X35018571Y-59154750D02*
X34954761Y-59190464D01*
X34954761Y-59190464D02*
X34699523Y-59190464D01*
X34699523Y-59190464D02*
X34699523Y-58440464D01*
X34699523Y-58440464D02*
X34922857Y-58440464D01*
X34922857Y-58440464D02*
X34986666Y-58476178D01*
X34986666Y-58476178D02*
X35018571Y-58511892D01*
X35018571Y-58511892D02*
X35050476Y-58583321D01*
X35050476Y-58583321D02*
X35050476Y-58654750D01*
X35050476Y-58654750D02*
X35018571Y-58726178D01*
X35018571Y-58726178D02*
X34986666Y-58761892D01*
X34986666Y-58761892D02*
X34922857Y-58797607D01*
X34922857Y-58797607D02*
X34699523Y-58797607D01*
X35337619Y-58511892D02*
X35369523Y-58476178D01*
X35369523Y-58476178D02*
X35433333Y-58440464D01*
X35433333Y-58440464D02*
X35592857Y-58440464D01*
X35592857Y-58440464D02*
X35656666Y-58476178D01*
X35656666Y-58476178D02*
X35688571Y-58511892D01*
X35688571Y-58511892D02*
X35720476Y-58583321D01*
X35720476Y-58583321D02*
X35720476Y-58654750D01*
X35720476Y-58654750D02*
X35688571Y-58761892D01*
X35688571Y-58761892D02*
X35305714Y-59190464D01*
X35305714Y-59190464D02*
X35720476Y-59190464D01*
X32769286Y-43776178D02*
X33088333Y-43776178D01*
X32705476Y-43990464D02*
X32928809Y-43240464D01*
X32928809Y-43240464D02*
X33152143Y-43990464D01*
X33311667Y-43240464D02*
X33726429Y-43240464D01*
X33726429Y-43240464D02*
X33503095Y-43526178D01*
X33503095Y-43526178D02*
X33598810Y-43526178D01*
X33598810Y-43526178D02*
X33662619Y-43561892D01*
X33662619Y-43561892D02*
X33694524Y-43597607D01*
X33694524Y-43597607D02*
X33726429Y-43669035D01*
X33726429Y-43669035D02*
X33726429Y-43847607D01*
X33726429Y-43847607D02*
X33694524Y-43919035D01*
X33694524Y-43919035D02*
X33662619Y-43954750D01*
X33662619Y-43954750D02*
X33598810Y-43990464D01*
X33598810Y-43990464D02*
X33407381Y-43990464D01*
X33407381Y-43990464D02*
X33343572Y-43954750D01*
X33343572Y-43954750D02*
X33311667Y-43919035D01*
X34492143Y-43204750D02*
X33917857Y-44169035D01*
X34938810Y-43597607D02*
X34715476Y-43597607D01*
X34715476Y-43990464D02*
X34715476Y-43240464D01*
X34715476Y-43240464D02*
X35034524Y-43240464D01*
X35576905Y-43490464D02*
X35576905Y-43990464D01*
X35417381Y-43204750D02*
X35257858Y-43740464D01*
X35257858Y-43740464D02*
X35672619Y-43740464D01*
X33129524Y-35636178D02*
X33065714Y-35600464D01*
X33065714Y-35600464D02*
X32970000Y-35600464D01*
X32970000Y-35600464D02*
X32874286Y-35636178D01*
X32874286Y-35636178D02*
X32810476Y-35707607D01*
X32810476Y-35707607D02*
X32778571Y-35779035D01*
X32778571Y-35779035D02*
X32746667Y-35921892D01*
X32746667Y-35921892D02*
X32746667Y-36029035D01*
X32746667Y-36029035D02*
X32778571Y-36171892D01*
X32778571Y-36171892D02*
X32810476Y-36243321D01*
X32810476Y-36243321D02*
X32874286Y-36314750D01*
X32874286Y-36314750D02*
X32970000Y-36350464D01*
X32970000Y-36350464D02*
X33033809Y-36350464D01*
X33033809Y-36350464D02*
X33129524Y-36314750D01*
X33129524Y-36314750D02*
X33161428Y-36279035D01*
X33161428Y-36279035D02*
X33161428Y-36029035D01*
X33161428Y-36029035D02*
X33033809Y-36029035D01*
X33448571Y-36350464D02*
X33448571Y-35600464D01*
X33448571Y-35600464D02*
X33831428Y-36350464D01*
X33831428Y-36350464D02*
X33831428Y-35600464D01*
X34150476Y-36350464D02*
X34150476Y-35600464D01*
X34150476Y-35600464D02*
X34310000Y-35600464D01*
X34310000Y-35600464D02*
X34405714Y-35636178D01*
X34405714Y-35636178D02*
X34469524Y-35707607D01*
X34469524Y-35707607D02*
X34501429Y-35779035D01*
X34501429Y-35779035D02*
X34533333Y-35921892D01*
X34533333Y-35921892D02*
X34533333Y-36029035D01*
X34533333Y-36029035D02*
X34501429Y-36171892D01*
X34501429Y-36171892D02*
X34469524Y-36243321D01*
X34469524Y-36243321D02*
X34405714Y-36314750D01*
X34405714Y-36314750D02*
X34310000Y-36350464D01*
X34310000Y-36350464D02*
X34150476Y-36350464D01*
X41016190Y-33790464D02*
X41016190Y-33040464D01*
X41016190Y-33040464D02*
X41175714Y-33040464D01*
X41175714Y-33040464D02*
X41271428Y-33076178D01*
X41271428Y-33076178D02*
X41335238Y-33147607D01*
X41335238Y-33147607D02*
X41367143Y-33219035D01*
X41367143Y-33219035D02*
X41399047Y-33361892D01*
X41399047Y-33361892D02*
X41399047Y-33469035D01*
X41399047Y-33469035D02*
X41367143Y-33611892D01*
X41367143Y-33611892D02*
X41335238Y-33683321D01*
X41335238Y-33683321D02*
X41271428Y-33754750D01*
X41271428Y-33754750D02*
X41175714Y-33790464D01*
X41175714Y-33790464D02*
X41016190Y-33790464D01*
X41622381Y-33040464D02*
X42037143Y-33040464D01*
X42037143Y-33040464D02*
X41813809Y-33326178D01*
X41813809Y-33326178D02*
X41909524Y-33326178D01*
X41909524Y-33326178D02*
X41973333Y-33361892D01*
X41973333Y-33361892D02*
X42005238Y-33397607D01*
X42005238Y-33397607D02*
X42037143Y-33469035D01*
X42037143Y-33469035D02*
X42037143Y-33647607D01*
X42037143Y-33647607D02*
X42005238Y-33719035D01*
X42005238Y-33719035D02*
X41973333Y-33754750D01*
X41973333Y-33754750D02*
X41909524Y-33790464D01*
X41909524Y-33790464D02*
X41718095Y-33790464D01*
X41718095Y-33790464D02*
X41654286Y-33754750D01*
X41654286Y-33754750D02*
X41622381Y-33719035D01*
X42802857Y-33004750D02*
X42228571Y-33969035D01*
X42930476Y-33040464D02*
X43313333Y-33040464D01*
X43121905Y-33790464D02*
X43121905Y-33040464D01*
X43472857Y-33040464D02*
X43919523Y-33790464D01*
X43919523Y-33040464D02*
X43472857Y-33790464D01*
X44302380Y-33040464D02*
X44366190Y-33040464D01*
X44366190Y-33040464D02*
X44429999Y-33076178D01*
X44429999Y-33076178D02*
X44461904Y-33111892D01*
X44461904Y-33111892D02*
X44493809Y-33183321D01*
X44493809Y-33183321D02*
X44525714Y-33326178D01*
X44525714Y-33326178D02*
X44525714Y-33504750D01*
X44525714Y-33504750D02*
X44493809Y-33647607D01*
X44493809Y-33647607D02*
X44461904Y-33719035D01*
X44461904Y-33719035D02*
X44429999Y-33754750D01*
X44429999Y-33754750D02*
X44366190Y-33790464D01*
X44366190Y-33790464D02*
X44302380Y-33790464D01*
X44302380Y-33790464D02*
X44238571Y-33754750D01*
X44238571Y-33754750D02*
X44206666Y-33719035D01*
X44206666Y-33719035D02*
X44174761Y-33647607D01*
X44174761Y-33647607D02*
X44142857Y-33504750D01*
X44142857Y-33504750D02*
X44142857Y-33326178D01*
X44142857Y-33326178D02*
X44174761Y-33183321D01*
X44174761Y-33183321D02*
X44206666Y-33111892D01*
X44206666Y-33111892D02*
X44238571Y-33076178D01*
X44238571Y-33076178D02*
X44302380Y-33040464D01*
X42140476Y-53940464D02*
X42140476Y-53190464D01*
X42140476Y-53190464D02*
X42300000Y-53190464D01*
X42300000Y-53190464D02*
X42395714Y-53226178D01*
X42395714Y-53226178D02*
X42459524Y-53297607D01*
X42459524Y-53297607D02*
X42491429Y-53369035D01*
X42491429Y-53369035D02*
X42523333Y-53511892D01*
X42523333Y-53511892D02*
X42523333Y-53619035D01*
X42523333Y-53619035D02*
X42491429Y-53761892D01*
X42491429Y-53761892D02*
X42459524Y-53833321D01*
X42459524Y-53833321D02*
X42395714Y-53904750D01*
X42395714Y-53904750D02*
X42300000Y-53940464D01*
X42300000Y-53940464D02*
X42140476Y-53940464D01*
X42746667Y-53190464D02*
X43193333Y-53190464D01*
X43193333Y-53190464D02*
X42906191Y-53940464D01*
X43927143Y-53154750D02*
X43352857Y-54119035D01*
X44437619Y-53190464D02*
X44310000Y-53190464D01*
X44310000Y-53190464D02*
X44246191Y-53226178D01*
X44246191Y-53226178D02*
X44214286Y-53261892D01*
X44214286Y-53261892D02*
X44150476Y-53369035D01*
X44150476Y-53369035D02*
X44118572Y-53511892D01*
X44118572Y-53511892D02*
X44118572Y-53797607D01*
X44118572Y-53797607D02*
X44150476Y-53869035D01*
X44150476Y-53869035D02*
X44182381Y-53904750D01*
X44182381Y-53904750D02*
X44246191Y-53940464D01*
X44246191Y-53940464D02*
X44373810Y-53940464D01*
X44373810Y-53940464D02*
X44437619Y-53904750D01*
X44437619Y-53904750D02*
X44469524Y-53869035D01*
X44469524Y-53869035D02*
X44501429Y-53797607D01*
X44501429Y-53797607D02*
X44501429Y-53619035D01*
X44501429Y-53619035D02*
X44469524Y-53547607D01*
X44469524Y-53547607D02*
X44437619Y-53511892D01*
X44437619Y-53511892D02*
X44373810Y-53476178D01*
X44373810Y-53476178D02*
X44246191Y-53476178D01*
X44246191Y-53476178D02*
X44182381Y-53511892D01*
X44182381Y-53511892D02*
X44150476Y-53547607D01*
X44150476Y-53547607D02*
X44118572Y-53619035D01*
X39566429Y-43804750D02*
X39662143Y-43840464D01*
X39662143Y-43840464D02*
X39821667Y-43840464D01*
X39821667Y-43840464D02*
X39885476Y-43804750D01*
X39885476Y-43804750D02*
X39917381Y-43769035D01*
X39917381Y-43769035D02*
X39949286Y-43697607D01*
X39949286Y-43697607D02*
X39949286Y-43626178D01*
X39949286Y-43626178D02*
X39917381Y-43554750D01*
X39917381Y-43554750D02*
X39885476Y-43519035D01*
X39885476Y-43519035D02*
X39821667Y-43483321D01*
X39821667Y-43483321D02*
X39694048Y-43447607D01*
X39694048Y-43447607D02*
X39630238Y-43411892D01*
X39630238Y-43411892D02*
X39598333Y-43376178D01*
X39598333Y-43376178D02*
X39566429Y-43304750D01*
X39566429Y-43304750D02*
X39566429Y-43233321D01*
X39566429Y-43233321D02*
X39598333Y-43161892D01*
X39598333Y-43161892D02*
X39630238Y-43126178D01*
X39630238Y-43126178D02*
X39694048Y-43090464D01*
X39694048Y-43090464D02*
X39853571Y-43090464D01*
X39853571Y-43090464D02*
X39949286Y-43126178D01*
X40236428Y-43840464D02*
X40236428Y-43090464D01*
X40236428Y-43090464D02*
X40395952Y-43090464D01*
X40395952Y-43090464D02*
X40491666Y-43126178D01*
X40491666Y-43126178D02*
X40555476Y-43197607D01*
X40555476Y-43197607D02*
X40587381Y-43269035D01*
X40587381Y-43269035D02*
X40619285Y-43411892D01*
X40619285Y-43411892D02*
X40619285Y-43519035D01*
X40619285Y-43519035D02*
X40587381Y-43661892D01*
X40587381Y-43661892D02*
X40555476Y-43733321D01*
X40555476Y-43733321D02*
X40491666Y-43804750D01*
X40491666Y-43804750D02*
X40395952Y-43840464D01*
X40395952Y-43840464D02*
X40236428Y-43840464D01*
X40874524Y-43626178D02*
X41193571Y-43626178D01*
X40810714Y-43840464D02*
X41034047Y-43090464D01*
X41034047Y-43090464D02*
X41257381Y-43840464D01*
X41959286Y-43054750D02*
X41385000Y-44019035D01*
X42182619Y-43840464D02*
X42182619Y-43090464D01*
X42182619Y-43090464D02*
X42342143Y-43090464D01*
X42342143Y-43090464D02*
X42437857Y-43126178D01*
X42437857Y-43126178D02*
X42501667Y-43197607D01*
X42501667Y-43197607D02*
X42533572Y-43269035D01*
X42533572Y-43269035D02*
X42565476Y-43411892D01*
X42565476Y-43411892D02*
X42565476Y-43519035D01*
X42565476Y-43519035D02*
X42533572Y-43661892D01*
X42533572Y-43661892D02*
X42501667Y-43733321D01*
X42501667Y-43733321D02*
X42437857Y-43804750D01*
X42437857Y-43804750D02*
X42342143Y-43840464D01*
X42342143Y-43840464D02*
X42182619Y-43840464D01*
X43203572Y-43840464D02*
X42820715Y-43840464D01*
X43012143Y-43840464D02*
X43012143Y-43090464D01*
X43012143Y-43090464D02*
X42948334Y-43197607D01*
X42948334Y-43197607D02*
X42884524Y-43269035D01*
X42884524Y-43269035D02*
X42820715Y-43304750D01*
X43969286Y-43054750D02*
X43395000Y-44019035D01*
X44160715Y-43161892D02*
X44192619Y-43126178D01*
X44192619Y-43126178D02*
X44256429Y-43090464D01*
X44256429Y-43090464D02*
X44415953Y-43090464D01*
X44415953Y-43090464D02*
X44479762Y-43126178D01*
X44479762Y-43126178D02*
X44511667Y-43161892D01*
X44511667Y-43161892D02*
X44543572Y-43233321D01*
X44543572Y-43233321D02*
X44543572Y-43304750D01*
X44543572Y-43304750D02*
X44511667Y-43411892D01*
X44511667Y-43411892D02*
X44128810Y-43840464D01*
X44128810Y-43840464D02*
X44543572Y-43840464D01*
X32769286Y-46276178D02*
X33088333Y-46276178D01*
X32705476Y-46490464D02*
X32928809Y-45740464D01*
X32928809Y-45740464D02*
X33152143Y-46490464D01*
X33343572Y-45811892D02*
X33375476Y-45776178D01*
X33375476Y-45776178D02*
X33439286Y-45740464D01*
X33439286Y-45740464D02*
X33598810Y-45740464D01*
X33598810Y-45740464D02*
X33662619Y-45776178D01*
X33662619Y-45776178D02*
X33694524Y-45811892D01*
X33694524Y-45811892D02*
X33726429Y-45883321D01*
X33726429Y-45883321D02*
X33726429Y-45954750D01*
X33726429Y-45954750D02*
X33694524Y-46061892D01*
X33694524Y-46061892D02*
X33311667Y-46490464D01*
X33311667Y-46490464D02*
X33726429Y-46490464D01*
X34492143Y-45704750D02*
X33917857Y-46669035D01*
X34938810Y-46097607D02*
X34715476Y-46097607D01*
X34715476Y-46490464D02*
X34715476Y-45740464D01*
X34715476Y-45740464D02*
X35034524Y-45740464D01*
X35608810Y-45740464D02*
X35289762Y-45740464D01*
X35289762Y-45740464D02*
X35257858Y-46097607D01*
X35257858Y-46097607D02*
X35289762Y-46061892D01*
X35289762Y-46061892D02*
X35353572Y-46026178D01*
X35353572Y-46026178D02*
X35513096Y-46026178D01*
X35513096Y-46026178D02*
X35576905Y-46061892D01*
X35576905Y-46061892D02*
X35608810Y-46097607D01*
X35608810Y-46097607D02*
X35640715Y-46169035D01*
X35640715Y-46169035D02*
X35640715Y-46347607D01*
X35640715Y-46347607D02*
X35608810Y-46419035D01*
X35608810Y-46419035D02*
X35576905Y-46454750D01*
X35576905Y-46454750D02*
X35513096Y-46490464D01*
X35513096Y-46490464D02*
X35353572Y-46490464D01*
X35353572Y-46490464D02*
X35289762Y-46454750D01*
X35289762Y-46454750D02*
X35257858Y-46419035D01*
X32596666Y-40820464D02*
X32819999Y-41570464D01*
X32819999Y-41570464D02*
X33043333Y-40820464D01*
X33649523Y-41499035D02*
X33617619Y-41534750D01*
X33617619Y-41534750D02*
X33521904Y-41570464D01*
X33521904Y-41570464D02*
X33458095Y-41570464D01*
X33458095Y-41570464D02*
X33362381Y-41534750D01*
X33362381Y-41534750D02*
X33298571Y-41463321D01*
X33298571Y-41463321D02*
X33266666Y-41391892D01*
X33266666Y-41391892D02*
X33234762Y-41249035D01*
X33234762Y-41249035D02*
X33234762Y-41141892D01*
X33234762Y-41141892D02*
X33266666Y-40999035D01*
X33266666Y-40999035D02*
X33298571Y-40927607D01*
X33298571Y-40927607D02*
X33362381Y-40856178D01*
X33362381Y-40856178D02*
X33458095Y-40820464D01*
X33458095Y-40820464D02*
X33521904Y-40820464D01*
X33521904Y-40820464D02*
X33617619Y-40856178D01*
X33617619Y-40856178D02*
X33649523Y-40891892D01*
X34319523Y-41499035D02*
X34287619Y-41534750D01*
X34287619Y-41534750D02*
X34191904Y-41570464D01*
X34191904Y-41570464D02*
X34128095Y-41570464D01*
X34128095Y-41570464D02*
X34032381Y-41534750D01*
X34032381Y-41534750D02*
X33968571Y-41463321D01*
X33968571Y-41463321D02*
X33936666Y-41391892D01*
X33936666Y-41391892D02*
X33904762Y-41249035D01*
X33904762Y-41249035D02*
X33904762Y-41141892D01*
X33904762Y-41141892D02*
X33936666Y-40999035D01*
X33936666Y-40999035D02*
X33968571Y-40927607D01*
X33968571Y-40927607D02*
X34032381Y-40856178D01*
X34032381Y-40856178D02*
X34128095Y-40820464D01*
X34128095Y-40820464D02*
X34191904Y-40820464D01*
X34191904Y-40820464D02*
X34287619Y-40856178D01*
X34287619Y-40856178D02*
X34319523Y-40891892D01*
X42140476Y-48840464D02*
X42140476Y-48090464D01*
X42140476Y-48090464D02*
X42300000Y-48090464D01*
X42300000Y-48090464D02*
X42395714Y-48126178D01*
X42395714Y-48126178D02*
X42459524Y-48197607D01*
X42459524Y-48197607D02*
X42491429Y-48269035D01*
X42491429Y-48269035D02*
X42523333Y-48411892D01*
X42523333Y-48411892D02*
X42523333Y-48519035D01*
X42523333Y-48519035D02*
X42491429Y-48661892D01*
X42491429Y-48661892D02*
X42459524Y-48733321D01*
X42459524Y-48733321D02*
X42395714Y-48804750D01*
X42395714Y-48804750D02*
X42300000Y-48840464D01*
X42300000Y-48840464D02*
X42140476Y-48840464D01*
X43097619Y-48340464D02*
X43097619Y-48840464D01*
X42938095Y-48054750D02*
X42778572Y-48590464D01*
X42778572Y-48590464D02*
X43193333Y-48590464D01*
X43927143Y-48054750D02*
X43352857Y-49019035D01*
X44437619Y-48340464D02*
X44437619Y-48840464D01*
X44278095Y-48054750D02*
X44118572Y-48590464D01*
X44118572Y-48590464D02*
X44533333Y-48590464D01*
X33072381Y-54090464D02*
X32689524Y-54090464D01*
X32880952Y-54090464D02*
X32880952Y-53340464D01*
X32880952Y-53340464D02*
X32817143Y-53447607D01*
X32817143Y-53447607D02*
X32753333Y-53519035D01*
X32753333Y-53519035D02*
X32689524Y-53554750D01*
X33678571Y-53340464D02*
X33359523Y-53340464D01*
X33359523Y-53340464D02*
X33327619Y-53697607D01*
X33327619Y-53697607D02*
X33359523Y-53661892D01*
X33359523Y-53661892D02*
X33423333Y-53626178D01*
X33423333Y-53626178D02*
X33582857Y-53626178D01*
X33582857Y-53626178D02*
X33646666Y-53661892D01*
X33646666Y-53661892D02*
X33678571Y-53697607D01*
X33678571Y-53697607D02*
X33710476Y-53769035D01*
X33710476Y-53769035D02*
X33710476Y-53947607D01*
X33710476Y-53947607D02*
X33678571Y-54019035D01*
X33678571Y-54019035D02*
X33646666Y-54054750D01*
X33646666Y-54054750D02*
X33582857Y-54090464D01*
X33582857Y-54090464D02*
X33423333Y-54090464D01*
X33423333Y-54090464D02*
X33359523Y-54054750D01*
X33359523Y-54054750D02*
X33327619Y-54019035D01*
X34476190Y-53304750D02*
X33901904Y-54269035D01*
X34922857Y-53697607D02*
X35018571Y-53733321D01*
X35018571Y-53733321D02*
X35050476Y-53769035D01*
X35050476Y-53769035D02*
X35082380Y-53840464D01*
X35082380Y-53840464D02*
X35082380Y-53947607D01*
X35082380Y-53947607D02*
X35050476Y-54019035D01*
X35050476Y-54019035D02*
X35018571Y-54054750D01*
X35018571Y-54054750D02*
X34954761Y-54090464D01*
X34954761Y-54090464D02*
X34699523Y-54090464D01*
X34699523Y-54090464D02*
X34699523Y-53340464D01*
X34699523Y-53340464D02*
X34922857Y-53340464D01*
X34922857Y-53340464D02*
X34986666Y-53376178D01*
X34986666Y-53376178D02*
X35018571Y-53411892D01*
X35018571Y-53411892D02*
X35050476Y-53483321D01*
X35050476Y-53483321D02*
X35050476Y-53554750D01*
X35050476Y-53554750D02*
X35018571Y-53626178D01*
X35018571Y-53626178D02*
X34986666Y-53661892D01*
X34986666Y-53661892D02*
X34922857Y-53697607D01*
X34922857Y-53697607D02*
X34699523Y-53697607D01*
X35720476Y-54090464D02*
X35337619Y-54090464D01*
X35529047Y-54090464D02*
X35529047Y-53340464D01*
X35529047Y-53340464D02*
X35465238Y-53447607D01*
X35465238Y-53447607D02*
X35401428Y-53519035D01*
X35401428Y-53519035D02*
X35337619Y-53554750D01*
D12*
D11*
X42172381Y-56097607D02*
X42395715Y-56097607D01*
X42491429Y-56490464D02*
X42172381Y-56490464D01*
X42172381Y-56490464D02*
X42172381Y-55740464D01*
X42172381Y-55740464D02*
X42491429Y-55740464D01*
X43065714Y-55740464D02*
X42938095Y-55740464D01*
X42938095Y-55740464D02*
X42874286Y-55776178D01*
X42874286Y-55776178D02*
X42842381Y-55811892D01*
X42842381Y-55811892D02*
X42778571Y-55919035D01*
X42778571Y-55919035D02*
X42746667Y-56061892D01*
X42746667Y-56061892D02*
X42746667Y-56347607D01*
X42746667Y-56347607D02*
X42778571Y-56419035D01*
X42778571Y-56419035D02*
X42810476Y-56454750D01*
X42810476Y-56454750D02*
X42874286Y-56490464D01*
X42874286Y-56490464D02*
X43001905Y-56490464D01*
X43001905Y-56490464D02*
X43065714Y-56454750D01*
X43065714Y-56454750D02*
X43097619Y-56419035D01*
X43097619Y-56419035D02*
X43129524Y-56347607D01*
X43129524Y-56347607D02*
X43129524Y-56169035D01*
X43129524Y-56169035D02*
X43097619Y-56097607D01*
X43097619Y-56097607D02*
X43065714Y-56061892D01*
X43065714Y-56061892D02*
X43001905Y-56026178D01*
X43001905Y-56026178D02*
X42874286Y-56026178D01*
X42874286Y-56026178D02*
X42810476Y-56061892D01*
X42810476Y-56061892D02*
X42778571Y-56097607D01*
X42778571Y-56097607D02*
X42746667Y-56169035D01*
X43895238Y-55704750D02*
X43320952Y-56669035D01*
X44054762Y-55740464D02*
X44501428Y-55740464D01*
X44501428Y-55740464D02*
X44214286Y-56490464D01*
X42523333Y-51319035D02*
X42491429Y-51354750D01*
X42491429Y-51354750D02*
X42395714Y-51390464D01*
X42395714Y-51390464D02*
X42331905Y-51390464D01*
X42331905Y-51390464D02*
X42236191Y-51354750D01*
X42236191Y-51354750D02*
X42172381Y-51283321D01*
X42172381Y-51283321D02*
X42140476Y-51211892D01*
X42140476Y-51211892D02*
X42108572Y-51069035D01*
X42108572Y-51069035D02*
X42108572Y-50961892D01*
X42108572Y-50961892D02*
X42140476Y-50819035D01*
X42140476Y-50819035D02*
X42172381Y-50747607D01*
X42172381Y-50747607D02*
X42236191Y-50676178D01*
X42236191Y-50676178D02*
X42331905Y-50640464D01*
X42331905Y-50640464D02*
X42395714Y-50640464D01*
X42395714Y-50640464D02*
X42491429Y-50676178D01*
X42491429Y-50676178D02*
X42523333Y-50711892D01*
X43097619Y-50640464D02*
X42970000Y-50640464D01*
X42970000Y-50640464D02*
X42906191Y-50676178D01*
X42906191Y-50676178D02*
X42874286Y-50711892D01*
X42874286Y-50711892D02*
X42810476Y-50819035D01*
X42810476Y-50819035D02*
X42778572Y-50961892D01*
X42778572Y-50961892D02*
X42778572Y-51247607D01*
X42778572Y-51247607D02*
X42810476Y-51319035D01*
X42810476Y-51319035D02*
X42842381Y-51354750D01*
X42842381Y-51354750D02*
X42906191Y-51390464D01*
X42906191Y-51390464D02*
X43033810Y-51390464D01*
X43033810Y-51390464D02*
X43097619Y-51354750D01*
X43097619Y-51354750D02*
X43129524Y-51319035D01*
X43129524Y-51319035D02*
X43161429Y-51247607D01*
X43161429Y-51247607D02*
X43161429Y-51069035D01*
X43161429Y-51069035D02*
X43129524Y-50997607D01*
X43129524Y-50997607D02*
X43097619Y-50961892D01*
X43097619Y-50961892D02*
X43033810Y-50926178D01*
X43033810Y-50926178D02*
X42906191Y-50926178D01*
X42906191Y-50926178D02*
X42842381Y-50961892D01*
X42842381Y-50961892D02*
X42810476Y-50997607D01*
X42810476Y-50997607D02*
X42778572Y-51069035D01*
X43927143Y-50604750D02*
X43352857Y-51569035D01*
X44469524Y-50640464D02*
X44150476Y-50640464D01*
X44150476Y-50640464D02*
X44118572Y-50997607D01*
X44118572Y-50997607D02*
X44150476Y-50961892D01*
X44150476Y-50961892D02*
X44214286Y-50926178D01*
X44214286Y-50926178D02*
X44373810Y-50926178D01*
X44373810Y-50926178D02*
X44437619Y-50961892D01*
X44437619Y-50961892D02*
X44469524Y-50997607D01*
X44469524Y-50997607D02*
X44501429Y-51069035D01*
X44501429Y-51069035D02*
X44501429Y-51247607D01*
X44501429Y-51247607D02*
X44469524Y-51319035D01*
X44469524Y-51319035D02*
X44437619Y-51354750D01*
X44437619Y-51354750D02*
X44373810Y-51390464D01*
X44373810Y-51390464D02*
X44214286Y-51390464D01*
X44214286Y-51390464D02*
X44150476Y-51354750D01*
X44150476Y-51354750D02*
X44118572Y-51319035D01*
D10*
X56340476Y-82607200D02*
X56483333Y-82654819D01*
X56483333Y-82654819D02*
X56721428Y-82654819D01*
X56721428Y-82654819D02*
X56816666Y-82607200D01*
X56816666Y-82607200D02*
X56864285Y-82559580D01*
X56864285Y-82559580D02*
X56911904Y-82464342D01*
X56911904Y-82464342D02*
X56911904Y-82369104D01*
X56911904Y-82369104D02*
X56864285Y-82273866D01*
X56864285Y-82273866D02*
X56816666Y-82226247D01*
X56816666Y-82226247D02*
X56721428Y-82178628D01*
X56721428Y-82178628D02*
X56530952Y-82131009D01*
X56530952Y-82131009D02*
X56435714Y-82083390D01*
X56435714Y-82083390D02*
X56388095Y-82035771D01*
X56388095Y-82035771D02*
X56340476Y-81940533D01*
X56340476Y-81940533D02*
X56340476Y-81845295D01*
X56340476Y-81845295D02*
X56388095Y-81750057D01*
X56388095Y-81750057D02*
X56435714Y-81702438D01*
X56435714Y-81702438D02*
X56530952Y-81654819D01*
X56530952Y-81654819D02*
X56769047Y-81654819D01*
X56769047Y-81654819D02*
X56911904Y-81702438D01*
X57245238Y-81654819D02*
X57483333Y-82654819D01*
X57483333Y-82654819D02*
X57673809Y-81940533D01*
X57673809Y-81940533D02*
X57864285Y-82654819D01*
X57864285Y-82654819D02*
X58102381Y-81654819D01*
X59007142Y-82654819D02*
X58435714Y-82654819D01*
X58721428Y-82654819D02*
X58721428Y-81654819D01*
X58721428Y-81654819D02*
X58626190Y-81797676D01*
X58626190Y-81797676D02*
X58530952Y-81892914D01*
X58530952Y-81892914D02*
X58435714Y-81940533D01*
X59864285Y-81654819D02*
X59673809Y-81654819D01*
X59673809Y-81654819D02*
X59578571Y-81702438D01*
X59578571Y-81702438D02*
X59530952Y-81750057D01*
X59530952Y-81750057D02*
X59435714Y-81892914D01*
X59435714Y-81892914D02*
X59388095Y-82083390D01*
X59388095Y-82083390D02*
X59388095Y-82464342D01*
X59388095Y-82464342D02*
X59435714Y-82559580D01*
X59435714Y-82559580D02*
X59483333Y-82607200D01*
X59483333Y-82607200D02*
X59578571Y-82654819D01*
X59578571Y-82654819D02*
X59769047Y-82654819D01*
X59769047Y-82654819D02*
X59864285Y-82607200D01*
X59864285Y-82607200D02*
X59911904Y-82559580D01*
X59911904Y-82559580D02*
X59959523Y-82464342D01*
X59959523Y-82464342D02*
X59959523Y-82226247D01*
X59959523Y-82226247D02*
X59911904Y-82131009D01*
X59911904Y-82131009D02*
X59864285Y-82083390D01*
X59864285Y-82083390D02*
X59769047Y-82035771D01*
X59769047Y-82035771D02*
X59578571Y-82035771D01*
X59578571Y-82035771D02*
X59483333Y-82083390D01*
X59483333Y-82083390D02*
X59435714Y-82131009D01*
X59435714Y-82131009D02*
X59388095Y-82226247D01*
X38254819Y-94564285D02*
X37254819Y-94564285D01*
X37254819Y-94564285D02*
X37254819Y-94326190D01*
X37254819Y-94326190D02*
X37302438Y-94183333D01*
X37302438Y-94183333D02*
X37397676Y-94088095D01*
X37397676Y-94088095D02*
X37492914Y-94040476D01*
X37492914Y-94040476D02*
X37683390Y-93992857D01*
X37683390Y-93992857D02*
X37826247Y-93992857D01*
X37826247Y-93992857D02*
X38016723Y-94040476D01*
X38016723Y-94040476D02*
X38111961Y-94088095D01*
X38111961Y-94088095D02*
X38207200Y-94183333D01*
X38207200Y-94183333D02*
X38254819Y-94326190D01*
X38254819Y-94326190D02*
X38254819Y-94564285D01*
X38254819Y-93040476D02*
X38254819Y-93611904D01*
X38254819Y-93326190D02*
X37254819Y-93326190D01*
X37254819Y-93326190D02*
X37397676Y-93421428D01*
X37397676Y-93421428D02*
X37492914Y-93516666D01*
X37492914Y-93516666D02*
X37540533Y-93611904D01*
X37683390Y-92469047D02*
X37635771Y-92564285D01*
X37635771Y-92564285D02*
X37588152Y-92611904D01*
X37588152Y-92611904D02*
X37492914Y-92659523D01*
X37492914Y-92659523D02*
X37445295Y-92659523D01*
X37445295Y-92659523D02*
X37350057Y-92611904D01*
X37350057Y-92611904D02*
X37302438Y-92564285D01*
X37302438Y-92564285D02*
X37254819Y-92469047D01*
X37254819Y-92469047D02*
X37254819Y-92278571D01*
X37254819Y-92278571D02*
X37302438Y-92183333D01*
X37302438Y-92183333D02*
X37350057Y-92135714D01*
X37350057Y-92135714D02*
X37445295Y-92088095D01*
X37445295Y-92088095D02*
X37492914Y-92088095D01*
X37492914Y-92088095D02*
X37588152Y-92135714D01*
X37588152Y-92135714D02*
X37635771Y-92183333D01*
X37635771Y-92183333D02*
X37683390Y-92278571D01*
X37683390Y-92278571D02*
X37683390Y-92469047D01*
X37683390Y-92469047D02*
X37731009Y-92564285D01*
X37731009Y-92564285D02*
X37778628Y-92611904D01*
X37778628Y-92611904D02*
X37873866Y-92659523D01*
X37873866Y-92659523D02*
X38064342Y-92659523D01*
X38064342Y-92659523D02*
X38159580Y-92611904D01*
X38159580Y-92611904D02*
X38207200Y-92564285D01*
X38207200Y-92564285D02*
X38254819Y-92469047D01*
X38254819Y-92469047D02*
X38254819Y-92278571D01*
X38254819Y-92278571D02*
X38207200Y-92183333D01*
X38207200Y-92183333D02*
X38159580Y-92135714D01*
X38159580Y-92135714D02*
X38064342Y-92088095D01*
X38064342Y-92088095D02*
X37873866Y-92088095D01*
X37873866Y-92088095D02*
X37778628Y-92135714D01*
X37778628Y-92135714D02*
X37731009Y-92183333D01*
X37731009Y-92183333D02*
X37683390Y-92278571D01*
X74690476Y-65107200D02*
X74833333Y-65154819D01*
X74833333Y-65154819D02*
X75071428Y-65154819D01*
X75071428Y-65154819D02*
X75166666Y-65107200D01*
X75166666Y-65107200D02*
X75214285Y-65059580D01*
X75214285Y-65059580D02*
X75261904Y-64964342D01*
X75261904Y-64964342D02*
X75261904Y-64869104D01*
X75261904Y-64869104D02*
X75214285Y-64773866D01*
X75214285Y-64773866D02*
X75166666Y-64726247D01*
X75166666Y-64726247D02*
X75071428Y-64678628D01*
X75071428Y-64678628D02*
X74880952Y-64631009D01*
X74880952Y-64631009D02*
X74785714Y-64583390D01*
X74785714Y-64583390D02*
X74738095Y-64535771D01*
X74738095Y-64535771D02*
X74690476Y-64440533D01*
X74690476Y-64440533D02*
X74690476Y-64345295D01*
X74690476Y-64345295D02*
X74738095Y-64250057D01*
X74738095Y-64250057D02*
X74785714Y-64202438D01*
X74785714Y-64202438D02*
X74880952Y-64154819D01*
X74880952Y-64154819D02*
X75119047Y-64154819D01*
X75119047Y-64154819D02*
X75261904Y-64202438D01*
X75595238Y-64154819D02*
X75833333Y-65154819D01*
X75833333Y-65154819D02*
X76023809Y-64440533D01*
X76023809Y-64440533D02*
X76214285Y-65154819D01*
X76214285Y-65154819D02*
X76452381Y-64154819D01*
X77357142Y-65154819D02*
X76785714Y-65154819D01*
X77071428Y-65154819D02*
X77071428Y-64154819D01*
X77071428Y-64154819D02*
X76976190Y-64297676D01*
X76976190Y-64297676D02*
X76880952Y-64392914D01*
X76880952Y-64392914D02*
X76785714Y-64440533D01*
X77738095Y-64250057D02*
X77785714Y-64202438D01*
X77785714Y-64202438D02*
X77880952Y-64154819D01*
X77880952Y-64154819D02*
X78119047Y-64154819D01*
X78119047Y-64154819D02*
X78214285Y-64202438D01*
X78214285Y-64202438D02*
X78261904Y-64250057D01*
X78261904Y-64250057D02*
X78309523Y-64345295D01*
X78309523Y-64345295D02*
X78309523Y-64440533D01*
X78309523Y-64440533D02*
X78261904Y-64583390D01*
X78261904Y-64583390D02*
X77690476Y-65154819D01*
X77690476Y-65154819D02*
X78309523Y-65154819D01*
X30054819Y-89004285D02*
X29054819Y-89004285D01*
X29054819Y-89004285D02*
X29054819Y-88766190D01*
X29054819Y-88766190D02*
X29102438Y-88623333D01*
X29102438Y-88623333D02*
X29197676Y-88528095D01*
X29197676Y-88528095D02*
X29292914Y-88480476D01*
X29292914Y-88480476D02*
X29483390Y-88432857D01*
X29483390Y-88432857D02*
X29626247Y-88432857D01*
X29626247Y-88432857D02*
X29816723Y-88480476D01*
X29816723Y-88480476D02*
X29911961Y-88528095D01*
X29911961Y-88528095D02*
X30007200Y-88623333D01*
X30007200Y-88623333D02*
X30054819Y-88766190D01*
X30054819Y-88766190D02*
X30054819Y-89004285D01*
X30054819Y-87480476D02*
X30054819Y-88051904D01*
X30054819Y-87766190D02*
X29054819Y-87766190D01*
X29054819Y-87766190D02*
X29197676Y-87861428D01*
X29197676Y-87861428D02*
X29292914Y-87956666D01*
X29292914Y-87956666D02*
X29340533Y-88051904D01*
X30054819Y-86528095D02*
X30054819Y-87099523D01*
X30054819Y-86813809D02*
X29054819Y-86813809D01*
X29054819Y-86813809D02*
X29197676Y-86909047D01*
X29197676Y-86909047D02*
X29292914Y-87004285D01*
X29292914Y-87004285D02*
X29340533Y-87099523D01*
X132340476Y-82607200D02*
X132483333Y-82654819D01*
X132483333Y-82654819D02*
X132721428Y-82654819D01*
X132721428Y-82654819D02*
X132816666Y-82607200D01*
X132816666Y-82607200D02*
X132864285Y-82559580D01*
X132864285Y-82559580D02*
X132911904Y-82464342D01*
X132911904Y-82464342D02*
X132911904Y-82369104D01*
X132911904Y-82369104D02*
X132864285Y-82273866D01*
X132864285Y-82273866D02*
X132816666Y-82226247D01*
X132816666Y-82226247D02*
X132721428Y-82178628D01*
X132721428Y-82178628D02*
X132530952Y-82131009D01*
X132530952Y-82131009D02*
X132435714Y-82083390D01*
X132435714Y-82083390D02*
X132388095Y-82035771D01*
X132388095Y-82035771D02*
X132340476Y-81940533D01*
X132340476Y-81940533D02*
X132340476Y-81845295D01*
X132340476Y-81845295D02*
X132388095Y-81750057D01*
X132388095Y-81750057D02*
X132435714Y-81702438D01*
X132435714Y-81702438D02*
X132530952Y-81654819D01*
X132530952Y-81654819D02*
X132769047Y-81654819D01*
X132769047Y-81654819D02*
X132911904Y-81702438D01*
X133245238Y-81654819D02*
X133483333Y-82654819D01*
X133483333Y-82654819D02*
X133673809Y-81940533D01*
X133673809Y-81940533D02*
X133864285Y-82654819D01*
X133864285Y-82654819D02*
X134102381Y-81654819D01*
X134435714Y-81750057D02*
X134483333Y-81702438D01*
X134483333Y-81702438D02*
X134578571Y-81654819D01*
X134578571Y-81654819D02*
X134816666Y-81654819D01*
X134816666Y-81654819D02*
X134911904Y-81702438D01*
X134911904Y-81702438D02*
X134959523Y-81750057D01*
X134959523Y-81750057D02*
X135007142Y-81845295D01*
X135007142Y-81845295D02*
X135007142Y-81940533D01*
X135007142Y-81940533D02*
X134959523Y-82083390D01*
X134959523Y-82083390D02*
X134388095Y-82654819D01*
X134388095Y-82654819D02*
X135007142Y-82654819D01*
X135626190Y-81654819D02*
X135721428Y-81654819D01*
X135721428Y-81654819D02*
X135816666Y-81702438D01*
X135816666Y-81702438D02*
X135864285Y-81750057D01*
X135864285Y-81750057D02*
X135911904Y-81845295D01*
X135911904Y-81845295D02*
X135959523Y-82035771D01*
X135959523Y-82035771D02*
X135959523Y-82273866D01*
X135959523Y-82273866D02*
X135911904Y-82464342D01*
X135911904Y-82464342D02*
X135864285Y-82559580D01*
X135864285Y-82559580D02*
X135816666Y-82607200D01*
X135816666Y-82607200D02*
X135721428Y-82654819D01*
X135721428Y-82654819D02*
X135626190Y-82654819D01*
X135626190Y-82654819D02*
X135530952Y-82607200D01*
X135530952Y-82607200D02*
X135483333Y-82559580D01*
X135483333Y-82559580D02*
X135435714Y-82464342D01*
X135435714Y-82464342D02*
X135388095Y-82273866D01*
X135388095Y-82273866D02*
X135388095Y-82035771D01*
X135388095Y-82035771D02*
X135435714Y-81845295D01*
X135435714Y-81845295D02*
X135483333Y-81750057D01*
X135483333Y-81750057D02*
X135530952Y-81702438D01*
X135530952Y-81702438D02*
X135626190Y-81654819D01*
X56340476Y-65007200D02*
X56483333Y-65054819D01*
X56483333Y-65054819D02*
X56721428Y-65054819D01*
X56721428Y-65054819D02*
X56816666Y-65007200D01*
X56816666Y-65007200D02*
X56864285Y-64959580D01*
X56864285Y-64959580D02*
X56911904Y-64864342D01*
X56911904Y-64864342D02*
X56911904Y-64769104D01*
X56911904Y-64769104D02*
X56864285Y-64673866D01*
X56864285Y-64673866D02*
X56816666Y-64626247D01*
X56816666Y-64626247D02*
X56721428Y-64578628D01*
X56721428Y-64578628D02*
X56530952Y-64531009D01*
X56530952Y-64531009D02*
X56435714Y-64483390D01*
X56435714Y-64483390D02*
X56388095Y-64435771D01*
X56388095Y-64435771D02*
X56340476Y-64340533D01*
X56340476Y-64340533D02*
X56340476Y-64245295D01*
X56340476Y-64245295D02*
X56388095Y-64150057D01*
X56388095Y-64150057D02*
X56435714Y-64102438D01*
X56435714Y-64102438D02*
X56530952Y-64054819D01*
X56530952Y-64054819D02*
X56769047Y-64054819D01*
X56769047Y-64054819D02*
X56911904Y-64102438D01*
X57245238Y-64054819D02*
X57483333Y-65054819D01*
X57483333Y-65054819D02*
X57673809Y-64340533D01*
X57673809Y-64340533D02*
X57864285Y-65054819D01*
X57864285Y-65054819D02*
X58102381Y-64054819D01*
X59007142Y-65054819D02*
X58435714Y-65054819D01*
X58721428Y-65054819D02*
X58721428Y-64054819D01*
X58721428Y-64054819D02*
X58626190Y-64197676D01*
X58626190Y-64197676D02*
X58530952Y-64292914D01*
X58530952Y-64292914D02*
X58435714Y-64340533D01*
X59959523Y-65054819D02*
X59388095Y-65054819D01*
X59673809Y-65054819D02*
X59673809Y-64054819D01*
X59673809Y-64054819D02*
X59578571Y-64197676D01*
X59578571Y-64197676D02*
X59483333Y-64292914D01*
X59483333Y-64292914D02*
X59388095Y-64340533D01*
X56816667Y-29807200D02*
X56959524Y-29854819D01*
X56959524Y-29854819D02*
X57197619Y-29854819D01*
X57197619Y-29854819D02*
X57292857Y-29807200D01*
X57292857Y-29807200D02*
X57340476Y-29759580D01*
X57340476Y-29759580D02*
X57388095Y-29664342D01*
X57388095Y-29664342D02*
X57388095Y-29569104D01*
X57388095Y-29569104D02*
X57340476Y-29473866D01*
X57340476Y-29473866D02*
X57292857Y-29426247D01*
X57292857Y-29426247D02*
X57197619Y-29378628D01*
X57197619Y-29378628D02*
X57007143Y-29331009D01*
X57007143Y-29331009D02*
X56911905Y-29283390D01*
X56911905Y-29283390D02*
X56864286Y-29235771D01*
X56864286Y-29235771D02*
X56816667Y-29140533D01*
X56816667Y-29140533D02*
X56816667Y-29045295D01*
X56816667Y-29045295D02*
X56864286Y-28950057D01*
X56864286Y-28950057D02*
X56911905Y-28902438D01*
X56911905Y-28902438D02*
X57007143Y-28854819D01*
X57007143Y-28854819D02*
X57245238Y-28854819D01*
X57245238Y-28854819D02*
X57388095Y-28902438D01*
X57721429Y-28854819D02*
X57959524Y-29854819D01*
X57959524Y-29854819D02*
X58150000Y-29140533D01*
X58150000Y-29140533D02*
X58340476Y-29854819D01*
X58340476Y-29854819D02*
X58578572Y-28854819D01*
X59483333Y-29854819D02*
X58911905Y-29854819D01*
X59197619Y-29854819D02*
X59197619Y-28854819D01*
X59197619Y-28854819D02*
X59102381Y-28997676D01*
X59102381Y-28997676D02*
X59007143Y-29092914D01*
X59007143Y-29092914D02*
X58911905Y-29140533D01*
X46554819Y-77088094D02*
X45554819Y-77088094D01*
X45554819Y-77088094D02*
X45554819Y-76849999D01*
X45554819Y-76849999D02*
X45602438Y-76707142D01*
X45602438Y-76707142D02*
X45697676Y-76611904D01*
X45697676Y-76611904D02*
X45792914Y-76564285D01*
X45792914Y-76564285D02*
X45983390Y-76516666D01*
X45983390Y-76516666D02*
X46126247Y-76516666D01*
X46126247Y-76516666D02*
X46316723Y-76564285D01*
X46316723Y-76564285D02*
X46411961Y-76611904D01*
X46411961Y-76611904D02*
X46507200Y-76707142D01*
X46507200Y-76707142D02*
X46554819Y-76849999D01*
X46554819Y-76849999D02*
X46554819Y-77088094D01*
X45554819Y-75611904D02*
X45554819Y-76088094D01*
X45554819Y-76088094D02*
X46031009Y-76135713D01*
X46031009Y-76135713D02*
X45983390Y-76088094D01*
X45983390Y-76088094D02*
X45935771Y-75992856D01*
X45935771Y-75992856D02*
X45935771Y-75754761D01*
X45935771Y-75754761D02*
X45983390Y-75659523D01*
X45983390Y-75659523D02*
X46031009Y-75611904D01*
X46031009Y-75611904D02*
X46126247Y-75564285D01*
X46126247Y-75564285D02*
X46364342Y-75564285D01*
X46364342Y-75564285D02*
X46459580Y-75611904D01*
X46459580Y-75611904D02*
X46507200Y-75659523D01*
X46507200Y-75659523D02*
X46554819Y-75754761D01*
X46554819Y-75754761D02*
X46554819Y-75992856D01*
X46554819Y-75992856D02*
X46507200Y-76088094D01*
X46507200Y-76088094D02*
X46459580Y-76135713D01*
X38254819Y-77088094D02*
X37254819Y-77088094D01*
X37254819Y-77088094D02*
X37254819Y-76849999D01*
X37254819Y-76849999D02*
X37302438Y-76707142D01*
X37302438Y-76707142D02*
X37397676Y-76611904D01*
X37397676Y-76611904D02*
X37492914Y-76564285D01*
X37492914Y-76564285D02*
X37683390Y-76516666D01*
X37683390Y-76516666D02*
X37826247Y-76516666D01*
X37826247Y-76516666D02*
X38016723Y-76564285D01*
X38016723Y-76564285D02*
X38111961Y-76611904D01*
X38111961Y-76611904D02*
X38207200Y-76707142D01*
X38207200Y-76707142D02*
X38254819Y-76849999D01*
X38254819Y-76849999D02*
X38254819Y-77088094D01*
X37254819Y-76183332D02*
X37254819Y-75564285D01*
X37254819Y-75564285D02*
X37635771Y-75897618D01*
X37635771Y-75897618D02*
X37635771Y-75754761D01*
X37635771Y-75754761D02*
X37683390Y-75659523D01*
X37683390Y-75659523D02*
X37731009Y-75611904D01*
X37731009Y-75611904D02*
X37826247Y-75564285D01*
X37826247Y-75564285D02*
X38064342Y-75564285D01*
X38064342Y-75564285D02*
X38159580Y-75611904D01*
X38159580Y-75611904D02*
X38207200Y-75659523D01*
X38207200Y-75659523D02*
X38254819Y-75754761D01*
X38254819Y-75754761D02*
X38254819Y-76040475D01*
X38254819Y-76040475D02*
X38207200Y-76135713D01*
X38207200Y-76135713D02*
X38159580Y-76183332D01*
X34104819Y-77088094D02*
X33104819Y-77088094D01*
X33104819Y-77088094D02*
X33104819Y-76849999D01*
X33104819Y-76849999D02*
X33152438Y-76707142D01*
X33152438Y-76707142D02*
X33247676Y-76611904D01*
X33247676Y-76611904D02*
X33342914Y-76564285D01*
X33342914Y-76564285D02*
X33533390Y-76516666D01*
X33533390Y-76516666D02*
X33676247Y-76516666D01*
X33676247Y-76516666D02*
X33866723Y-76564285D01*
X33866723Y-76564285D02*
X33961961Y-76611904D01*
X33961961Y-76611904D02*
X34057200Y-76707142D01*
X34057200Y-76707142D02*
X34104819Y-76849999D01*
X34104819Y-76849999D02*
X34104819Y-77088094D01*
X33200057Y-76135713D02*
X33152438Y-76088094D01*
X33152438Y-76088094D02*
X33104819Y-75992856D01*
X33104819Y-75992856D02*
X33104819Y-75754761D01*
X33104819Y-75754761D02*
X33152438Y-75659523D01*
X33152438Y-75659523D02*
X33200057Y-75611904D01*
X33200057Y-75611904D02*
X33295295Y-75564285D01*
X33295295Y-75564285D02*
X33390533Y-75564285D01*
X33390533Y-75564285D02*
X33533390Y-75611904D01*
X33533390Y-75611904D02*
X34104819Y-76183332D01*
X34104819Y-76183332D02*
X34104819Y-75564285D01*
X94340476Y-82607200D02*
X94483333Y-82654819D01*
X94483333Y-82654819D02*
X94721428Y-82654819D01*
X94721428Y-82654819D02*
X94816666Y-82607200D01*
X94816666Y-82607200D02*
X94864285Y-82559580D01*
X94864285Y-82559580D02*
X94911904Y-82464342D01*
X94911904Y-82464342D02*
X94911904Y-82369104D01*
X94911904Y-82369104D02*
X94864285Y-82273866D01*
X94864285Y-82273866D02*
X94816666Y-82226247D01*
X94816666Y-82226247D02*
X94721428Y-82178628D01*
X94721428Y-82178628D02*
X94530952Y-82131009D01*
X94530952Y-82131009D02*
X94435714Y-82083390D01*
X94435714Y-82083390D02*
X94388095Y-82035771D01*
X94388095Y-82035771D02*
X94340476Y-81940533D01*
X94340476Y-81940533D02*
X94340476Y-81845295D01*
X94340476Y-81845295D02*
X94388095Y-81750057D01*
X94388095Y-81750057D02*
X94435714Y-81702438D01*
X94435714Y-81702438D02*
X94530952Y-81654819D01*
X94530952Y-81654819D02*
X94769047Y-81654819D01*
X94769047Y-81654819D02*
X94911904Y-81702438D01*
X95245238Y-81654819D02*
X95483333Y-82654819D01*
X95483333Y-82654819D02*
X95673809Y-81940533D01*
X95673809Y-81940533D02*
X95864285Y-82654819D01*
X95864285Y-82654819D02*
X96102381Y-81654819D01*
X97007142Y-82654819D02*
X96435714Y-82654819D01*
X96721428Y-82654819D02*
X96721428Y-81654819D01*
X96721428Y-81654819D02*
X96626190Y-81797676D01*
X96626190Y-81797676D02*
X96530952Y-81892914D01*
X96530952Y-81892914D02*
X96435714Y-81940533D01*
X97578571Y-82083390D02*
X97483333Y-82035771D01*
X97483333Y-82035771D02*
X97435714Y-81988152D01*
X97435714Y-81988152D02*
X97388095Y-81892914D01*
X97388095Y-81892914D02*
X97388095Y-81845295D01*
X97388095Y-81845295D02*
X97435714Y-81750057D01*
X97435714Y-81750057D02*
X97483333Y-81702438D01*
X97483333Y-81702438D02*
X97578571Y-81654819D01*
X97578571Y-81654819D02*
X97769047Y-81654819D01*
X97769047Y-81654819D02*
X97864285Y-81702438D01*
X97864285Y-81702438D02*
X97911904Y-81750057D01*
X97911904Y-81750057D02*
X97959523Y-81845295D01*
X97959523Y-81845295D02*
X97959523Y-81892914D01*
X97959523Y-81892914D02*
X97911904Y-81988152D01*
X97911904Y-81988152D02*
X97864285Y-82035771D01*
X97864285Y-82035771D02*
X97769047Y-82083390D01*
X97769047Y-82083390D02*
X97578571Y-82083390D01*
X97578571Y-82083390D02*
X97483333Y-82131009D01*
X97483333Y-82131009D02*
X97435714Y-82178628D01*
X97435714Y-82178628D02*
X97388095Y-82273866D01*
X97388095Y-82273866D02*
X97388095Y-82464342D01*
X97388095Y-82464342D02*
X97435714Y-82559580D01*
X97435714Y-82559580D02*
X97483333Y-82607200D01*
X97483333Y-82607200D02*
X97578571Y-82654819D01*
X97578571Y-82654819D02*
X97769047Y-82654819D01*
X97769047Y-82654819D02*
X97864285Y-82607200D01*
X97864285Y-82607200D02*
X97911904Y-82559580D01*
X97911904Y-82559580D02*
X97959523Y-82464342D01*
X97959523Y-82464342D02*
X97959523Y-82273866D01*
X97959523Y-82273866D02*
X97911904Y-82178628D01*
X97911904Y-82178628D02*
X97864285Y-82131009D01*
X97864285Y-82131009D02*
X97769047Y-82083390D01*
X37189619Y-65678819D02*
X37380095Y-65678819D01*
X37380095Y-65678819D02*
X37475333Y-65726438D01*
X37475333Y-65726438D02*
X37570571Y-65821676D01*
X37570571Y-65821676D02*
X37618190Y-66012152D01*
X37618190Y-66012152D02*
X37618190Y-66345485D01*
X37618190Y-66345485D02*
X37570571Y-66535961D01*
X37570571Y-66535961D02*
X37475333Y-66631200D01*
X37475333Y-66631200D02*
X37380095Y-66678819D01*
X37380095Y-66678819D02*
X37189619Y-66678819D01*
X37189619Y-66678819D02*
X37094381Y-66631200D01*
X37094381Y-66631200D02*
X36999143Y-66535961D01*
X36999143Y-66535961D02*
X36951524Y-66345485D01*
X36951524Y-66345485D02*
X36951524Y-66012152D01*
X36951524Y-66012152D02*
X36999143Y-65821676D01*
X36999143Y-65821676D02*
X37094381Y-65726438D01*
X37094381Y-65726438D02*
X37189619Y-65678819D01*
X38522952Y-66678819D02*
X38046762Y-66678819D01*
X38046762Y-66678819D02*
X38046762Y-65678819D01*
X38856286Y-66155009D02*
X39189619Y-66155009D01*
X39332476Y-66678819D02*
X38856286Y-66678819D01*
X38856286Y-66678819D02*
X38856286Y-65678819D01*
X38856286Y-65678819D02*
X39332476Y-65678819D01*
X39761048Y-66678819D02*
X39761048Y-65678819D01*
X39761048Y-65678819D02*
X39999143Y-65678819D01*
X39999143Y-65678819D02*
X40142000Y-65726438D01*
X40142000Y-65726438D02*
X40237238Y-65821676D01*
X40237238Y-65821676D02*
X40284857Y-65916914D01*
X40284857Y-65916914D02*
X40332476Y-66107390D01*
X40332476Y-66107390D02*
X40332476Y-66250247D01*
X40332476Y-66250247D02*
X40284857Y-66440723D01*
X40284857Y-66440723D02*
X40237238Y-66535961D01*
X40237238Y-66535961D02*
X40142000Y-66631200D01*
X40142000Y-66631200D02*
X39999143Y-66678819D01*
X39999143Y-66678819D02*
X39761048Y-66678819D01*
X42404819Y-94564285D02*
X41404819Y-94564285D01*
X41404819Y-94564285D02*
X41404819Y-94326190D01*
X41404819Y-94326190D02*
X41452438Y-94183333D01*
X41452438Y-94183333D02*
X41547676Y-94088095D01*
X41547676Y-94088095D02*
X41642914Y-94040476D01*
X41642914Y-94040476D02*
X41833390Y-93992857D01*
X41833390Y-93992857D02*
X41976247Y-93992857D01*
X41976247Y-93992857D02*
X42166723Y-94040476D01*
X42166723Y-94040476D02*
X42261961Y-94088095D01*
X42261961Y-94088095D02*
X42357200Y-94183333D01*
X42357200Y-94183333D02*
X42404819Y-94326190D01*
X42404819Y-94326190D02*
X42404819Y-94564285D01*
X42404819Y-93040476D02*
X42404819Y-93611904D01*
X42404819Y-93326190D02*
X41404819Y-93326190D01*
X41404819Y-93326190D02*
X41547676Y-93421428D01*
X41547676Y-93421428D02*
X41642914Y-93516666D01*
X41642914Y-93516666D02*
X41690533Y-93611904D01*
X42404819Y-92564285D02*
X42404819Y-92373809D01*
X42404819Y-92373809D02*
X42357200Y-92278571D01*
X42357200Y-92278571D02*
X42309580Y-92230952D01*
X42309580Y-92230952D02*
X42166723Y-92135714D01*
X42166723Y-92135714D02*
X41976247Y-92088095D01*
X41976247Y-92088095D02*
X41595295Y-92088095D01*
X41595295Y-92088095D02*
X41500057Y-92135714D01*
X41500057Y-92135714D02*
X41452438Y-92183333D01*
X41452438Y-92183333D02*
X41404819Y-92278571D01*
X41404819Y-92278571D02*
X41404819Y-92469047D01*
X41404819Y-92469047D02*
X41452438Y-92564285D01*
X41452438Y-92564285D02*
X41500057Y-92611904D01*
X41500057Y-92611904D02*
X41595295Y-92659523D01*
X41595295Y-92659523D02*
X41833390Y-92659523D01*
X41833390Y-92659523D02*
X41928628Y-92611904D01*
X41928628Y-92611904D02*
X41976247Y-92564285D01*
X41976247Y-92564285D02*
X42023866Y-92469047D01*
X42023866Y-92469047D02*
X42023866Y-92278571D01*
X42023866Y-92278571D02*
X41976247Y-92183333D01*
X41976247Y-92183333D02*
X41928628Y-92135714D01*
X41928628Y-92135714D02*
X41833390Y-92088095D01*
D12*
%TO.C,D9*%
X42950000Y-84210000D02*
X42950000Y-80200000D01*
X42950000Y-84210000D02*
X44950000Y-84210000D01*
X44950000Y-84210000D02*
X44950000Y-80200000D01*
%TO.C,D8*%
X38800000Y-84210000D02*
X38800000Y-80200000D01*
X38800000Y-84210000D02*
X40800000Y-84210000D01*
X40800000Y-84210000D02*
X40800000Y-80200000D01*
%TO.C,SW17*%
D13*
X70100000Y-83300000D02*
X84300000Y-83300000D01*
X84300000Y-96100000D01*
X70100000Y-96100000D01*
X70100000Y-83300000D01*
D12*
%TO.C,D14*%
X43050000Y-90150000D02*
X43050000Y-86140000D01*
X43050000Y-90150000D02*
X45050000Y-90150000D01*
X45050000Y-90150000D02*
X45050000Y-86140000D01*
%TO.C,SW15*%
D13*
X127100000Y-65700000D02*
X141300000Y-65700000D01*
X141300000Y-78500000D01*
X127100000Y-78500000D01*
X127100000Y-65700000D01*
%TO.C,SW14*%
X108100000Y-65700000D02*
X122300000Y-65700000D01*
X122300000Y-78500000D01*
X108100000Y-78500000D01*
X108100000Y-65700000D01*
%TO.C,SW2*%
X70100000Y-30500000D02*
X84300000Y-30500000D01*
X84300000Y-43300000D01*
X70100000Y-43300000D01*
X70100000Y-30500000D01*
D12*
%TO.C,D13*%
X38900000Y-90150000D02*
X38900000Y-86140000D01*
X38900000Y-90150000D02*
X40900000Y-90150000D01*
X40900000Y-90150000D02*
X40900000Y-86140000D01*
%TO.C,SW9*%
D13*
X108100000Y-48100000D02*
X122300000Y-48100000D01*
X122300000Y-60900000D01*
X108100000Y-60900000D01*
X108100000Y-48100000D01*
D10*
%TO.C,RSW1*%
X44462000Y-66011000D02*
X44462000Y-72011000D01*
X44462000Y-66011000D02*
X44712000Y-66011000D01*
X44462000Y-72011000D02*
X44712000Y-72011000D01*
X47962000Y-66011000D02*
X47712000Y-66011000D01*
X47962000Y-66011000D02*
X47962000Y-72011000D01*
X47962000Y-72011000D02*
X47712000Y-72011000D01*
%TO.C,SW5*%
D13*
X127100000Y-30500000D02*
X141300000Y-30500000D01*
X141300000Y-43300000D01*
X127100000Y-43300000D01*
X127100000Y-30500000D01*
D12*
%TO.C,D20*%
X47100000Y-95710000D02*
X47100000Y-91700000D01*
X47100000Y-95710000D02*
X49100000Y-95710000D01*
X49100000Y-95710000D02*
X49100000Y-91700000D01*
%TO.C,D17*%
X34650000Y-95710000D02*
X34650000Y-91700000D01*
X34650000Y-95710000D02*
X36650000Y-95710000D01*
X36650000Y-95710000D02*
X36650000Y-91700000D01*
%TO.C,D7*%
X34650000Y-84210000D02*
X34650000Y-80200000D01*
X34650000Y-84210000D02*
X36650000Y-84210000D01*
X36650000Y-84210000D02*
X36650000Y-80200000D01*
%TO.C,SW6*%
D13*
X51100000Y-48100000D02*
X65300000Y-48100000D01*
X65300000Y-60900000D01*
X51100000Y-60900000D01*
X51100000Y-48100000D01*
D12*
%TO.C,D1*%
X30500000Y-78710000D02*
X30500000Y-74700000D01*
X30500000Y-78710000D02*
X32500000Y-78710000D01*
X32500000Y-78710000D02*
X32500000Y-74700000D01*
%TO.C,SW13*%
D13*
X89100000Y-65700000D02*
X103300000Y-65700000D01*
X103300000Y-78500000D01*
X89100000Y-78500000D01*
X89100000Y-65700000D01*
%TO.C,SW4*%
X108100000Y-30500000D02*
X122300000Y-30500000D01*
X122300000Y-43300000D01*
X108100000Y-43300000D01*
X108100000Y-30500000D01*
%TO.C,SW19*%
X108100000Y-83300000D02*
X122300000Y-83300000D01*
X122300000Y-96100000D01*
X108100000Y-96100000D01*
X108100000Y-83300000D01*
D12*
%TO.C,D10*%
X47100000Y-84210000D02*
X47100000Y-80200000D01*
X47100000Y-84210000D02*
X49100000Y-84210000D01*
X49100000Y-84210000D02*
X49100000Y-80200000D01*
%TO.C,D12*%
X34750000Y-90150000D02*
X34750000Y-86140000D01*
X34750000Y-90150000D02*
X36750000Y-90150000D01*
X36750000Y-90150000D02*
X36750000Y-86140000D01*
%TO.C,SW10*%
D13*
X127100000Y-48100000D02*
X141300000Y-48100000D01*
X141300000Y-60900000D01*
X127100000Y-60900000D01*
X127100000Y-48100000D01*
D12*
%TO.C,D4*%
X42950000Y-78710000D02*
X42950000Y-74700000D01*
X42950000Y-78710000D02*
X44950000Y-78710000D01*
X44950000Y-78710000D02*
X44950000Y-74700000D01*
%TO.C,D15*%
X47200000Y-90150000D02*
X47200000Y-86140000D01*
X47200000Y-90150000D02*
X49200000Y-90150000D01*
X49200000Y-90150000D02*
X49200000Y-86140000D01*
%TO.C,SW3*%
D13*
X89100000Y-30500000D02*
X103300000Y-30500000D01*
X103300000Y-43300000D01*
X89100000Y-43300000D01*
X89100000Y-30500000D01*
D12*
%TO.C,D6*%
X30500000Y-84210000D02*
X30500000Y-80200000D01*
X30500000Y-84210000D02*
X32500000Y-84210000D01*
X32500000Y-84210000D02*
X32500000Y-80200000D01*
%TO.C,SW7*%
D13*
X70100000Y-48100000D02*
X84300000Y-48100000D01*
X84300000Y-60900000D01*
X70100000Y-60900000D01*
X70100000Y-48100000D01*
D12*
%TO.C,D16*%
X30500000Y-95710000D02*
X30500000Y-91700000D01*
X30500000Y-95710000D02*
X32500000Y-95710000D01*
X32500000Y-95710000D02*
X32500000Y-91700000D01*
%TO.C,SW8*%
D13*
X89100000Y-48100000D02*
X103300000Y-48100000D01*
X103300000Y-60900000D01*
X89100000Y-60900000D01*
X89100000Y-48100000D01*
D10*
%TO.C,U1*%
X29700000Y-29600000D02*
X29700000Y-30600000D01*
X29700000Y-29600000D02*
X30700000Y-29600000D01*
X29700000Y-61600000D02*
X29700000Y-62650000D01*
X29700000Y-62650000D02*
X30700000Y-62650000D01*
X34850000Y-26700000D02*
X34850000Y-28000000D01*
X34850000Y-28000000D02*
X42350000Y-28000000D01*
X38100000Y-27050000D02*
X39100000Y-27050000D01*
X38250000Y-27200000D02*
X38950000Y-27200000D01*
X38350000Y-27350000D02*
X38850000Y-27350000D01*
X38450000Y-27500000D02*
X38750000Y-27500000D01*
X38600000Y-27700000D02*
X38100000Y-27050000D01*
X39100000Y-27050000D02*
X38600000Y-27700000D01*
X42350000Y-26700000D02*
X34850000Y-26700000D01*
X42350000Y-28000000D02*
X42350000Y-26700000D01*
X47500000Y-29600000D02*
X46550000Y-29600000D01*
X47500000Y-29600000D02*
X47500000Y-30600000D01*
X47500000Y-61650000D02*
X47500000Y-62650000D01*
X47500000Y-62650000D02*
X46490000Y-62650000D01*
%TO.C,SW16*%
D13*
X51100000Y-83300000D02*
X65300000Y-83300000D01*
X65300000Y-96100000D01*
X51100000Y-96100000D01*
X51100000Y-83300000D01*
D12*
%TO.C,D18*%
X38800000Y-95710000D02*
X38800000Y-91700000D01*
X38800000Y-95710000D02*
X40800000Y-95710000D01*
X40800000Y-95710000D02*
X40800000Y-91700000D01*
%TO.C,SW12*%
D13*
X70100000Y-65700000D02*
X84300000Y-65700000D01*
X84300000Y-78500000D01*
X70100000Y-78500000D01*
X70100000Y-65700000D01*
D12*
%TO.C,D11*%
X30600000Y-90150000D02*
X30600000Y-86140000D01*
X30600000Y-90150000D02*
X32600000Y-90150000D01*
X32600000Y-90150000D02*
X32600000Y-86140000D01*
%TO.C,SW20*%
D13*
X127100000Y-83300000D02*
X141300000Y-83300000D01*
X141300000Y-96100000D01*
X127100000Y-96100000D01*
X127100000Y-83300000D01*
%TO.C,SW11*%
X51100000Y-65700000D02*
X65300000Y-65700000D01*
X65300000Y-78500000D01*
X51100000Y-78500000D01*
X51100000Y-65700000D01*
%TO.C,SW1*%
X51100000Y-30500000D02*
X65300000Y-30500000D01*
X65300000Y-43300000D01*
X51100000Y-43300000D01*
X51100000Y-30500000D01*
D12*
%TO.C,D5*%
X47100000Y-78710000D02*
X47100000Y-74700000D01*
X47100000Y-78710000D02*
X49100000Y-78710000D01*
X49100000Y-78710000D02*
X49100000Y-74700000D01*
%TO.C,D3*%
X38800000Y-78710000D02*
X38800000Y-74700000D01*
X38800000Y-78710000D02*
X40800000Y-78710000D01*
X40800000Y-78710000D02*
X40800000Y-74700000D01*
%TO.C,D2*%
X34650000Y-78710000D02*
X34650000Y-74700000D01*
X34650000Y-78710000D02*
X36650000Y-78710000D01*
X36650000Y-78710000D02*
X36650000Y-74700000D01*
%TO.C,SW18*%
D13*
X89100000Y-83300000D02*
X103300000Y-83300000D01*
X103300000Y-96100000D01*
X89100000Y-96100000D01*
X89100000Y-83300000D01*
D10*
%TO.C,OLED*%
X33466000Y-67238000D02*
X43626000Y-67238000D01*
X33466000Y-69778000D02*
X33466000Y-67238000D01*
X33466000Y-69778000D02*
X43626000Y-69778000D01*
X43626000Y-67238000D02*
X43626000Y-69778000D01*
D12*
%TO.C,D19*%
X42950000Y-95710000D02*
X42950000Y-91700000D01*
X42950000Y-95710000D02*
X44950000Y-95710000D01*
X44950000Y-95710000D02*
X44950000Y-91700000D01*
%TD*%
D14*
%TO.C,RSW1*%
X46212000Y-72261000D03*
X46212000Y-65761000D03*
%TD*%
D15*
%TO.C,U1*%
X46211400Y-33422000D03*
X46211400Y-35962000D03*
X46211400Y-38502000D03*
X46211400Y-41042000D03*
X46211400Y-43582000D03*
X46211400Y-46122000D03*
X46211400Y-48662000D03*
X46211400Y-51202000D03*
X46211400Y-53742000D03*
X46211400Y-56282000D03*
X46211400Y-58822000D03*
X46211400Y-61362000D03*
X30991400Y-61362000D03*
X30991400Y-58822000D03*
X30991400Y-56282000D03*
X30991400Y-53742000D03*
X30991400Y-51202000D03*
X30991400Y-48662000D03*
X30991400Y-46122000D03*
X30991400Y-43582000D03*
X30991400Y-41042000D03*
X30991400Y-38502000D03*
X30991400Y-35962000D03*
X30991400Y-33422000D03*
%TD*%
D16*
%TO.C,OLED*%
X34736000Y-68508000D03*
X37276000Y-68508000D03*
X39816000Y-68508000D03*
X42356000Y-68508000D03*
%TD*%
%LPC*%
D17*
%TO.C,D9*%
X43950000Y-83500000D03*
X43950000Y-80200000D03*
%TD*%
%TO.C,D8*%
X39800000Y-83500000D03*
X39800000Y-80200000D03*
%TD*%
D18*
%TO.C,SW17*%
X71400000Y-90900000D03*
D19*
X83000000Y-86440000D03*
X83000000Y-92960000D03*
D20*
X76550000Y-92000000D03*
X79000000Y-92000000D03*
D21*
X71000000Y-85800000D03*
D22*
X71000000Y-94200000D03*
D23*
X83400000Y-84675000D03*
D24*
X83400000Y-89700000D03*
D23*
X83400000Y-94725000D03*
%TD*%
D17*
%TO.C,D14*%
X44050000Y-89440000D03*
X44050000Y-86140000D03*
%TD*%
D18*
%TO.C,SW15*%
X128400000Y-73300000D03*
D19*
X140000000Y-68840000D03*
X140000000Y-75360000D03*
D20*
X133550000Y-74400000D03*
X136000000Y-74400000D03*
D21*
X128000000Y-68200000D03*
D22*
X128000000Y-76600000D03*
D23*
X140400000Y-67075000D03*
D24*
X140400000Y-72100000D03*
D23*
X140400000Y-77125000D03*
%TD*%
D18*
%TO.C,SW14*%
X109400000Y-73300000D03*
D19*
X121000000Y-68840000D03*
X121000000Y-75360000D03*
D20*
X114550000Y-74400000D03*
X117000000Y-74400000D03*
D21*
X109000000Y-68200000D03*
D22*
X109000000Y-76600000D03*
D23*
X121400000Y-67075000D03*
D24*
X121400000Y-72100000D03*
D23*
X121400000Y-77125000D03*
%TD*%
D18*
%TO.C,SW2*%
X71400000Y-38100000D03*
D19*
X83000000Y-33640000D03*
X83000000Y-40160000D03*
D20*
X76550000Y-39200000D03*
X79000000Y-39200000D03*
D21*
X71000000Y-33000000D03*
D22*
X71000000Y-41400000D03*
D23*
X83400000Y-31875000D03*
D24*
X83400000Y-36900000D03*
D23*
X83400000Y-41925000D03*
%TD*%
D17*
%TO.C,D13*%
X39900000Y-89440000D03*
X39900000Y-86140000D03*
%TD*%
D18*
%TO.C,SW9*%
X109400000Y-55700000D03*
D19*
X121000000Y-51240000D03*
X121000000Y-57760000D03*
D20*
X114550000Y-56800000D03*
X117000000Y-56800000D03*
D21*
X109000000Y-50600000D03*
D22*
X109000000Y-59000000D03*
D23*
X121400000Y-49475000D03*
D24*
X121400000Y-54500000D03*
D23*
X121400000Y-59525000D03*
%TD*%
D14*
%TO.C,RSW1*%
X46212000Y-72261000D03*
X46212000Y-65761000D03*
%TD*%
D18*
%TO.C,SW5*%
X128400000Y-38100000D03*
D19*
X140000000Y-33640000D03*
X140000000Y-40160000D03*
D20*
X133550000Y-39200000D03*
X136000000Y-39200000D03*
D21*
X128000000Y-33000000D03*
D22*
X128000000Y-41400000D03*
D23*
X140400000Y-31875000D03*
D24*
X140400000Y-36900000D03*
D23*
X140400000Y-41925000D03*
%TD*%
D17*
%TO.C,D20*%
X48100000Y-95000000D03*
X48100000Y-91700000D03*
%TD*%
%TO.C,D17*%
X35650000Y-95000000D03*
X35650000Y-91700000D03*
%TD*%
%TO.C,D7*%
X35650000Y-83500000D03*
X35650000Y-80200000D03*
%TD*%
D18*
%TO.C,SW6*%
X52400000Y-55700000D03*
D19*
X64000000Y-51240000D03*
X64000000Y-57760000D03*
D20*
X57550000Y-56800000D03*
X60000000Y-56800000D03*
D21*
X52000000Y-50600000D03*
D22*
X52000000Y-59000000D03*
D23*
X64400000Y-49475000D03*
D24*
X64400000Y-54500000D03*
D23*
X64400000Y-59525000D03*
%TD*%
D17*
%TO.C,D1*%
X31500000Y-78000000D03*
X31500000Y-74700000D03*
%TD*%
D18*
%TO.C,SW13*%
X90400000Y-73300000D03*
D19*
X102000000Y-68840000D03*
X102000000Y-75360000D03*
D20*
X95550000Y-74400000D03*
X98000000Y-74400000D03*
D21*
X90000000Y-68200000D03*
D22*
X90000000Y-76600000D03*
D23*
X102400000Y-67075000D03*
D24*
X102400000Y-72100000D03*
D23*
X102400000Y-77125000D03*
%TD*%
D18*
%TO.C,SW4*%
X109400000Y-38100000D03*
D19*
X121000000Y-33640000D03*
X121000000Y-40160000D03*
D20*
X114550000Y-39200000D03*
X117000000Y-39200000D03*
D21*
X109000000Y-33000000D03*
D22*
X109000000Y-41400000D03*
D23*
X121400000Y-31875000D03*
D24*
X121400000Y-36900000D03*
D23*
X121400000Y-41925000D03*
%TD*%
D18*
%TO.C,SW19*%
X109400000Y-90900000D03*
D19*
X121000000Y-86440000D03*
X121000000Y-92960000D03*
D20*
X114550000Y-92000000D03*
X117000000Y-92000000D03*
D21*
X109000000Y-85800000D03*
D22*
X109000000Y-94200000D03*
D23*
X121400000Y-84675000D03*
D24*
X121400000Y-89700000D03*
D23*
X121400000Y-94725000D03*
%TD*%
D17*
%TO.C,D10*%
X48100000Y-83500000D03*
X48100000Y-80200000D03*
%TD*%
%TO.C,D12*%
X35750000Y-89440000D03*
X35750000Y-86140000D03*
%TD*%
D18*
%TO.C,SW10*%
X128400000Y-55700000D03*
D19*
X140000000Y-51240000D03*
X140000000Y-57760000D03*
D20*
X133550000Y-56800000D03*
X136000000Y-56800000D03*
D21*
X128000000Y-50600000D03*
D22*
X128000000Y-59000000D03*
D23*
X140400000Y-49475000D03*
D24*
X140400000Y-54500000D03*
D23*
X140400000Y-59525000D03*
%TD*%
D17*
%TO.C,D4*%
X43950000Y-78000000D03*
X43950000Y-74700000D03*
%TD*%
%TO.C,D15*%
X48200000Y-89440000D03*
X48200000Y-86140000D03*
%TD*%
D18*
%TO.C,SW3*%
X90400000Y-38100000D03*
D19*
X102000000Y-33640000D03*
X102000000Y-40160000D03*
D20*
X95550000Y-39200000D03*
X98000000Y-39200000D03*
D21*
X90000000Y-33000000D03*
D22*
X90000000Y-41400000D03*
D23*
X102400000Y-31875000D03*
D24*
X102400000Y-36900000D03*
D23*
X102400000Y-41925000D03*
%TD*%
D17*
%TO.C,D6*%
X31500000Y-83500000D03*
X31500000Y-80200000D03*
%TD*%
D18*
%TO.C,SW7*%
X71400000Y-55700000D03*
D19*
X83000000Y-51240000D03*
X83000000Y-57760000D03*
D20*
X76550000Y-56800000D03*
X79000000Y-56800000D03*
D21*
X71000000Y-50600000D03*
D22*
X71000000Y-59000000D03*
D23*
X83400000Y-49475000D03*
D24*
X83400000Y-54500000D03*
D23*
X83400000Y-59525000D03*
%TD*%
D17*
%TO.C,D16*%
X31500000Y-95000000D03*
X31500000Y-91700000D03*
%TD*%
D18*
%TO.C,SW8*%
X90400000Y-55700000D03*
D19*
X102000000Y-51240000D03*
X102000000Y-57760000D03*
D20*
X95550000Y-56800000D03*
X98000000Y-56800000D03*
D21*
X90000000Y-50600000D03*
D22*
X90000000Y-59000000D03*
D23*
X102400000Y-49475000D03*
D24*
X102400000Y-54500000D03*
D23*
X102400000Y-59525000D03*
%TD*%
D15*
%TO.C,U1*%
X46211400Y-33422000D03*
X46211400Y-35962000D03*
X46211400Y-38502000D03*
X46211400Y-41042000D03*
X46211400Y-43582000D03*
X46211400Y-46122000D03*
X46211400Y-48662000D03*
X46211400Y-51202000D03*
X46211400Y-53742000D03*
X46211400Y-56282000D03*
X46211400Y-58822000D03*
X46211400Y-61362000D03*
X30991400Y-61362000D03*
X30991400Y-58822000D03*
X30991400Y-56282000D03*
X30991400Y-53742000D03*
X30991400Y-51202000D03*
X30991400Y-48662000D03*
X30991400Y-46122000D03*
X30991400Y-43582000D03*
X30991400Y-41042000D03*
X30991400Y-38502000D03*
X30991400Y-35962000D03*
X30991400Y-33422000D03*
%TD*%
D18*
%TO.C,SW16*%
X52400000Y-90900000D03*
D19*
X64000000Y-86440000D03*
X64000000Y-92960000D03*
D20*
X57550000Y-92000000D03*
X60000000Y-92000000D03*
D21*
X52000000Y-85800000D03*
D22*
X52000000Y-94200000D03*
D23*
X64400000Y-84675000D03*
D24*
X64400000Y-89700000D03*
D23*
X64400000Y-94725000D03*
%TD*%
D17*
%TO.C,D18*%
X39800000Y-95000000D03*
X39800000Y-91700000D03*
%TD*%
D18*
%TO.C,SW12*%
X71400000Y-73300000D03*
D19*
X83000000Y-68840000D03*
X83000000Y-75360000D03*
D20*
X76550000Y-74400000D03*
X79000000Y-74400000D03*
D21*
X71000000Y-68200000D03*
D22*
X71000000Y-76600000D03*
D23*
X83400000Y-67075000D03*
D24*
X83400000Y-72100000D03*
D23*
X83400000Y-77125000D03*
%TD*%
D17*
%TO.C,D11*%
X31600000Y-89440000D03*
X31600000Y-86140000D03*
%TD*%
D18*
%TO.C,SW20*%
X128400000Y-90900000D03*
D19*
X140000000Y-86440000D03*
X140000000Y-92960000D03*
D20*
X133550000Y-92000000D03*
X136000000Y-92000000D03*
D21*
X128000000Y-85800000D03*
D22*
X128000000Y-94200000D03*
D23*
X140400000Y-84675000D03*
D24*
X140400000Y-89700000D03*
D23*
X140400000Y-94725000D03*
%TD*%
D18*
%TO.C,SW11*%
X52400000Y-73300000D03*
D19*
X64000000Y-68840000D03*
X64000000Y-75360000D03*
D20*
X57550000Y-74400000D03*
X60000000Y-74400000D03*
D21*
X52000000Y-68200000D03*
D22*
X52000000Y-76600000D03*
D23*
X64400000Y-67075000D03*
D24*
X64400000Y-72100000D03*
D23*
X64400000Y-77125000D03*
%TD*%
D18*
%TO.C,SW1*%
X52400000Y-38100000D03*
D19*
X64000000Y-33640000D03*
X64000000Y-40160000D03*
D20*
X57550000Y-39200000D03*
X60000000Y-39200000D03*
D21*
X52000000Y-33000000D03*
D22*
X52000000Y-41400000D03*
D23*
X64400000Y-31875000D03*
D24*
X64400000Y-36900000D03*
D23*
X64400000Y-41925000D03*
%TD*%
D17*
%TO.C,D5*%
X48100000Y-78000000D03*
X48100000Y-74700000D03*
%TD*%
%TO.C,D3*%
X39800000Y-78000000D03*
X39800000Y-74700000D03*
%TD*%
%TO.C,D2*%
X35650000Y-78000000D03*
X35650000Y-74700000D03*
%TD*%
D18*
%TO.C,SW18*%
X90400000Y-90900000D03*
D19*
X102000000Y-86440000D03*
X102000000Y-92960000D03*
D20*
X95550000Y-92000000D03*
X98000000Y-92000000D03*
D21*
X90000000Y-85800000D03*
D22*
X90000000Y-94200000D03*
D23*
X102400000Y-84675000D03*
D24*
X102400000Y-89700000D03*
D23*
X102400000Y-94725000D03*
%TD*%
D16*
%TO.C,OLED*%
X34736000Y-68508000D03*
X37276000Y-68508000D03*
X39816000Y-68508000D03*
X42356000Y-68508000D03*
%TD*%
D17*
%TO.C,D19*%
X43950000Y-95000000D03*
X43950000Y-91700000D03*
%TD*%
%LPD*%
M02*
