%TF.GenerationSoftware,KiCad,Pcbnew,9.0.5*%
%TF.CreationDate,2025-10-15T11:26:38+02:00*%
%TF.ProjectId,numpad,6e756d70-6164-42e6-9b69-6361645f7063,rev?*%
%TF.SameCoordinates,Original*%
%TF.FileFunction,Copper,L2,Bot*%
%TF.FilePolarity,Positive*%
%FSLAX46Y46*%
G04 Gerber Fmt 4.6, Leading zero omitted, Abs format (unit mm)*
G04 Created by KiCad (PCBNEW 9.0.5) date 2025-10-15 11:26:38*
%MOMM*%
%LPD*%
G01*
G04 APERTURE LIST*
%TA.AperFunction,ComponentPad*%
%ADD10O,1.778000X1.397000*%
%TD*%
%TA.AperFunction,ComponentPad*%
%ADD11C,1.524000*%
%TD*%
%TA.AperFunction,ComponentPad*%
%ADD12O,1.397000X1.778000*%
%TD*%
%TA.AperFunction,ViaPad*%
%ADD13C,0.600000*%
%TD*%
%TA.AperFunction,Conductor*%
%ADD14C,0.508000*%
%TD*%
%TA.AperFunction,Conductor*%
%ADD15C,0.200000*%
%TD*%
G04 APERTURE END LIST*
D10*
%TO.P,RSW1,1*%
%TO.N,reset*%
X46212000Y-72261000D03*
%TO.P,RSW1,2*%
%TO.N,GND*%
X46212000Y-65761000D03*
%TD*%
D11*
%TO.P,U1,1*%
%TO.N,LED*%
X46211400Y-33422000D03*
%TO.P,U1,2*%
%TO.N,data*%
X46211400Y-35962000D03*
%TO.P,U1,3*%
%TO.N,GND*%
X46211400Y-38502000D03*
%TO.P,U1,4*%
X46211400Y-41042000D03*
%TO.P,U1,5*%
%TO.N,SDA*%
X46211400Y-43582000D03*
%TO.P,U1,6*%
%TO.N,SCL*%
X46211400Y-46122000D03*
%TO.P,U1,7*%
%TO.N,row0*%
X46211400Y-48662000D03*
%TO.P,U1,8*%
%TO.N,row1*%
X46211400Y-51202000D03*
%TO.P,U1,9*%
%TO.N,row2*%
X46211400Y-53742000D03*
%TO.P,U1,10*%
%TO.N,row3*%
X46211400Y-56282000D03*
%TO.P,U1,11*%
%TO.N,Net-(U1-Pad11)*%
X46211400Y-58822000D03*
%TO.P,U1,12*%
%TO.N,Net-(U1-Pad12)*%
X46211400Y-61362000D03*
%TO.P,U1,13*%
%TO.N,Net-(U1-Pad13)*%
X30991400Y-61362000D03*
%TO.P,U1,14*%
%TO.N,Net-(U1-Pad14)*%
X30991400Y-58822000D03*
%TO.P,U1,15*%
%TO.N,col5*%
X30991400Y-56282000D03*
%TO.P,U1,16*%
%TO.N,col4*%
X30991400Y-53742000D03*
%TO.P,U1,17*%
%TO.N,col3*%
X30991400Y-51202000D03*
%TO.P,U1,18*%
%TO.N,col2*%
X30991400Y-48662000D03*
%TO.P,U1,19*%
%TO.N,col1*%
X30991400Y-46122000D03*
%TO.P,U1,20*%
%TO.N,col0*%
X30991400Y-43582000D03*
%TO.P,U1,21*%
%TO.N,VCC*%
X30991400Y-41042000D03*
%TO.P,U1,22*%
%TO.N,reset*%
X30991400Y-38502000D03*
%TO.P,U1,23*%
%TO.N,GND*%
X30991400Y-35962000D03*
%TO.P,U1,24*%
%TO.N,Net-(U1-Pad24)*%
X30991400Y-33422000D03*
%TD*%
D12*
%TO.P,OLED,1*%
%TO.N,SDA*%
X34736000Y-68508000D03*
%TO.P,OLED,2*%
%TO.N,SCL*%
X37276000Y-68508000D03*
%TO.P,OLED,3*%
%TO.N,VCC*%
X39816000Y-68508000D03*
%TO.P,OLED,4*%
%TO.N,GND*%
X42356000Y-68508000D03*
%TD*%
D13*
%TO.N,col3*%
X32000000Y-70500000D03*
%TO.N,Net-(D1-K)*%
X57550000Y-39200000D03*
X31500000Y-78000000D03*
%TO.N,Net-(D2-K)*%
X35650000Y-78000000D03*
X76550000Y-39200000D03*
%TO.N,Net-(D4-K)*%
X43950000Y-78000000D03*
X114550000Y-39200000D03*
%TO.N,Net-(D5-K)*%
X133550000Y-39200000D03*
X48100000Y-78000000D03*
%TO.N,Net-(D6-K)*%
X31500000Y-83500000D03*
X57550000Y-56800000D03*
%TO.N,Net-(D7-K)*%
X76550000Y-56800000D03*
X35650000Y-83500000D03*
%TO.N,Net-(D8-K)*%
X39800000Y-83500000D03*
X95550000Y-56800000D03*
%TO.N,Net-(D9-K)*%
X114550000Y-56800000D03*
X43950000Y-83500000D03*
%TO.N,Net-(D10-K)*%
X133550000Y-56800000D03*
X48100000Y-83500000D03*
%TO.N,Net-(D11-K)*%
X57550000Y-74400000D03*
X31600000Y-89440000D03*
%TO.N,Net-(D12-K)*%
X35750000Y-89440000D03*
X76550000Y-74400000D03*
%TO.N,Net-(D13-K)*%
X39900000Y-89440000D03*
X95550000Y-74400000D03*
%TO.N,Net-(D14-K)*%
X44050000Y-89440000D03*
X114550000Y-74400000D03*
%TO.N,Net-(D15-K)*%
X48200000Y-89440000D03*
X133550000Y-74400000D03*
%TO.N,Net-(D16-K)*%
X31500000Y-95000000D03*
X57550000Y-92000000D03*
%TO.N,Net-(D17-K)*%
X35650000Y-95000000D03*
X76550000Y-92000000D03*
%TO.N,Net-(D18-K)*%
X95550000Y-92000000D03*
X39800000Y-95000000D03*
%TO.N,Net-(D19-K)*%
X114550000Y-92000000D03*
X43950000Y-95000000D03*
%TO.N,Net-(D20-K)*%
X48100000Y-95000000D03*
X133550000Y-92000000D03*
%TO.N,Net-(D3-K)*%
X39800000Y-78000000D03*
X95550000Y-39200000D03*
%TD*%
D14*
%TO.N,VCC*%
X39816000Y-43591300D02*
X39816000Y-68508000D01*
X30991400Y-41042000D02*
X37266700Y-41042000D01*
X37266700Y-41042000D02*
X39816000Y-43591300D01*
D15*
%TO.N,SDA*%
X46211400Y-43582000D02*
X40815500Y-48977900D01*
X40815500Y-69112506D02*
X40230006Y-69698000D01*
X35926000Y-69698000D02*
X34736000Y-68508000D01*
X40230006Y-69698000D02*
X35926000Y-69698000D01*
X40815500Y-48977900D02*
X40815500Y-69112506D01*
%TO.N,SCL*%
X41216500Y-69278606D02*
X40396106Y-70099000D01*
X34321994Y-67318000D02*
X36086000Y-67318000D01*
X46211400Y-46122000D02*
X44378000Y-46122000D01*
X44378000Y-46122000D02*
X41216500Y-49283500D01*
X36086000Y-67318000D02*
X37276000Y-68508000D01*
X40396106Y-70099000D02*
X34722994Y-70099000D01*
X33736500Y-67903494D02*
X34321994Y-67318000D01*
X41216500Y-49283500D02*
X41216500Y-69278606D01*
X34722994Y-70099000D02*
X33736500Y-69112506D01*
X33736500Y-69112506D02*
X33736500Y-67903494D01*
%TO.N,row0*%
X46211400Y-48662000D02*
X46338000Y-48662000D01*
%TO.N,col3*%
X32000000Y-70500000D02*
X32054400Y-70445600D01*
X32054400Y-52265000D02*
X30991400Y-51202000D01*
X32054400Y-70445600D02*
X32054400Y-52265000D01*
%TO.N,Net-(D1-K)*%
X46500000Y-74000000D02*
X48500000Y-72000000D01*
X31500000Y-78000000D02*
X35500000Y-74000000D01*
X35500000Y-74000000D02*
X46500000Y-74000000D01*
X53750000Y-43000000D02*
X57550000Y-39200000D01*
X48500000Y-45500000D02*
X51000000Y-43000000D01*
X51000000Y-43000000D02*
X53750000Y-43000000D01*
X48500000Y-72000000D02*
X48500000Y-45500000D01*
%TO.N,Net-(D2-K)*%
X37500000Y-74500000D02*
X47067100Y-74500000D01*
X35650000Y-76350000D02*
X37500000Y-74500000D01*
X51250000Y-43500000D02*
X72250000Y-43500000D01*
X49000000Y-72567100D02*
X49000000Y-45750000D01*
X47067100Y-74500000D02*
X49000000Y-72567100D01*
X49000000Y-45750000D02*
X51250000Y-43500000D01*
X35650000Y-78000000D02*
X35650000Y-76350000D01*
X72250000Y-43500000D02*
X76550000Y-39200000D01*
%TO.N,Net-(D4-K)*%
X51750000Y-44500000D02*
X109250000Y-44500000D01*
X50000000Y-46250000D02*
X51750000Y-44500000D01*
X50000000Y-73533550D02*
X50000000Y-46250000D01*
X109250000Y-44500000D02*
X114550000Y-39200000D01*
X46549000Y-75401000D02*
X48132550Y-75401000D01*
X48132550Y-75401000D02*
X50000000Y-73533550D01*
X43950000Y-78000000D02*
X46549000Y-75401000D01*
%TO.N,Net-(D5-K)*%
X50500000Y-74000000D02*
X50500000Y-46500000D01*
X127750000Y-45000000D02*
X133550000Y-39200000D01*
X50500000Y-46500000D02*
X52000000Y-45000000D01*
X48100000Y-78000000D02*
X48100000Y-76400000D01*
X48100000Y-76400000D02*
X50500000Y-74000000D01*
X52000000Y-45000000D02*
X127750000Y-45000000D01*
%TO.N,Net-(D6-K)*%
X57550000Y-56950000D02*
X57550000Y-56800000D01*
X36000000Y-79000000D02*
X47949943Y-79000000D01*
X31500000Y-83500000D02*
X36000000Y-79000000D01*
X47949943Y-79000000D02*
X51000000Y-75949943D01*
X51000000Y-75949943D02*
X51000000Y-63500000D01*
X51000000Y-63500000D02*
X57550000Y-56950000D01*
%TO.N,Net-(D7-K)*%
X35650000Y-83500000D02*
X35650000Y-81850000D01*
X35650000Y-81850000D02*
X38000000Y-79500000D01*
X38000000Y-79500000D02*
X48508522Y-79500000D01*
X51500000Y-64033550D02*
X54033550Y-61500000D01*
X51500000Y-76508522D02*
X51500000Y-64033550D01*
X71850000Y-61500000D02*
X76550000Y-56800000D01*
X48508522Y-79500000D02*
X51500000Y-76508522D01*
X54033550Y-61500000D02*
X71850000Y-61500000D01*
%TO.N,Net-(D8-K)*%
X39800000Y-83500000D02*
X39800000Y-82200000D01*
X49000000Y-80000000D02*
X53500000Y-75500000D01*
X54500000Y-62000000D02*
X90350000Y-62000000D01*
X39800000Y-82200000D02*
X42000000Y-80000000D01*
X53500000Y-75500000D02*
X53500000Y-63000000D01*
X42000000Y-80000000D02*
X49000000Y-80000000D01*
X90350000Y-62000000D02*
X95550000Y-56800000D01*
X53500000Y-63000000D02*
X54500000Y-62000000D01*
%TO.N,Net-(D9-K)*%
X43950000Y-83500000D02*
X46500000Y-83500000D01*
X46500000Y-83500000D02*
X54000000Y-76000000D01*
X54000000Y-76000000D02*
X54000000Y-63500000D01*
X54000000Y-63500000D02*
X55000000Y-62500000D01*
X108850000Y-62500000D02*
X114550000Y-56800000D01*
X55000000Y-62500000D02*
X108850000Y-62500000D01*
%TO.N,Net-(D10-K)*%
X54500000Y-76500000D02*
X54500000Y-64000000D01*
X127350000Y-63000000D02*
X133550000Y-56800000D01*
X48100000Y-82900000D02*
X54500000Y-76500000D01*
X48100000Y-83500000D02*
X48100000Y-82900000D01*
X55500000Y-63000000D02*
X127350000Y-63000000D01*
X54500000Y-64000000D02*
X55500000Y-63000000D01*
%TO.N,Net-(D11-K)*%
X36540000Y-84500000D02*
X48500000Y-84500000D01*
X49000000Y-84000000D02*
X49000000Y-83000000D01*
X49000000Y-83000000D02*
X57550000Y-74450000D01*
X57550000Y-74450000D02*
X57550000Y-74400000D01*
X48500000Y-84500000D02*
X49000000Y-84000000D01*
X31600000Y-89440000D02*
X36540000Y-84500000D01*
%TO.N,Net-(D12-K)*%
X35750000Y-87250000D02*
X38000000Y-85000000D01*
X38000000Y-85000000D02*
X48567100Y-85000000D01*
X54567100Y-79000000D02*
X71950000Y-79000000D01*
X35750000Y-89440000D02*
X35750000Y-87250000D01*
X48567100Y-85000000D02*
X54567100Y-79000000D01*
X71950000Y-79000000D02*
X76550000Y-74400000D01*
%TO.N,Net-(D13-K)*%
X42000000Y-85500000D02*
X49000000Y-85500000D01*
X39900000Y-87600000D02*
X42000000Y-85500000D01*
X39900000Y-89440000D02*
X39900000Y-87600000D01*
X49000000Y-85500000D02*
X55000000Y-79500000D01*
X90450000Y-79500000D02*
X95550000Y-74400000D01*
X55000000Y-79500000D02*
X90450000Y-79500000D01*
%TO.N,Net-(D14-K)*%
X114550000Y-74450000D02*
X114550000Y-74400000D01*
X109000000Y-80000000D02*
X114550000Y-74450000D01*
X44050000Y-89440000D02*
X44050000Y-87450000D01*
X49500000Y-86000000D02*
X55500000Y-80000000D01*
X55500000Y-80000000D02*
X109000000Y-80000000D01*
X44050000Y-87450000D02*
X45500000Y-86000000D01*
X45500000Y-86000000D02*
X49500000Y-86000000D01*
%TO.N,Net-(D15-K)*%
X127500000Y-80500000D02*
X133550000Y-74450000D01*
X56000000Y-80500000D02*
X127500000Y-80500000D01*
X133550000Y-74450000D02*
X133550000Y-74400000D01*
X48200000Y-88300000D02*
X56000000Y-80500000D01*
X48200000Y-89440000D02*
X48200000Y-88300000D01*
%TO.N,Net-(D16-K)*%
X31500000Y-95000000D02*
X34500000Y-92000000D01*
X34500000Y-92000000D02*
X57550000Y-92000000D01*
%TO.N,Net-(D17-K)*%
X37650000Y-93000000D02*
X58000000Y-93000000D01*
X58000000Y-93000000D02*
X59000000Y-92000000D01*
X59000000Y-92000000D02*
X76550000Y-92000000D01*
X35650000Y-95000000D02*
X37650000Y-93000000D01*
%TO.N,Net-(D18-K)*%
X40889000Y-93911000D02*
X93639000Y-93911000D01*
X39800000Y-95000000D02*
X40889000Y-93911000D01*
X93639000Y-93911000D02*
X95550000Y-92000000D01*
%TO.N,Net-(D19-K)*%
X44500000Y-94500000D02*
X47750057Y-94500000D01*
X44000000Y-95000000D02*
X44500000Y-94500000D01*
X48449943Y-94500000D02*
X112050000Y-94500000D01*
X48348943Y-94399000D02*
X48449943Y-94500000D01*
X112050000Y-94500000D02*
X114550000Y-92000000D01*
X47750057Y-94500000D02*
X47851057Y-94399000D01*
X47851057Y-94399000D02*
X48348943Y-94399000D01*
X43950000Y-95000000D02*
X44000000Y-95000000D01*
%TO.N,Net-(D20-K)*%
X130500000Y-95000000D02*
X133500000Y-92000000D01*
X48100000Y-95000000D02*
X130500000Y-95000000D01*
X133500000Y-92000000D02*
X133550000Y-92000000D01*
%TO.N,Net-(D3-K)*%
X51500000Y-44000000D02*
X90750000Y-44000000D01*
X41500000Y-75000000D02*
X47500000Y-75000000D01*
X90750000Y-44000000D02*
X95550000Y-39200000D01*
X47500000Y-75000000D02*
X49500000Y-73000000D01*
X39800000Y-78000000D02*
X39800000Y-76700000D01*
X49500000Y-46000000D02*
X51500000Y-44000000D01*
X49500000Y-73000000D02*
X49500000Y-46000000D01*
X39800000Y-76700000D02*
X41500000Y-75000000D01*
%TD*%
%TA.AperFunction,Conductor*%
%TO.N,VCC*%
G36*
X141981315Y-28601107D02*
G01*
X142133666Y-28616241D01*
X142148927Y-28618727D01*
X142316275Y-28656827D01*
X142331331Y-28661274D01*
X142492397Y-28720189D01*
X142507890Y-28727093D01*
X142647944Y-28801376D01*
X142663318Y-28811035D01*
X142781375Y-28897884D01*
X142795809Y-28910320D01*
X142853297Y-28968116D01*
X142895086Y-29010128D01*
X142907680Y-29024953D01*
X142991978Y-29141622D01*
X143002006Y-29158051D01*
X143078614Y-29308746D01*
X143084198Y-29321443D01*
X143110466Y-29391571D01*
X143113297Y-29400046D01*
X143140185Y-29491374D01*
X143142327Y-29499706D01*
X143164502Y-29600319D01*
X143166002Y-29608385D01*
X143183059Y-29720672D01*
X143183987Y-29728423D01*
X143194901Y-29852426D01*
X143195329Y-29859788D01*
X143199450Y-30005317D01*
X143199500Y-30008827D01*
X143199500Y-96991168D01*
X143199450Y-96994676D01*
X143195354Y-97139384D01*
X143194920Y-97146821D01*
X143184224Y-97267532D01*
X143183263Y-97275462D01*
X143166849Y-97382039D01*
X143165266Y-97390399D01*
X143144428Y-97482957D01*
X143142121Y-97491703D01*
X143117538Y-97572778D01*
X143114427Y-97581777D01*
X143092234Y-97638791D01*
X143085957Y-97652417D01*
X143020616Y-97774252D01*
X143008989Y-97792070D01*
X142944299Y-97874727D01*
X142929337Y-97890708D01*
X142858040Y-97954508D01*
X142840672Y-97967504D01*
X142759345Y-98017905D01*
X142740802Y-98027343D01*
X142648616Y-98064893D01*
X142630015Y-98070810D01*
X142535818Y-98092789D01*
X142519240Y-98095489D01*
X142482335Y-98098956D01*
X142470737Y-98099500D01*
X30523051Y-98099500D01*
X30513911Y-98099163D01*
X30511110Y-98098956D01*
X30498196Y-98098001D01*
X30387899Y-98089849D01*
X30375573Y-98088314D01*
X30172365Y-98052596D01*
X30158917Y-98049451D01*
X29956046Y-97989922D01*
X29941992Y-97984861D01*
X29759934Y-97906606D01*
X29745567Y-97899289D01*
X29589482Y-97806545D01*
X29575333Y-97796747D01*
X29444032Y-97691621D01*
X29430809Y-97679354D01*
X29320665Y-97561140D01*
X29309146Y-97546771D01*
X29216548Y-97411819D01*
X29207356Y-97396043D01*
X29125541Y-97228310D01*
X29120379Y-97216113D01*
X29091930Y-97137429D01*
X29089297Y-97129276D01*
X29061108Y-97030437D01*
X29059105Y-97022406D01*
X29053164Y-96994676D01*
X29036076Y-96914919D01*
X29034666Y-96907128D01*
X29033804Y-96901309D01*
X29017128Y-96788713D01*
X29016248Y-96781182D01*
X29005117Y-96651837D01*
X29004708Y-96644646D01*
X29000548Y-96494778D01*
X29000500Y-96491337D01*
X29000500Y-94921153D01*
X30699500Y-94921153D01*
X30699500Y-95078846D01*
X30730261Y-95233489D01*
X30730264Y-95233501D01*
X30790602Y-95379172D01*
X30790609Y-95379185D01*
X30878210Y-95510288D01*
X30878213Y-95510292D01*
X30989707Y-95621786D01*
X30989711Y-95621789D01*
X31120814Y-95709390D01*
X31120827Y-95709397D01*
X31266498Y-95769735D01*
X31266503Y-95769737D01*
X31421153Y-95800499D01*
X31421156Y-95800500D01*
X31421158Y-95800500D01*
X31578844Y-95800500D01*
X31578845Y-95800499D01*
X31733497Y-95769737D01*
X31879179Y-95709394D01*
X32010289Y-95621789D01*
X32121789Y-95510289D01*
X32209394Y-95379179D01*
X32269737Y-95233497D01*
X32295531Y-95103824D01*
X32300638Y-95078150D01*
X32333023Y-95016239D01*
X32334517Y-95014717D01*
X34712417Y-92636819D01*
X34773740Y-92603334D01*
X34800098Y-92600500D01*
X36900902Y-92600500D01*
X36967941Y-92620185D01*
X37013696Y-92672989D01*
X37023640Y-92742147D01*
X36994615Y-92805703D01*
X36988583Y-92812181D01*
X35635339Y-94165425D01*
X35574016Y-94198910D01*
X35571850Y-94199361D01*
X35416508Y-94230261D01*
X35416498Y-94230264D01*
X35270827Y-94290602D01*
X35270814Y-94290609D01*
X35139711Y-94378210D01*
X35139707Y-94378213D01*
X35028213Y-94489707D01*
X35028210Y-94489711D01*
X34940609Y-94620814D01*
X34940602Y-94620827D01*
X34880264Y-94766498D01*
X34880261Y-94766510D01*
X34849500Y-94921153D01*
X34849500Y-95078846D01*
X34880261Y-95233489D01*
X34880264Y-95233501D01*
X34940602Y-95379172D01*
X34940609Y-95379185D01*
X35028210Y-95510288D01*
X35028213Y-95510292D01*
X35139707Y-95621786D01*
X35139711Y-95621789D01*
X35270814Y-95709390D01*
X35270827Y-95709397D01*
X35416498Y-95769735D01*
X35416503Y-95769737D01*
X35571153Y-95800499D01*
X35571156Y-95800500D01*
X35571158Y-95800500D01*
X35728844Y-95800500D01*
X35728845Y-95800499D01*
X35883497Y-95769737D01*
X36029179Y-95709394D01*
X36160289Y-95621789D01*
X36271789Y-95510289D01*
X36359394Y-95379179D01*
X36419737Y-95233497D01*
X36445531Y-95103824D01*
X36450638Y-95078150D01*
X36483023Y-95016239D01*
X36484518Y-95014716D01*
X37862416Y-93636819D01*
X37923739Y-93603334D01*
X37950097Y-93600500D01*
X40050902Y-93600500D01*
X40117941Y-93620185D01*
X40163696Y-93672989D01*
X40173640Y-93742147D01*
X40144615Y-93805703D01*
X40138583Y-93812181D01*
X39785339Y-94165425D01*
X39724016Y-94198910D01*
X39721850Y-94199361D01*
X39566508Y-94230261D01*
X39566498Y-94230264D01*
X39420827Y-94290602D01*
X39420814Y-94290609D01*
X39289711Y-94378210D01*
X39289707Y-94378213D01*
X39178213Y-94489707D01*
X39178210Y-94489711D01*
X39090609Y-94620814D01*
X39090602Y-94620827D01*
X39030264Y-94766498D01*
X39030261Y-94766510D01*
X38999500Y-94921153D01*
X38999500Y-95078846D01*
X39030261Y-95233489D01*
X39030264Y-95233501D01*
X39090602Y-95379172D01*
X39090609Y-95379185D01*
X39178210Y-95510288D01*
X39178213Y-95510292D01*
X39289707Y-95621786D01*
X39289711Y-95621789D01*
X39420814Y-95709390D01*
X39420827Y-95709397D01*
X39566498Y-95769735D01*
X39566503Y-95769737D01*
X39721153Y-95800499D01*
X39721156Y-95800500D01*
X39721158Y-95800500D01*
X39878844Y-95800500D01*
X39878845Y-95800499D01*
X40033497Y-95769737D01*
X40179179Y-95709394D01*
X40310289Y-95621789D01*
X40421789Y-95510289D01*
X40509394Y-95379179D01*
X40569737Y-95233497D01*
X40595531Y-95103824D01*
X40600638Y-95078150D01*
X40633023Y-95016239D01*
X40634515Y-95014719D01*
X41101417Y-94547819D01*
X41162740Y-94514334D01*
X41189098Y-94511500D01*
X43100309Y-94511500D01*
X43167348Y-94531185D01*
X43213103Y-94583989D01*
X43223047Y-94653147D01*
X43214870Y-94682952D01*
X43180264Y-94766498D01*
X43180261Y-94766510D01*
X43149500Y-94921153D01*
X43149500Y-95078846D01*
X43180261Y-95233489D01*
X43180264Y-95233501D01*
X43240602Y-95379172D01*
X43240609Y-95379185D01*
X43328210Y-95510288D01*
X43328213Y-95510292D01*
X43439707Y-95621786D01*
X43439711Y-95621789D01*
X43570814Y-95709390D01*
X43570827Y-95709397D01*
X43716498Y-95769735D01*
X43716503Y-95769737D01*
X43871153Y-95800499D01*
X43871156Y-95800500D01*
X43871158Y-95800500D01*
X44028844Y-95800500D01*
X44028845Y-95800499D01*
X44183497Y-95769737D01*
X44329179Y-95709394D01*
X44460289Y-95621789D01*
X44571789Y-95510289D01*
X44659394Y-95379179D01*
X44719737Y-95233497D01*
X44719739Y-95233489D01*
X44726339Y-95200309D01*
X44758724Y-95138398D01*
X44819439Y-95103824D01*
X44847956Y-95100500D01*
X47202044Y-95100500D01*
X47269083Y-95120185D01*
X47314838Y-95172989D01*
X47323661Y-95200309D01*
X47330261Y-95233489D01*
X47330264Y-95233501D01*
X47390602Y-95379172D01*
X47390609Y-95379185D01*
X47478210Y-95510288D01*
X47478213Y-95510292D01*
X47589707Y-95621786D01*
X47589711Y-95621789D01*
X47720814Y-95709390D01*
X47720827Y-95709397D01*
X47866498Y-95769735D01*
X47866503Y-95769737D01*
X48021153Y-95800499D01*
X48021156Y-95800500D01*
X48021158Y-95800500D01*
X48178844Y-95800500D01*
X48178845Y-95800499D01*
X48333497Y-95769737D01*
X48479179Y-95709394D01*
X48479185Y-95709390D01*
X48610875Y-95621398D01*
X48677553Y-95600520D01*
X48679766Y-95600500D01*
X130413331Y-95600500D01*
X130413347Y-95600501D01*
X130420943Y-95600501D01*
X130579054Y-95600501D01*
X130579057Y-95600501D01*
X130731785Y-95559577D01*
X130781904Y-95530639D01*
X130868716Y-95480520D01*
X130980520Y-95368716D01*
X130980520Y-95368714D01*
X130990728Y-95358507D01*
X130990729Y-95358504D01*
X133473008Y-92876228D01*
X139149500Y-92876228D01*
X139149500Y-93043771D01*
X139182182Y-93208074D01*
X139182184Y-93208082D01*
X139246295Y-93362860D01*
X139339373Y-93502162D01*
X139457837Y-93620626D01*
X139482072Y-93636819D01*
X139597137Y-93713703D01*
X139751918Y-93777816D01*
X139892117Y-93805703D01*
X139916228Y-93810499D01*
X139916232Y-93810500D01*
X139916233Y-93810500D01*
X140083768Y-93810500D01*
X140083769Y-93810499D01*
X140248082Y-93777816D01*
X140402863Y-93713703D01*
X140542162Y-93620626D01*
X140660626Y-93502162D01*
X140753703Y-93362863D01*
X140817816Y-93208082D01*
X140850500Y-93043767D01*
X140850500Y-92876233D01*
X140817816Y-92711918D01*
X140753703Y-92557137D01*
X140722399Y-92510288D01*
X140660626Y-92417837D01*
X140542162Y-92299373D01*
X140402860Y-92206295D01*
X140248082Y-92142184D01*
X140248074Y-92142182D01*
X140083771Y-92109500D01*
X140083767Y-92109500D01*
X139916233Y-92109500D01*
X139916228Y-92109500D01*
X139751925Y-92142182D01*
X139751917Y-92142184D01*
X139597139Y-92206295D01*
X139457837Y-92299373D01*
X139339373Y-92417837D01*
X139246295Y-92557139D01*
X139182184Y-92711917D01*
X139182182Y-92711925D01*
X139149500Y-92876228D01*
X133473008Y-92876228D01*
X133512417Y-92836819D01*
X133573740Y-92803334D01*
X133600098Y-92800500D01*
X133628844Y-92800500D01*
X133628845Y-92800499D01*
X133783497Y-92769737D01*
X133801809Y-92762151D01*
X133817676Y-92755580D01*
X133929172Y-92709397D01*
X133929172Y-92709396D01*
X133929179Y-92709394D01*
X134060289Y-92621789D01*
X134171789Y-92510289D01*
X134259394Y-92379179D01*
X134319737Y-92233497D01*
X134350500Y-92078842D01*
X134350500Y-91921158D01*
X134350500Y-91921155D01*
X134350499Y-91921153D01*
X134319738Y-91766510D01*
X134319738Y-91766508D01*
X134319737Y-91766503D01*
X134319735Y-91766498D01*
X134259397Y-91620827D01*
X134259390Y-91620814D01*
X134171789Y-91489711D01*
X134171786Y-91489707D01*
X134060292Y-91378213D01*
X134060288Y-91378210D01*
X133929185Y-91290609D01*
X133929172Y-91290602D01*
X133783501Y-91230264D01*
X133783489Y-91230261D01*
X133628845Y-91199500D01*
X133628842Y-91199500D01*
X133471158Y-91199500D01*
X133471155Y-91199500D01*
X133316510Y-91230261D01*
X133316498Y-91230264D01*
X133170827Y-91290602D01*
X133170814Y-91290609D01*
X133039711Y-91378210D01*
X133039707Y-91378213D01*
X132928213Y-91489707D01*
X132928210Y-91489711D01*
X132840609Y-91620814D01*
X132840602Y-91620827D01*
X132780264Y-91766498D01*
X132780261Y-91766508D01*
X132761777Y-91859432D01*
X132729391Y-91921343D01*
X132727841Y-91922921D01*
X130287584Y-94363181D01*
X130226261Y-94396666D01*
X130199903Y-94399500D01*
X113299097Y-94399500D01*
X113232058Y-94379815D01*
X113186303Y-94327011D01*
X113176359Y-94257853D01*
X113205384Y-94194297D01*
X113211416Y-94187819D01*
X113798735Y-93600500D01*
X114523006Y-92876228D01*
X120149500Y-92876228D01*
X120149500Y-93043771D01*
X120182182Y-93208074D01*
X120182184Y-93208082D01*
X120246295Y-93362860D01*
X120339373Y-93502162D01*
X120457837Y-93620626D01*
X120482072Y-93636819D01*
X120597137Y-93713703D01*
X120751918Y-93777816D01*
X120892117Y-93805703D01*
X120916228Y-93810499D01*
X120916232Y-93810500D01*
X120916233Y-93810500D01*
X121083768Y-93810500D01*
X121083769Y-93810499D01*
X121248082Y-93777816D01*
X121402863Y-93713703D01*
X121542162Y-93620626D01*
X121660626Y-93502162D01*
X121753703Y-93362863D01*
X121817816Y-93208082D01*
X121850500Y-93043767D01*
X121850500Y-92876233D01*
X121817816Y-92711918D01*
X121753703Y-92557137D01*
X121722399Y-92510288D01*
X121660626Y-92417837D01*
X121542162Y-92299373D01*
X121402860Y-92206295D01*
X121248082Y-92142184D01*
X121248074Y-92142182D01*
X121083771Y-92109500D01*
X121083767Y-92109500D01*
X120916233Y-92109500D01*
X120916228Y-92109500D01*
X120751925Y-92142182D01*
X120751917Y-92142184D01*
X120597139Y-92206295D01*
X120457837Y-92299373D01*
X120339373Y-92417837D01*
X120246295Y-92557139D01*
X120182184Y-92711917D01*
X120182182Y-92711925D01*
X120149500Y-92876228D01*
X114523006Y-92876228D01*
X114564662Y-92834572D01*
X114579414Y-92826266D01*
X114590107Y-92815004D01*
X114618385Y-92804325D01*
X114622844Y-92801815D01*
X114628213Y-92800500D01*
X114628842Y-92800500D01*
X114783497Y-92769737D01*
X114923069Y-92711925D01*
X114929172Y-92709397D01*
X114929172Y-92709396D01*
X114929179Y-92709394D01*
X115060289Y-92621789D01*
X115171789Y-92510289D01*
X115259394Y-92379179D01*
X115319737Y-92233497D01*
X115350500Y-92078842D01*
X115350500Y-91921158D01*
X115350500Y-91921155D01*
X115350499Y-91921153D01*
X115319738Y-91766510D01*
X115319738Y-91766508D01*
X115319737Y-91766503D01*
X115319735Y-91766498D01*
X115259397Y-91620827D01*
X115259390Y-91620814D01*
X115171789Y-91489711D01*
X115171786Y-91489707D01*
X115060292Y-91378213D01*
X115060288Y-91378210D01*
X114929185Y-91290609D01*
X114929172Y-91290602D01*
X114783501Y-91230264D01*
X114783489Y-91230261D01*
X114628845Y-91199500D01*
X114628842Y-91199500D01*
X114471158Y-91199500D01*
X114471155Y-91199500D01*
X114316510Y-91230261D01*
X114316498Y-91230264D01*
X114170827Y-91290602D01*
X114170814Y-91290609D01*
X114039711Y-91378210D01*
X114039707Y-91378213D01*
X113928213Y-91489707D01*
X113928210Y-91489711D01*
X113840609Y-91620814D01*
X113840602Y-91620827D01*
X113780264Y-91766498D01*
X113780261Y-91766508D01*
X113749361Y-91921850D01*
X113716976Y-91983761D01*
X113715425Y-91985339D01*
X111837584Y-93863181D01*
X111776261Y-93896666D01*
X111749903Y-93899500D01*
X102533571Y-93899500D01*
X102466532Y-93879815D01*
X102420777Y-93827011D01*
X102410833Y-93757853D01*
X102439858Y-93694297D01*
X102464680Y-93672398D01*
X102542162Y-93620626D01*
X102660626Y-93502162D01*
X102753703Y-93362863D01*
X102817816Y-93208082D01*
X102850500Y-93043767D01*
X102850500Y-92876233D01*
X102817816Y-92711918D01*
X102753703Y-92557137D01*
X102722399Y-92510288D01*
X102660626Y-92417837D01*
X102542162Y-92299373D01*
X102402860Y-92206295D01*
X102248082Y-92142184D01*
X102248074Y-92142182D01*
X102083771Y-92109500D01*
X102083767Y-92109500D01*
X101916233Y-92109500D01*
X101916228Y-92109500D01*
X101751925Y-92142182D01*
X101751917Y-92142184D01*
X101597139Y-92206295D01*
X101457837Y-92299373D01*
X101339373Y-92417837D01*
X101246295Y-92557139D01*
X101182184Y-92711917D01*
X101182182Y-92711925D01*
X101149500Y-92876228D01*
X101149500Y-93043771D01*
X101182182Y-93208074D01*
X101182184Y-93208082D01*
X101246295Y-93362860D01*
X101339373Y-93502162D01*
X101457837Y-93620626D01*
X101535320Y-93672398D01*
X101580125Y-93726010D01*
X101588832Y-93795335D01*
X101558678Y-93858362D01*
X101499235Y-93895082D01*
X101466429Y-93899500D01*
X94799097Y-93899500D01*
X94732058Y-93879815D01*
X94686303Y-93827011D01*
X94676359Y-93757853D01*
X94705384Y-93694297D01*
X94711416Y-93687819D01*
X95125054Y-93274181D01*
X95564662Y-92834572D01*
X95625983Y-92801089D01*
X95628150Y-92800638D01*
X95686085Y-92789113D01*
X95783497Y-92769737D01*
X95923069Y-92711925D01*
X95929172Y-92709397D01*
X95929172Y-92709396D01*
X95929179Y-92709394D01*
X96060289Y-92621789D01*
X96171789Y-92510289D01*
X96259394Y-92379179D01*
X96319737Y-92233497D01*
X96350500Y-92078842D01*
X96350500Y-91921158D01*
X96350500Y-91921155D01*
X96350499Y-91921153D01*
X96319738Y-91766510D01*
X96319738Y-91766508D01*
X96319737Y-91766503D01*
X96319735Y-91766498D01*
X96259397Y-91620827D01*
X96259390Y-91620814D01*
X96171789Y-91489711D01*
X96171786Y-91489707D01*
X96060292Y-91378213D01*
X96060288Y-91378210D01*
X95929185Y-91290609D01*
X95929172Y-91290602D01*
X95783501Y-91230264D01*
X95783489Y-91230261D01*
X95628845Y-91199500D01*
X95628842Y-91199500D01*
X95471158Y-91199500D01*
X95471155Y-91199500D01*
X95316510Y-91230261D01*
X95316498Y-91230264D01*
X95170827Y-91290602D01*
X95170814Y-91290609D01*
X95039711Y-91378210D01*
X95039707Y-91378213D01*
X94928213Y-91489707D01*
X94928210Y-91489711D01*
X94840609Y-91620814D01*
X94840602Y-91620827D01*
X94780264Y-91766498D01*
X94780261Y-91766508D01*
X94749361Y-91921850D01*
X94716976Y-91983761D01*
X94715425Y-91985339D01*
X93426584Y-93274181D01*
X93365261Y-93307666D01*
X93338903Y-93310500D01*
X83948538Y-93310500D01*
X83881499Y-93290815D01*
X83835744Y-93238011D01*
X83825800Y-93168853D01*
X83826921Y-93162309D01*
X83838261Y-93105297D01*
X83850500Y-93043767D01*
X83850500Y-92876233D01*
X83817816Y-92711918D01*
X83753703Y-92557137D01*
X83722399Y-92510288D01*
X83660626Y-92417837D01*
X83542162Y-92299373D01*
X83402860Y-92206295D01*
X83248082Y-92142184D01*
X83248074Y-92142182D01*
X83083771Y-92109500D01*
X83083767Y-92109500D01*
X82916233Y-92109500D01*
X82916228Y-92109500D01*
X82751925Y-92142182D01*
X82751917Y-92142184D01*
X82597139Y-92206295D01*
X82457837Y-92299373D01*
X82339373Y-92417837D01*
X82246295Y-92557139D01*
X82182184Y-92711917D01*
X82182182Y-92711925D01*
X82149500Y-92876228D01*
X82149500Y-93043770D01*
X82173079Y-93162309D01*
X82166852Y-93231900D01*
X82123989Y-93287078D01*
X82058099Y-93310322D01*
X82051462Y-93310500D01*
X64948538Y-93310500D01*
X64881499Y-93290815D01*
X64835744Y-93238011D01*
X64825800Y-93168853D01*
X64826921Y-93162309D01*
X64838261Y-93105297D01*
X64850500Y-93043767D01*
X64850500Y-92876233D01*
X64838321Y-92815004D01*
X64825131Y-92748691D01*
X64831358Y-92679099D01*
X64874221Y-92623922D01*
X64940111Y-92600678D01*
X64946748Y-92600500D01*
X75970234Y-92600500D01*
X76037273Y-92620185D01*
X76039125Y-92621398D01*
X76170814Y-92709390D01*
X76170827Y-92709397D01*
X76316498Y-92769735D01*
X76316503Y-92769737D01*
X76471153Y-92800499D01*
X76471156Y-92800500D01*
X76471158Y-92800500D01*
X76628844Y-92800500D01*
X76628845Y-92800499D01*
X76783497Y-92769737D01*
X76923069Y-92711925D01*
X76929172Y-92709397D01*
X76929172Y-92709396D01*
X76929179Y-92709394D01*
X77060289Y-92621789D01*
X77171789Y-92510289D01*
X77259394Y-92379179D01*
X77319737Y-92233497D01*
X77350500Y-92078842D01*
X77350500Y-91921158D01*
X77350500Y-91921155D01*
X77350499Y-91921153D01*
X77319738Y-91766510D01*
X77319738Y-91766508D01*
X77319737Y-91766503D01*
X77319735Y-91766498D01*
X77259397Y-91620827D01*
X77259390Y-91620814D01*
X77171789Y-91489711D01*
X77171786Y-91489707D01*
X77060292Y-91378213D01*
X77060288Y-91378210D01*
X76929185Y-91290609D01*
X76929172Y-91290602D01*
X76783501Y-91230264D01*
X76783489Y-91230261D01*
X76628845Y-91199500D01*
X76628842Y-91199500D01*
X76471158Y-91199500D01*
X76471155Y-91199500D01*
X76316510Y-91230261D01*
X76316498Y-91230264D01*
X76170827Y-91290602D01*
X76170814Y-91290609D01*
X76039125Y-91378602D01*
X75972447Y-91399480D01*
X75970234Y-91399500D01*
X72218075Y-91399500D01*
X72151036Y-91379815D01*
X72105281Y-91327011D01*
X72095337Y-91257853D01*
X72103514Y-91228048D01*
X72145696Y-91126209D01*
X72145698Y-91126205D01*
X72175500Y-90976380D01*
X72175500Y-90823620D01*
X72175499Y-90823615D01*
X89624500Y-90823615D01*
X89624500Y-90976384D01*
X89654300Y-91126197D01*
X89654302Y-91126205D01*
X89712759Y-91267334D01*
X89712764Y-91267343D01*
X89797629Y-91394351D01*
X89797632Y-91394355D01*
X89905644Y-91502367D01*
X89905648Y-91502370D01*
X90032656Y-91587235D01*
X90032662Y-91587238D01*
X90032663Y-91587239D01*
X90173795Y-91645698D01*
X90323615Y-91675499D01*
X90323619Y-91675500D01*
X90323620Y-91675500D01*
X90476381Y-91675500D01*
X90476382Y-91675499D01*
X90626205Y-91645698D01*
X90767337Y-91587239D01*
X90894352Y-91502370D01*
X91002370Y-91394352D01*
X91087239Y-91267337D01*
X91145698Y-91126205D01*
X91175500Y-90976380D01*
X91175500Y-90823620D01*
X91175499Y-90823615D01*
X108624500Y-90823615D01*
X108624500Y-90976384D01*
X108654300Y-91126197D01*
X108654302Y-91126205D01*
X108712759Y-91267334D01*
X108712764Y-91267343D01*
X108797629Y-91394351D01*
X108797632Y-91394355D01*
X108905644Y-91502367D01*
X108905648Y-91502370D01*
X109032656Y-91587235D01*
X109032662Y-91587238D01*
X109032663Y-91587239D01*
X109173795Y-91645698D01*
X109323615Y-91675499D01*
X109323619Y-91675500D01*
X109323620Y-91675500D01*
X109476381Y-91675500D01*
X109476382Y-91675499D01*
X109626205Y-91645698D01*
X109767337Y-91587239D01*
X109894352Y-91502370D01*
X110002370Y-91394352D01*
X110087239Y-91267337D01*
X110145698Y-91126205D01*
X110175500Y-90976380D01*
X110175500Y-90823620D01*
X110175499Y-90823615D01*
X127624500Y-90823615D01*
X127624500Y-90976384D01*
X127654300Y-91126197D01*
X127654302Y-91126205D01*
X127712759Y-91267334D01*
X127712764Y-91267343D01*
X127797629Y-91394351D01*
X127797632Y-91394355D01*
X127905644Y-91502367D01*
X127905648Y-91502370D01*
X128032656Y-91587235D01*
X128032662Y-91587238D01*
X128032663Y-91587239D01*
X128173795Y-91645698D01*
X128323615Y-91675499D01*
X128323619Y-91675500D01*
X128323620Y-91675500D01*
X128476381Y-91675500D01*
X128476382Y-91675499D01*
X128626205Y-91645698D01*
X128767337Y-91587239D01*
X128894352Y-91502370D01*
X129002370Y-91394352D01*
X129087239Y-91267337D01*
X129145698Y-91126205D01*
X129175500Y-90976380D01*
X129175500Y-90823620D01*
X129145698Y-90673795D01*
X129087239Y-90532663D01*
X129087238Y-90532662D01*
X129087235Y-90532656D01*
X129002370Y-90405648D01*
X129002367Y-90405644D01*
X128894355Y-90297632D01*
X128894351Y-90297629D01*
X128767343Y-90212764D01*
X128767334Y-90212759D01*
X128626205Y-90154302D01*
X128626197Y-90154300D01*
X128476384Y-90124500D01*
X128476380Y-90124500D01*
X128323620Y-90124500D01*
X128323615Y-90124500D01*
X128173802Y-90154300D01*
X128173794Y-90154302D01*
X128032665Y-90212759D01*
X128032656Y-90212764D01*
X127905648Y-90297629D01*
X127905644Y-90297632D01*
X127797632Y-90405644D01*
X127797629Y-90405648D01*
X127712764Y-90532656D01*
X127712759Y-90532665D01*
X127654302Y-90673794D01*
X127654300Y-90673802D01*
X127624500Y-90823615D01*
X110175499Y-90823615D01*
X110145698Y-90673795D01*
X110087239Y-90532663D01*
X110087238Y-90532662D01*
X110087235Y-90532656D01*
X110002370Y-90405648D01*
X110002367Y-90405644D01*
X109894355Y-90297632D01*
X109894351Y-90297629D01*
X109767343Y-90212764D01*
X109767334Y-90212759D01*
X109626205Y-90154302D01*
X109626197Y-90154300D01*
X109476384Y-90124500D01*
X109476380Y-90124500D01*
X109323620Y-90124500D01*
X109323615Y-90124500D01*
X109173802Y-90154300D01*
X109173794Y-90154302D01*
X109032665Y-90212759D01*
X109032656Y-90212764D01*
X108905648Y-90297629D01*
X108905644Y-90297632D01*
X108797632Y-90405644D01*
X108797629Y-90405648D01*
X108712764Y-90532656D01*
X108712759Y-90532665D01*
X108654302Y-90673794D01*
X108654300Y-90673802D01*
X108624500Y-90823615D01*
X91175499Y-90823615D01*
X91145698Y-90673795D01*
X91087239Y-90532663D01*
X91087238Y-90532662D01*
X91087235Y-90532656D01*
X91002370Y-90405648D01*
X91002367Y-90405644D01*
X90894355Y-90297632D01*
X90894351Y-90297629D01*
X90767343Y-90212764D01*
X90767334Y-90212759D01*
X90626205Y-90154302D01*
X90626197Y-90154300D01*
X90476384Y-90124500D01*
X90476380Y-90124500D01*
X90323620Y-90124500D01*
X90323615Y-90124500D01*
X90173802Y-90154300D01*
X90173794Y-90154302D01*
X90032665Y-90212759D01*
X90032656Y-90212764D01*
X89905648Y-90297629D01*
X89905644Y-90297632D01*
X89797632Y-90405644D01*
X89797629Y-90405648D01*
X89712764Y-90532656D01*
X89712759Y-90532665D01*
X89654302Y-90673794D01*
X89654300Y-90673802D01*
X89624500Y-90823615D01*
X72175499Y-90823615D01*
X72145698Y-90673795D01*
X72087239Y-90532663D01*
X72087238Y-90532662D01*
X72087235Y-90532656D01*
X72002370Y-90405648D01*
X72002367Y-90405644D01*
X71894355Y-90297632D01*
X71894351Y-90297629D01*
X71767343Y-90212764D01*
X71767334Y-90212759D01*
X71626205Y-90154302D01*
X71626197Y-90154300D01*
X71476384Y-90124500D01*
X71476380Y-90124500D01*
X71323620Y-90124500D01*
X71323615Y-90124500D01*
X71173802Y-90154300D01*
X71173794Y-90154302D01*
X71032665Y-90212759D01*
X71032656Y-90212764D01*
X70905648Y-90297629D01*
X70905644Y-90297632D01*
X70797632Y-90405644D01*
X70797629Y-90405648D01*
X70712764Y-90532656D01*
X70712759Y-90532665D01*
X70654302Y-90673794D01*
X70654300Y-90673802D01*
X70624500Y-90823615D01*
X70624500Y-90976384D01*
X70654300Y-91126197D01*
X70654303Y-91126209D01*
X70696486Y-91228048D01*
X70703955Y-91297517D01*
X70672680Y-91359996D01*
X70612590Y-91395648D01*
X70581925Y-91399500D01*
X59086670Y-91399500D01*
X59086654Y-91399499D01*
X59079058Y-91399499D01*
X58920943Y-91399499D01*
X58844579Y-91419961D01*
X58768214Y-91440423D01*
X58768209Y-91440426D01*
X58631290Y-91519475D01*
X58631286Y-91519478D01*
X58469859Y-91680904D01*
X58408535Y-91714388D01*
X58338844Y-91709404D01*
X58282910Y-91667532D01*
X58267618Y-91640677D01*
X58259394Y-91620821D01*
X58259391Y-91620816D01*
X58259390Y-91620814D01*
X58171789Y-91489711D01*
X58171786Y-91489707D01*
X58060292Y-91378213D01*
X58060288Y-91378210D01*
X57929185Y-91290609D01*
X57929172Y-91290602D01*
X57783501Y-91230264D01*
X57783489Y-91230261D01*
X57628845Y-91199500D01*
X57628842Y-91199500D01*
X57471158Y-91199500D01*
X57471155Y-91199500D01*
X57316510Y-91230261D01*
X57316498Y-91230264D01*
X57170827Y-91290602D01*
X57170814Y-91290609D01*
X57039125Y-91378602D01*
X56972447Y-91399480D01*
X56970234Y-91399500D01*
X53218075Y-91399500D01*
X53151036Y-91379815D01*
X53105281Y-91327011D01*
X53095337Y-91257853D01*
X53103514Y-91228048D01*
X53145696Y-91126209D01*
X53145698Y-91126205D01*
X53175500Y-90976380D01*
X53175500Y-90823620D01*
X53145698Y-90673795D01*
X53087239Y-90532663D01*
X53087238Y-90532662D01*
X53087235Y-90532656D01*
X53002370Y-90405648D01*
X53002367Y-90405644D01*
X52894355Y-90297632D01*
X52894351Y-90297629D01*
X52767343Y-90212764D01*
X52767334Y-90212759D01*
X52626205Y-90154302D01*
X52626197Y-90154300D01*
X52476384Y-90124500D01*
X52476380Y-90124500D01*
X52323620Y-90124500D01*
X52323615Y-90124500D01*
X52173802Y-90154300D01*
X52173794Y-90154302D01*
X52032665Y-90212759D01*
X52032656Y-90212764D01*
X51905648Y-90297629D01*
X51905644Y-90297632D01*
X51797632Y-90405644D01*
X51797629Y-90405648D01*
X51712764Y-90532656D01*
X51712759Y-90532665D01*
X51654302Y-90673794D01*
X51654300Y-90673802D01*
X51624500Y-90823615D01*
X51624500Y-90976384D01*
X51654300Y-91126197D01*
X51654303Y-91126209D01*
X51696486Y-91228048D01*
X51703955Y-91297517D01*
X51672680Y-91359996D01*
X51612590Y-91395648D01*
X51581925Y-91399500D01*
X34586670Y-91399500D01*
X34586654Y-91399499D01*
X34579058Y-91399499D01*
X34420943Y-91399499D01*
X34344579Y-91419961D01*
X34268214Y-91440423D01*
X34268209Y-91440426D01*
X34131290Y-91519475D01*
X34131282Y-91519481D01*
X31485339Y-94165425D01*
X31424016Y-94198910D01*
X31421850Y-94199361D01*
X31266508Y-94230261D01*
X31266498Y-94230264D01*
X31120827Y-94290602D01*
X31120814Y-94290609D01*
X30989711Y-94378210D01*
X30989707Y-94378213D01*
X30878213Y-94489707D01*
X30878210Y-94489711D01*
X30790609Y-94620814D01*
X30790602Y-94620827D01*
X30730264Y-94766498D01*
X30730261Y-94766510D01*
X30699500Y-94921153D01*
X29000500Y-94921153D01*
X29000500Y-77921153D01*
X30699500Y-77921153D01*
X30699500Y-78078846D01*
X30730261Y-78233489D01*
X30730264Y-78233501D01*
X30790602Y-78379172D01*
X30790609Y-78379185D01*
X30878210Y-78510288D01*
X30878213Y-78510292D01*
X30989707Y-78621786D01*
X30989711Y-78621789D01*
X31120814Y-78709390D01*
X31120827Y-78709397D01*
X31266498Y-78769735D01*
X31266503Y-78769737D01*
X31421153Y-78800499D01*
X31421156Y-78800500D01*
X31421158Y-78800500D01*
X31578844Y-78800500D01*
X31578845Y-78800499D01*
X31733497Y-78769737D01*
X31879179Y-78709394D01*
X32010289Y-78621789D01*
X32121789Y-78510289D01*
X32209394Y-78379179D01*
X32269737Y-78233497D01*
X32289113Y-78136085D01*
X32300638Y-78078150D01*
X32333023Y-78016239D01*
X32334518Y-78014716D01*
X35712416Y-74636819D01*
X35773739Y-74603334D01*
X35800097Y-74600500D01*
X36250903Y-74600500D01*
X36317942Y-74620185D01*
X36363697Y-74672989D01*
X36373641Y-74742147D01*
X36344616Y-74805703D01*
X36338586Y-74812178D01*
X35706997Y-75443767D01*
X35281286Y-75869478D01*
X35169481Y-75981282D01*
X35169479Y-75981284D01*
X35157808Y-76001500D01*
X35140613Y-76031284D01*
X35090423Y-76118215D01*
X35049499Y-76270943D01*
X35049499Y-76270945D01*
X35049499Y-76439046D01*
X35049500Y-76439059D01*
X35049500Y-77420234D01*
X35029815Y-77487273D01*
X35028602Y-77489125D01*
X34940609Y-77620814D01*
X34940602Y-77620827D01*
X34880264Y-77766498D01*
X34880261Y-77766510D01*
X34849500Y-77921153D01*
X34849500Y-78078846D01*
X34880261Y-78233489D01*
X34880264Y-78233501D01*
X34940602Y-78379172D01*
X34940609Y-78379185D01*
X35028210Y-78510288D01*
X35028213Y-78510292D01*
X35139707Y-78621786D01*
X35139711Y-78621789D01*
X35247427Y-78693763D01*
X35292232Y-78747375D01*
X35300939Y-78816700D01*
X35270785Y-78879728D01*
X35266217Y-78884546D01*
X31485339Y-82665425D01*
X31424016Y-82698910D01*
X31421850Y-82699361D01*
X31266508Y-82730261D01*
X31266498Y-82730264D01*
X31120827Y-82790602D01*
X31120814Y-82790609D01*
X30989711Y-82878210D01*
X30989707Y-82878213D01*
X30878213Y-82989707D01*
X30878210Y-82989711D01*
X30790609Y-83120814D01*
X30790602Y-83120827D01*
X30730264Y-83266498D01*
X30730261Y-83266510D01*
X30699500Y-83421153D01*
X30699500Y-83578846D01*
X30730261Y-83733489D01*
X30730264Y-83733501D01*
X30790602Y-83879172D01*
X30790609Y-83879185D01*
X30878210Y-84010288D01*
X30878213Y-84010292D01*
X30989707Y-84121786D01*
X30989711Y-84121789D01*
X31120814Y-84209390D01*
X31120827Y-84209397D01*
X31266498Y-84269735D01*
X31266503Y-84269737D01*
X31421153Y-84300499D01*
X31421156Y-84300500D01*
X31421158Y-84300500D01*
X31578844Y-84300500D01*
X31578845Y-84300499D01*
X31733497Y-84269737D01*
X31879179Y-84209394D01*
X32010289Y-84121789D01*
X32121789Y-84010289D01*
X32209394Y-83879179D01*
X32269737Y-83733497D01*
X32289113Y-83636085D01*
X32300638Y-83578150D01*
X32333023Y-83516239D01*
X32334518Y-83514716D01*
X36212416Y-79636819D01*
X36273739Y-79603334D01*
X36300097Y-79600500D01*
X36750903Y-79600500D01*
X36817942Y-79620185D01*
X36863697Y-79672989D01*
X36873641Y-79742147D01*
X36844616Y-79805703D01*
X36838584Y-79812181D01*
X35281286Y-81369478D01*
X35169481Y-81481282D01*
X35169479Y-81481285D01*
X35119361Y-81568094D01*
X35119359Y-81568096D01*
X35090425Y-81618209D01*
X35090424Y-81618210D01*
X35090423Y-81618215D01*
X35049499Y-81770943D01*
X35049499Y-81770945D01*
X35049499Y-81939046D01*
X35049500Y-81939059D01*
X35049500Y-82920234D01*
X35029815Y-82987273D01*
X35028602Y-82989125D01*
X34940609Y-83120814D01*
X34940602Y-83120827D01*
X34880264Y-83266498D01*
X34880261Y-83266510D01*
X34849500Y-83421153D01*
X34849500Y-83578846D01*
X34880261Y-83733489D01*
X34880264Y-83733501D01*
X34940602Y-83879172D01*
X34940609Y-83879185D01*
X35028210Y-84010288D01*
X35028213Y-84010292D01*
X35139707Y-84121786D01*
X35139711Y-84121789D01*
X35270814Y-84209390D01*
X35270827Y-84209397D01*
X35416498Y-84269735D01*
X35416503Y-84269737D01*
X35571153Y-84300499D01*
X35571156Y-84300500D01*
X35590902Y-84300500D01*
X35657941Y-84320185D01*
X35703696Y-84372989D01*
X35713640Y-84442147D01*
X35684615Y-84505703D01*
X35678583Y-84512181D01*
X31585339Y-88605425D01*
X31524016Y-88638910D01*
X31521850Y-88639361D01*
X31366508Y-88670261D01*
X31366498Y-88670264D01*
X31220827Y-88730602D01*
X31220814Y-88730609D01*
X31089711Y-88818210D01*
X31089707Y-88818213D01*
X30978213Y-88929707D01*
X30978210Y-88929711D01*
X30890609Y-89060814D01*
X30890602Y-89060827D01*
X30830264Y-89206498D01*
X30830261Y-89206510D01*
X30799500Y-89361153D01*
X30799500Y-89518846D01*
X30830261Y-89673489D01*
X30830264Y-89673501D01*
X30890602Y-89819172D01*
X30890609Y-89819185D01*
X30978210Y-89950288D01*
X30978213Y-89950292D01*
X31089707Y-90061786D01*
X31089711Y-90061789D01*
X31220814Y-90149390D01*
X31220827Y-90149397D01*
X31366498Y-90209735D01*
X31366503Y-90209737D01*
X31521153Y-90240499D01*
X31521156Y-90240500D01*
X31521158Y-90240500D01*
X31678844Y-90240500D01*
X31678845Y-90240499D01*
X31833497Y-90209737D01*
X31979179Y-90149394D01*
X32110289Y-90061789D01*
X32221789Y-89950289D01*
X32309394Y-89819179D01*
X32369737Y-89673497D01*
X32389113Y-89576085D01*
X32400638Y-89518150D01*
X32433023Y-89456239D01*
X32434518Y-89454716D01*
X34980104Y-86909130D01*
X35041425Y-86875647D01*
X35111117Y-86880631D01*
X35167050Y-86922503D01*
X35191467Y-86987967D01*
X35187558Y-87028906D01*
X35149499Y-87170943D01*
X35149499Y-87339046D01*
X35149500Y-87339059D01*
X35149500Y-88860234D01*
X35129815Y-88927273D01*
X35128602Y-88929125D01*
X35040609Y-89060814D01*
X35040602Y-89060827D01*
X34980264Y-89206498D01*
X34980261Y-89206510D01*
X34949500Y-89361153D01*
X34949500Y-89518846D01*
X34980261Y-89673489D01*
X34980264Y-89673501D01*
X35040602Y-89819172D01*
X35040609Y-89819185D01*
X35128210Y-89950288D01*
X35128213Y-89950292D01*
X35239707Y-90061786D01*
X35239711Y-90061789D01*
X35370814Y-90149390D01*
X35370827Y-90149397D01*
X35516498Y-90209735D01*
X35516503Y-90209737D01*
X35671153Y-90240499D01*
X35671156Y-90240500D01*
X35671158Y-90240500D01*
X35828844Y-90240500D01*
X35828845Y-90240499D01*
X35983497Y-90209737D01*
X36129179Y-90149394D01*
X36260289Y-90061789D01*
X36371789Y-89950289D01*
X36459394Y-89819179D01*
X36519737Y-89673497D01*
X36550500Y-89518842D01*
X36550500Y-89361158D01*
X36550500Y-89361155D01*
X36550499Y-89361153D01*
X36519738Y-89206510D01*
X36519737Y-89206503D01*
X36519735Y-89206498D01*
X36459397Y-89060827D01*
X36459390Y-89060814D01*
X36371398Y-88929125D01*
X36350520Y-88862447D01*
X36350500Y-88860234D01*
X36350500Y-87550097D01*
X36370185Y-87483058D01*
X36386819Y-87462416D01*
X38212417Y-85636819D01*
X38273740Y-85603334D01*
X38300098Y-85600500D01*
X40750903Y-85600500D01*
X40817942Y-85620185D01*
X40863697Y-85672989D01*
X40873641Y-85742147D01*
X40844616Y-85805703D01*
X40838584Y-85812181D01*
X39531286Y-87119478D01*
X39419481Y-87231282D01*
X39419479Y-87231284D01*
X39404162Y-87257815D01*
X39385292Y-87290500D01*
X39340423Y-87368215D01*
X39299499Y-87520943D01*
X39299499Y-87520945D01*
X39299499Y-87689046D01*
X39299500Y-87689059D01*
X39299500Y-88860234D01*
X39279815Y-88927273D01*
X39278602Y-88929125D01*
X39190609Y-89060814D01*
X39190602Y-89060827D01*
X39130264Y-89206498D01*
X39130261Y-89206510D01*
X39099500Y-89361153D01*
X39099500Y-89518846D01*
X39130261Y-89673489D01*
X39130264Y-89673501D01*
X39190602Y-89819172D01*
X39190609Y-89819185D01*
X39278210Y-89950288D01*
X39278213Y-89950292D01*
X39389707Y-90061786D01*
X39389711Y-90061789D01*
X39520814Y-90149390D01*
X39520827Y-90149397D01*
X39666498Y-90209735D01*
X39666503Y-90209737D01*
X39821153Y-90240499D01*
X39821156Y-90240500D01*
X39821158Y-90240500D01*
X39978844Y-90240500D01*
X39978845Y-90240499D01*
X40133497Y-90209737D01*
X40279179Y-90149394D01*
X40410289Y-90061789D01*
X40521789Y-89950289D01*
X40609394Y-89819179D01*
X40669737Y-89673497D01*
X40700500Y-89518842D01*
X40700500Y-89361158D01*
X40700500Y-89361155D01*
X40700499Y-89361153D01*
X40669738Y-89206510D01*
X40669737Y-89206503D01*
X40669735Y-89206498D01*
X40609397Y-89060827D01*
X40609390Y-89060814D01*
X40521398Y-88929125D01*
X40500520Y-88862447D01*
X40500500Y-88860234D01*
X40500500Y-87900097D01*
X40520185Y-87833058D01*
X40536819Y-87812416D01*
X42212416Y-86136819D01*
X42273739Y-86103334D01*
X42300097Y-86100500D01*
X44250902Y-86100500D01*
X44317941Y-86120185D01*
X44363696Y-86172989D01*
X44373640Y-86242147D01*
X44344615Y-86305703D01*
X44338583Y-86312181D01*
X43569481Y-87081282D01*
X43569477Y-87081287D01*
X43547429Y-87119478D01*
X43547428Y-87119480D01*
X43490423Y-87218215D01*
X43449499Y-87370943D01*
X43449499Y-87370945D01*
X43449499Y-87539046D01*
X43449500Y-87539059D01*
X43449500Y-88860234D01*
X43429815Y-88927273D01*
X43428602Y-88929125D01*
X43340609Y-89060814D01*
X43340602Y-89060827D01*
X43280264Y-89206498D01*
X43280261Y-89206510D01*
X43249500Y-89361153D01*
X43249500Y-89518846D01*
X43280261Y-89673489D01*
X43280264Y-89673501D01*
X43340602Y-89819172D01*
X43340609Y-89819185D01*
X43428210Y-89950288D01*
X43428213Y-89950292D01*
X43539707Y-90061786D01*
X43539711Y-90061789D01*
X43670814Y-90149390D01*
X43670827Y-90149397D01*
X43816498Y-90209735D01*
X43816503Y-90209737D01*
X43971153Y-90240499D01*
X43971156Y-90240500D01*
X43971158Y-90240500D01*
X44128844Y-90240500D01*
X44128845Y-90240499D01*
X44283497Y-90209737D01*
X44429179Y-90149394D01*
X44560289Y-90061789D01*
X44671789Y-89950289D01*
X44759394Y-89819179D01*
X44819737Y-89673497D01*
X44850500Y-89518842D01*
X44850500Y-89361158D01*
X44850500Y-89361155D01*
X44850499Y-89361153D01*
X44819738Y-89206510D01*
X44819737Y-89206503D01*
X44819735Y-89206498D01*
X44759397Y-89060827D01*
X44759390Y-89060814D01*
X44671398Y-88929125D01*
X44650520Y-88862447D01*
X44650500Y-88860234D01*
X44650500Y-87750097D01*
X44670185Y-87683058D01*
X44686819Y-87662416D01*
X45712417Y-86636819D01*
X45773740Y-86603334D01*
X45800098Y-86600500D01*
X48750903Y-86600500D01*
X48817942Y-86620185D01*
X48863697Y-86672989D01*
X48873641Y-86742147D01*
X48844616Y-86805703D01*
X48838586Y-86812178D01*
X48321707Y-87329057D01*
X47831286Y-87819478D01*
X47719481Y-87931282D01*
X47719479Y-87931284D01*
X47704289Y-87957594D01*
X47697869Y-87968716D01*
X47640423Y-88068215D01*
X47599499Y-88220943D01*
X47599499Y-88220945D01*
X47599499Y-88389046D01*
X47599500Y-88389059D01*
X47599500Y-88860234D01*
X47579815Y-88927273D01*
X47578602Y-88929125D01*
X47490609Y-89060814D01*
X47490602Y-89060827D01*
X47430264Y-89206498D01*
X47430261Y-89206510D01*
X47399500Y-89361153D01*
X47399500Y-89518846D01*
X47430261Y-89673489D01*
X47430264Y-89673501D01*
X47490602Y-89819172D01*
X47490609Y-89819185D01*
X47578210Y-89950288D01*
X47578213Y-89950292D01*
X47689707Y-90061786D01*
X47689711Y-90061789D01*
X47820814Y-90149390D01*
X47820827Y-90149397D01*
X47966498Y-90209735D01*
X47966503Y-90209737D01*
X48121153Y-90240499D01*
X48121156Y-90240500D01*
X48121158Y-90240500D01*
X48278844Y-90240500D01*
X48278845Y-90240499D01*
X48433497Y-90209737D01*
X48579179Y-90149394D01*
X48710289Y-90061789D01*
X48821789Y-89950289D01*
X48909394Y-89819179D01*
X48969737Y-89673497D01*
X49000500Y-89518842D01*
X49000500Y-89361158D01*
X49000500Y-89361155D01*
X49000499Y-89361153D01*
X48969738Y-89206510D01*
X48969737Y-89206503D01*
X48969735Y-89206498D01*
X48909397Y-89060827D01*
X48909390Y-89060814D01*
X48821398Y-88929125D01*
X48800520Y-88862447D01*
X48800500Y-88860234D01*
X48800500Y-88600097D01*
X48820185Y-88533058D01*
X48836819Y-88512416D01*
X50993007Y-86356228D01*
X63149500Y-86356228D01*
X63149500Y-86523771D01*
X63182182Y-86688074D01*
X63182184Y-86688082D01*
X63246295Y-86842860D01*
X63339373Y-86982162D01*
X63457837Y-87100626D01*
X63486056Y-87119481D01*
X63597137Y-87193703D01*
X63751918Y-87257816D01*
X63916228Y-87290499D01*
X63916232Y-87290500D01*
X63916233Y-87290500D01*
X64083768Y-87290500D01*
X64083769Y-87290499D01*
X64248082Y-87257816D01*
X64402863Y-87193703D01*
X64542162Y-87100626D01*
X64660626Y-86982162D01*
X64753703Y-86842863D01*
X64817816Y-86688082D01*
X64850500Y-86523767D01*
X64850500Y-86356233D01*
X64850499Y-86356228D01*
X82149500Y-86356228D01*
X82149500Y-86523771D01*
X82182182Y-86688074D01*
X82182184Y-86688082D01*
X82246295Y-86842860D01*
X82339373Y-86982162D01*
X82457837Y-87100626D01*
X82486056Y-87119481D01*
X82597137Y-87193703D01*
X82751918Y-87257816D01*
X82916228Y-87290499D01*
X82916232Y-87290500D01*
X82916233Y-87290500D01*
X83083768Y-87290500D01*
X83083769Y-87290499D01*
X83248082Y-87257816D01*
X83402863Y-87193703D01*
X83542162Y-87100626D01*
X83660626Y-86982162D01*
X83753703Y-86842863D01*
X83817816Y-86688082D01*
X83850500Y-86523767D01*
X83850500Y-86356233D01*
X83850499Y-86356228D01*
X101149500Y-86356228D01*
X101149500Y-86523771D01*
X101182182Y-86688074D01*
X101182184Y-86688082D01*
X101246295Y-86842860D01*
X101339373Y-86982162D01*
X101457837Y-87100626D01*
X101486056Y-87119481D01*
X101597137Y-87193703D01*
X101751918Y-87257816D01*
X101916228Y-87290499D01*
X101916232Y-87290500D01*
X101916233Y-87290500D01*
X102083768Y-87290500D01*
X102083769Y-87290499D01*
X102248082Y-87257816D01*
X102402863Y-87193703D01*
X102542162Y-87100626D01*
X102660626Y-86982162D01*
X102753703Y-86842863D01*
X102817816Y-86688082D01*
X102850500Y-86523767D01*
X102850500Y-86356233D01*
X102850499Y-86356228D01*
X120149500Y-86356228D01*
X120149500Y-86523771D01*
X120182182Y-86688074D01*
X120182184Y-86688082D01*
X120246295Y-86842860D01*
X120339373Y-86982162D01*
X120457837Y-87100626D01*
X120486056Y-87119481D01*
X120597137Y-87193703D01*
X120751918Y-87257816D01*
X120916228Y-87290499D01*
X120916232Y-87290500D01*
X120916233Y-87290500D01*
X121083768Y-87290500D01*
X121083769Y-87290499D01*
X121248082Y-87257816D01*
X121402863Y-87193703D01*
X121542162Y-87100626D01*
X121660626Y-86982162D01*
X121753703Y-86842863D01*
X121817816Y-86688082D01*
X121850500Y-86523767D01*
X121850500Y-86356233D01*
X121850499Y-86356228D01*
X139149500Y-86356228D01*
X139149500Y-86523771D01*
X139182182Y-86688074D01*
X139182184Y-86688082D01*
X139246295Y-86842860D01*
X139339373Y-86982162D01*
X139457837Y-87100626D01*
X139486056Y-87119481D01*
X139597137Y-87193703D01*
X139751918Y-87257816D01*
X139916228Y-87290499D01*
X139916232Y-87290500D01*
X139916233Y-87290500D01*
X140083768Y-87290500D01*
X140083769Y-87290499D01*
X140248082Y-87257816D01*
X140402863Y-87193703D01*
X140542162Y-87100626D01*
X140660626Y-86982162D01*
X140753703Y-86842863D01*
X140817816Y-86688082D01*
X140850500Y-86523767D01*
X140850500Y-86356233D01*
X140817816Y-86191918D01*
X140753703Y-86037137D01*
X140722537Y-85990494D01*
X140660626Y-85897837D01*
X140542162Y-85779373D01*
X140402860Y-85686295D01*
X140248082Y-85622184D01*
X140248074Y-85622182D01*
X140083771Y-85589500D01*
X140083767Y-85589500D01*
X139916233Y-85589500D01*
X139916228Y-85589500D01*
X139751925Y-85622182D01*
X139751917Y-85622184D01*
X139597139Y-85686295D01*
X139457837Y-85779373D01*
X139339373Y-85897837D01*
X139246295Y-86037139D01*
X139182184Y-86191917D01*
X139182182Y-86191925D01*
X139149500Y-86356228D01*
X121850499Y-86356228D01*
X121817816Y-86191918D01*
X121753703Y-86037137D01*
X121722537Y-85990494D01*
X121660626Y-85897837D01*
X121542162Y-85779373D01*
X121402860Y-85686295D01*
X121248082Y-85622184D01*
X121248074Y-85622182D01*
X121083771Y-85589500D01*
X121083767Y-85589500D01*
X120916233Y-85589500D01*
X120916228Y-85589500D01*
X120751925Y-85622182D01*
X120751917Y-85622184D01*
X120597139Y-85686295D01*
X120457837Y-85779373D01*
X120339373Y-85897837D01*
X120246295Y-86037139D01*
X120182184Y-86191917D01*
X120182182Y-86191925D01*
X120149500Y-86356228D01*
X102850499Y-86356228D01*
X102817816Y-86191918D01*
X102753703Y-86037137D01*
X102722537Y-85990494D01*
X102660626Y-85897837D01*
X102542162Y-85779373D01*
X102402860Y-85686295D01*
X102248082Y-85622184D01*
X102248074Y-85622182D01*
X102083771Y-85589500D01*
X102083767Y-85589500D01*
X101916233Y-85589500D01*
X101916228Y-85589500D01*
X101751925Y-85622182D01*
X101751917Y-85622184D01*
X101597139Y-85686295D01*
X101457837Y-85779373D01*
X101339373Y-85897837D01*
X101246295Y-86037139D01*
X101182184Y-86191917D01*
X101182182Y-86191925D01*
X101149500Y-86356228D01*
X83850499Y-86356228D01*
X83817816Y-86191918D01*
X83753703Y-86037137D01*
X83722537Y-85990494D01*
X83660626Y-85897837D01*
X83542162Y-85779373D01*
X83402860Y-85686295D01*
X83248082Y-85622184D01*
X83248074Y-85622182D01*
X83083771Y-85589500D01*
X83083767Y-85589500D01*
X82916233Y-85589500D01*
X82916228Y-85589500D01*
X82751925Y-85622182D01*
X82751917Y-85622184D01*
X82597139Y-85686295D01*
X82457837Y-85779373D01*
X82339373Y-85897837D01*
X82246295Y-86037139D01*
X82182184Y-86191917D01*
X82182182Y-86191925D01*
X82149500Y-86356228D01*
X64850499Y-86356228D01*
X64817816Y-86191918D01*
X64753703Y-86037137D01*
X64722537Y-85990494D01*
X64660626Y-85897837D01*
X64542162Y-85779373D01*
X64402860Y-85686295D01*
X64248082Y-85622184D01*
X64248074Y-85622182D01*
X64083771Y-85589500D01*
X64083767Y-85589500D01*
X63916233Y-85589500D01*
X63916228Y-85589500D01*
X63751925Y-85622182D01*
X63751917Y-85622184D01*
X63597139Y-85686295D01*
X63457837Y-85779373D01*
X63339373Y-85897837D01*
X63246295Y-86037139D01*
X63182184Y-86191917D01*
X63182182Y-86191925D01*
X63149500Y-86356228D01*
X50993007Y-86356228D01*
X51086775Y-86262460D01*
X52837055Y-84512181D01*
X56212417Y-81136819D01*
X56273740Y-81103334D01*
X56300098Y-81100500D01*
X127413331Y-81100500D01*
X127413347Y-81100501D01*
X127420943Y-81100501D01*
X127579054Y-81100501D01*
X127579057Y-81100501D01*
X127731785Y-81059577D01*
X127781904Y-81030639D01*
X127868716Y-80980520D01*
X127980520Y-80868716D01*
X127980520Y-80868714D01*
X127990728Y-80858507D01*
X127990730Y-80858504D01*
X133573005Y-75276228D01*
X139149500Y-75276228D01*
X139149500Y-75443771D01*
X139182182Y-75608074D01*
X139182184Y-75608082D01*
X139246295Y-75762860D01*
X139339373Y-75902162D01*
X139457837Y-76020626D01*
X139535098Y-76072250D01*
X139597137Y-76113703D01*
X139751918Y-76177816D01*
X139916228Y-76210499D01*
X139916232Y-76210500D01*
X139916233Y-76210500D01*
X140083768Y-76210500D01*
X140083769Y-76210499D01*
X140248082Y-76177816D01*
X140402863Y-76113703D01*
X140542162Y-76020626D01*
X140660626Y-75902162D01*
X140753703Y-75762863D01*
X140817816Y-75608082D01*
X140850500Y-75443767D01*
X140850500Y-75276233D01*
X140817816Y-75111918D01*
X140753703Y-74957137D01*
X140722399Y-74910288D01*
X140660626Y-74817837D01*
X140542162Y-74699373D01*
X140402860Y-74606295D01*
X140248082Y-74542184D01*
X140248074Y-74542182D01*
X140083771Y-74509500D01*
X140083767Y-74509500D01*
X139916233Y-74509500D01*
X139916228Y-74509500D01*
X139751925Y-74542182D01*
X139751917Y-74542184D01*
X139597139Y-74606295D01*
X139457837Y-74699373D01*
X139339373Y-74817837D01*
X139246295Y-74957139D01*
X139182184Y-75111917D01*
X139182182Y-75111925D01*
X139149500Y-75276228D01*
X133573005Y-75276228D01*
X133627078Y-75222155D01*
X133641115Y-75214085D01*
X133650610Y-75203719D01*
X133676858Y-75193537D01*
X133683106Y-75189946D01*
X133686797Y-75188971D01*
X133783497Y-75169737D01*
X133903127Y-75120185D01*
X133929173Y-75109397D01*
X133929176Y-75109395D01*
X133929179Y-75109394D01*
X134060289Y-75021789D01*
X134171789Y-74910289D01*
X134259394Y-74779179D01*
X134319737Y-74633497D01*
X134350500Y-74478842D01*
X134350500Y-74321158D01*
X134350500Y-74321155D01*
X134350499Y-74321153D01*
X134319738Y-74166510D01*
X134319738Y-74166508D01*
X134319737Y-74166503D01*
X134282043Y-74075500D01*
X134259397Y-74020827D01*
X134259390Y-74020814D01*
X134171789Y-73889711D01*
X134171786Y-73889707D01*
X134060292Y-73778213D01*
X134060288Y-73778210D01*
X133929185Y-73690609D01*
X133929172Y-73690602D01*
X133783501Y-73630264D01*
X133783489Y-73630261D01*
X133628845Y-73599500D01*
X133628842Y-73599500D01*
X133471158Y-73599500D01*
X133471155Y-73599500D01*
X133316510Y-73630261D01*
X133316498Y-73630264D01*
X133170827Y-73690602D01*
X133170814Y-73690609D01*
X133039711Y-73778210D01*
X133039707Y-73778213D01*
X132928213Y-73889707D01*
X132928210Y-73889711D01*
X132840609Y-74020814D01*
X132840602Y-74020827D01*
X132780264Y-74166498D01*
X132780261Y-74166510D01*
X132749500Y-74321153D01*
X132749500Y-74349903D01*
X132729815Y-74416942D01*
X132713181Y-74437584D01*
X127287584Y-79863181D01*
X127226261Y-79896666D01*
X127199903Y-79899500D01*
X110249097Y-79899500D01*
X110182058Y-79879815D01*
X110136303Y-79827011D01*
X110126359Y-79757853D01*
X110155384Y-79694297D01*
X110161416Y-79687819D01*
X111227449Y-78621786D01*
X114573005Y-75276228D01*
X120149500Y-75276228D01*
X120149500Y-75443771D01*
X120182182Y-75608074D01*
X120182184Y-75608082D01*
X120246295Y-75762860D01*
X120339373Y-75902162D01*
X120457837Y-76020626D01*
X120535098Y-76072250D01*
X120597137Y-76113703D01*
X120751918Y-76177816D01*
X120916228Y-76210499D01*
X120916232Y-76210500D01*
X120916233Y-76210500D01*
X121083768Y-76210500D01*
X121083769Y-76210499D01*
X121248082Y-76177816D01*
X121402863Y-76113703D01*
X121542162Y-76020626D01*
X121660626Y-75902162D01*
X121753703Y-75762863D01*
X121817816Y-75608082D01*
X121850500Y-75443767D01*
X121850500Y-75276233D01*
X121817816Y-75111918D01*
X121753703Y-74957137D01*
X121722399Y-74910288D01*
X121660626Y-74817837D01*
X121542162Y-74699373D01*
X121402860Y-74606295D01*
X121248082Y-74542184D01*
X121248074Y-74542182D01*
X121083771Y-74509500D01*
X121083767Y-74509500D01*
X120916233Y-74509500D01*
X120916228Y-74509500D01*
X120751925Y-74542182D01*
X120751917Y-74542184D01*
X120597139Y-74606295D01*
X120457837Y-74699373D01*
X120339373Y-74817837D01*
X120246295Y-74957139D01*
X120182184Y-75111917D01*
X120182182Y-75111925D01*
X120149500Y-75276228D01*
X114573005Y-75276228D01*
X114627078Y-75222155D01*
X114641115Y-75214085D01*
X114650610Y-75203719D01*
X114676858Y-75193537D01*
X114683106Y-75189946D01*
X114686797Y-75188971D01*
X114783497Y-75169737D01*
X114903127Y-75120185D01*
X114929173Y-75109397D01*
X114929176Y-75109395D01*
X114929179Y-75109394D01*
X115060289Y-75021789D01*
X115171789Y-74910289D01*
X115259394Y-74779179D01*
X115319737Y-74633497D01*
X115350500Y-74478842D01*
X115350500Y-74321158D01*
X115350500Y-74321155D01*
X115350499Y-74321153D01*
X115319738Y-74166510D01*
X115319738Y-74166508D01*
X115319737Y-74166503D01*
X115282043Y-74075500D01*
X115259397Y-74020827D01*
X115259390Y-74020814D01*
X115171789Y-73889711D01*
X115171786Y-73889707D01*
X115060292Y-73778213D01*
X115060288Y-73778210D01*
X114929185Y-73690609D01*
X114929172Y-73690602D01*
X114783501Y-73630264D01*
X114783489Y-73630261D01*
X114628845Y-73599500D01*
X114628842Y-73599500D01*
X114471158Y-73599500D01*
X114471155Y-73599500D01*
X114316510Y-73630261D01*
X114316498Y-73630264D01*
X114170827Y-73690602D01*
X114170814Y-73690609D01*
X114039711Y-73778210D01*
X114039707Y-73778213D01*
X113928213Y-73889707D01*
X113928210Y-73889711D01*
X113840609Y-74020814D01*
X113840602Y-74020827D01*
X113780264Y-74166498D01*
X113780261Y-74166510D01*
X113749500Y-74321153D01*
X113749500Y-74349903D01*
X113729815Y-74416942D01*
X113713181Y-74437584D01*
X108787584Y-79363181D01*
X108726261Y-79396666D01*
X108699903Y-79399500D01*
X91699097Y-79399500D01*
X91632058Y-79379815D01*
X91586303Y-79327011D01*
X91576359Y-79257853D01*
X91605384Y-79194297D01*
X91611416Y-79187819D01*
X93582207Y-77217028D01*
X95523006Y-75276228D01*
X101149500Y-75276228D01*
X101149500Y-75443771D01*
X101182182Y-75608074D01*
X101182184Y-75608082D01*
X101246295Y-75762860D01*
X101339373Y-75902162D01*
X101457837Y-76020626D01*
X101535098Y-76072250D01*
X101597137Y-76113703D01*
X101751918Y-76177816D01*
X101916228Y-76210499D01*
X101916232Y-76210500D01*
X101916233Y-76210500D01*
X102083768Y-76210500D01*
X102083769Y-76210499D01*
X102248082Y-76177816D01*
X102402863Y-76113703D01*
X102542162Y-76020626D01*
X102660626Y-75902162D01*
X102753703Y-75762863D01*
X102817816Y-75608082D01*
X102850500Y-75443767D01*
X102850500Y-75276233D01*
X102817816Y-75111918D01*
X102753703Y-74957137D01*
X102722399Y-74910288D01*
X102660626Y-74817837D01*
X102542162Y-74699373D01*
X102402860Y-74606295D01*
X102248082Y-74542184D01*
X102248074Y-74542182D01*
X102083771Y-74509500D01*
X102083767Y-74509500D01*
X101916233Y-74509500D01*
X101916228Y-74509500D01*
X101751925Y-74542182D01*
X101751917Y-74542184D01*
X101597139Y-74606295D01*
X101457837Y-74699373D01*
X101339373Y-74817837D01*
X101246295Y-74957139D01*
X101182184Y-75111917D01*
X101182182Y-75111925D01*
X101149500Y-75276228D01*
X95523006Y-75276228D01*
X95564662Y-75234572D01*
X95579414Y-75226266D01*
X95590107Y-75215004D01*
X95618385Y-75204325D01*
X95622844Y-75201815D01*
X95628213Y-75200500D01*
X95628842Y-75200500D01*
X95783497Y-75169737D01*
X95872394Y-75132915D01*
X95929172Y-75109397D01*
X95929172Y-75109396D01*
X95929179Y-75109394D01*
X96060289Y-75021789D01*
X96171789Y-74910289D01*
X96259394Y-74779179D01*
X96319737Y-74633497D01*
X96350500Y-74478842D01*
X96350500Y-74321158D01*
X96350500Y-74321155D01*
X96350499Y-74321153D01*
X96319738Y-74166510D01*
X96319738Y-74166508D01*
X96319737Y-74166503D01*
X96282043Y-74075500D01*
X96259397Y-74020827D01*
X96259390Y-74020814D01*
X96171789Y-73889711D01*
X96171786Y-73889707D01*
X96060292Y-73778213D01*
X96060288Y-73778210D01*
X95929185Y-73690609D01*
X95929172Y-73690602D01*
X95783501Y-73630264D01*
X95783489Y-73630261D01*
X95628845Y-73599500D01*
X95628842Y-73599500D01*
X95471158Y-73599500D01*
X95471155Y-73599500D01*
X95316510Y-73630261D01*
X95316498Y-73630264D01*
X95170827Y-73690602D01*
X95170814Y-73690609D01*
X95039711Y-73778210D01*
X95039707Y-73778213D01*
X94928213Y-73889707D01*
X94928210Y-73889711D01*
X94840609Y-74020814D01*
X94840602Y-74020827D01*
X94780264Y-74166498D01*
X94780261Y-74166508D01*
X94749361Y-74321850D01*
X94716976Y-74383761D01*
X94715425Y-74385339D01*
X90237584Y-78863181D01*
X90176261Y-78896666D01*
X90149903Y-78899500D01*
X73199097Y-78899500D01*
X73132058Y-78879815D01*
X73086303Y-78827011D01*
X73076359Y-78757853D01*
X73105384Y-78694297D01*
X73111416Y-78687819D01*
X74799138Y-77000097D01*
X76523006Y-75276228D01*
X82149500Y-75276228D01*
X82149500Y-75443771D01*
X82182182Y-75608074D01*
X82182184Y-75608082D01*
X82246295Y-75762860D01*
X82339373Y-75902162D01*
X82457837Y-76020626D01*
X82535098Y-76072250D01*
X82597137Y-76113703D01*
X82751918Y-76177816D01*
X82916228Y-76210499D01*
X82916232Y-76210500D01*
X82916233Y-76210500D01*
X83083768Y-76210500D01*
X83083769Y-76210499D01*
X83248082Y-76177816D01*
X83402863Y-76113703D01*
X83542162Y-76020626D01*
X83660626Y-75902162D01*
X83753703Y-75762863D01*
X83817816Y-75608082D01*
X83850500Y-75443767D01*
X83850500Y-75276233D01*
X83817816Y-75111918D01*
X83753703Y-74957137D01*
X83722399Y-74910288D01*
X83660626Y-74817837D01*
X83542162Y-74699373D01*
X83402860Y-74606295D01*
X83248082Y-74542184D01*
X83248074Y-74542182D01*
X83083771Y-74509500D01*
X83083767Y-74509500D01*
X82916233Y-74509500D01*
X82916228Y-74509500D01*
X82751925Y-74542182D01*
X82751917Y-74542184D01*
X82597139Y-74606295D01*
X82457837Y-74699373D01*
X82339373Y-74817837D01*
X82246295Y-74957139D01*
X82182184Y-75111917D01*
X82182182Y-75111925D01*
X82149500Y-75276228D01*
X76523006Y-75276228D01*
X76564662Y-75234572D01*
X76579414Y-75226266D01*
X76590107Y-75215004D01*
X76618385Y-75204325D01*
X76622844Y-75201815D01*
X76628213Y-75200500D01*
X76628842Y-75200500D01*
X76783497Y-75169737D01*
X76872394Y-75132915D01*
X76929172Y-75109397D01*
X76929172Y-75109396D01*
X76929179Y-75109394D01*
X77060289Y-75021789D01*
X77171789Y-74910289D01*
X77259394Y-74779179D01*
X77319737Y-74633497D01*
X77350500Y-74478842D01*
X77350500Y-74321158D01*
X77350500Y-74321155D01*
X77350499Y-74321153D01*
X77319738Y-74166510D01*
X77319738Y-74166508D01*
X77319737Y-74166503D01*
X77282043Y-74075500D01*
X77259397Y-74020827D01*
X77259390Y-74020814D01*
X77171789Y-73889711D01*
X77171786Y-73889707D01*
X77060292Y-73778213D01*
X77060288Y-73778210D01*
X76929185Y-73690609D01*
X76929172Y-73690602D01*
X76783501Y-73630264D01*
X76783489Y-73630261D01*
X76628845Y-73599500D01*
X76628842Y-73599500D01*
X76471158Y-73599500D01*
X76471155Y-73599500D01*
X76316510Y-73630261D01*
X76316498Y-73630264D01*
X76170827Y-73690602D01*
X76170814Y-73690609D01*
X76039711Y-73778210D01*
X76039707Y-73778213D01*
X75928213Y-73889707D01*
X75928210Y-73889711D01*
X75840609Y-74020814D01*
X75840602Y-74020827D01*
X75780264Y-74166498D01*
X75780261Y-74166508D01*
X75749361Y-74321850D01*
X75716976Y-74383761D01*
X75715425Y-74385339D01*
X71737584Y-78363181D01*
X71676261Y-78396666D01*
X71649903Y-78399500D01*
X54749096Y-78399500D01*
X54682057Y-78379815D01*
X54636302Y-78327011D01*
X54626358Y-78257853D01*
X54655383Y-78194297D01*
X54661415Y-78187819D01*
X56070177Y-76779057D01*
X57573005Y-75276228D01*
X63149500Y-75276228D01*
X63149500Y-75443771D01*
X63182182Y-75608074D01*
X63182184Y-75608082D01*
X63246295Y-75762860D01*
X63339373Y-75902162D01*
X63457837Y-76020626D01*
X63535098Y-76072250D01*
X63597137Y-76113703D01*
X63751918Y-76177816D01*
X63916228Y-76210499D01*
X63916232Y-76210500D01*
X63916233Y-76210500D01*
X64083768Y-76210500D01*
X64083769Y-76210499D01*
X64248082Y-76177816D01*
X64402863Y-76113703D01*
X64542162Y-76020626D01*
X64660626Y-75902162D01*
X64753703Y-75762863D01*
X64817816Y-75608082D01*
X64850500Y-75443767D01*
X64850500Y-75276233D01*
X64817816Y-75111918D01*
X64753703Y-74957137D01*
X64722399Y-74910288D01*
X64660626Y-74817837D01*
X64542162Y-74699373D01*
X64402860Y-74606295D01*
X64248082Y-74542184D01*
X64248074Y-74542182D01*
X64083771Y-74509500D01*
X64083767Y-74509500D01*
X63916233Y-74509500D01*
X63916228Y-74509500D01*
X63751925Y-74542182D01*
X63751917Y-74542184D01*
X63597139Y-74606295D01*
X63457837Y-74699373D01*
X63339373Y-74817837D01*
X63246295Y-74957139D01*
X63182184Y-75111917D01*
X63182182Y-75111925D01*
X63149500Y-75276228D01*
X57573005Y-75276228D01*
X57627078Y-75222155D01*
X57641115Y-75214085D01*
X57650610Y-75203719D01*
X57676858Y-75193537D01*
X57683106Y-75189946D01*
X57686797Y-75188971D01*
X57783497Y-75169737D01*
X57903127Y-75120185D01*
X57929173Y-75109397D01*
X57929176Y-75109395D01*
X57929179Y-75109394D01*
X58060289Y-75021789D01*
X58171789Y-74910289D01*
X58259394Y-74779179D01*
X58319737Y-74633497D01*
X58350500Y-74478842D01*
X58350500Y-74321158D01*
X58350500Y-74321155D01*
X58350499Y-74321153D01*
X58319738Y-74166510D01*
X58319738Y-74166508D01*
X58319737Y-74166503D01*
X58282043Y-74075500D01*
X58259397Y-74020827D01*
X58259390Y-74020814D01*
X58171789Y-73889711D01*
X58171786Y-73889707D01*
X58060292Y-73778213D01*
X58060288Y-73778210D01*
X57929185Y-73690609D01*
X57929172Y-73690602D01*
X57783501Y-73630264D01*
X57783489Y-73630261D01*
X57628845Y-73599500D01*
X57628842Y-73599500D01*
X57471158Y-73599500D01*
X57471155Y-73599500D01*
X57316510Y-73630261D01*
X57316498Y-73630264D01*
X57170827Y-73690602D01*
X57170814Y-73690609D01*
X57039711Y-73778210D01*
X57039707Y-73778213D01*
X56928213Y-73889707D01*
X56928210Y-73889711D01*
X56840609Y-74020814D01*
X56840602Y-74020827D01*
X56780264Y-74166498D01*
X56780261Y-74166510D01*
X56749500Y-74321153D01*
X56749500Y-74349903D01*
X56729815Y-74416942D01*
X56713181Y-74437584D01*
X55312181Y-75838584D01*
X55250858Y-75872069D01*
X55181166Y-75867085D01*
X55125233Y-75825213D01*
X55100816Y-75759749D01*
X55100500Y-75750903D01*
X55100500Y-73223615D01*
X70624500Y-73223615D01*
X70624500Y-73376384D01*
X70654300Y-73526197D01*
X70654302Y-73526205D01*
X70712759Y-73667334D01*
X70712764Y-73667343D01*
X70797629Y-73794351D01*
X70797632Y-73794355D01*
X70905644Y-73902367D01*
X70905648Y-73902370D01*
X71032656Y-73987235D01*
X71032662Y-73987238D01*
X71032663Y-73987239D01*
X71173795Y-74045698D01*
X71293049Y-74069419D01*
X71323615Y-74075499D01*
X71323619Y-74075500D01*
X71323620Y-74075500D01*
X71476381Y-74075500D01*
X71476382Y-74075499D01*
X71626205Y-74045698D01*
X71767337Y-73987239D01*
X71894352Y-73902370D01*
X72002370Y-73794352D01*
X72087239Y-73667337D01*
X72145698Y-73526205D01*
X72175500Y-73376380D01*
X72175500Y-73223620D01*
X72175499Y-73223615D01*
X89624500Y-73223615D01*
X89624500Y-73376384D01*
X89654300Y-73526197D01*
X89654302Y-73526205D01*
X89712759Y-73667334D01*
X89712764Y-73667343D01*
X89797629Y-73794351D01*
X89797632Y-73794355D01*
X89905644Y-73902367D01*
X89905648Y-73902370D01*
X90032656Y-73987235D01*
X90032662Y-73987238D01*
X90032663Y-73987239D01*
X90173795Y-74045698D01*
X90293049Y-74069419D01*
X90323615Y-74075499D01*
X90323619Y-74075500D01*
X90323620Y-74075500D01*
X90476381Y-74075500D01*
X90476382Y-74075499D01*
X90626205Y-74045698D01*
X90767337Y-73987239D01*
X90894352Y-73902370D01*
X91002370Y-73794352D01*
X91087239Y-73667337D01*
X91145698Y-73526205D01*
X91175500Y-73376380D01*
X91175500Y-73223620D01*
X91175499Y-73223615D01*
X108624500Y-73223615D01*
X108624500Y-73376384D01*
X108654300Y-73526197D01*
X108654302Y-73526205D01*
X108712759Y-73667334D01*
X108712764Y-73667343D01*
X108797629Y-73794351D01*
X108797632Y-73794355D01*
X108905644Y-73902367D01*
X108905648Y-73902370D01*
X109032656Y-73987235D01*
X109032662Y-73987238D01*
X109032663Y-73987239D01*
X109173795Y-74045698D01*
X109293049Y-74069419D01*
X109323615Y-74075499D01*
X109323619Y-74075500D01*
X109323620Y-74075500D01*
X109476381Y-74075500D01*
X109476382Y-74075499D01*
X109626205Y-74045698D01*
X109767337Y-73987239D01*
X109894352Y-73902370D01*
X110002370Y-73794352D01*
X110087239Y-73667337D01*
X110145698Y-73526205D01*
X110175500Y-73376380D01*
X110175500Y-73223620D01*
X110175499Y-73223615D01*
X127624500Y-73223615D01*
X127624500Y-73376384D01*
X127654300Y-73526197D01*
X127654302Y-73526205D01*
X127712759Y-73667334D01*
X127712764Y-73667343D01*
X127797629Y-73794351D01*
X127797632Y-73794355D01*
X127905644Y-73902367D01*
X127905648Y-73902370D01*
X128032656Y-73987235D01*
X128032662Y-73987238D01*
X128032663Y-73987239D01*
X128173795Y-74045698D01*
X128293049Y-74069419D01*
X128323615Y-74075499D01*
X128323619Y-74075500D01*
X128323620Y-74075500D01*
X128476381Y-74075500D01*
X128476382Y-74075499D01*
X128626205Y-74045698D01*
X128767337Y-73987239D01*
X128894352Y-73902370D01*
X129002370Y-73794352D01*
X129087239Y-73667337D01*
X129145698Y-73526205D01*
X129175500Y-73376380D01*
X129175500Y-73223620D01*
X129145698Y-73073795D01*
X129087239Y-72932663D01*
X129087238Y-72932662D01*
X129087235Y-72932656D01*
X129002370Y-72805648D01*
X129002367Y-72805644D01*
X128894355Y-72697632D01*
X128894351Y-72697629D01*
X128767343Y-72612764D01*
X128767334Y-72612759D01*
X128626205Y-72554302D01*
X128626197Y-72554300D01*
X128476384Y-72524500D01*
X128476380Y-72524500D01*
X128323620Y-72524500D01*
X128323615Y-72524500D01*
X128173802Y-72554300D01*
X128173794Y-72554302D01*
X128032665Y-72612759D01*
X128032656Y-72612764D01*
X127905648Y-72697629D01*
X127905644Y-72697632D01*
X127797632Y-72805644D01*
X127797629Y-72805648D01*
X127712764Y-72932656D01*
X127712759Y-72932665D01*
X127654302Y-73073794D01*
X127654300Y-73073802D01*
X127624500Y-73223615D01*
X110175499Y-73223615D01*
X110145698Y-73073795D01*
X110087239Y-72932663D01*
X110087238Y-72932662D01*
X110087235Y-72932656D01*
X110002370Y-72805648D01*
X110002367Y-72805644D01*
X109894355Y-72697632D01*
X109894351Y-72697629D01*
X109767343Y-72612764D01*
X109767334Y-72612759D01*
X109626205Y-72554302D01*
X109626197Y-72554300D01*
X109476384Y-72524500D01*
X109476380Y-72524500D01*
X109323620Y-72524500D01*
X109323615Y-72524500D01*
X109173802Y-72554300D01*
X109173794Y-72554302D01*
X109032665Y-72612759D01*
X109032656Y-72612764D01*
X108905648Y-72697629D01*
X108905644Y-72697632D01*
X108797632Y-72805644D01*
X108797629Y-72805648D01*
X108712764Y-72932656D01*
X108712759Y-72932665D01*
X108654302Y-73073794D01*
X108654300Y-73073802D01*
X108624500Y-73223615D01*
X91175499Y-73223615D01*
X91145698Y-73073795D01*
X91087239Y-72932663D01*
X91087238Y-72932662D01*
X91087235Y-72932656D01*
X91002370Y-72805648D01*
X91002367Y-72805644D01*
X90894355Y-72697632D01*
X90894351Y-72697629D01*
X90767343Y-72612764D01*
X90767334Y-72612759D01*
X90626205Y-72554302D01*
X90626197Y-72554300D01*
X90476384Y-72524500D01*
X90476380Y-72524500D01*
X90323620Y-72524500D01*
X90323615Y-72524500D01*
X90173802Y-72554300D01*
X90173794Y-72554302D01*
X90032665Y-72612759D01*
X90032656Y-72612764D01*
X89905648Y-72697629D01*
X89905644Y-72697632D01*
X89797632Y-72805644D01*
X89797629Y-72805648D01*
X89712764Y-72932656D01*
X89712759Y-72932665D01*
X89654302Y-73073794D01*
X89654300Y-73073802D01*
X89624500Y-73223615D01*
X72175499Y-73223615D01*
X72145698Y-73073795D01*
X72087239Y-72932663D01*
X72087238Y-72932662D01*
X72087235Y-72932656D01*
X72002370Y-72805648D01*
X72002367Y-72805644D01*
X71894355Y-72697632D01*
X71894351Y-72697629D01*
X71767343Y-72612764D01*
X71767334Y-72612759D01*
X71626205Y-72554302D01*
X71626197Y-72554300D01*
X71476384Y-72524500D01*
X71476380Y-72524500D01*
X71323620Y-72524500D01*
X71323615Y-72524500D01*
X71173802Y-72554300D01*
X71173794Y-72554302D01*
X71032665Y-72612759D01*
X71032656Y-72612764D01*
X70905648Y-72697629D01*
X70905644Y-72697632D01*
X70797632Y-72805644D01*
X70797629Y-72805648D01*
X70712764Y-72932656D01*
X70712759Y-72932665D01*
X70654302Y-73073794D01*
X70654300Y-73073802D01*
X70624500Y-73223615D01*
X55100500Y-73223615D01*
X55100500Y-68756228D01*
X63149500Y-68756228D01*
X63149500Y-68923771D01*
X63182182Y-69088074D01*
X63182184Y-69088082D01*
X63246295Y-69242860D01*
X63339373Y-69382162D01*
X63457837Y-69500626D01*
X63550494Y-69562537D01*
X63597137Y-69593703D01*
X63751918Y-69657816D01*
X63916228Y-69690499D01*
X63916232Y-69690500D01*
X63916233Y-69690500D01*
X64083768Y-69690500D01*
X64083769Y-69690499D01*
X64248082Y-69657816D01*
X64402863Y-69593703D01*
X64542162Y-69500626D01*
X64660626Y-69382162D01*
X64753703Y-69242863D01*
X64817816Y-69088082D01*
X64850500Y-68923767D01*
X64850500Y-68756233D01*
X64850499Y-68756228D01*
X82149500Y-68756228D01*
X82149500Y-68923771D01*
X82182182Y-69088074D01*
X82182184Y-69088082D01*
X82246295Y-69242860D01*
X82339373Y-69382162D01*
X82457837Y-69500626D01*
X82550494Y-69562537D01*
X82597137Y-69593703D01*
X82751918Y-69657816D01*
X82916228Y-69690499D01*
X82916232Y-69690500D01*
X82916233Y-69690500D01*
X83083768Y-69690500D01*
X83083769Y-69690499D01*
X83248082Y-69657816D01*
X83402863Y-69593703D01*
X83542162Y-69500626D01*
X83660626Y-69382162D01*
X83753703Y-69242863D01*
X83817816Y-69088082D01*
X83850500Y-68923767D01*
X83850500Y-68756233D01*
X83850499Y-68756228D01*
X101149500Y-68756228D01*
X101149500Y-68923771D01*
X101182182Y-69088074D01*
X101182184Y-69088082D01*
X101246295Y-69242860D01*
X101339373Y-69382162D01*
X101457837Y-69500626D01*
X101550494Y-69562537D01*
X101597137Y-69593703D01*
X101751918Y-69657816D01*
X101916228Y-69690499D01*
X101916232Y-69690500D01*
X101916233Y-69690500D01*
X102083768Y-69690500D01*
X102083769Y-69690499D01*
X102248082Y-69657816D01*
X102402863Y-69593703D01*
X102542162Y-69500626D01*
X102660626Y-69382162D01*
X102753703Y-69242863D01*
X102817816Y-69088082D01*
X102850500Y-68923767D01*
X102850500Y-68756233D01*
X102850499Y-68756228D01*
X120149500Y-68756228D01*
X120149500Y-68923771D01*
X120182182Y-69088074D01*
X120182184Y-69088082D01*
X120246295Y-69242860D01*
X120339373Y-69382162D01*
X120457837Y-69500626D01*
X120550494Y-69562537D01*
X120597137Y-69593703D01*
X120751918Y-69657816D01*
X120916228Y-69690499D01*
X120916232Y-69690500D01*
X120916233Y-69690500D01*
X121083768Y-69690500D01*
X121083769Y-69690499D01*
X121248082Y-69657816D01*
X121402863Y-69593703D01*
X121542162Y-69500626D01*
X121660626Y-69382162D01*
X121753703Y-69242863D01*
X121817816Y-69088082D01*
X121850500Y-68923767D01*
X121850500Y-68756233D01*
X121850499Y-68756228D01*
X139149500Y-68756228D01*
X139149500Y-68923771D01*
X139182182Y-69088074D01*
X139182184Y-69088082D01*
X139246295Y-69242860D01*
X139339373Y-69382162D01*
X139457837Y-69500626D01*
X139550494Y-69562537D01*
X139597137Y-69593703D01*
X139751918Y-69657816D01*
X139916228Y-69690499D01*
X139916232Y-69690500D01*
X139916233Y-69690500D01*
X140083768Y-69690500D01*
X140083769Y-69690499D01*
X140248082Y-69657816D01*
X140402863Y-69593703D01*
X140542162Y-69500626D01*
X140660626Y-69382162D01*
X140753703Y-69242863D01*
X140817816Y-69088082D01*
X140850500Y-68923767D01*
X140850500Y-68756233D01*
X140817816Y-68591918D01*
X140760893Y-68454496D01*
X140753704Y-68437139D01*
X140752616Y-68435511D01*
X140696238Y-68351135D01*
X140660626Y-68297837D01*
X140542162Y-68179373D01*
X140402860Y-68086295D01*
X140248082Y-68022184D01*
X140248074Y-68022182D01*
X140083771Y-67989500D01*
X140083767Y-67989500D01*
X139916233Y-67989500D01*
X139916228Y-67989500D01*
X139751925Y-68022182D01*
X139751917Y-68022184D01*
X139597139Y-68086295D01*
X139457837Y-68179373D01*
X139339373Y-68297837D01*
X139246295Y-68437139D01*
X139182184Y-68591917D01*
X139182182Y-68591925D01*
X139149500Y-68756228D01*
X121850499Y-68756228D01*
X121817816Y-68591918D01*
X121760893Y-68454496D01*
X121753704Y-68437139D01*
X121752616Y-68435511D01*
X121696238Y-68351135D01*
X121660626Y-68297837D01*
X121542162Y-68179373D01*
X121402860Y-68086295D01*
X121248082Y-68022184D01*
X121248074Y-68022182D01*
X121083771Y-67989500D01*
X121083767Y-67989500D01*
X120916233Y-67989500D01*
X120916228Y-67989500D01*
X120751925Y-68022182D01*
X120751917Y-68022184D01*
X120597139Y-68086295D01*
X120457837Y-68179373D01*
X120339373Y-68297837D01*
X120246295Y-68437139D01*
X120182184Y-68591917D01*
X120182182Y-68591925D01*
X120149500Y-68756228D01*
X102850499Y-68756228D01*
X102817816Y-68591918D01*
X102760893Y-68454496D01*
X102753704Y-68437139D01*
X102752616Y-68435511D01*
X102696238Y-68351135D01*
X102660626Y-68297837D01*
X102542162Y-68179373D01*
X102402860Y-68086295D01*
X102248082Y-68022184D01*
X102248074Y-68022182D01*
X102083771Y-67989500D01*
X102083767Y-67989500D01*
X101916233Y-67989500D01*
X101916228Y-67989500D01*
X101751925Y-68022182D01*
X101751917Y-68022184D01*
X101597139Y-68086295D01*
X101457837Y-68179373D01*
X101339373Y-68297837D01*
X101246295Y-68437139D01*
X101182184Y-68591917D01*
X101182182Y-68591925D01*
X101149500Y-68756228D01*
X83850499Y-68756228D01*
X83817816Y-68591918D01*
X83760893Y-68454496D01*
X83753704Y-68437139D01*
X83752616Y-68435511D01*
X83696238Y-68351135D01*
X83660626Y-68297837D01*
X83542162Y-68179373D01*
X83402860Y-68086295D01*
X83248082Y-68022184D01*
X83248074Y-68022182D01*
X83083771Y-67989500D01*
X83083767Y-67989500D01*
X82916233Y-67989500D01*
X82916228Y-67989500D01*
X82751925Y-68022182D01*
X82751917Y-68022184D01*
X82597139Y-68086295D01*
X82457837Y-68179373D01*
X82339373Y-68297837D01*
X82246295Y-68437139D01*
X82182184Y-68591917D01*
X82182182Y-68591925D01*
X82149500Y-68756228D01*
X64850499Y-68756228D01*
X64817816Y-68591918D01*
X64760893Y-68454496D01*
X64753704Y-68437139D01*
X64752616Y-68435511D01*
X64696238Y-68351135D01*
X64660626Y-68297837D01*
X64542162Y-68179373D01*
X64402860Y-68086295D01*
X64248082Y-68022184D01*
X64248074Y-68022182D01*
X64083771Y-67989500D01*
X64083767Y-67989500D01*
X63916233Y-67989500D01*
X63916228Y-67989500D01*
X63751925Y-68022182D01*
X63751917Y-68022184D01*
X63597139Y-68086295D01*
X63457837Y-68179373D01*
X63339373Y-68297837D01*
X63246295Y-68437139D01*
X63182184Y-68591917D01*
X63182182Y-68591925D01*
X63149500Y-68756228D01*
X55100500Y-68756228D01*
X55100500Y-64300097D01*
X55120185Y-64233058D01*
X55136819Y-64212416D01*
X55712417Y-63636819D01*
X55773740Y-63603334D01*
X55800098Y-63600500D01*
X127263331Y-63600500D01*
X127263347Y-63600501D01*
X127270943Y-63600501D01*
X127429054Y-63600501D01*
X127429057Y-63600501D01*
X127581785Y-63559577D01*
X127631904Y-63530639D01*
X127718716Y-63480520D01*
X127830520Y-63368716D01*
X127830520Y-63368714D01*
X127840728Y-63358507D01*
X127840729Y-63358504D01*
X133523006Y-57676228D01*
X139149500Y-57676228D01*
X139149500Y-57843771D01*
X139182182Y-58008074D01*
X139182184Y-58008082D01*
X139246295Y-58162860D01*
X139339373Y-58302162D01*
X139457837Y-58420626D01*
X139550494Y-58482537D01*
X139597137Y-58513703D01*
X139751918Y-58577816D01*
X139916228Y-58610499D01*
X139916232Y-58610500D01*
X139916233Y-58610500D01*
X140083768Y-58610500D01*
X140083769Y-58610499D01*
X140248082Y-58577816D01*
X140402863Y-58513703D01*
X140542162Y-58420626D01*
X140660626Y-58302162D01*
X140753703Y-58162863D01*
X140817816Y-58008082D01*
X140850500Y-57843767D01*
X140850500Y-57676233D01*
X140817816Y-57511918D01*
X140753703Y-57357137D01*
X140722399Y-57310288D01*
X140660626Y-57217837D01*
X140542162Y-57099373D01*
X140402860Y-57006295D01*
X140248082Y-56942184D01*
X140248074Y-56942182D01*
X140083771Y-56909500D01*
X140083767Y-56909500D01*
X139916233Y-56909500D01*
X139916228Y-56909500D01*
X139751925Y-56942182D01*
X139751917Y-56942184D01*
X139597139Y-57006295D01*
X139457837Y-57099373D01*
X139339373Y-57217837D01*
X139246295Y-57357139D01*
X139182184Y-57511917D01*
X139182182Y-57511925D01*
X139149500Y-57676228D01*
X133523006Y-57676228D01*
X133564662Y-57634572D01*
X133579414Y-57626266D01*
X133590107Y-57615004D01*
X133618385Y-57604325D01*
X133622844Y-57601815D01*
X133628213Y-57600500D01*
X133628842Y-57600500D01*
X133783497Y-57569737D01*
X133923069Y-57511925D01*
X133929172Y-57509397D01*
X133929172Y-57509396D01*
X133929179Y-57509394D01*
X134060289Y-57421789D01*
X134171789Y-57310289D01*
X134259394Y-57179179D01*
X134319737Y-57033497D01*
X134350500Y-56878842D01*
X134350500Y-56721158D01*
X134350500Y-56721155D01*
X134350499Y-56721153D01*
X134319737Y-56566503D01*
X134282043Y-56475500D01*
X134259397Y-56420827D01*
X134259390Y-56420814D01*
X134171789Y-56289711D01*
X134171786Y-56289707D01*
X134060292Y-56178213D01*
X134060288Y-56178210D01*
X133929185Y-56090609D01*
X133929172Y-56090602D01*
X133783501Y-56030264D01*
X133783489Y-56030261D01*
X133628845Y-55999500D01*
X133628842Y-55999500D01*
X133471158Y-55999500D01*
X133471155Y-55999500D01*
X133316510Y-56030261D01*
X133316498Y-56030264D01*
X133170827Y-56090602D01*
X133170814Y-56090609D01*
X133039711Y-56178210D01*
X133039707Y-56178213D01*
X132928213Y-56289707D01*
X132928210Y-56289711D01*
X132840609Y-56420814D01*
X132840602Y-56420827D01*
X132780264Y-56566498D01*
X132780261Y-56566508D01*
X132749361Y-56721850D01*
X132716976Y-56783761D01*
X132715425Y-56785339D01*
X127137584Y-62363181D01*
X127076261Y-62396666D01*
X127049903Y-62399500D01*
X110099097Y-62399500D01*
X110032058Y-62379815D01*
X109986303Y-62327011D01*
X109976359Y-62257853D01*
X110005384Y-62194297D01*
X110011416Y-62187819D01*
X112217720Y-59981515D01*
X114523006Y-57676228D01*
X120149500Y-57676228D01*
X120149500Y-57843771D01*
X120182182Y-58008074D01*
X120182184Y-58008082D01*
X120246295Y-58162860D01*
X120339373Y-58302162D01*
X120457837Y-58420626D01*
X120550494Y-58482537D01*
X120597137Y-58513703D01*
X120751918Y-58577816D01*
X120916228Y-58610499D01*
X120916232Y-58610500D01*
X120916233Y-58610500D01*
X121083768Y-58610500D01*
X121083769Y-58610499D01*
X121248082Y-58577816D01*
X121402863Y-58513703D01*
X121542162Y-58420626D01*
X121660626Y-58302162D01*
X121753703Y-58162863D01*
X121817816Y-58008082D01*
X121850500Y-57843767D01*
X121850500Y-57676233D01*
X121817816Y-57511918D01*
X121753703Y-57357137D01*
X121722399Y-57310288D01*
X121660626Y-57217837D01*
X121542162Y-57099373D01*
X121402860Y-57006295D01*
X121248082Y-56942184D01*
X121248074Y-56942182D01*
X121083771Y-56909500D01*
X121083767Y-56909500D01*
X120916233Y-56909500D01*
X120916228Y-56909500D01*
X120751925Y-56942182D01*
X120751917Y-56942184D01*
X120597139Y-57006295D01*
X120457837Y-57099373D01*
X120339373Y-57217837D01*
X120246295Y-57357139D01*
X120182184Y-57511917D01*
X120182182Y-57511925D01*
X120149500Y-57676228D01*
X114523006Y-57676228D01*
X114564662Y-57634572D01*
X114579414Y-57626266D01*
X114590107Y-57615004D01*
X114618385Y-57604325D01*
X114622844Y-57601815D01*
X114628213Y-57600500D01*
X114628842Y-57600500D01*
X114783497Y-57569737D01*
X114923069Y-57511925D01*
X114929172Y-57509397D01*
X114929172Y-57509396D01*
X114929179Y-57509394D01*
X115060289Y-57421789D01*
X115171789Y-57310289D01*
X115259394Y-57179179D01*
X115319737Y-57033497D01*
X115350500Y-56878842D01*
X115350500Y-56721158D01*
X115350500Y-56721155D01*
X115350499Y-56721153D01*
X115319737Y-56566503D01*
X115282043Y-56475500D01*
X115259397Y-56420827D01*
X115259390Y-56420814D01*
X115171789Y-56289711D01*
X115171786Y-56289707D01*
X115060292Y-56178213D01*
X115060288Y-56178210D01*
X114929185Y-56090609D01*
X114929172Y-56090602D01*
X114783501Y-56030264D01*
X114783489Y-56030261D01*
X114628845Y-55999500D01*
X114628842Y-55999500D01*
X114471158Y-55999500D01*
X114471155Y-55999500D01*
X114316510Y-56030261D01*
X114316498Y-56030264D01*
X114170827Y-56090602D01*
X114170814Y-56090609D01*
X114039711Y-56178210D01*
X114039707Y-56178213D01*
X113928213Y-56289707D01*
X113928210Y-56289711D01*
X113840609Y-56420814D01*
X113840602Y-56420827D01*
X113780264Y-56566498D01*
X113780261Y-56566508D01*
X113749361Y-56721850D01*
X113716976Y-56783761D01*
X113715425Y-56785339D01*
X108637584Y-61863181D01*
X108576261Y-61896666D01*
X108549903Y-61899500D01*
X91599097Y-61899500D01*
X91532058Y-61879815D01*
X91486303Y-61827011D01*
X91476359Y-61757853D01*
X91505384Y-61694297D01*
X91511416Y-61687819D01*
X93414257Y-59784978D01*
X95523007Y-57676228D01*
X101149500Y-57676228D01*
X101149500Y-57843771D01*
X101182182Y-58008074D01*
X101182184Y-58008082D01*
X101246295Y-58162860D01*
X101339373Y-58302162D01*
X101457837Y-58420626D01*
X101550494Y-58482537D01*
X101597137Y-58513703D01*
X101751918Y-58577816D01*
X101916228Y-58610499D01*
X101916232Y-58610500D01*
X101916233Y-58610500D01*
X102083768Y-58610500D01*
X102083769Y-58610499D01*
X102248082Y-58577816D01*
X102402863Y-58513703D01*
X102542162Y-58420626D01*
X102660626Y-58302162D01*
X102753703Y-58162863D01*
X102817816Y-58008082D01*
X102850500Y-57843767D01*
X102850500Y-57676233D01*
X102817816Y-57511918D01*
X102753703Y-57357137D01*
X102722399Y-57310288D01*
X102660626Y-57217837D01*
X102542162Y-57099373D01*
X102402860Y-57006295D01*
X102248082Y-56942184D01*
X102248074Y-56942182D01*
X102083771Y-56909500D01*
X102083767Y-56909500D01*
X101916233Y-56909500D01*
X101916228Y-56909500D01*
X101751925Y-56942182D01*
X101751917Y-56942184D01*
X101597139Y-57006295D01*
X101457837Y-57099373D01*
X101339373Y-57217837D01*
X101246295Y-57357139D01*
X101182184Y-57511917D01*
X101182182Y-57511925D01*
X101149500Y-57676228D01*
X95523007Y-57676228D01*
X95564664Y-57634571D01*
X95579415Y-57626265D01*
X95590109Y-57615002D01*
X95618383Y-57604325D01*
X95622846Y-57601813D01*
X95628207Y-57600500D01*
X95628842Y-57600500D01*
X95783497Y-57569737D01*
X95923069Y-57511925D01*
X95929172Y-57509397D01*
X95929172Y-57509396D01*
X95929179Y-57509394D01*
X96060289Y-57421789D01*
X96171789Y-57310289D01*
X96259394Y-57179179D01*
X96319737Y-57033497D01*
X96350500Y-56878842D01*
X96350500Y-56721158D01*
X96350500Y-56721155D01*
X96350499Y-56721153D01*
X96319737Y-56566503D01*
X96282043Y-56475500D01*
X96259397Y-56420827D01*
X96259390Y-56420814D01*
X96171789Y-56289711D01*
X96171786Y-56289707D01*
X96060292Y-56178213D01*
X96060288Y-56178210D01*
X95929185Y-56090609D01*
X95929172Y-56090602D01*
X95783501Y-56030264D01*
X95783489Y-56030261D01*
X95628845Y-55999500D01*
X95628842Y-55999500D01*
X95471158Y-55999500D01*
X95471155Y-55999500D01*
X95316510Y-56030261D01*
X95316498Y-56030264D01*
X95170827Y-56090602D01*
X95170814Y-56090609D01*
X95039711Y-56178210D01*
X95039707Y-56178213D01*
X94928213Y-56289707D01*
X94928210Y-56289711D01*
X94840609Y-56420814D01*
X94840602Y-56420827D01*
X94780264Y-56566498D01*
X94780261Y-56566508D01*
X94749362Y-56721848D01*
X94716977Y-56783759D01*
X94715426Y-56785337D01*
X90137584Y-61363181D01*
X90076261Y-61396666D01*
X90049903Y-61399500D01*
X73099097Y-61399500D01*
X73032058Y-61379815D01*
X72986303Y-61327011D01*
X72976359Y-61257853D01*
X73005384Y-61194297D01*
X73011416Y-61187819D01*
X74554771Y-59644464D01*
X76523007Y-57676228D01*
X82149500Y-57676228D01*
X82149500Y-57843771D01*
X82182182Y-58008074D01*
X82182184Y-58008082D01*
X82246295Y-58162860D01*
X82339373Y-58302162D01*
X82457837Y-58420626D01*
X82550494Y-58482537D01*
X82597137Y-58513703D01*
X82751918Y-58577816D01*
X82916228Y-58610499D01*
X82916232Y-58610500D01*
X82916233Y-58610500D01*
X83083768Y-58610500D01*
X83083769Y-58610499D01*
X83248082Y-58577816D01*
X83402863Y-58513703D01*
X83542162Y-58420626D01*
X83660626Y-58302162D01*
X83753703Y-58162863D01*
X83817816Y-58008082D01*
X83850500Y-57843767D01*
X83850500Y-57676233D01*
X83817816Y-57511918D01*
X83753703Y-57357137D01*
X83722399Y-57310288D01*
X83660626Y-57217837D01*
X83542162Y-57099373D01*
X83402860Y-57006295D01*
X83248082Y-56942184D01*
X83248074Y-56942182D01*
X83083771Y-56909500D01*
X83083767Y-56909500D01*
X82916233Y-56909500D01*
X82916228Y-56909500D01*
X82751925Y-56942182D01*
X82751917Y-56942184D01*
X82597139Y-57006295D01*
X82457837Y-57099373D01*
X82339373Y-57217837D01*
X82246295Y-57357139D01*
X82182184Y-57511917D01*
X82182182Y-57511925D01*
X82149500Y-57676228D01*
X76523007Y-57676228D01*
X76564664Y-57634571D01*
X76579415Y-57626265D01*
X76590109Y-57615002D01*
X76618383Y-57604325D01*
X76622846Y-57601813D01*
X76628207Y-57600500D01*
X76628842Y-57600500D01*
X76783497Y-57569737D01*
X76923069Y-57511925D01*
X76929172Y-57509397D01*
X76929172Y-57509396D01*
X76929179Y-57509394D01*
X77060289Y-57421789D01*
X77171789Y-57310289D01*
X77259394Y-57179179D01*
X77319737Y-57033497D01*
X77350500Y-56878842D01*
X77350500Y-56721158D01*
X77350500Y-56721155D01*
X77350499Y-56721153D01*
X77319737Y-56566503D01*
X77282043Y-56475500D01*
X77259397Y-56420827D01*
X77259390Y-56420814D01*
X77171789Y-56289711D01*
X77171786Y-56289707D01*
X77060292Y-56178213D01*
X77060288Y-56178210D01*
X76929185Y-56090609D01*
X76929172Y-56090602D01*
X76783501Y-56030264D01*
X76783489Y-56030261D01*
X76628845Y-55999500D01*
X76628842Y-55999500D01*
X76471158Y-55999500D01*
X76471155Y-55999500D01*
X76316510Y-56030261D01*
X76316498Y-56030264D01*
X76170827Y-56090602D01*
X76170814Y-56090609D01*
X76039711Y-56178210D01*
X76039707Y-56178213D01*
X75928213Y-56289707D01*
X75928210Y-56289711D01*
X75840609Y-56420814D01*
X75840602Y-56420827D01*
X75780264Y-56566498D01*
X75780261Y-56566508D01*
X75749362Y-56721848D01*
X75716977Y-56783759D01*
X75715426Y-56785337D01*
X71637584Y-60863181D01*
X71576261Y-60896666D01*
X71549903Y-60899500D01*
X54749097Y-60899500D01*
X54682058Y-60879815D01*
X54636303Y-60827011D01*
X54626359Y-60757853D01*
X54655384Y-60694297D01*
X54661416Y-60687819D01*
X55367720Y-59981515D01*
X57673005Y-57676228D01*
X63149500Y-57676228D01*
X63149500Y-57843771D01*
X63182182Y-58008074D01*
X63182184Y-58008082D01*
X63246295Y-58162860D01*
X63339373Y-58302162D01*
X63457837Y-58420626D01*
X63550494Y-58482537D01*
X63597137Y-58513703D01*
X63751918Y-58577816D01*
X63916228Y-58610499D01*
X63916232Y-58610500D01*
X63916233Y-58610500D01*
X64083768Y-58610500D01*
X64083769Y-58610499D01*
X64248082Y-58577816D01*
X64402863Y-58513703D01*
X64542162Y-58420626D01*
X64660626Y-58302162D01*
X64753703Y-58162863D01*
X64817816Y-58008082D01*
X64850500Y-57843767D01*
X64850500Y-57676233D01*
X64817816Y-57511918D01*
X64753703Y-57357137D01*
X64722399Y-57310288D01*
X64660626Y-57217837D01*
X64542162Y-57099373D01*
X64402860Y-57006295D01*
X64248082Y-56942184D01*
X64248074Y-56942182D01*
X64083771Y-56909500D01*
X64083767Y-56909500D01*
X63916233Y-56909500D01*
X63916228Y-56909500D01*
X63751925Y-56942182D01*
X63751917Y-56942184D01*
X63597139Y-57006295D01*
X63457837Y-57099373D01*
X63339373Y-57217837D01*
X63246295Y-57357139D01*
X63182184Y-57511917D01*
X63182182Y-57511925D01*
X63149500Y-57676228D01*
X57673005Y-57676228D01*
X57759229Y-57590004D01*
X57766158Y-57585374D01*
X57769101Y-57581137D01*
X57799451Y-57563128D01*
X57893996Y-57523966D01*
X57929173Y-57509397D01*
X57929176Y-57509395D01*
X57929179Y-57509394D01*
X58060289Y-57421789D01*
X58171789Y-57310289D01*
X58259394Y-57179179D01*
X58319737Y-57033497D01*
X58350500Y-56878842D01*
X58350500Y-56721158D01*
X58350500Y-56721155D01*
X58350499Y-56721153D01*
X58319737Y-56566503D01*
X58282043Y-56475500D01*
X58259397Y-56420827D01*
X58259390Y-56420814D01*
X58171789Y-56289711D01*
X58171786Y-56289707D01*
X58060292Y-56178213D01*
X58060288Y-56178210D01*
X57929185Y-56090609D01*
X57929172Y-56090602D01*
X57783501Y-56030264D01*
X57783489Y-56030261D01*
X57628845Y-55999500D01*
X57628842Y-55999500D01*
X57471158Y-55999500D01*
X57471155Y-55999500D01*
X57316510Y-56030261D01*
X57316498Y-56030264D01*
X57170827Y-56090602D01*
X57170814Y-56090609D01*
X57039711Y-56178210D01*
X57039707Y-56178213D01*
X56928213Y-56289707D01*
X56928210Y-56289711D01*
X56840609Y-56420814D01*
X56840602Y-56420827D01*
X56780264Y-56566498D01*
X56780261Y-56566510D01*
X56749500Y-56721153D01*
X56749500Y-56849902D01*
X56729815Y-56916941D01*
X56713181Y-56937583D01*
X51312181Y-62338583D01*
X51250858Y-62372068D01*
X51181166Y-62367084D01*
X51125233Y-62325212D01*
X51100816Y-62259748D01*
X51100500Y-62250902D01*
X51100500Y-55623615D01*
X51624500Y-55623615D01*
X51624500Y-55776384D01*
X51654300Y-55926197D01*
X51654302Y-55926205D01*
X51712759Y-56067334D01*
X51712764Y-56067343D01*
X51797629Y-56194351D01*
X51797632Y-56194355D01*
X51905644Y-56302367D01*
X51905648Y-56302370D01*
X52032656Y-56387235D01*
X52032662Y-56387238D01*
X52032663Y-56387239D01*
X52173795Y-56445698D01*
X52323615Y-56475499D01*
X52323619Y-56475500D01*
X52323620Y-56475500D01*
X52476381Y-56475500D01*
X52476382Y-56475499D01*
X52626205Y-56445698D01*
X52767337Y-56387239D01*
X52894352Y-56302370D01*
X53002370Y-56194352D01*
X53087239Y-56067337D01*
X53145698Y-55926205D01*
X53175500Y-55776380D01*
X53175500Y-55623620D01*
X53175499Y-55623615D01*
X70624500Y-55623615D01*
X70624500Y-55776384D01*
X70654300Y-55926197D01*
X70654302Y-55926205D01*
X70712759Y-56067334D01*
X70712764Y-56067343D01*
X70797629Y-56194351D01*
X70797632Y-56194355D01*
X70905644Y-56302367D01*
X70905648Y-56302370D01*
X71032656Y-56387235D01*
X71032662Y-56387238D01*
X71032663Y-56387239D01*
X71173795Y-56445698D01*
X71323615Y-56475499D01*
X71323619Y-56475500D01*
X71323620Y-56475500D01*
X71476381Y-56475500D01*
X71476382Y-56475499D01*
X71626205Y-56445698D01*
X71767337Y-56387239D01*
X71894352Y-56302370D01*
X72002370Y-56194352D01*
X72087239Y-56067337D01*
X72145698Y-55926205D01*
X72175500Y-55776380D01*
X72175500Y-55623620D01*
X72175499Y-55623615D01*
X89624500Y-55623615D01*
X89624500Y-55776384D01*
X89654300Y-55926197D01*
X89654302Y-55926205D01*
X89712759Y-56067334D01*
X89712764Y-56067343D01*
X89797629Y-56194351D01*
X89797632Y-56194355D01*
X89905644Y-56302367D01*
X89905648Y-56302370D01*
X90032656Y-56387235D01*
X90032662Y-56387238D01*
X90032663Y-56387239D01*
X90173795Y-56445698D01*
X90323615Y-56475499D01*
X90323619Y-56475500D01*
X90323620Y-56475500D01*
X90476381Y-56475500D01*
X90476382Y-56475499D01*
X90626205Y-56445698D01*
X90767337Y-56387239D01*
X90894352Y-56302370D01*
X91002370Y-56194352D01*
X91087239Y-56067337D01*
X91145698Y-55926205D01*
X91175500Y-55776380D01*
X91175500Y-55623620D01*
X91175499Y-55623615D01*
X108624500Y-55623615D01*
X108624500Y-55776384D01*
X108654300Y-55926197D01*
X108654302Y-55926205D01*
X108712759Y-56067334D01*
X108712764Y-56067343D01*
X108797629Y-56194351D01*
X108797632Y-56194355D01*
X108905644Y-56302367D01*
X108905648Y-56302370D01*
X109032656Y-56387235D01*
X109032662Y-56387238D01*
X109032663Y-56387239D01*
X109173795Y-56445698D01*
X109323615Y-56475499D01*
X109323619Y-56475500D01*
X109323620Y-56475500D01*
X109476381Y-56475500D01*
X109476382Y-56475499D01*
X109626205Y-56445698D01*
X109767337Y-56387239D01*
X109894352Y-56302370D01*
X110002370Y-56194352D01*
X110087239Y-56067337D01*
X110145698Y-55926205D01*
X110175500Y-55776380D01*
X110175500Y-55623620D01*
X110175499Y-55623615D01*
X127624500Y-55623615D01*
X127624500Y-55776384D01*
X127654300Y-55926197D01*
X127654302Y-55926205D01*
X127712759Y-56067334D01*
X127712764Y-56067343D01*
X127797629Y-56194351D01*
X127797632Y-56194355D01*
X127905644Y-56302367D01*
X127905648Y-56302370D01*
X128032656Y-56387235D01*
X128032662Y-56387238D01*
X128032663Y-56387239D01*
X128173795Y-56445698D01*
X128323615Y-56475499D01*
X128323619Y-56475500D01*
X128323620Y-56475500D01*
X128476381Y-56475500D01*
X128476382Y-56475499D01*
X128626205Y-56445698D01*
X128767337Y-56387239D01*
X128894352Y-56302370D01*
X129002370Y-56194352D01*
X129087239Y-56067337D01*
X129145698Y-55926205D01*
X129175500Y-55776380D01*
X129175500Y-55623620D01*
X129145698Y-55473795D01*
X129087239Y-55332663D01*
X129087238Y-55332662D01*
X129087235Y-55332656D01*
X129002370Y-55205648D01*
X129002367Y-55205644D01*
X128894355Y-55097632D01*
X128894351Y-55097629D01*
X128767343Y-55012764D01*
X128767334Y-55012759D01*
X128626205Y-54954302D01*
X128626197Y-54954300D01*
X128476384Y-54924500D01*
X128476380Y-54924500D01*
X128323620Y-54924500D01*
X128323615Y-54924500D01*
X128173802Y-54954300D01*
X128173794Y-54954302D01*
X128032665Y-55012759D01*
X128032656Y-55012764D01*
X127905648Y-55097629D01*
X127905644Y-55097632D01*
X127797632Y-55205644D01*
X127797629Y-55205648D01*
X127712764Y-55332656D01*
X127712759Y-55332665D01*
X127654302Y-55473794D01*
X127654300Y-55473802D01*
X127624500Y-55623615D01*
X110175499Y-55623615D01*
X110145698Y-55473795D01*
X110087239Y-55332663D01*
X110087238Y-55332662D01*
X110087235Y-55332656D01*
X110002370Y-55205648D01*
X110002367Y-55205644D01*
X109894355Y-55097632D01*
X109894351Y-55097629D01*
X109767343Y-55012764D01*
X109767334Y-55012759D01*
X109626205Y-54954302D01*
X109626197Y-54954300D01*
X109476384Y-54924500D01*
X109476380Y-54924500D01*
X109323620Y-54924500D01*
X109323615Y-54924500D01*
X109173802Y-54954300D01*
X109173794Y-54954302D01*
X109032665Y-55012759D01*
X109032656Y-55012764D01*
X108905648Y-55097629D01*
X108905644Y-55097632D01*
X108797632Y-55205644D01*
X108797629Y-55205648D01*
X108712764Y-55332656D01*
X108712759Y-55332665D01*
X108654302Y-55473794D01*
X108654300Y-55473802D01*
X108624500Y-55623615D01*
X91175499Y-55623615D01*
X91145698Y-55473795D01*
X91087239Y-55332663D01*
X91087238Y-55332662D01*
X91087235Y-55332656D01*
X91002370Y-55205648D01*
X91002367Y-55205644D01*
X90894355Y-55097632D01*
X90894351Y-55097629D01*
X90767343Y-55012764D01*
X90767334Y-55012759D01*
X90626205Y-54954302D01*
X90626197Y-54954300D01*
X90476384Y-54924500D01*
X90476380Y-54924500D01*
X90323620Y-54924500D01*
X90323615Y-54924500D01*
X90173802Y-54954300D01*
X90173794Y-54954302D01*
X90032665Y-55012759D01*
X90032656Y-55012764D01*
X89905648Y-55097629D01*
X89905644Y-55097632D01*
X89797632Y-55205644D01*
X89797629Y-55205648D01*
X89712764Y-55332656D01*
X89712759Y-55332665D01*
X89654302Y-55473794D01*
X89654300Y-55473802D01*
X89624500Y-55623615D01*
X72175499Y-55623615D01*
X72145698Y-55473795D01*
X72087239Y-55332663D01*
X72087238Y-55332662D01*
X72087235Y-55332656D01*
X72002370Y-55205648D01*
X72002367Y-55205644D01*
X71894355Y-55097632D01*
X71894351Y-55097629D01*
X71767343Y-55012764D01*
X71767334Y-55012759D01*
X71626205Y-54954302D01*
X71626197Y-54954300D01*
X71476384Y-54924500D01*
X71476380Y-54924500D01*
X71323620Y-54924500D01*
X71323615Y-54924500D01*
X71173802Y-54954300D01*
X71173794Y-54954302D01*
X71032665Y-55012759D01*
X71032656Y-55012764D01*
X70905648Y-55097629D01*
X70905644Y-55097632D01*
X70797632Y-55205644D01*
X70797629Y-55205648D01*
X70712764Y-55332656D01*
X70712759Y-55332665D01*
X70654302Y-55473794D01*
X70654300Y-55473802D01*
X70624500Y-55623615D01*
X53175499Y-55623615D01*
X53145698Y-55473795D01*
X53087239Y-55332663D01*
X53087238Y-55332662D01*
X53087235Y-55332656D01*
X53002370Y-55205648D01*
X53002367Y-55205644D01*
X52894355Y-55097632D01*
X52894351Y-55097629D01*
X52767343Y-55012764D01*
X52767334Y-55012759D01*
X52626205Y-54954302D01*
X52626197Y-54954300D01*
X52476384Y-54924500D01*
X52476380Y-54924500D01*
X52323620Y-54924500D01*
X52323615Y-54924500D01*
X52173802Y-54954300D01*
X52173794Y-54954302D01*
X52032665Y-55012759D01*
X52032656Y-55012764D01*
X51905648Y-55097629D01*
X51905644Y-55097632D01*
X51797632Y-55205644D01*
X51797629Y-55205648D01*
X51712764Y-55332656D01*
X51712759Y-55332665D01*
X51654302Y-55473794D01*
X51654300Y-55473802D01*
X51624500Y-55623615D01*
X51100500Y-55623615D01*
X51100500Y-51156228D01*
X63149500Y-51156228D01*
X63149500Y-51323771D01*
X63182182Y-51488074D01*
X63182184Y-51488082D01*
X63246295Y-51642860D01*
X63339373Y-51782162D01*
X63457837Y-51900626D01*
X63550494Y-51962537D01*
X63597137Y-51993703D01*
X63751918Y-52057816D01*
X63916228Y-52090499D01*
X63916232Y-52090500D01*
X63916233Y-52090500D01*
X64083768Y-52090500D01*
X64083769Y-52090499D01*
X64248082Y-52057816D01*
X64402863Y-51993703D01*
X64542162Y-51900626D01*
X64660626Y-51782162D01*
X64753703Y-51642863D01*
X64817816Y-51488082D01*
X64850500Y-51323767D01*
X64850500Y-51156233D01*
X64850499Y-51156228D01*
X82149500Y-51156228D01*
X82149500Y-51323771D01*
X82182182Y-51488074D01*
X82182184Y-51488082D01*
X82246295Y-51642860D01*
X82339373Y-51782162D01*
X82457837Y-51900626D01*
X82550494Y-51962537D01*
X82597137Y-51993703D01*
X82751918Y-52057816D01*
X82916228Y-52090499D01*
X82916232Y-52090500D01*
X82916233Y-52090500D01*
X83083768Y-52090500D01*
X83083769Y-52090499D01*
X83248082Y-52057816D01*
X83402863Y-51993703D01*
X83542162Y-51900626D01*
X83660626Y-51782162D01*
X83753703Y-51642863D01*
X83817816Y-51488082D01*
X83850500Y-51323767D01*
X83850500Y-51156233D01*
X83850499Y-51156228D01*
X101149500Y-51156228D01*
X101149500Y-51323771D01*
X101182182Y-51488074D01*
X101182184Y-51488082D01*
X101246295Y-51642860D01*
X101339373Y-51782162D01*
X101457837Y-51900626D01*
X101550494Y-51962537D01*
X101597137Y-51993703D01*
X101751918Y-52057816D01*
X101916228Y-52090499D01*
X101916232Y-52090500D01*
X101916233Y-52090500D01*
X102083768Y-52090500D01*
X102083769Y-52090499D01*
X102248082Y-52057816D01*
X102402863Y-51993703D01*
X102542162Y-51900626D01*
X102660626Y-51782162D01*
X102753703Y-51642863D01*
X102817816Y-51488082D01*
X102850500Y-51323767D01*
X102850500Y-51156233D01*
X102850499Y-51156228D01*
X120149500Y-51156228D01*
X120149500Y-51323771D01*
X120182182Y-51488074D01*
X120182184Y-51488082D01*
X120246295Y-51642860D01*
X120339373Y-51782162D01*
X120457837Y-51900626D01*
X120550494Y-51962537D01*
X120597137Y-51993703D01*
X120751918Y-52057816D01*
X120916228Y-52090499D01*
X120916232Y-52090500D01*
X120916233Y-52090500D01*
X121083768Y-52090500D01*
X121083769Y-52090499D01*
X121248082Y-52057816D01*
X121402863Y-51993703D01*
X121542162Y-51900626D01*
X121660626Y-51782162D01*
X121753703Y-51642863D01*
X121817816Y-51488082D01*
X121850500Y-51323767D01*
X121850500Y-51156233D01*
X121850499Y-51156228D01*
X139149500Y-51156228D01*
X139149500Y-51323771D01*
X139182182Y-51488074D01*
X139182184Y-51488082D01*
X139246295Y-51642860D01*
X139339373Y-51782162D01*
X139457837Y-51900626D01*
X139550494Y-51962537D01*
X139597137Y-51993703D01*
X139751918Y-52057816D01*
X139916228Y-52090499D01*
X139916232Y-52090500D01*
X139916233Y-52090500D01*
X140083768Y-52090500D01*
X140083769Y-52090499D01*
X140248082Y-52057816D01*
X140402863Y-51993703D01*
X140542162Y-51900626D01*
X140660626Y-51782162D01*
X140753703Y-51642863D01*
X140817816Y-51488082D01*
X140850500Y-51323767D01*
X140850500Y-51156233D01*
X140817816Y-50991918D01*
X140753703Y-50837137D01*
X140673675Y-50717367D01*
X140660626Y-50697837D01*
X140542162Y-50579373D01*
X140402860Y-50486295D01*
X140248082Y-50422184D01*
X140248074Y-50422182D01*
X140083771Y-50389500D01*
X140083767Y-50389500D01*
X139916233Y-50389500D01*
X139916228Y-50389500D01*
X139751925Y-50422182D01*
X139751917Y-50422184D01*
X139597139Y-50486295D01*
X139457837Y-50579373D01*
X139339373Y-50697837D01*
X139246295Y-50837139D01*
X139182184Y-50991917D01*
X139182182Y-50991925D01*
X139149500Y-51156228D01*
X121850499Y-51156228D01*
X121817816Y-50991918D01*
X121753703Y-50837137D01*
X121673675Y-50717367D01*
X121660626Y-50697837D01*
X121542162Y-50579373D01*
X121402860Y-50486295D01*
X121248082Y-50422184D01*
X121248074Y-50422182D01*
X121083771Y-50389500D01*
X121083767Y-50389500D01*
X120916233Y-50389500D01*
X120916228Y-50389500D01*
X120751925Y-50422182D01*
X120751917Y-50422184D01*
X120597139Y-50486295D01*
X120457837Y-50579373D01*
X120339373Y-50697837D01*
X120246295Y-50837139D01*
X120182184Y-50991917D01*
X120182182Y-50991925D01*
X120149500Y-51156228D01*
X102850499Y-51156228D01*
X102817816Y-50991918D01*
X102753703Y-50837137D01*
X102673675Y-50717367D01*
X102660626Y-50697837D01*
X102542162Y-50579373D01*
X102402860Y-50486295D01*
X102248082Y-50422184D01*
X102248074Y-50422182D01*
X102083771Y-50389500D01*
X102083767Y-50389500D01*
X101916233Y-50389500D01*
X101916228Y-50389500D01*
X101751925Y-50422182D01*
X101751917Y-50422184D01*
X101597139Y-50486295D01*
X101457837Y-50579373D01*
X101339373Y-50697837D01*
X101246295Y-50837139D01*
X101182184Y-50991917D01*
X101182182Y-50991925D01*
X101149500Y-51156228D01*
X83850499Y-51156228D01*
X83817816Y-50991918D01*
X83753703Y-50837137D01*
X83673675Y-50717367D01*
X83660626Y-50697837D01*
X83542162Y-50579373D01*
X83402860Y-50486295D01*
X83248082Y-50422184D01*
X83248074Y-50422182D01*
X83083771Y-50389500D01*
X83083767Y-50389500D01*
X82916233Y-50389500D01*
X82916228Y-50389500D01*
X82751925Y-50422182D01*
X82751917Y-50422184D01*
X82597139Y-50486295D01*
X82457837Y-50579373D01*
X82339373Y-50697837D01*
X82246295Y-50837139D01*
X82182184Y-50991917D01*
X82182182Y-50991925D01*
X82149500Y-51156228D01*
X64850499Y-51156228D01*
X64817816Y-50991918D01*
X64753703Y-50837137D01*
X64673675Y-50717367D01*
X64660626Y-50697837D01*
X64542162Y-50579373D01*
X64402860Y-50486295D01*
X64248082Y-50422184D01*
X64248074Y-50422182D01*
X64083771Y-50389500D01*
X64083767Y-50389500D01*
X63916233Y-50389500D01*
X63916228Y-50389500D01*
X63751925Y-50422182D01*
X63751917Y-50422184D01*
X63597139Y-50486295D01*
X63457837Y-50579373D01*
X63339373Y-50697837D01*
X63246295Y-50837139D01*
X63182184Y-50991917D01*
X63182182Y-50991925D01*
X63149500Y-51156228D01*
X51100500Y-51156228D01*
X51100500Y-46800097D01*
X51120185Y-46733058D01*
X51136819Y-46712416D01*
X52212416Y-45636819D01*
X52273739Y-45603334D01*
X52300097Y-45600500D01*
X127663331Y-45600500D01*
X127663347Y-45600501D01*
X127670943Y-45600501D01*
X127829054Y-45600501D01*
X127829057Y-45600501D01*
X127981785Y-45559577D01*
X128047736Y-45521500D01*
X128118716Y-45480520D01*
X128230520Y-45368716D01*
X128230520Y-45368714D01*
X128240724Y-45358511D01*
X128240727Y-45358506D01*
X133523007Y-40076228D01*
X139149500Y-40076228D01*
X139149500Y-40243771D01*
X139182182Y-40408074D01*
X139182184Y-40408082D01*
X139246295Y-40562860D01*
X139339373Y-40702162D01*
X139457837Y-40820626D01*
X139550494Y-40882537D01*
X139597137Y-40913703D01*
X139751918Y-40977816D01*
X139916228Y-41010499D01*
X139916232Y-41010500D01*
X139916233Y-41010500D01*
X140083768Y-41010500D01*
X140083769Y-41010499D01*
X140248082Y-40977816D01*
X140402863Y-40913703D01*
X140542162Y-40820626D01*
X140660626Y-40702162D01*
X140753703Y-40562863D01*
X140817816Y-40408082D01*
X140850500Y-40243767D01*
X140850500Y-40076233D01*
X140817816Y-39911918D01*
X140753703Y-39757137D01*
X140715895Y-39700554D01*
X140660626Y-39617837D01*
X140542162Y-39499373D01*
X140402860Y-39406295D01*
X140248082Y-39342184D01*
X140248074Y-39342182D01*
X140083771Y-39309500D01*
X140083767Y-39309500D01*
X139916233Y-39309500D01*
X139916228Y-39309500D01*
X139751925Y-39342182D01*
X139751917Y-39342184D01*
X139597139Y-39406295D01*
X139457837Y-39499373D01*
X139339373Y-39617837D01*
X139246295Y-39757139D01*
X139182184Y-39911917D01*
X139182182Y-39911925D01*
X139149500Y-40076228D01*
X133523007Y-40076228D01*
X133564664Y-40034571D01*
X133579415Y-40026265D01*
X133590109Y-40015002D01*
X133618383Y-40004325D01*
X133622846Y-40001813D01*
X133628207Y-40000500D01*
X133628842Y-40000500D01*
X133783497Y-39969737D01*
X133923069Y-39911925D01*
X133929172Y-39909397D01*
X133929172Y-39909396D01*
X133929179Y-39909394D01*
X134060289Y-39821789D01*
X134171789Y-39710289D01*
X134259394Y-39579179D01*
X134319737Y-39433497D01*
X134350500Y-39278842D01*
X134350500Y-39121158D01*
X134350500Y-39121155D01*
X134350499Y-39121153D01*
X134319738Y-38966510D01*
X134319738Y-38966508D01*
X134319737Y-38966503D01*
X134282043Y-38875500D01*
X134259397Y-38820827D01*
X134259390Y-38820814D01*
X134171789Y-38689711D01*
X134171786Y-38689707D01*
X134060292Y-38578213D01*
X134060288Y-38578210D01*
X133929185Y-38490609D01*
X133929172Y-38490602D01*
X133783501Y-38430264D01*
X133783489Y-38430261D01*
X133628845Y-38399500D01*
X133628842Y-38399500D01*
X133471158Y-38399500D01*
X133471155Y-38399500D01*
X133316510Y-38430261D01*
X133316498Y-38430264D01*
X133170827Y-38490602D01*
X133170814Y-38490609D01*
X133039711Y-38578210D01*
X133039707Y-38578213D01*
X132928213Y-38689707D01*
X132928210Y-38689711D01*
X132840609Y-38820814D01*
X132840602Y-38820827D01*
X132780264Y-38966498D01*
X132780261Y-38966508D01*
X132749362Y-39121848D01*
X132716977Y-39183759D01*
X132715426Y-39185337D01*
X127537584Y-44363181D01*
X127476261Y-44396666D01*
X127449903Y-44399500D01*
X110499097Y-44399500D01*
X110432058Y-44379815D01*
X110386303Y-44327011D01*
X110376359Y-44257853D01*
X110405384Y-44194297D01*
X110411416Y-44187819D01*
X112477877Y-42121358D01*
X114523006Y-40076228D01*
X120149500Y-40076228D01*
X120149500Y-40243771D01*
X120182182Y-40408074D01*
X120182184Y-40408082D01*
X120246295Y-40562860D01*
X120339373Y-40702162D01*
X120457837Y-40820626D01*
X120550494Y-40882537D01*
X120597137Y-40913703D01*
X120751918Y-40977816D01*
X120916228Y-41010499D01*
X120916232Y-41010500D01*
X120916233Y-41010500D01*
X121083768Y-41010500D01*
X121083769Y-41010499D01*
X121248082Y-40977816D01*
X121402863Y-40913703D01*
X121542162Y-40820626D01*
X121660626Y-40702162D01*
X121753703Y-40562863D01*
X121817816Y-40408082D01*
X121850500Y-40243767D01*
X121850500Y-40076233D01*
X121817816Y-39911918D01*
X121753703Y-39757137D01*
X121715895Y-39700554D01*
X121660626Y-39617837D01*
X121542162Y-39499373D01*
X121402860Y-39406295D01*
X121248082Y-39342184D01*
X121248074Y-39342182D01*
X121083771Y-39309500D01*
X121083767Y-39309500D01*
X120916233Y-39309500D01*
X120916228Y-39309500D01*
X120751925Y-39342182D01*
X120751917Y-39342184D01*
X120597139Y-39406295D01*
X120457837Y-39499373D01*
X120339373Y-39617837D01*
X120246295Y-39757139D01*
X120182184Y-39911917D01*
X120182182Y-39911925D01*
X120149500Y-40076228D01*
X114523006Y-40076228D01*
X114564662Y-40034572D01*
X114579414Y-40026266D01*
X114590107Y-40015004D01*
X114618385Y-40004325D01*
X114622844Y-40001815D01*
X114628213Y-40000500D01*
X114628842Y-40000500D01*
X114783497Y-39969737D01*
X114923069Y-39911925D01*
X114929172Y-39909397D01*
X114929172Y-39909396D01*
X114929179Y-39909394D01*
X115060289Y-39821789D01*
X115171789Y-39710289D01*
X115259394Y-39579179D01*
X115319737Y-39433497D01*
X115350500Y-39278842D01*
X115350500Y-39121158D01*
X115350500Y-39121155D01*
X115350499Y-39121153D01*
X115319738Y-38966510D01*
X115319738Y-38966508D01*
X115319737Y-38966503D01*
X115282043Y-38875500D01*
X115259397Y-38820827D01*
X115259390Y-38820814D01*
X115171789Y-38689711D01*
X115171786Y-38689707D01*
X115060292Y-38578213D01*
X115060288Y-38578210D01*
X114929185Y-38490609D01*
X114929172Y-38490602D01*
X114783501Y-38430264D01*
X114783489Y-38430261D01*
X114628845Y-38399500D01*
X114628842Y-38399500D01*
X114471158Y-38399500D01*
X114471155Y-38399500D01*
X114316510Y-38430261D01*
X114316498Y-38430264D01*
X114170827Y-38490602D01*
X114170814Y-38490609D01*
X114039711Y-38578210D01*
X114039707Y-38578213D01*
X113928213Y-38689707D01*
X113928210Y-38689711D01*
X113840609Y-38820814D01*
X113840602Y-38820827D01*
X113780264Y-38966498D01*
X113780261Y-38966508D01*
X113749361Y-39121850D01*
X113716976Y-39183761D01*
X113715425Y-39185339D01*
X109037584Y-43863181D01*
X108976261Y-43896666D01*
X108949903Y-43899500D01*
X91999097Y-43899500D01*
X91932058Y-43879815D01*
X91886303Y-43827011D01*
X91876359Y-43757853D01*
X91905384Y-43694297D01*
X91911416Y-43687819D01*
X93734771Y-41864464D01*
X95523006Y-40076228D01*
X101149500Y-40076228D01*
X101149500Y-40243771D01*
X101182182Y-40408074D01*
X101182184Y-40408082D01*
X101246295Y-40562860D01*
X101339373Y-40702162D01*
X101457837Y-40820626D01*
X101550494Y-40882537D01*
X101597137Y-40913703D01*
X101751918Y-40977816D01*
X101916228Y-41010499D01*
X101916232Y-41010500D01*
X101916233Y-41010500D01*
X102083768Y-41010500D01*
X102083769Y-41010499D01*
X102248082Y-40977816D01*
X102402863Y-40913703D01*
X102542162Y-40820626D01*
X102660626Y-40702162D01*
X102753703Y-40562863D01*
X102817816Y-40408082D01*
X102850500Y-40243767D01*
X102850500Y-40076233D01*
X102817816Y-39911918D01*
X102753703Y-39757137D01*
X102715895Y-39700554D01*
X102660626Y-39617837D01*
X102542162Y-39499373D01*
X102402860Y-39406295D01*
X102248082Y-39342184D01*
X102248074Y-39342182D01*
X102083771Y-39309500D01*
X102083767Y-39309500D01*
X101916233Y-39309500D01*
X101916228Y-39309500D01*
X101751925Y-39342182D01*
X101751917Y-39342184D01*
X101597139Y-39406295D01*
X101457837Y-39499373D01*
X101339373Y-39617837D01*
X101246295Y-39757139D01*
X101182184Y-39911917D01*
X101182182Y-39911925D01*
X101149500Y-40076228D01*
X95523006Y-40076228D01*
X95564662Y-40034572D01*
X95579414Y-40026266D01*
X95590107Y-40015004D01*
X95618385Y-40004325D01*
X95622844Y-40001815D01*
X95628213Y-40000500D01*
X95628842Y-40000500D01*
X95783497Y-39969737D01*
X95923069Y-39911925D01*
X95929172Y-39909397D01*
X95929172Y-39909396D01*
X95929179Y-39909394D01*
X96060289Y-39821789D01*
X96171789Y-39710289D01*
X96259394Y-39579179D01*
X96319737Y-39433497D01*
X96350500Y-39278842D01*
X96350500Y-39121158D01*
X96350500Y-39121155D01*
X96350499Y-39121153D01*
X96319738Y-38966510D01*
X96319738Y-38966508D01*
X96319737Y-38966503D01*
X96282043Y-38875500D01*
X96259397Y-38820827D01*
X96259390Y-38820814D01*
X96171789Y-38689711D01*
X96171786Y-38689707D01*
X96060292Y-38578213D01*
X96060288Y-38578210D01*
X95929185Y-38490609D01*
X95929172Y-38490602D01*
X95783501Y-38430264D01*
X95783489Y-38430261D01*
X95628845Y-38399500D01*
X95628842Y-38399500D01*
X95471158Y-38399500D01*
X95471155Y-38399500D01*
X95316510Y-38430261D01*
X95316498Y-38430264D01*
X95170827Y-38490602D01*
X95170814Y-38490609D01*
X95039711Y-38578210D01*
X95039707Y-38578213D01*
X94928213Y-38689707D01*
X94928210Y-38689711D01*
X94840609Y-38820814D01*
X94840602Y-38820827D01*
X94780264Y-38966498D01*
X94780261Y-38966508D01*
X94749361Y-39121850D01*
X94716976Y-39183761D01*
X94715425Y-39185339D01*
X90537584Y-43363181D01*
X90476261Y-43396666D01*
X90449903Y-43399500D01*
X73499097Y-43399500D01*
X73432058Y-43379815D01*
X73386303Y-43327011D01*
X73376359Y-43257853D01*
X73405384Y-43194297D01*
X73411416Y-43187819D01*
X74895810Y-41703425D01*
X76523006Y-40076228D01*
X82149500Y-40076228D01*
X82149500Y-40243771D01*
X82182182Y-40408074D01*
X82182184Y-40408082D01*
X82246295Y-40562860D01*
X82339373Y-40702162D01*
X82457837Y-40820626D01*
X82550494Y-40882537D01*
X82597137Y-40913703D01*
X82751918Y-40977816D01*
X82916228Y-41010499D01*
X82916232Y-41010500D01*
X82916233Y-41010500D01*
X83083768Y-41010500D01*
X83083769Y-41010499D01*
X83248082Y-40977816D01*
X83402863Y-40913703D01*
X83542162Y-40820626D01*
X83660626Y-40702162D01*
X83753703Y-40562863D01*
X83817816Y-40408082D01*
X83850500Y-40243767D01*
X83850500Y-40076233D01*
X83817816Y-39911918D01*
X83753703Y-39757137D01*
X83715895Y-39700554D01*
X83660626Y-39617837D01*
X83542162Y-39499373D01*
X83402860Y-39406295D01*
X83248082Y-39342184D01*
X83248074Y-39342182D01*
X83083771Y-39309500D01*
X83083767Y-39309500D01*
X82916233Y-39309500D01*
X82916228Y-39309500D01*
X82751925Y-39342182D01*
X82751917Y-39342184D01*
X82597139Y-39406295D01*
X82457837Y-39499373D01*
X82339373Y-39617837D01*
X82246295Y-39757139D01*
X82182184Y-39911917D01*
X82182182Y-39911925D01*
X82149500Y-40076228D01*
X76523006Y-40076228D01*
X76564662Y-40034572D01*
X76579414Y-40026266D01*
X76590107Y-40015004D01*
X76618385Y-40004325D01*
X76622844Y-40001815D01*
X76628213Y-40000500D01*
X76628842Y-40000500D01*
X76783497Y-39969737D01*
X76923069Y-39911925D01*
X76929172Y-39909397D01*
X76929172Y-39909396D01*
X76929179Y-39909394D01*
X77060289Y-39821789D01*
X77171789Y-39710289D01*
X77259394Y-39579179D01*
X77319737Y-39433497D01*
X77350500Y-39278842D01*
X77350500Y-39121158D01*
X77350500Y-39121155D01*
X77350499Y-39121153D01*
X77319738Y-38966510D01*
X77319738Y-38966508D01*
X77319737Y-38966503D01*
X77282043Y-38875500D01*
X77259397Y-38820827D01*
X77259390Y-38820814D01*
X77171789Y-38689711D01*
X77171786Y-38689707D01*
X77060292Y-38578213D01*
X77060288Y-38578210D01*
X76929185Y-38490609D01*
X76929172Y-38490602D01*
X76783501Y-38430264D01*
X76783489Y-38430261D01*
X76628845Y-38399500D01*
X76628842Y-38399500D01*
X76471158Y-38399500D01*
X76471155Y-38399500D01*
X76316510Y-38430261D01*
X76316498Y-38430264D01*
X76170827Y-38490602D01*
X76170814Y-38490609D01*
X76039711Y-38578210D01*
X76039707Y-38578213D01*
X75928213Y-38689707D01*
X75928210Y-38689711D01*
X75840609Y-38820814D01*
X75840602Y-38820827D01*
X75780264Y-38966498D01*
X75780261Y-38966508D01*
X75749361Y-39121850D01*
X75716976Y-39183761D01*
X75715425Y-39185339D01*
X72037584Y-42863181D01*
X71976261Y-42896666D01*
X71949903Y-42899500D01*
X54999097Y-42899500D01*
X54932058Y-42879815D01*
X54886303Y-42827011D01*
X54876359Y-42757853D01*
X54905384Y-42694297D01*
X54911416Y-42687819D01*
X56072798Y-41526437D01*
X57523007Y-40076228D01*
X63149500Y-40076228D01*
X63149500Y-40243771D01*
X63182182Y-40408074D01*
X63182184Y-40408082D01*
X63246295Y-40562860D01*
X63339373Y-40702162D01*
X63457837Y-40820626D01*
X63550494Y-40882537D01*
X63597137Y-40913703D01*
X63751918Y-40977816D01*
X63916228Y-41010499D01*
X63916232Y-41010500D01*
X63916233Y-41010500D01*
X64083768Y-41010500D01*
X64083769Y-41010499D01*
X64248082Y-40977816D01*
X64402863Y-40913703D01*
X64542162Y-40820626D01*
X64660626Y-40702162D01*
X64753703Y-40562863D01*
X64817816Y-40408082D01*
X64850500Y-40243767D01*
X64850500Y-40076233D01*
X64817816Y-39911918D01*
X64753703Y-39757137D01*
X64715895Y-39700554D01*
X64660626Y-39617837D01*
X64542162Y-39499373D01*
X64402860Y-39406295D01*
X64248082Y-39342184D01*
X64248074Y-39342182D01*
X64083771Y-39309500D01*
X64083767Y-39309500D01*
X63916233Y-39309500D01*
X63916228Y-39309500D01*
X63751925Y-39342182D01*
X63751917Y-39342184D01*
X63597139Y-39406295D01*
X63457837Y-39499373D01*
X63339373Y-39617837D01*
X63246295Y-39757139D01*
X63182184Y-39911917D01*
X63182182Y-39911925D01*
X63149500Y-40076228D01*
X57523007Y-40076228D01*
X57564664Y-40034571D01*
X57579415Y-40026265D01*
X57590109Y-40015002D01*
X57618383Y-40004325D01*
X57622846Y-40001813D01*
X57628207Y-40000500D01*
X57628842Y-40000500D01*
X57783497Y-39969737D01*
X57923069Y-39911925D01*
X57929172Y-39909397D01*
X57929172Y-39909396D01*
X57929179Y-39909394D01*
X58060289Y-39821789D01*
X58171789Y-39710289D01*
X58259394Y-39579179D01*
X58319737Y-39433497D01*
X58350500Y-39278842D01*
X58350500Y-39121158D01*
X58350500Y-39121155D01*
X58350499Y-39121153D01*
X58319738Y-38966510D01*
X58319738Y-38966508D01*
X58319737Y-38966503D01*
X58282043Y-38875500D01*
X58259397Y-38820827D01*
X58259390Y-38820814D01*
X58171789Y-38689711D01*
X58171786Y-38689707D01*
X58060292Y-38578213D01*
X58060288Y-38578210D01*
X57929185Y-38490609D01*
X57929172Y-38490602D01*
X57783501Y-38430264D01*
X57783489Y-38430261D01*
X57628845Y-38399500D01*
X57628842Y-38399500D01*
X57471158Y-38399500D01*
X57471155Y-38399500D01*
X57316510Y-38430261D01*
X57316498Y-38430264D01*
X57170827Y-38490602D01*
X57170814Y-38490609D01*
X57039711Y-38578210D01*
X57039707Y-38578213D01*
X56928213Y-38689707D01*
X56928210Y-38689711D01*
X56840609Y-38820814D01*
X56840602Y-38820827D01*
X56780264Y-38966498D01*
X56780261Y-38966508D01*
X56749362Y-39121848D01*
X56716977Y-39183759D01*
X56715426Y-39185337D01*
X53537584Y-42363181D01*
X53476261Y-42396666D01*
X53449903Y-42399500D01*
X51086669Y-42399500D01*
X51086653Y-42399499D01*
X51079057Y-42399499D01*
X50920943Y-42399499D01*
X50813587Y-42428265D01*
X50768210Y-42440424D01*
X50768209Y-42440425D01*
X50718096Y-42469359D01*
X50718095Y-42469360D01*
X50674689Y-42494420D01*
X50631285Y-42519479D01*
X50631282Y-42519481D01*
X48019481Y-45131282D01*
X48019475Y-45131290D01*
X47971089Y-45215099D01*
X47971089Y-45215100D01*
X47940423Y-45268215D01*
X47899499Y-45420943D01*
X47899499Y-45420945D01*
X47899499Y-45589046D01*
X47899500Y-45589059D01*
X47899500Y-71699902D01*
X47879815Y-71766941D01*
X47863181Y-71787583D01*
X47739228Y-71911536D01*
X47677905Y-71945021D01*
X47608213Y-71940037D01*
X47552280Y-71898165D01*
X47533617Y-71862176D01*
X47513657Y-71800744D01*
X47427977Y-71632587D01*
X47317046Y-71479904D01*
X47183596Y-71346454D01*
X47030913Y-71235523D01*
X46862756Y-71149843D01*
X46683267Y-71091523D01*
X46683265Y-71091522D01*
X46683263Y-71091522D01*
X46496868Y-71062000D01*
X46496863Y-71062000D01*
X45927137Y-71062000D01*
X45927132Y-71062000D01*
X45740736Y-71091522D01*
X45561241Y-71149844D01*
X45393086Y-71235523D01*
X45345994Y-71269738D01*
X45240404Y-71346454D01*
X45240402Y-71346456D01*
X45240401Y-71346456D01*
X45106956Y-71479901D01*
X45106956Y-71479902D01*
X45106954Y-71479904D01*
X45059313Y-71545475D01*
X44996023Y-71632586D01*
X44910344Y-71800741D01*
X44852022Y-71980236D01*
X44822500Y-72166631D01*
X44822500Y-72355368D01*
X44852022Y-72541763D01*
X44852023Y-72541767D01*
X44910343Y-72721256D01*
X44996023Y-72889413D01*
X45106954Y-73042096D01*
X45240404Y-73175546D01*
X45240407Y-73175548D01*
X45244109Y-73178710D01*
X45243328Y-73179623D01*
X45282569Y-73230511D01*
X45288548Y-73300124D01*
X45255943Y-73361920D01*
X45195104Y-73396277D01*
X45167018Y-73399500D01*
X35420942Y-73399500D01*
X35268212Y-73440423D01*
X35234309Y-73459999D01*
X35234306Y-73460000D01*
X35131290Y-73519475D01*
X35131282Y-73519481D01*
X31485339Y-77165425D01*
X31424016Y-77198910D01*
X31421850Y-77199361D01*
X31266508Y-77230261D01*
X31266498Y-77230264D01*
X31120827Y-77290602D01*
X31120814Y-77290609D01*
X30989711Y-77378210D01*
X30989707Y-77378213D01*
X30878213Y-77489707D01*
X30878210Y-77489711D01*
X30790609Y-77620814D01*
X30790602Y-77620827D01*
X30730264Y-77766498D01*
X30730261Y-77766510D01*
X30699500Y-77921153D01*
X29000500Y-77921153D01*
X29000500Y-33322639D01*
X29728900Y-33322639D01*
X29728900Y-33521361D01*
X29734423Y-33556232D01*
X29759987Y-33717637D01*
X29821393Y-33906629D01*
X29821394Y-33906632D01*
X29890807Y-34042860D01*
X29911613Y-34083694D01*
X30028419Y-34244464D01*
X30168936Y-34384981D01*
X30329706Y-34501787D01*
X30448232Y-34562179D01*
X30486180Y-34581515D01*
X30536976Y-34629490D01*
X30553771Y-34697311D01*
X30531233Y-34763446D01*
X30486180Y-34802485D01*
X30329705Y-34882213D01*
X30168933Y-34999021D01*
X30028421Y-35139533D01*
X29911613Y-35300305D01*
X29821394Y-35477367D01*
X29821393Y-35477370D01*
X29759987Y-35666362D01*
X29728900Y-35862639D01*
X29728900Y-36061360D01*
X29759987Y-36257637D01*
X29821393Y-36446629D01*
X29821394Y-36446632D01*
X29911613Y-36623694D01*
X30028419Y-36784464D01*
X30168936Y-36924981D01*
X30329706Y-37041787D01*
X30448232Y-37102179D01*
X30486180Y-37121515D01*
X30536976Y-37169490D01*
X30553771Y-37237311D01*
X30531233Y-37303446D01*
X30486180Y-37342485D01*
X30329705Y-37422213D01*
X30168933Y-37539021D01*
X30028421Y-37679533D01*
X29911613Y-37840305D01*
X29821394Y-38017367D01*
X29821393Y-38017370D01*
X29759987Y-38206362D01*
X29728900Y-38402639D01*
X29728900Y-38601360D01*
X29759987Y-38797637D01*
X29821393Y-38986629D01*
X29821394Y-38986632D01*
X29890291Y-39121848D01*
X29911613Y-39163694D01*
X30028419Y-39324464D01*
X30168936Y-39464981D01*
X30329706Y-39581787D01*
X30486732Y-39661796D01*
X30537527Y-39709769D01*
X30554322Y-39777590D01*
X30531785Y-39843725D01*
X30486732Y-39882764D01*
X30329966Y-39962641D01*
X30292683Y-39989729D01*
X30292682Y-39989730D01*
X30938554Y-40635600D01*
X30937896Y-40635600D01*
X30834535Y-40663295D01*
X30741864Y-40716799D01*
X30666199Y-40792464D01*
X30612695Y-40885135D01*
X30585000Y-40988496D01*
X30585000Y-40989152D01*
X29939130Y-40343282D01*
X29939129Y-40343283D01*
X29912043Y-40380564D01*
X29821857Y-40557562D01*
X29760475Y-40746476D01*
X29760475Y-40746479D01*
X29729400Y-40942678D01*
X29729400Y-41141321D01*
X29760475Y-41337520D01*
X29760475Y-41337523D01*
X29821857Y-41526437D01*
X29912041Y-41703432D01*
X29939130Y-41740715D01*
X29939131Y-41740716D01*
X30585000Y-41094847D01*
X30585000Y-41095504D01*
X30612695Y-41198865D01*
X30666199Y-41291536D01*
X30741864Y-41367201D01*
X30834535Y-41420705D01*
X30937896Y-41448400D01*
X30938553Y-41448400D01*
X30292683Y-42094268D01*
X30292683Y-42094269D01*
X30329967Y-42121358D01*
X30486731Y-42201234D01*
X30537527Y-42249209D01*
X30554322Y-42317030D01*
X30531784Y-42383165D01*
X30486731Y-42422204D01*
X30329705Y-42502213D01*
X30168933Y-42619021D01*
X30028421Y-42759533D01*
X29911613Y-42920305D01*
X29821394Y-43097367D01*
X29821393Y-43097370D01*
X29759987Y-43286362D01*
X29728900Y-43482639D01*
X29728900Y-43681360D01*
X29759987Y-43877637D01*
X29821393Y-44066629D01*
X29821394Y-44066632D01*
X29883143Y-44187819D01*
X29911613Y-44243694D01*
X30028419Y-44404464D01*
X30168936Y-44544981D01*
X30329706Y-44661787D01*
X30448232Y-44722179D01*
X30486180Y-44741515D01*
X30536976Y-44789490D01*
X30553771Y-44857311D01*
X30531233Y-44923446D01*
X30486180Y-44962485D01*
X30329705Y-45042213D01*
X30168933Y-45159021D01*
X30028421Y-45299533D01*
X29911613Y-45460305D01*
X29821394Y-45637367D01*
X29821393Y-45637370D01*
X29759987Y-45826362D01*
X29728900Y-46022639D01*
X29728900Y-46221360D01*
X29759987Y-46417637D01*
X29821393Y-46606629D01*
X29821394Y-46606632D01*
X29890463Y-46742185D01*
X29911613Y-46783694D01*
X30028419Y-46944464D01*
X30168936Y-47084981D01*
X30329706Y-47201787D01*
X30448232Y-47262179D01*
X30486180Y-47281515D01*
X30536976Y-47329490D01*
X30553771Y-47397311D01*
X30531233Y-47463446D01*
X30486180Y-47502485D01*
X30329705Y-47582213D01*
X30168933Y-47699021D01*
X30028421Y-47839533D01*
X29911613Y-48000305D01*
X29821394Y-48177367D01*
X29821393Y-48177370D01*
X29759987Y-48366362D01*
X29728900Y-48562639D01*
X29728900Y-48761360D01*
X29759987Y-48957637D01*
X29821393Y-49146629D01*
X29821394Y-49146632D01*
X29911613Y-49323694D01*
X30028419Y-49484464D01*
X30168936Y-49624981D01*
X30329706Y-49741787D01*
X30448232Y-49802179D01*
X30486180Y-49821515D01*
X30536976Y-49869490D01*
X30553771Y-49937311D01*
X30531233Y-50003446D01*
X30486180Y-50042485D01*
X30329705Y-50122213D01*
X30168933Y-50239021D01*
X30028421Y-50379533D01*
X29911613Y-50540305D01*
X29821394Y-50717367D01*
X29821393Y-50717370D01*
X29759987Y-50906362D01*
X29746435Y-50991925D01*
X29728900Y-51102639D01*
X29728900Y-51301361D01*
X29744443Y-51399498D01*
X29759987Y-51497637D01*
X29821393Y-51686629D01*
X29821394Y-51686632D01*
X29870070Y-51782162D01*
X29911613Y-51863694D01*
X30028419Y-52024464D01*
X30168936Y-52164981D01*
X30329706Y-52281787D01*
X30448232Y-52342179D01*
X30486180Y-52361515D01*
X30536976Y-52409490D01*
X30553771Y-52477311D01*
X30531233Y-52543446D01*
X30486180Y-52582485D01*
X30329705Y-52662213D01*
X30168933Y-52779021D01*
X30028421Y-52919533D01*
X29911613Y-53080305D01*
X29821394Y-53257367D01*
X29821393Y-53257370D01*
X29759987Y-53446362D01*
X29728900Y-53642639D01*
X29728900Y-53841360D01*
X29759987Y-54037637D01*
X29821393Y-54226629D01*
X29821394Y-54226632D01*
X29911613Y-54403694D01*
X30028419Y-54564464D01*
X30168936Y-54704981D01*
X30329706Y-54821787D01*
X30448232Y-54882179D01*
X30486180Y-54901515D01*
X30536976Y-54949490D01*
X30553771Y-55017311D01*
X30531233Y-55083446D01*
X30486180Y-55122485D01*
X30329705Y-55202213D01*
X30168933Y-55319021D01*
X30028421Y-55459533D01*
X29911613Y-55620305D01*
X29821394Y-55797367D01*
X29821393Y-55797370D01*
X29759987Y-55986362D01*
X29743476Y-56090609D01*
X29728900Y-56182639D01*
X29728900Y-56381361D01*
X29729831Y-56387239D01*
X29759987Y-56577637D01*
X29821393Y-56766629D01*
X29821394Y-56766632D01*
X29908499Y-56937583D01*
X29911613Y-56943694D01*
X30028419Y-57104464D01*
X30168936Y-57244981D01*
X30329706Y-57361787D01*
X30447460Y-57421786D01*
X30486180Y-57441515D01*
X30536976Y-57489490D01*
X30553771Y-57557311D01*
X30531233Y-57623446D01*
X30486180Y-57662485D01*
X30329705Y-57742213D01*
X30168933Y-57859021D01*
X30028421Y-57999533D01*
X29911613Y-58160305D01*
X29821394Y-58337367D01*
X29821393Y-58337370D01*
X29759987Y-58526362D01*
X29728900Y-58722639D01*
X29728900Y-58921360D01*
X29759987Y-59117637D01*
X29821393Y-59306629D01*
X29821394Y-59306632D01*
X29911613Y-59483694D01*
X30028419Y-59644464D01*
X30168936Y-59784981D01*
X30329706Y-59901787D01*
X30448232Y-59962179D01*
X30486180Y-59981515D01*
X30536976Y-60029490D01*
X30553771Y-60097311D01*
X30531233Y-60163446D01*
X30486180Y-60202485D01*
X30329705Y-60282213D01*
X30168933Y-60399021D01*
X30028421Y-60539533D01*
X29911613Y-60700305D01*
X29821394Y-60877367D01*
X29821393Y-60877370D01*
X29759987Y-61066362D01*
X29728900Y-61262639D01*
X29728900Y-61461360D01*
X29759987Y-61657637D01*
X29821393Y-61846629D01*
X29821394Y-61846632D01*
X29911613Y-62023694D01*
X30028419Y-62184464D01*
X30168936Y-62324981D01*
X30329706Y-62441787D01*
X30416549Y-62486035D01*
X30506767Y-62532005D01*
X30506770Y-62532006D01*
X30562967Y-62550265D01*
X30695764Y-62593413D01*
X30892039Y-62624500D01*
X30892040Y-62624500D01*
X31090760Y-62624500D01*
X31090761Y-62624500D01*
X31287036Y-62593413D01*
X31291579Y-62591937D01*
X31361420Y-62589940D01*
X31421254Y-62626019D01*
X31452083Y-62688719D01*
X31453900Y-62709867D01*
X31453900Y-69862659D01*
X31434215Y-69929698D01*
X31417581Y-69950340D01*
X31378213Y-69989707D01*
X31378210Y-69989711D01*
X31290609Y-70120814D01*
X31290602Y-70120827D01*
X31230264Y-70266498D01*
X31230261Y-70266510D01*
X31199500Y-70421153D01*
X31199500Y-70578846D01*
X31230261Y-70733489D01*
X31230264Y-70733501D01*
X31290602Y-70879172D01*
X31290609Y-70879185D01*
X31378210Y-71010288D01*
X31378213Y-71010292D01*
X31489707Y-71121786D01*
X31489711Y-71121789D01*
X31620814Y-71209390D01*
X31620827Y-71209397D01*
X31683902Y-71235523D01*
X31766503Y-71269737D01*
X31921153Y-71300499D01*
X31921156Y-71300500D01*
X31921158Y-71300500D01*
X32078844Y-71300500D01*
X32078845Y-71300499D01*
X32233497Y-71269737D01*
X32379179Y-71209394D01*
X32510289Y-71121789D01*
X32621789Y-71010289D01*
X32709394Y-70879179D01*
X32769737Y-70733497D01*
X32800500Y-70578842D01*
X32800500Y-70421158D01*
X32800500Y-70421155D01*
X32800499Y-70421153D01*
X32769738Y-70266510D01*
X32769737Y-70266503D01*
X32769735Y-70266498D01*
X32709397Y-70120827D01*
X32709390Y-70120814D01*
X32675798Y-70070540D01*
X32654920Y-70003862D01*
X32654900Y-70001649D01*
X32654900Y-69191560D01*
X33135998Y-69191560D01*
X33176923Y-69344293D01*
X33176924Y-69344294D01*
X33184642Y-69357661D01*
X33184644Y-69357664D01*
X33255977Y-69481218D01*
X33255981Y-69481223D01*
X33374849Y-69600091D01*
X33374855Y-69600096D01*
X34238133Y-70463374D01*
X34238143Y-70463385D01*
X34242473Y-70467715D01*
X34242474Y-70467716D01*
X34354278Y-70579520D01*
X34441089Y-70629639D01*
X34441091Y-70629641D01*
X34491207Y-70658576D01*
X34491209Y-70658577D01*
X34643936Y-70699500D01*
X34643937Y-70699500D01*
X40309437Y-70699500D01*
X40309453Y-70699501D01*
X40317049Y-70699501D01*
X40475160Y-70699501D01*
X40475163Y-70699501D01*
X40627891Y-70658577D01*
X40678010Y-70629639D01*
X40764822Y-70579520D01*
X40876626Y-70467716D01*
X40876626Y-70467714D01*
X40886834Y-70457507D01*
X40886836Y-70457504D01*
X41585213Y-69759127D01*
X41585216Y-69759126D01*
X41592858Y-69751482D01*
X41623162Y-69734938D01*
X41654168Y-69718005D01*
X41654175Y-69718005D01*
X41654182Y-69718002D01*
X41688724Y-69720474D01*
X41723860Y-69722986D01*
X41723871Y-69722990D01*
X41723875Y-69722992D01*
X41736820Y-69728681D01*
X41895744Y-69809657D01*
X42075233Y-69867977D01*
X42145134Y-69879048D01*
X42261632Y-69897500D01*
X42261637Y-69897500D01*
X42450368Y-69897500D01*
X42553920Y-69881098D01*
X42636767Y-69867977D01*
X42816256Y-69809657D01*
X42984413Y-69723977D01*
X43137096Y-69613046D01*
X43270546Y-69479596D01*
X43381477Y-69326913D01*
X43467157Y-69158756D01*
X43525477Y-68979267D01*
X43543770Y-68863770D01*
X43555000Y-68792868D01*
X43555000Y-68223131D01*
X43525477Y-68036736D01*
X43525477Y-68036733D01*
X43467157Y-67857244D01*
X43381477Y-67689087D01*
X43270546Y-67536404D01*
X43137096Y-67402954D01*
X42984413Y-67292023D01*
X42816256Y-67206343D01*
X42636767Y-67148023D01*
X42636765Y-67148022D01*
X42636763Y-67148022D01*
X42450368Y-67118500D01*
X42450363Y-67118500D01*
X42261637Y-67118500D01*
X42261632Y-67118500D01*
X42075236Y-67148022D01*
X42075231Y-67148023D01*
X41979317Y-67179187D01*
X41909476Y-67181182D01*
X41849643Y-67145101D01*
X41818816Y-67082400D01*
X41817000Y-67061256D01*
X41817000Y-65666631D01*
X44822500Y-65666631D01*
X44822500Y-65855368D01*
X44852022Y-66041763D01*
X44852023Y-66041767D01*
X44910343Y-66221256D01*
X44996023Y-66389413D01*
X45106954Y-66542096D01*
X45240404Y-66675546D01*
X45393087Y-66786477D01*
X45561244Y-66872157D01*
X45740733Y-66930477D01*
X45810634Y-66941548D01*
X45927132Y-66960000D01*
X45927137Y-66960000D01*
X46496868Y-66960000D01*
X46600420Y-66943598D01*
X46683267Y-66930477D01*
X46862756Y-66872157D01*
X47030913Y-66786477D01*
X47183596Y-66675546D01*
X47317046Y-66542096D01*
X47427977Y-66389413D01*
X47513657Y-66221256D01*
X47571977Y-66041767D01*
X47585098Y-65958920D01*
X47601500Y-65855368D01*
X47601500Y-65666631D01*
X47571977Y-65480236D01*
X47571977Y-65480233D01*
X47513657Y-65300744D01*
X47427977Y-65132587D01*
X47317046Y-64979904D01*
X47183596Y-64846454D01*
X47030913Y-64735523D01*
X46862756Y-64649843D01*
X46683267Y-64591523D01*
X46683265Y-64591522D01*
X46683263Y-64591522D01*
X46496868Y-64562000D01*
X46496863Y-64562000D01*
X45927137Y-64562000D01*
X45927132Y-64562000D01*
X45740736Y-64591522D01*
X45561241Y-64649844D01*
X45393086Y-64735523D01*
X45305975Y-64798813D01*
X45240404Y-64846454D01*
X45240402Y-64846456D01*
X45240401Y-64846456D01*
X45106956Y-64979901D01*
X45106956Y-64979902D01*
X45106954Y-64979904D01*
X45059313Y-65045475D01*
X44996023Y-65132586D01*
X44910344Y-65300741D01*
X44852022Y-65480236D01*
X44822500Y-65666631D01*
X41817000Y-65666631D01*
X41817000Y-49583597D01*
X41836685Y-49516558D01*
X41853319Y-49495916D01*
X44590416Y-46758819D01*
X44651739Y-46725334D01*
X44678097Y-46722500D01*
X45024670Y-46722500D01*
X45091709Y-46742185D01*
X45128591Y-46779866D01*
X45128749Y-46779752D01*
X45129527Y-46780823D01*
X45130400Y-46781715D01*
X45131610Y-46783690D01*
X45131613Y-46783694D01*
X45248419Y-46944464D01*
X45388936Y-47084981D01*
X45549706Y-47201787D01*
X45668232Y-47262179D01*
X45706180Y-47281515D01*
X45756976Y-47329490D01*
X45773771Y-47397311D01*
X45751233Y-47463446D01*
X45706180Y-47502485D01*
X45549705Y-47582213D01*
X45388933Y-47699021D01*
X45248421Y-47839533D01*
X45131613Y-48000305D01*
X45041394Y-48177367D01*
X45041393Y-48177370D01*
X44979987Y-48366362D01*
X44948900Y-48562639D01*
X44948900Y-48761360D01*
X44979987Y-48957637D01*
X45041393Y-49146629D01*
X45041394Y-49146632D01*
X45131613Y-49323694D01*
X45248419Y-49484464D01*
X45388936Y-49624981D01*
X45549706Y-49741787D01*
X45668232Y-49802179D01*
X45706180Y-49821515D01*
X45756976Y-49869490D01*
X45773771Y-49937311D01*
X45751233Y-50003446D01*
X45706180Y-50042485D01*
X45549705Y-50122213D01*
X45388933Y-50239021D01*
X45248421Y-50379533D01*
X45131613Y-50540305D01*
X45041394Y-50717367D01*
X45041393Y-50717370D01*
X44979987Y-50906362D01*
X44966435Y-50991925D01*
X44948900Y-51102639D01*
X44948900Y-51301361D01*
X44964443Y-51399498D01*
X44979987Y-51497637D01*
X45041393Y-51686629D01*
X45041394Y-51686632D01*
X45090070Y-51782162D01*
X45131613Y-51863694D01*
X45248419Y-52024464D01*
X45388936Y-52164981D01*
X45549706Y-52281787D01*
X45668232Y-52342179D01*
X45706180Y-52361515D01*
X45756976Y-52409490D01*
X45773771Y-52477311D01*
X45751233Y-52543446D01*
X45706180Y-52582485D01*
X45549705Y-52662213D01*
X45388933Y-52779021D01*
X45248421Y-52919533D01*
X45131613Y-53080305D01*
X45041394Y-53257367D01*
X45041393Y-53257370D01*
X44979987Y-53446362D01*
X44948900Y-53642639D01*
X44948900Y-53841360D01*
X44979987Y-54037637D01*
X45041393Y-54226629D01*
X45041394Y-54226632D01*
X45131613Y-54403694D01*
X45248419Y-54564464D01*
X45388936Y-54704981D01*
X45549706Y-54821787D01*
X45668232Y-54882179D01*
X45706180Y-54901515D01*
X45756976Y-54949490D01*
X45773771Y-55017311D01*
X45751233Y-55083446D01*
X45706180Y-55122485D01*
X45549705Y-55202213D01*
X45388933Y-55319021D01*
X45248421Y-55459533D01*
X45131613Y-55620305D01*
X45041394Y-55797367D01*
X45041393Y-55797370D01*
X44979987Y-55986362D01*
X44963476Y-56090609D01*
X44948900Y-56182639D01*
X44948900Y-56381361D01*
X44949831Y-56387239D01*
X44979987Y-56577637D01*
X45041393Y-56766629D01*
X45041394Y-56766632D01*
X45128499Y-56937583D01*
X45131613Y-56943694D01*
X45248419Y-57104464D01*
X45388936Y-57244981D01*
X45549706Y-57361787D01*
X45667460Y-57421786D01*
X45706180Y-57441515D01*
X45756976Y-57489490D01*
X45773771Y-57557311D01*
X45751233Y-57623446D01*
X45706180Y-57662485D01*
X45549705Y-57742213D01*
X45388933Y-57859021D01*
X45248421Y-57999533D01*
X45131613Y-58160305D01*
X45041394Y-58337367D01*
X45041393Y-58337370D01*
X44979987Y-58526362D01*
X44948900Y-58722639D01*
X44948900Y-58921360D01*
X44979987Y-59117637D01*
X45041393Y-59306629D01*
X45041394Y-59306632D01*
X45131613Y-59483694D01*
X45248419Y-59644464D01*
X45388936Y-59784981D01*
X45549706Y-59901787D01*
X45668232Y-59962179D01*
X45706180Y-59981515D01*
X45756976Y-60029490D01*
X45773771Y-60097311D01*
X45751233Y-60163446D01*
X45706180Y-60202485D01*
X45549705Y-60282213D01*
X45388933Y-60399021D01*
X45248421Y-60539533D01*
X45131613Y-60700305D01*
X45041394Y-60877367D01*
X45041393Y-60877370D01*
X44979987Y-61066362D01*
X44948900Y-61262639D01*
X44948900Y-61461360D01*
X44979987Y-61657637D01*
X45041393Y-61846629D01*
X45041394Y-61846632D01*
X45131613Y-62023694D01*
X45248419Y-62184464D01*
X45388936Y-62324981D01*
X45549706Y-62441787D01*
X45636549Y-62486035D01*
X45726767Y-62532005D01*
X45726770Y-62532006D01*
X45782967Y-62550265D01*
X45915764Y-62593413D01*
X46112039Y-62624500D01*
X46112040Y-62624500D01*
X46310760Y-62624500D01*
X46310761Y-62624500D01*
X46507036Y-62593413D01*
X46696032Y-62532005D01*
X46873094Y-62441787D01*
X47033864Y-62324981D01*
X47174381Y-62184464D01*
X47291187Y-62023694D01*
X47381405Y-61846632D01*
X47442813Y-61657636D01*
X47473900Y-61461361D01*
X47473900Y-61262639D01*
X47442813Y-61066364D01*
X47388596Y-60899500D01*
X47381406Y-60877370D01*
X47381405Y-60877367D01*
X47291186Y-60700305D01*
X47286821Y-60694297D01*
X47174381Y-60539536D01*
X47033864Y-60399019D01*
X46873094Y-60282213D01*
X46716618Y-60202484D01*
X46665823Y-60154510D01*
X46649028Y-60086689D01*
X46671565Y-60020554D01*
X46716618Y-59981515D01*
X46873094Y-59901787D01*
X47033864Y-59784981D01*
X47174381Y-59644464D01*
X47291187Y-59483694D01*
X47381405Y-59306632D01*
X47442813Y-59117636D01*
X47473900Y-58921361D01*
X47473900Y-58722639D01*
X47442813Y-58526364D01*
X47381405Y-58337368D01*
X47381405Y-58337367D01*
X47335435Y-58247149D01*
X47291187Y-58160306D01*
X47174381Y-57999536D01*
X47033864Y-57859019D01*
X46873094Y-57742213D01*
X46716618Y-57662484D01*
X46665823Y-57614510D01*
X46649028Y-57546689D01*
X46671565Y-57480554D01*
X46716618Y-57441515D01*
X46873094Y-57361787D01*
X47033864Y-57244981D01*
X47174381Y-57104464D01*
X47291187Y-56943694D01*
X47381405Y-56766632D01*
X47442813Y-56577636D01*
X47473900Y-56381361D01*
X47473900Y-56182639D01*
X47442813Y-55986364D01*
X47381405Y-55797368D01*
X47381405Y-55797367D01*
X47335435Y-55707149D01*
X47291187Y-55620306D01*
X47174381Y-55459536D01*
X47033864Y-55319019D01*
X46873094Y-55202213D01*
X46716618Y-55122484D01*
X46665823Y-55074510D01*
X46649028Y-55006689D01*
X46671565Y-54940554D01*
X46716618Y-54901515D01*
X46873094Y-54821787D01*
X47033864Y-54704981D01*
X47174381Y-54564464D01*
X47291187Y-54403694D01*
X47381405Y-54226632D01*
X47442813Y-54037636D01*
X47473900Y-53841361D01*
X47473900Y-53642639D01*
X47442813Y-53446364D01*
X47381405Y-53257368D01*
X47381405Y-53257367D01*
X47291186Y-53080305D01*
X47174381Y-52919536D01*
X47033864Y-52779019D01*
X46873094Y-52662213D01*
X46716618Y-52582484D01*
X46665823Y-52534510D01*
X46649028Y-52466689D01*
X46671565Y-52400554D01*
X46716618Y-52361515D01*
X46873094Y-52281787D01*
X47033864Y-52164981D01*
X47174381Y-52024464D01*
X47291187Y-51863694D01*
X47381405Y-51686632D01*
X47442813Y-51497636D01*
X47473900Y-51301361D01*
X47473900Y-51102639D01*
X47442813Y-50906364D01*
X47381405Y-50717368D01*
X47381405Y-50717367D01*
X47311093Y-50579374D01*
X47291187Y-50540306D01*
X47174381Y-50379536D01*
X47033864Y-50239019D01*
X46873094Y-50122213D01*
X46716618Y-50042484D01*
X46665823Y-49994510D01*
X46649028Y-49926689D01*
X46671565Y-49860554D01*
X46716618Y-49821515D01*
X46873094Y-49741787D01*
X47033864Y-49624981D01*
X47174381Y-49484464D01*
X47291187Y-49323694D01*
X47381405Y-49146632D01*
X47442813Y-48957636D01*
X47473900Y-48761361D01*
X47473900Y-48562639D01*
X47442813Y-48366364D01*
X47381405Y-48177368D01*
X47381405Y-48177367D01*
X47291186Y-48000305D01*
X47174381Y-47839536D01*
X47033864Y-47699019D01*
X46873094Y-47582213D01*
X46716618Y-47502484D01*
X46665823Y-47454510D01*
X46649028Y-47386689D01*
X46671565Y-47320554D01*
X46716618Y-47281515D01*
X46873094Y-47201787D01*
X47033864Y-47084981D01*
X47174381Y-46944464D01*
X47291187Y-46783694D01*
X47381405Y-46606632D01*
X47442813Y-46417636D01*
X47473900Y-46221361D01*
X47473900Y-46022639D01*
X47442813Y-45826364D01*
X47381405Y-45637368D01*
X47381405Y-45637367D01*
X47322367Y-45521500D01*
X47291187Y-45460306D01*
X47174381Y-45299536D01*
X47033864Y-45159019D01*
X46873094Y-45042213D01*
X46716618Y-44962484D01*
X46665823Y-44914510D01*
X46649028Y-44846689D01*
X46671565Y-44780554D01*
X46716618Y-44741515D01*
X46873094Y-44661787D01*
X47033864Y-44544981D01*
X47174381Y-44404464D01*
X47291187Y-44243694D01*
X47381405Y-44066632D01*
X47442813Y-43877636D01*
X47473900Y-43681361D01*
X47473900Y-43482639D01*
X47442813Y-43286364D01*
X47381405Y-43097368D01*
X47381405Y-43097367D01*
X47291186Y-42920305D01*
X47174381Y-42759536D01*
X47033864Y-42619019D01*
X46873094Y-42502213D01*
X46716618Y-42422484D01*
X46665823Y-42374510D01*
X46649028Y-42306689D01*
X46671565Y-42240554D01*
X46716618Y-42201515D01*
X46873094Y-42121787D01*
X47033864Y-42004981D01*
X47174381Y-41864464D01*
X47291187Y-41703694D01*
X47381405Y-41526632D01*
X47442813Y-41337636D01*
X47473900Y-41141361D01*
X47473900Y-40942639D01*
X47442813Y-40746364D01*
X47406824Y-40635600D01*
X47381406Y-40557370D01*
X47381405Y-40557367D01*
X47335435Y-40467149D01*
X47291187Y-40380306D01*
X47174381Y-40219536D01*
X47033864Y-40079019D01*
X46873094Y-39962213D01*
X46716618Y-39882484D01*
X46665823Y-39834510D01*
X46649028Y-39766689D01*
X46671565Y-39700554D01*
X46716618Y-39661515D01*
X46873094Y-39581787D01*
X47033864Y-39464981D01*
X47174381Y-39324464D01*
X47291187Y-39163694D01*
X47381405Y-38986632D01*
X47442813Y-38797636D01*
X47473900Y-38601361D01*
X47473900Y-38402639D01*
X47442813Y-38206364D01*
X47383435Y-38023615D01*
X51624500Y-38023615D01*
X51624500Y-38176384D01*
X51654300Y-38326197D01*
X51654302Y-38326205D01*
X51712759Y-38467334D01*
X51712764Y-38467343D01*
X51797629Y-38594351D01*
X51797632Y-38594355D01*
X51905644Y-38702367D01*
X51905648Y-38702370D01*
X52032656Y-38787235D01*
X52032662Y-38787238D01*
X52032663Y-38787239D01*
X52173795Y-38845698D01*
X52323615Y-38875499D01*
X52323619Y-38875500D01*
X52323620Y-38875500D01*
X52476381Y-38875500D01*
X52476382Y-38875499D01*
X52626205Y-38845698D01*
X52767337Y-38787239D01*
X52894352Y-38702370D01*
X53002370Y-38594352D01*
X53087239Y-38467337D01*
X53145698Y-38326205D01*
X53175500Y-38176380D01*
X53175500Y-38023620D01*
X53175499Y-38023615D01*
X70624500Y-38023615D01*
X70624500Y-38176384D01*
X70654300Y-38326197D01*
X70654302Y-38326205D01*
X70712759Y-38467334D01*
X70712764Y-38467343D01*
X70797629Y-38594351D01*
X70797632Y-38594355D01*
X70905644Y-38702367D01*
X70905648Y-38702370D01*
X71032656Y-38787235D01*
X71032662Y-38787238D01*
X71032663Y-38787239D01*
X71173795Y-38845698D01*
X71323615Y-38875499D01*
X71323619Y-38875500D01*
X71323620Y-38875500D01*
X71476381Y-38875500D01*
X71476382Y-38875499D01*
X71626205Y-38845698D01*
X71767337Y-38787239D01*
X71894352Y-38702370D01*
X72002370Y-38594352D01*
X72087239Y-38467337D01*
X72145698Y-38326205D01*
X72175500Y-38176380D01*
X72175500Y-38023620D01*
X72175499Y-38023615D01*
X89624500Y-38023615D01*
X89624500Y-38176384D01*
X89654300Y-38326197D01*
X89654302Y-38326205D01*
X89712759Y-38467334D01*
X89712764Y-38467343D01*
X89797629Y-38594351D01*
X89797632Y-38594355D01*
X89905644Y-38702367D01*
X89905648Y-38702370D01*
X90032656Y-38787235D01*
X90032662Y-38787238D01*
X90032663Y-38787239D01*
X90173795Y-38845698D01*
X90323615Y-38875499D01*
X90323619Y-38875500D01*
X90323620Y-38875500D01*
X90476381Y-38875500D01*
X90476382Y-38875499D01*
X90626205Y-38845698D01*
X90767337Y-38787239D01*
X90894352Y-38702370D01*
X91002370Y-38594352D01*
X91087239Y-38467337D01*
X91145698Y-38326205D01*
X91175500Y-38176380D01*
X91175500Y-38023620D01*
X91175499Y-38023615D01*
X108624500Y-38023615D01*
X108624500Y-38176384D01*
X108654300Y-38326197D01*
X108654302Y-38326205D01*
X108712759Y-38467334D01*
X108712764Y-38467343D01*
X108797629Y-38594351D01*
X108797632Y-38594355D01*
X108905644Y-38702367D01*
X108905648Y-38702370D01*
X109032656Y-38787235D01*
X109032662Y-38787238D01*
X109032663Y-38787239D01*
X109173795Y-38845698D01*
X109323615Y-38875499D01*
X109323619Y-38875500D01*
X109323620Y-38875500D01*
X109476381Y-38875500D01*
X109476382Y-38875499D01*
X109626205Y-38845698D01*
X109767337Y-38787239D01*
X109894352Y-38702370D01*
X110002370Y-38594352D01*
X110087239Y-38467337D01*
X110145698Y-38326205D01*
X110175500Y-38176380D01*
X110175500Y-38023620D01*
X110175499Y-38023615D01*
X127624500Y-38023615D01*
X127624500Y-38176384D01*
X127654300Y-38326197D01*
X127654302Y-38326205D01*
X127712759Y-38467334D01*
X127712764Y-38467343D01*
X127797629Y-38594351D01*
X127797632Y-38594355D01*
X127905644Y-38702367D01*
X127905648Y-38702370D01*
X128032656Y-38787235D01*
X128032662Y-38787238D01*
X128032663Y-38787239D01*
X128173795Y-38845698D01*
X128323615Y-38875499D01*
X128323619Y-38875500D01*
X128323620Y-38875500D01*
X128476381Y-38875500D01*
X128476382Y-38875499D01*
X128626205Y-38845698D01*
X128767337Y-38787239D01*
X128894352Y-38702370D01*
X129002370Y-38594352D01*
X129087239Y-38467337D01*
X129145698Y-38326205D01*
X129175500Y-38176380D01*
X129175500Y-38023620D01*
X129145698Y-37873795D01*
X129087239Y-37732663D01*
X129087238Y-37732662D01*
X129087235Y-37732656D01*
X129002370Y-37605648D01*
X129002367Y-37605644D01*
X128894355Y-37497632D01*
X128894351Y-37497629D01*
X128767343Y-37412764D01*
X128767334Y-37412759D01*
X128626205Y-37354302D01*
X128626197Y-37354300D01*
X128476384Y-37324500D01*
X128476380Y-37324500D01*
X128323620Y-37324500D01*
X128323615Y-37324500D01*
X128173802Y-37354300D01*
X128173794Y-37354302D01*
X128032665Y-37412759D01*
X128032656Y-37412764D01*
X127905648Y-37497629D01*
X127905644Y-37497632D01*
X127797632Y-37605644D01*
X127797629Y-37605648D01*
X127712764Y-37732656D01*
X127712759Y-37732665D01*
X127654302Y-37873794D01*
X127654300Y-37873802D01*
X127624500Y-38023615D01*
X110175499Y-38023615D01*
X110145698Y-37873795D01*
X110087239Y-37732663D01*
X110087238Y-37732662D01*
X110087235Y-37732656D01*
X110002370Y-37605648D01*
X110002367Y-37605644D01*
X109894355Y-37497632D01*
X109894351Y-37497629D01*
X109767343Y-37412764D01*
X109767334Y-37412759D01*
X109626205Y-37354302D01*
X109626197Y-37354300D01*
X109476384Y-37324500D01*
X109476380Y-37324500D01*
X109323620Y-37324500D01*
X109323615Y-37324500D01*
X109173802Y-37354300D01*
X109173794Y-37354302D01*
X109032665Y-37412759D01*
X109032656Y-37412764D01*
X108905648Y-37497629D01*
X108905644Y-37497632D01*
X108797632Y-37605644D01*
X108797629Y-37605648D01*
X108712764Y-37732656D01*
X108712759Y-37732665D01*
X108654302Y-37873794D01*
X108654300Y-37873802D01*
X108624500Y-38023615D01*
X91175499Y-38023615D01*
X91145698Y-37873795D01*
X91087239Y-37732663D01*
X91087238Y-37732662D01*
X91087235Y-37732656D01*
X91002370Y-37605648D01*
X91002367Y-37605644D01*
X90894355Y-37497632D01*
X90894351Y-37497629D01*
X90767343Y-37412764D01*
X90767334Y-37412759D01*
X90626205Y-37354302D01*
X90626197Y-37354300D01*
X90476384Y-37324500D01*
X90476380Y-37324500D01*
X90323620Y-37324500D01*
X90323615Y-37324500D01*
X90173802Y-37354300D01*
X90173794Y-37354302D01*
X90032665Y-37412759D01*
X90032656Y-37412764D01*
X89905648Y-37497629D01*
X89905644Y-37497632D01*
X89797632Y-37605644D01*
X89797629Y-37605648D01*
X89712764Y-37732656D01*
X89712759Y-37732665D01*
X89654302Y-37873794D01*
X89654300Y-37873802D01*
X89624500Y-38023615D01*
X72175499Y-38023615D01*
X72145698Y-37873795D01*
X72087239Y-37732663D01*
X72087238Y-37732662D01*
X72087235Y-37732656D01*
X72002370Y-37605648D01*
X72002367Y-37605644D01*
X71894355Y-37497632D01*
X71894351Y-37497629D01*
X71767343Y-37412764D01*
X71767334Y-37412759D01*
X71626205Y-37354302D01*
X71626197Y-37354300D01*
X71476384Y-37324500D01*
X71476380Y-37324500D01*
X71323620Y-37324500D01*
X71323615Y-37324500D01*
X71173802Y-37354300D01*
X71173794Y-37354302D01*
X71032665Y-37412759D01*
X71032656Y-37412764D01*
X70905648Y-37497629D01*
X70905644Y-37497632D01*
X70797632Y-37605644D01*
X70797629Y-37605648D01*
X70712764Y-37732656D01*
X70712759Y-37732665D01*
X70654302Y-37873794D01*
X70654300Y-37873802D01*
X70624500Y-38023615D01*
X53175499Y-38023615D01*
X53145698Y-37873795D01*
X53087239Y-37732663D01*
X53087238Y-37732662D01*
X53087235Y-37732656D01*
X53002370Y-37605648D01*
X53002367Y-37605644D01*
X52894355Y-37497632D01*
X52894351Y-37497629D01*
X52767343Y-37412764D01*
X52767334Y-37412759D01*
X52626205Y-37354302D01*
X52626197Y-37354300D01*
X52476384Y-37324500D01*
X52476380Y-37324500D01*
X52323620Y-37324500D01*
X52323615Y-37324500D01*
X52173802Y-37354300D01*
X52173794Y-37354302D01*
X52032665Y-37412759D01*
X52032656Y-37412764D01*
X51905648Y-37497629D01*
X51905644Y-37497632D01*
X51797632Y-37605644D01*
X51797629Y-37605648D01*
X51712764Y-37732656D01*
X51712759Y-37732665D01*
X51654302Y-37873794D01*
X51654300Y-37873802D01*
X51624500Y-38023615D01*
X47383435Y-38023615D01*
X47381405Y-38017368D01*
X47291187Y-37840306D01*
X47174381Y-37679536D01*
X47033864Y-37539019D01*
X46873094Y-37422213D01*
X46716618Y-37342484D01*
X46665823Y-37294510D01*
X46649028Y-37226689D01*
X46671565Y-37160554D01*
X46716618Y-37121515D01*
X46873094Y-37041787D01*
X47033864Y-36924981D01*
X47174381Y-36784464D01*
X47291187Y-36623694D01*
X47381405Y-36446632D01*
X47442813Y-36257636D01*
X47473900Y-36061361D01*
X47473900Y-35862639D01*
X47442813Y-35666364D01*
X47381405Y-35477368D01*
X47381405Y-35477367D01*
X47291186Y-35300305D01*
X47174381Y-35139536D01*
X47033864Y-34999019D01*
X46873094Y-34882213D01*
X46716618Y-34802484D01*
X46665823Y-34754510D01*
X46649028Y-34686689D01*
X46671565Y-34620554D01*
X46716618Y-34581515D01*
X46873094Y-34501787D01*
X47033864Y-34384981D01*
X47174381Y-34244464D01*
X47291187Y-34083694D01*
X47381405Y-33906632D01*
X47442813Y-33717636D01*
X47468378Y-33556228D01*
X63149500Y-33556228D01*
X63149500Y-33723771D01*
X63182182Y-33888074D01*
X63182184Y-33888082D01*
X63246295Y-34042860D01*
X63339373Y-34182162D01*
X63457837Y-34300626D01*
X63550494Y-34362537D01*
X63597137Y-34393703D01*
X63751918Y-34457816D01*
X63916228Y-34490499D01*
X63916232Y-34490500D01*
X63916233Y-34490500D01*
X64083768Y-34490500D01*
X64083769Y-34490499D01*
X64248082Y-34457816D01*
X64402863Y-34393703D01*
X64542162Y-34300626D01*
X64660626Y-34182162D01*
X64753703Y-34042863D01*
X64817816Y-33888082D01*
X64850500Y-33723767D01*
X64850500Y-33556233D01*
X64850499Y-33556228D01*
X82149500Y-33556228D01*
X82149500Y-33723771D01*
X82182182Y-33888074D01*
X82182184Y-33888082D01*
X82246295Y-34042860D01*
X82339373Y-34182162D01*
X82457837Y-34300626D01*
X82550494Y-34362537D01*
X82597137Y-34393703D01*
X82751918Y-34457816D01*
X82916228Y-34490499D01*
X82916232Y-34490500D01*
X82916233Y-34490500D01*
X83083768Y-34490500D01*
X83083769Y-34490499D01*
X83248082Y-34457816D01*
X83402863Y-34393703D01*
X83542162Y-34300626D01*
X83660626Y-34182162D01*
X83753703Y-34042863D01*
X83817816Y-33888082D01*
X83850500Y-33723767D01*
X83850500Y-33556233D01*
X83850499Y-33556228D01*
X101149500Y-33556228D01*
X101149500Y-33723771D01*
X101182182Y-33888074D01*
X101182184Y-33888082D01*
X101246295Y-34042860D01*
X101339373Y-34182162D01*
X101457837Y-34300626D01*
X101550494Y-34362537D01*
X101597137Y-34393703D01*
X101751918Y-34457816D01*
X101916228Y-34490499D01*
X101916232Y-34490500D01*
X101916233Y-34490500D01*
X102083768Y-34490500D01*
X102083769Y-34490499D01*
X102248082Y-34457816D01*
X102402863Y-34393703D01*
X102542162Y-34300626D01*
X102660626Y-34182162D01*
X102753703Y-34042863D01*
X102817816Y-33888082D01*
X102850500Y-33723767D01*
X102850500Y-33556233D01*
X102850499Y-33556228D01*
X120149500Y-33556228D01*
X120149500Y-33723771D01*
X120182182Y-33888074D01*
X120182184Y-33888082D01*
X120246295Y-34042860D01*
X120339373Y-34182162D01*
X120457837Y-34300626D01*
X120550494Y-34362537D01*
X120597137Y-34393703D01*
X120751918Y-34457816D01*
X120916228Y-34490499D01*
X120916232Y-34490500D01*
X120916233Y-34490500D01*
X121083768Y-34490500D01*
X121083769Y-34490499D01*
X121248082Y-34457816D01*
X121402863Y-34393703D01*
X121542162Y-34300626D01*
X121660626Y-34182162D01*
X121753703Y-34042863D01*
X121817816Y-33888082D01*
X121850500Y-33723767D01*
X121850500Y-33556233D01*
X121850499Y-33556228D01*
X139149500Y-33556228D01*
X139149500Y-33723771D01*
X139182182Y-33888074D01*
X139182184Y-33888082D01*
X139246295Y-34042860D01*
X139339373Y-34182162D01*
X139457837Y-34300626D01*
X139550494Y-34362537D01*
X139597137Y-34393703D01*
X139751918Y-34457816D01*
X139916228Y-34490499D01*
X139916232Y-34490500D01*
X139916233Y-34490500D01*
X140083768Y-34490500D01*
X140083769Y-34490499D01*
X140248082Y-34457816D01*
X140402863Y-34393703D01*
X140542162Y-34300626D01*
X140660626Y-34182162D01*
X140753703Y-34042863D01*
X140817816Y-33888082D01*
X140850500Y-33723767D01*
X140850500Y-33556233D01*
X140817816Y-33391918D01*
X140753703Y-33237137D01*
X140679687Y-33126364D01*
X140660626Y-33097837D01*
X140542162Y-32979373D01*
X140402860Y-32886295D01*
X140248082Y-32822184D01*
X140248074Y-32822182D01*
X140083771Y-32789500D01*
X140083767Y-32789500D01*
X139916233Y-32789500D01*
X139916228Y-32789500D01*
X139751925Y-32822182D01*
X139751917Y-32822184D01*
X139597139Y-32886295D01*
X139457837Y-32979373D01*
X139339373Y-33097837D01*
X139246295Y-33237139D01*
X139182184Y-33391917D01*
X139182182Y-33391925D01*
X139149500Y-33556228D01*
X121850499Y-33556228D01*
X121817816Y-33391918D01*
X121753703Y-33237137D01*
X121679687Y-33126364D01*
X121660626Y-33097837D01*
X121542162Y-32979373D01*
X121402860Y-32886295D01*
X121248082Y-32822184D01*
X121248074Y-32822182D01*
X121083771Y-32789500D01*
X121083767Y-32789500D01*
X120916233Y-32789500D01*
X120916228Y-32789500D01*
X120751925Y-32822182D01*
X120751917Y-32822184D01*
X120597139Y-32886295D01*
X120457837Y-32979373D01*
X120339373Y-33097837D01*
X120246295Y-33237139D01*
X120182184Y-33391917D01*
X120182182Y-33391925D01*
X120149500Y-33556228D01*
X102850499Y-33556228D01*
X102817816Y-33391918D01*
X102753703Y-33237137D01*
X102679687Y-33126364D01*
X102660626Y-33097837D01*
X102542162Y-32979373D01*
X102402860Y-32886295D01*
X102248082Y-32822184D01*
X102248074Y-32822182D01*
X102083771Y-32789500D01*
X102083767Y-32789500D01*
X101916233Y-32789500D01*
X101916228Y-32789500D01*
X101751925Y-32822182D01*
X101751917Y-32822184D01*
X101597139Y-32886295D01*
X101457837Y-32979373D01*
X101339373Y-33097837D01*
X101246295Y-33237139D01*
X101182184Y-33391917D01*
X101182182Y-33391925D01*
X101149500Y-33556228D01*
X83850499Y-33556228D01*
X83817816Y-33391918D01*
X83753703Y-33237137D01*
X83679687Y-33126364D01*
X83660626Y-33097837D01*
X83542162Y-32979373D01*
X83402860Y-32886295D01*
X83248082Y-32822184D01*
X83248074Y-32822182D01*
X83083771Y-32789500D01*
X83083767Y-32789500D01*
X82916233Y-32789500D01*
X82916228Y-32789500D01*
X82751925Y-32822182D01*
X82751917Y-32822184D01*
X82597139Y-32886295D01*
X82457837Y-32979373D01*
X82339373Y-33097837D01*
X82246295Y-33237139D01*
X82182184Y-33391917D01*
X82182182Y-33391925D01*
X82149500Y-33556228D01*
X64850499Y-33556228D01*
X64817816Y-33391918D01*
X64753703Y-33237137D01*
X64679687Y-33126364D01*
X64660626Y-33097837D01*
X64542162Y-32979373D01*
X64402860Y-32886295D01*
X64248082Y-32822184D01*
X64248074Y-32822182D01*
X64083771Y-32789500D01*
X64083767Y-32789500D01*
X63916233Y-32789500D01*
X63916228Y-32789500D01*
X63751925Y-32822182D01*
X63751917Y-32822184D01*
X63597139Y-32886295D01*
X63457837Y-32979373D01*
X63339373Y-33097837D01*
X63246295Y-33237139D01*
X63182184Y-33391917D01*
X63182182Y-33391925D01*
X63149500Y-33556228D01*
X47468378Y-33556228D01*
X47473900Y-33521361D01*
X47473900Y-33322639D01*
X47442813Y-33126364D01*
X47412109Y-33031866D01*
X47381406Y-32937370D01*
X47381405Y-32937367D01*
X47335435Y-32847149D01*
X47291187Y-32760306D01*
X47174381Y-32599536D01*
X47033864Y-32459019D01*
X46873094Y-32342213D01*
X46696032Y-32251994D01*
X46696029Y-32251993D01*
X46507037Y-32190587D01*
X46408898Y-32175043D01*
X46310761Y-32159500D01*
X46112039Y-32159500D01*
X46046614Y-32169862D01*
X45915762Y-32190587D01*
X45726770Y-32251993D01*
X45726767Y-32251994D01*
X45549705Y-32342213D01*
X45388933Y-32459021D01*
X45248421Y-32599533D01*
X45131613Y-32760305D01*
X45041394Y-32937367D01*
X45041393Y-32937370D01*
X44979987Y-33126362D01*
X44979987Y-33126364D01*
X44948900Y-33322639D01*
X44948900Y-33521361D01*
X44954423Y-33556232D01*
X44979987Y-33717637D01*
X45041393Y-33906629D01*
X45041394Y-33906632D01*
X45110807Y-34042860D01*
X45131613Y-34083694D01*
X45248419Y-34244464D01*
X45388936Y-34384981D01*
X45549706Y-34501787D01*
X45668232Y-34562179D01*
X45706180Y-34581515D01*
X45756976Y-34629490D01*
X45773771Y-34697311D01*
X45751233Y-34763446D01*
X45706180Y-34802485D01*
X45549705Y-34882213D01*
X45388933Y-34999021D01*
X45248421Y-35139533D01*
X45131613Y-35300305D01*
X45041394Y-35477367D01*
X45041393Y-35477370D01*
X44979987Y-35666362D01*
X44948900Y-35862639D01*
X44948900Y-36061360D01*
X44979987Y-36257637D01*
X45041393Y-36446629D01*
X45041394Y-36446632D01*
X45131613Y-36623694D01*
X45248419Y-36784464D01*
X45388936Y-36924981D01*
X45549706Y-37041787D01*
X45668232Y-37102179D01*
X45706180Y-37121515D01*
X45756976Y-37169490D01*
X45773771Y-37237311D01*
X45751233Y-37303446D01*
X45706180Y-37342485D01*
X45549705Y-37422213D01*
X45388933Y-37539021D01*
X45248421Y-37679533D01*
X45131613Y-37840305D01*
X45041394Y-38017367D01*
X45041393Y-38017370D01*
X44979987Y-38206362D01*
X44948900Y-38402639D01*
X44948900Y-38601360D01*
X44979987Y-38797637D01*
X45041393Y-38986629D01*
X45041394Y-38986632D01*
X45110291Y-39121848D01*
X45131613Y-39163694D01*
X45248419Y-39324464D01*
X45388936Y-39464981D01*
X45549706Y-39581787D01*
X45620458Y-39617837D01*
X45706180Y-39661515D01*
X45756976Y-39709490D01*
X45773771Y-39777311D01*
X45751233Y-39843446D01*
X45706180Y-39882485D01*
X45549705Y-39962213D01*
X45388933Y-40079021D01*
X45248421Y-40219533D01*
X45131613Y-40380305D01*
X45041394Y-40557367D01*
X45041393Y-40557370D01*
X44979987Y-40746362D01*
X44948900Y-40942639D01*
X44948900Y-41141360D01*
X44979987Y-41337637D01*
X45041393Y-41526629D01*
X45041394Y-41526632D01*
X45131476Y-41703425D01*
X45131613Y-41703694D01*
X45248419Y-41864464D01*
X45388936Y-42004981D01*
X45549706Y-42121787D01*
X45668232Y-42182179D01*
X45706180Y-42201515D01*
X45756976Y-42249490D01*
X45773771Y-42317311D01*
X45751233Y-42383446D01*
X45706180Y-42422485D01*
X45549705Y-42502213D01*
X45388933Y-42619021D01*
X45248421Y-42759533D01*
X45131613Y-42920305D01*
X45041394Y-43097367D01*
X45041393Y-43097370D01*
X44979987Y-43286362D01*
X44948900Y-43482639D01*
X44948900Y-43681360D01*
X44979986Y-43877636D01*
X44980531Y-43879903D01*
X44980486Y-43880790D01*
X44980749Y-43882448D01*
X44980400Y-43882503D01*
X44977038Y-43949685D01*
X44947637Y-43996526D01*
X40446786Y-48497378D01*
X40334981Y-48609182D01*
X40334977Y-48609187D01*
X40292363Y-48682999D01*
X40292363Y-48683000D01*
X40255923Y-48746114D01*
X40255923Y-48746115D01*
X40214999Y-48898843D01*
X40214999Y-48898845D01*
X40214999Y-49066946D01*
X40215000Y-49066959D01*
X40215000Y-67022069D01*
X40195315Y-67089108D01*
X40142511Y-67134863D01*
X40073353Y-67144807D01*
X40071601Y-67144542D01*
X40066000Y-67143654D01*
X40066000Y-68183263D01*
X40065536Y-68182799D01*
X39972865Y-68129295D01*
X39869504Y-68101600D01*
X39762496Y-68101600D01*
X39659135Y-68129295D01*
X39566464Y-68182799D01*
X39566000Y-68183263D01*
X39566000Y-67143655D01*
X39535357Y-67148509D01*
X39535347Y-67148512D01*
X39355941Y-67206803D01*
X39355935Y-67206805D01*
X39187848Y-67292451D01*
X39035227Y-67403337D01*
X38901837Y-67536727D01*
X38790951Y-67689348D01*
X38705306Y-67857435D01*
X38664193Y-67983967D01*
X38624755Y-68041642D01*
X38560396Y-68068840D01*
X38491550Y-68056925D01*
X38440074Y-68009681D01*
X38428333Y-67983972D01*
X38387157Y-67857244D01*
X38301477Y-67689087D01*
X38190546Y-67536404D01*
X38057096Y-67402954D01*
X37904413Y-67292023D01*
X37736256Y-67206343D01*
X37556767Y-67148023D01*
X37556765Y-67148022D01*
X37556763Y-67148022D01*
X37370368Y-67118500D01*
X37370363Y-67118500D01*
X37181637Y-67118500D01*
X37181632Y-67118500D01*
X36995229Y-67148023D01*
X36893922Y-67180939D01*
X36824081Y-67182934D01*
X36767924Y-67150689D01*
X36573590Y-66956355D01*
X36573588Y-66956352D01*
X36454717Y-66837481D01*
X36454709Y-66837475D01*
X36366375Y-66786476D01*
X36366374Y-66786476D01*
X36345838Y-66774619D01*
X36317785Y-66758423D01*
X36165057Y-66717499D01*
X36006943Y-66717499D01*
X35999347Y-66717499D01*
X35999331Y-66717500D01*
X34408664Y-66717500D01*
X34408648Y-66717499D01*
X34401052Y-66717499D01*
X34242937Y-66717499D01*
X34166573Y-66737961D01*
X34090208Y-66758423D01*
X34090203Y-66758426D01*
X33953284Y-66837475D01*
X33953276Y-66837481D01*
X33360717Y-67430040D01*
X33360714Y-67430042D01*
X33360715Y-67430043D01*
X33255978Y-67534780D01*
X33205861Y-67621588D01*
X33205859Y-67621590D01*
X33176925Y-67671703D01*
X33176924Y-67671704D01*
X33161044Y-67730966D01*
X33135999Y-67824437D01*
X33135999Y-67824439D01*
X33135999Y-67992540D01*
X33136000Y-67992553D01*
X33136000Y-69025836D01*
X33135999Y-69025854D01*
X33135999Y-69191560D01*
X33135998Y-69191560D01*
X32654900Y-69191560D01*
X32654900Y-52354059D01*
X32654901Y-52354046D01*
X32654901Y-52185945D01*
X32654901Y-52185943D01*
X32613977Y-52033215D01*
X32585039Y-51983095D01*
X32534920Y-51896284D01*
X32423116Y-51784480D01*
X32423115Y-51784479D01*
X32418785Y-51780149D01*
X32418774Y-51780139D01*
X32255162Y-51616527D01*
X32221677Y-51555204D01*
X32222243Y-51502478D01*
X32222051Y-51502448D01*
X32222257Y-51501143D01*
X32222271Y-51499891D01*
X32222809Y-51497646D01*
X32222813Y-51497636D01*
X32253900Y-51301361D01*
X32253900Y-51102639D01*
X32222813Y-50906364D01*
X32161405Y-50717368D01*
X32161405Y-50717367D01*
X32091093Y-50579374D01*
X32071187Y-50540306D01*
X31954381Y-50379536D01*
X31813864Y-50239019D01*
X31653094Y-50122213D01*
X31496618Y-50042484D01*
X31445823Y-49994510D01*
X31429028Y-49926689D01*
X31451565Y-49860554D01*
X31496618Y-49821515D01*
X31653094Y-49741787D01*
X31813864Y-49624981D01*
X31954381Y-49484464D01*
X32071187Y-49323694D01*
X32161405Y-49146632D01*
X32222813Y-48957636D01*
X32253900Y-48761361D01*
X32253900Y-48562639D01*
X32222813Y-48366364D01*
X32161405Y-48177368D01*
X32161405Y-48177367D01*
X32071186Y-48000305D01*
X31954381Y-47839536D01*
X31813864Y-47699019D01*
X31653094Y-47582213D01*
X31496618Y-47502484D01*
X31445823Y-47454510D01*
X31429028Y-47386689D01*
X31451565Y-47320554D01*
X31496618Y-47281515D01*
X31653094Y-47201787D01*
X31813864Y-47084981D01*
X31954381Y-46944464D01*
X32071187Y-46783694D01*
X32161405Y-46606632D01*
X32222813Y-46417636D01*
X32253900Y-46221361D01*
X32253900Y-46022639D01*
X32222813Y-45826364D01*
X32161405Y-45637368D01*
X32161405Y-45637367D01*
X32102367Y-45521500D01*
X32071187Y-45460306D01*
X31954381Y-45299536D01*
X31813864Y-45159019D01*
X31653094Y-45042213D01*
X31496618Y-44962484D01*
X31445823Y-44914510D01*
X31429028Y-44846689D01*
X31451565Y-44780554D01*
X31496618Y-44741515D01*
X31653094Y-44661787D01*
X31813864Y-44544981D01*
X31954381Y-44404464D01*
X32071187Y-44243694D01*
X32161405Y-44066632D01*
X32222813Y-43877636D01*
X32253900Y-43681361D01*
X32253900Y-43482639D01*
X32222813Y-43286364D01*
X32161405Y-43097368D01*
X32161405Y-43097367D01*
X32071186Y-42920305D01*
X31954381Y-42759536D01*
X31813864Y-42619019D01*
X31653094Y-42502213D01*
X31496067Y-42422203D01*
X31445272Y-42374229D01*
X31428477Y-42306408D01*
X31451014Y-42240273D01*
X31496069Y-42201234D01*
X31652822Y-42121364D01*
X31690116Y-42094268D01*
X31044248Y-41448400D01*
X31044904Y-41448400D01*
X31148265Y-41420705D01*
X31240936Y-41367201D01*
X31316601Y-41291536D01*
X31370105Y-41198865D01*
X31397800Y-41095504D01*
X31397800Y-41094847D01*
X32043668Y-41740715D01*
X32070762Y-41703425D01*
X32160942Y-41526437D01*
X32222324Y-41337523D01*
X32222324Y-41337520D01*
X32253400Y-41141321D01*
X32253400Y-40942678D01*
X32222324Y-40746479D01*
X32222324Y-40746476D01*
X32160942Y-40557562D01*
X32070758Y-40380567D01*
X32043668Y-40343283D01*
X31397800Y-40989151D01*
X31397800Y-40988496D01*
X31370105Y-40885135D01*
X31316601Y-40792464D01*
X31240936Y-40716799D01*
X31148265Y-40663295D01*
X31044904Y-40635600D01*
X31044247Y-40635600D01*
X31690116Y-39989731D01*
X31690115Y-39989730D01*
X31652832Y-39962641D01*
X31496068Y-39882765D01*
X31445272Y-39834790D01*
X31428477Y-39766969D01*
X31451015Y-39700834D01*
X31496067Y-39661796D01*
X31653094Y-39581787D01*
X31813864Y-39464981D01*
X31954381Y-39324464D01*
X32071187Y-39163694D01*
X32161405Y-38986632D01*
X32222813Y-38797636D01*
X32253900Y-38601361D01*
X32253900Y-38402639D01*
X32222813Y-38206364D01*
X32173907Y-38055845D01*
X32161406Y-38017370D01*
X32161405Y-38017367D01*
X32088254Y-37873802D01*
X32071187Y-37840306D01*
X31954381Y-37679536D01*
X31813864Y-37539019D01*
X31653094Y-37422213D01*
X31496618Y-37342484D01*
X31445823Y-37294510D01*
X31429028Y-37226689D01*
X31451565Y-37160554D01*
X31496618Y-37121515D01*
X31653094Y-37041787D01*
X31813864Y-36924981D01*
X31954381Y-36784464D01*
X32071187Y-36623694D01*
X32161405Y-36446632D01*
X32222813Y-36257636D01*
X32253900Y-36061361D01*
X32253900Y-35862639D01*
X32222813Y-35666364D01*
X32161405Y-35477368D01*
X32161405Y-35477367D01*
X32071186Y-35300305D01*
X31954381Y-35139536D01*
X31813864Y-34999019D01*
X31653094Y-34882213D01*
X31496618Y-34802484D01*
X31445823Y-34754510D01*
X31429028Y-34686689D01*
X31451565Y-34620554D01*
X31496618Y-34581515D01*
X31653094Y-34501787D01*
X31813864Y-34384981D01*
X31954381Y-34244464D01*
X32071187Y-34083694D01*
X32161405Y-33906632D01*
X32222813Y-33717636D01*
X32253900Y-33521361D01*
X32253900Y-33322639D01*
X32222813Y-33126364D01*
X32192109Y-33031866D01*
X32161406Y-32937370D01*
X32161405Y-32937367D01*
X32115435Y-32847149D01*
X32071187Y-32760306D01*
X31954381Y-32599536D01*
X31813864Y-32459019D01*
X31653094Y-32342213D01*
X31476032Y-32251994D01*
X31476029Y-32251993D01*
X31287037Y-32190587D01*
X31188898Y-32175043D01*
X31090761Y-32159500D01*
X30892039Y-32159500D01*
X30826614Y-32169862D01*
X30695762Y-32190587D01*
X30506770Y-32251993D01*
X30506767Y-32251994D01*
X30329705Y-32342213D01*
X30168933Y-32459021D01*
X30028421Y-32599533D01*
X29911613Y-32760305D01*
X29821394Y-32937367D01*
X29821393Y-32937370D01*
X29759987Y-33126362D01*
X29759987Y-33126364D01*
X29728900Y-33322639D01*
X29000500Y-33322639D01*
X29000500Y-30009585D01*
X29000558Y-30005783D01*
X29000971Y-29992330D01*
X29004553Y-29875533D01*
X29005052Y-29867599D01*
X29005795Y-29859788D01*
X29015487Y-29757887D01*
X29016552Y-29749646D01*
X29032892Y-29649838D01*
X29034596Y-29641320D01*
X29053250Y-29562571D01*
X29057106Y-29549531D01*
X29116820Y-29381973D01*
X29124545Y-29364627D01*
X29128621Y-29357088D01*
X29196316Y-29231873D01*
X29206793Y-29215659D01*
X29295540Y-29099312D01*
X29308209Y-29085113D01*
X29315150Y-29078443D01*
X29417885Y-28979716D01*
X29431870Y-28968124D01*
X29567649Y-28871463D01*
X29582091Y-28862605D01*
X29748120Y-28775798D01*
X29762307Y-28769480D01*
X29959032Y-28696289D01*
X29972550Y-28692122D01*
X30191737Y-28638051D01*
X30204414Y-28635617D01*
X30417955Y-28606050D01*
X30428286Y-28605060D01*
X30502077Y-28601107D01*
X30510085Y-28600678D01*
X30516718Y-28600500D01*
X141969057Y-28600500D01*
X141981315Y-28601107D01*
G37*
%TD.AperFunction*%
%TD*%
M02*
