M48
; DRILL file {KiCad 9.0.5} date 2025-10-15T11:26:40+0200
; FORMAT={-:-/ absolute / metric / decimal}
; #@! TF.CreationDate,2025-10-15T11:26:40+02:00
; #@! TF.GenerationSoftware,Kicad,Pcbnew,9.0.5
; #@! TF.FileFunction,Plated,1,2,PTH
FMAT,2
METRIC
; #@! TA.AperFunction,Plated,PTH,ViaDrill
T1C0.300
; #@! TA.AperFunction,Plated,PTH,ViaDrill
T2C0.400
; #@! TA.AperFunction,Plated,PTH,ComponentDrill
T3C0.813
%
G90
G05
T1
X31.5Y-78.0
X31.5Y-83.5
X31.5Y-95.0
X31.6Y-89.44
X32.0Y-70.5
X35.65Y-78.0
X35.65Y-83.5
X35.65Y-95.0
X35.75Y-89.44
X39.8Y-78.0
X39.8Y-83.5
X39.8Y-95.0
X39.9Y-89.44
X43.95Y-78.0
X43.95Y-83.5
X43.95Y-95.0
X44.05Y-89.44
X48.1Y-78.0
X48.1Y-83.5
X48.1Y-95.0
X48.2Y-89.44
T2
X57.55Y-39.2
X57.55Y-56.8
X57.55Y-74.4
X57.55Y-92.0
X76.55Y-39.2
X76.55Y-56.8
X76.55Y-74.4
X76.55Y-92.0
X95.55Y-39.2
X95.55Y-56.8
X95.55Y-74.4
X95.55Y-92.0
X114.55Y-39.2
X114.55Y-56.8
X114.55Y-74.4
X114.55Y-92.0
X133.55Y-39.2
X133.55Y-56.8
X133.55Y-74.4
X133.55Y-92.0
T3
X30.991Y-33.422
X30.991Y-35.962
X30.991Y-38.502
X30.991Y-41.042
X30.991Y-43.582
X30.991Y-46.122
X30.991Y-48.662
X30.991Y-51.202
X30.991Y-53.742
X30.991Y-56.282
X30.991Y-58.822
X30.991Y-61.362
X34.736Y-68.508
X37.276Y-68.508
X39.816Y-68.508
X42.356Y-68.508
X46.211Y-33.422
X46.211Y-35.962
X46.211Y-38.502
X46.211Y-41.042
X46.211Y-43.582
X46.211Y-46.122
X46.211Y-48.662
X46.211Y-51.202
X46.211Y-53.742
X46.211Y-56.282
X46.211Y-58.822
X46.211Y-61.362
X46.212Y-65.761
X46.212Y-72.261
M30
